<svg id="Layer_1" data-name="Layer 1" xmlns="http://www.w3.org/2000/svg" xmlns:xlink="http://www.w3.org/1999/xlink" viewBox="0 0 500.57415 81.48821"><defs><style>.cls-1{fill:#383838;}.cls-2{fill:url(#radial-gradient);}.cls-3{fill:url(#radial-gradient-2);}</style><radialGradient id="radial-gradient" cx="71.44172" cy="58.79058" r="63.73323" gradientTransform="translate(56.29459 146.39259) rotate(-116.71465) scale(1 0.9)" gradientUnits="userSpaceOnUse"><stop offset="0" stop-color="#464646"/><stop offset="0.24563" stop-color="#606060"/><stop offset="0.40369" stop-color="#6b6b6b"/><stop offset="0.61346" stop-color="#717171"/><stop offset="1" stop-color="#757575"/><stop offset="1" stop-color="#707070"/><stop offset="1" stop-color="#626262"/><stop offset="1" stop-color="#4e4e4e"/></radialGradient><radialGradient id="radial-gradient-2" cx="71.44172" cy="58.79058" r="63.73323" gradientUnits="userSpaceOnUse"><stop offset="0" stop-color="#4e4e4e"/><stop offset="0" stop-color="#626262"/><stop offset="0" stop-color="#707070"/><stop offset="0" stop-color="#757575"/><stop offset="0.38654" stop-color="#717171"/><stop offset="0.59631" stop-color="#6b6b6b"/><stop offset="0.75437" stop-color="#606060"/><stop offset="1" stop-color="#464646"/></radialGradient></defs><title>cloudgrey3</title><path class="cls-1" d="M109.43126,42.19867v-.11475c0-11.35986,8.49121-20.769,20.08008-20.769,7.17187,0,11.47461,2.63916,15.60547,6.42578l-2.12256,2.18018c-3.49951-3.38526-7.51611-5.90967-13.54-5.90967-9.63867,0-16.92529,7.86035-16.92529,17.958v.11474c0,10.15479,7.40137,18.07276,16.98242,18.07276,5.79492,0,9.75391-2.2378,13.82715-6.25391l2.00781,1.95068c-4.24512,4.188-8.835,6.99951-15.94922,6.99951C117.92247,62.853,109.43126,53.73089,109.43126,42.19867Z"/><path class="cls-1" d="M153.84142,22.00335h2.9834V59.41058h23.58007v2.75391H153.84142Z"/><path class="cls-1" d="M184.4254,42.19867v-.11475c0-10.95849,8.08936-20.769,20.25244-20.769S224.816,31.01117,224.816,41.96918v.11474c0,10.9585-8.08985,20.769-20.25293,20.769S184.4254,53.15668,184.4254,42.19867Zm37.292,0v-.11475c0-9.92529-7.22851-18.07275-17.15429-18.07275s-17.04,8.03222-17.04,17.958v.11474c0,9.92529,7.22949,18.07276,17.15478,18.07276S221.71739,52.12445,221.71739,42.19867Z"/><path class="cls-1" d="M234.34337,45.46918V22.00335h2.9834V45.18207c0,9.46679,5.10644,14.917,13.59766,14.917,8.14648,0,13.36816-4.93408,13.36816-14.62988V22.00335h2.9834v23.1211c0,11.53223-6.71289,17.6709-16.4668,17.6709C241.171,62.79535,234.34337,56.71429,234.34337,45.46918Z"/><path class="cls-1" d="M278.58263,22.00335h13.36816c12.62207,0,21.34278,8.66309,21.34278,19.96583v.11474c0,11.30225-8.72071,20.08057-21.34278,20.08057H278.58263Zm2.9834,2.75391V59.41058h10.38476c11.1875,0,18.24414-7.63086,18.24414-17.21191v-.11475c0-9.52392-7.05664-17.32666-18.24414-17.32666Z"/><path class="cls-1" d="M320.526,42.19867v-.11475a20.61281,20.61281,0,0,1,21.05566-20.769c7.22949,0,11.58887,1.95068,15.77735,5.50781l-5.56543,6.71289c-3.09766-2.582-5.85157-4.07373-10.499-4.07373-6.42578,0-11.53222,5.68018-11.53222,12.50733v.11474c0,7.34375,5.04882,12.73682,12.16406,12.73682a14.09516,14.09516,0,0,0,8.31836-2.40967V46.67376h-8.89258V39.04339h17.44141V56.4848a26.068,26.068,0,0,1-17.1543,6.36816C329.13146,62.853,320.526,54.07464,320.526,42.19867Z"/><path class="cls-1" d="M367.28966,22.00335H385.649c5.10644,0,9.06445,1.43458,11.7041,4.07325a12.60862,12.60862,0,0,1,3.44238,9.17968v.11524c0,6.48291-3.5,10.55664-8.60547,12.44971l9.81055,14.34326H391.67345L383.067,49.31293h-6.9414V62.16449h-8.83594Zm17.78516,19.50684c4.30371,0,6.7705-2.29492,6.7705-5.67969v-.11523c0-3.78613-2.63964-5.73731-6.94238-5.73731H376.1256V41.51019Z"/><path class="cls-1" d="M408.77306,22.00335h30.293v7.86036H417.55138v8.14648H436.484v7.86035H417.55138v8.4336h21.80176v7.86035H408.77306Z"/><path class="cls-1" d="M458.52013,46.32953,443.08654,22.00335h10.32714l9.58106,16.12208,9.7539-16.12208h10.04l-15.43359,24.1543V62.16449h-8.835Z"/><g id="lHy0rJ.tif"><path class="cls-2" d="M69.21,61.78917a10.74413,10.74413,0,0,0,4.65229.85951A11.96757,11.96757,0,0,0,85.58244,51.92486a11.98166,11.98166,0,0,0-23.71506-3.33471c-.25169,1.40226-.13818,2.8226-.30823,4.22909A21.43426,21.43426,0,0,1,39.02883,71.87236a21.29073,21.29073,0,0,1-19.536-16.47882c-1.8212-8.86045.8413-16.20628,7.90475-21.90625a19.06433,19.06433,0,0,1,3.54375-2.19207c.38173-.1892.56489-.20143.57957.325a25.4559,25.4559,0,0,0,1.78388,8.64239c.13521.34457.03195.48961-.22262.69034a11.86739,11.86739,0,0,0-4.74541,10.55617,11.9809,11.9809,0,0,0,23.73575,1.08864c.27838-1.39748.13577-2.82227.31217-4.228A21.38231,21.38231,0,1,1,78.3286,71.50885a20.95712,20.95712,0,0,1-17.13419-3.46711c-.33566-.23373-.34114-.38507-.08879-.70356a26.81318,26.81318,0,0,0,5.64829-13.283,14.10905,14.10905,0,0,0,.18032-2.73295,1.08664,1.08664,0,0,1,.36172-.92129q1.364-1.31541,2.68242-2.6777c.25214-.259.41549-.28089.68352-.01026q2.96619,2.99495,5.96383,5.95861c.32412.31949.18942.47466-.06047.72323q-3.52126,3.50278-7.02411,7.02405C69.45019,61.50994,69.369,61.61071,69.21,61.78917Z"/></g><path class="cls-3" d="M47.0132,49.0303a17.2791,17.2791,0,0,1-2.93227-2.12767A21.38632,21.38632,0,1,1,78.4153,23.9066c.13285.38011.20632.6201-.3629.51647a25.837,25.837,0,0,0-9.15881.062.675.675,0,0,1-.78838-.33846c-2.96759-4.13673-7.017-6.001-12.01714-5.10133a11.37718,11.37718,0,0,0-9.60663,9.22539,11.46266,11.46266,0,0,0,2.75521,10.50363c.22925.2668.37607.46287.19758.84982a25.90847,25.90847,0,0,0-2.316,8.78666C47.10272,48.59966,47.05552,48.786,47.0132,49.0303Z"/></svg>