<svg width="96" height="24" xmlns="http://www.w3.org/2000/svg">

 <g>
  <title>background</title>
  <rect fill="none" id="canvas_background" height="402" width="582" y="-1" x="-1"/>
 </g>
 <g>
  <title>Layer 1</title>
  <path id="svg_1" fill="black" d="m46.6033,5.09782c1.4733,0 2.6676,-1.13304 2.6676,-2.53072c0,-1.39768 -1.1943,-2.53072 -2.6676,-2.53072c-1.4732,0 -2.6675,1.13304 -2.6675,2.53072c0,1.39768 1.1943,2.53072 2.6675,2.53072z"/>
  <path id="svg_2" fill="black" d="m44.5757,8.58779l0,14.41671c0,0.7796 1.0501,0.9835 2.1002,0.9835c1.0501,0 2.1003,-0.2039 2.1003,-0.9835l0,-14.41671c0,-1.04347 -1.0502,-1.1874 -2.1003,-1.1874c-1.038,0 -2.1002,0.14393 -2.1002,1.1874z"/>
  <path id="svg_3" fill="black" d="m53.3994,1.1874l0,21.817c0,0.7796 1.0501,0.9835 2.1002,0.9835c1.0502,0 2.1003,-0.2039 2.1003,-0.9835l0,-21.817c0,-1.04347 -1.0501,-1.1874 -2.1003,-1.1874c-1.038,0 -2.1002,0.14393 -2.1002,1.1874z"/>
  <path id="svg_4" fill="black" d="m23.2344,15.4243c0,-4.5337 3.6452,-8.57567 8.9079,-8.57567c5.2385,0 8.9682,3.96997 8.9682,8.55167c0,4.9295 -4.1401,8.5997 -8.92,8.5997c-5.2988,-0.012 -8.9561,-4.054 -8.9561,-8.5757zm8.8958,5.0734c2.8003,0 4.9005,-2.2908 4.9005,-5.1094c0,-2.8186 -2.1002,-5.0494 -4.9005,-5.0494c-2.8003,0 -4.8643,2.2668 -4.8643,5.0854c0,2.8186 2.064,5.0734 4.8643,5.0734z"/>
  <path id="svg_5" fill="black" d="m20.8213,19.5709c0,2.1949 -5.154,4.4138 -8.7389,4.4138c-4.39362,0 -8.50959,-2.3389 -10.60982,-6.105c-0.98977,-1.7511 -1.47258,-3.7421 -1.47258,-5.7331c0,-2.3148 0.66387,-4.62963 1.96746,-6.60863c1.03805,-1.5832 3.00551,-3.69414 6.46968,-4.82157c0.86906,-0.28785 2.43816,-0.69565 4.20046,-0.69565c4.9488,0 8.063,3.44227 8.063,6.45275c0,2.06296 -1.6899,5.0015 -5.83,5.0015c-1.895,0 -2.5348,-0.7916 -2.5348,-1.70317c0,-1.22338 1.1467,-2.65066 1.9796,-2.65066c0.35,0 0.5673,0.34783 1.2432,0.25187c0.6639,-0.09595 1.0139,-0.53972 1.0139,-1.09145c0,-1.04347 -1.2432,-2.43477 -3.8866,-2.43477c-0.8449,0 -1.8347,0.14393 -2.98138,0.49175c-2.35371,0.70765 -3.64523,2.3868 -4.33324,3.43027c-0.86906,1.31934 -1.30359,2.86656 -1.30359,4.38976c0,1.3074 0.3259,2.6147 0.96563,3.7661c1.38808,2.4708 4.11597,4.018 7.04908,4.018c4.0435,0 5.1781,-2.1589 5.9989,-2.5067c1.4485,-0.6357 2.74,1.1034 2.74,2.1349z"/>
 </g>
</svg>