<svg id="svg68" xmlns="http://www.w3.org/2000/svg" xmlns:xlink="http://www.w3.org/1999/xlink" viewBox="0 0 500 554.68054"><defs><style>.cls-1{fill:none;}.cls-2{clip-path:url(#clip-path);}.cls-3{fill:#fff;}.cls-4{fill:#bbe2da;}.cls-5{fill:#ecd9d9;}.cls-6{fill:#fcddd1;}.cls-7{fill:#f9e1c1;}.cls-8{fill:#e7edd7;}.cls-9{fill:#9ec7d0;}.cls-10{fill:#90d1c2;}.cls-11{fill:#f2b3bc;}.cls-12{fill:#fbc9b4;}.cls-13{fill:#f1dda6;}.cls-14{fill:#978ba4;}.cls-15{fill:#56c3c1;}.cls-16{fill:#81c88e;}.cls-17{fill:#f49398;}.cls-18{fill:#f9bd89;}.cls-19{fill:#835677;}.cls-20{fill:#51797c;}.cls-21{fill:#489789;}.cls-22{fill:#6e985f;}.cls-23{fill:#f37f64;}</style><clipPath id="clip-path"><rect class="cls-1" x="-0.57368" y="-15.90322" width="500.57369" height="495.49172"/></clipPath></defs><title>interledgerjs</title><g class="cls-2"><g id="g46"><g id="g44"><path id="path2" class="cls-3" d="M388.45087,263.35084c9.65574-29.7295,5.84427-63.27049,0-91.98361-12.19673-26.17211-27.44263-53.86883-52.34427-71.90981-25.40983-18.54919-57.68031-24.90164-86.64752-28.20492C220.746,74.80988,189.746,79.63774,164.59023,97.67873c-25.40983,18.54918-41.418,48.27868-53.61474,74.7049-5.59016,28.459-9.65573,61.49181,0,90.96719,9.65574,29.72949,32.01639,52.34427,53.61474,71.90983,25.15574,13.97541,53.86884,27.6967,84.86885,27.6967,31.2541,0,61.23769-13.72129,86.64752-28.20493,21.09017-19.56556,42.9426-41.92622,52.34427-71.40162Z"/><path id="path4" class="cls-4" d="M249.96726,357.3672a171.96165,171.96165,0,0,1-85.12293-22.10655c1.01639,19.81968,39.38524,43.19671,85.88522,43.19671s82.83607-28.71311,85.63112-43.7049a175.17788,175.17788,0,0,1-86.39342,22.61474Z"/><path id="path6" class="cls-5" d="M164.59023,335.51476a177.22018,177.22018,0,0,1-48.27868-74.959,173.42006,173.42006,0,0,1-5.33606-87.918c-17.02459,4.06557-25.918,61.49179-14.48361,95.03278S147.81975,342.62952,164.59023,335.51476Z"/><path id="path8" class="cls-6" d="M167.6394,103.523A174.497,174.497,0,0,1,249.45908,71.2525c-13.97541-12.19672-70.38525-3.30328-95.03278,15.5s-53.36065,68.09834-43.45081,85.63113A175.30507,175.30507,0,0,1,167.6394,103.523Z"/><path id="path10" class="cls-7" d="M249.45908,71.2525a174.138,174.138,0,0,1,83.09016,32.52458c24.90164,18.29508,43.959,41.67213,55.90163,67.84427,10.418-17.78689-12.959-65.04917-43.959-85.377S257.33612,60.32628,249.45908,71.2525Z"/><path id="path12" class="cls-8" d="M388.45087,171.62135A175.44372,175.44372,0,0,1,336.1066,334.75246c24.13934,2.28687,57.42623-29.7295,67.59017-68.35245S403.44265,173.65412,388.45087,171.62135Z"/><path id="path14" class="cls-9" d="M96.49188,267.6705c-10.16393,12.959,2.79508,67.33607,46.2459,98.33606s98.33606,24.13934,107.73769,12.959a176.02673,176.02673,0,0,1-85.88524-43.19675A180.655,180.655,0,0,1,96.49188,267.6705Z"/><path id="path16" class="cls-10" d="M403.69677,266.6541a178.23238,178.23238,0,0,1-67.59017,68.35244,177.10833,177.10833,0,0,1-85.63113,43.7049c11.43443,13.97541,73.94261,6.86065,107.73771-13.46722,33.79509-20.582,52.09016-81.05737,45.48359-98.59016Z"/><path id="path18" class="cls-11" d="M110.97549,172.38363A178.628,178.628,0,0,1,154.4263,86.4984c-22.86885-8.38524-65.81147,29.72951-79.27868,74.19671s-2.541,95.79506,21.09016,106.4672a179.26281,179.26281,0,0,1,14.7377-94.77866Z"/><path id="path20" class="cls-12" d="M249.45908,71.2525a177.10935,177.10935,0,0,1,95.03277,14.99181c9.65575-18.29509-52.09015-52.34426-95.03277-52.34426S155.4427,63.62955,154.6804,87.0066A171.98156,171.98156,0,0,1,249.45908,71.2525Z"/><path id="path22" class="cls-13" d="M403.69677,266.6541c20.582-4.06557,35.82788-54.88523,20.32786-106.72129S361.00824,80.90823,344.23778,86.2443a175.6625,175.6625,0,0,1,43.959,85.377,172.34171,172.34171,0,0,1,15.5,95.03277Z"/><path id="path24" class="cls-14" d="M142.73778,365.75245a184.6632,184.6632,0,0,1-13.97541-17.02458,175.38162,175.38162,0,0,1-32.27049-81.31146,175.04583,175.04583,0,0,1-22.36065-85.88524,187.23025,187.23025,0,0,1,1.2705-20.83606c-16.51639,4.57378-36.33606,70.63934-18.29508,119.42621S127.23779,368.54754,142.73778,365.75245Z"/><path id="path26" class="cls-15" d="M358.21314,365.24426a199.34075,199.34075,0,0,1-20.32786,8.13114,177.33983,177.33983,0,0,1-87.40983,5.59015,175.3834,175.3834,0,0,1-88.42621-5.33608c-6.60655-2.28687-13.21311-4.82785-19.31147-7.623,7.62295,23.88523,47.00818,54.377,107.99178,54.377s96.30325-30.23769,107.48359-55.13933Z"/><path id="path28" class="cls-16" d="M424.27871,159.93281a155.337,155.337,0,0,1,1.27049,21.85245,174.25048,174.25048,0,0,1-21.85247,84.86884,173.536,173.536,0,0,1-32.27048,82.582,200.8776,200.8776,0,0,1-13.21311,16.0082c28.20493,1.77868,69.877-29.22131,85.12294-85.88524S439.52461,166.79346,424.27871,159.93281Z"/><path id="path30" class="cls-17" d="M75.40172,160.94921A205.45512,205.45512,0,0,1,87.09025,142.4,175.14838,175.14838,0,0,1,154.4263,86.4984a175.38614,175.38614,0,0,1,74.70491-47.77048A195.33126,195.33126,0,0,1,249.205,33.39185C225.31974,21.44923,167.13122,28.564,129.77876,52.95742S68.54107,138.08036,75.40172,160.94921Z"/><path id="path32" class="cls-18" d="M249.45908,33.646a165.21415,165.21415,0,0,1,21.34426,5.59017A172.8829,172.8829,0,0,1,344.746,86.24431,177.234,177.234,0,0,1,413.35251,142.4a157.5183,157.5183,0,0,1,11.18031,17.53279c10.67212-20.582-21.85247-82.07376-55.39344-107.48359S274.3607,22.46564,249.45908,33.646Z"/><path id="path34" class="cls-19" d="M75.40172,160.94921A176.43942,176.43942,0,0,1,130.03287,53.21152a175.84626,175.84626,0,0,0-72.92622,227.418A175.2197,175.2197,0,0,1,75.40172,160.94921Z"/><path id="path36" class="cls-20" d="M142.73778,365.75245a173.90463,173.90463,0,0,1-85.63113-85.377A175.55449,175.55449,0,0,0,250.72957,420.12947,173.6088,173.6088,0,0,1,142.73778,365.75245Z"/><path id="path38" class="cls-21" d="M358.21314,365.24426a176.63933,176.63933,0,0,1-107.48359,55.13933A175.36888,175.36888,0,0,0,443.33608,279.61313,177.48652,177.48652,0,0,1,358.21314,365.24426Z"/><path id="path40" class="cls-22" d="M424.27871,159.93281A174.69052,174.69052,0,0,1,443.33608,279.359,175.81176,175.81176,0,0,0,368.88527,52.44923,176.0265,176.0265,0,0,1,424.27871,159.93281Z"/><path id="path42" class="cls-23" d="M249.45908,33.646A174.265,174.265,0,0,1,368.88527,52.44923c-31.50818-28.71311-73.18031-46.5-118.918-46.5A173.76288,173.76288,0,0,0,130.287,53.21152,174.7839,174.7839,0,0,1,249.45908,33.646Z"/></g></g></g><path d="M19.98828,531.70312H8.165V474.75H19.98828Z"/><path d="M64.189,492.002q4.136,3.42042,4.13624,11.34082v28.36035H57.043V506.08594a11.76561,11.76561,0,0,0-.88233-5.10059q-1.612-3.24462-6.13671-3.24512-5.562,0-7.63282,4.752a16.42739,16.42739,0,0,0-1.07422,6.41406v22.79687H30.30518V489.665H40.96924v6.14258a18.66855,18.66855,0,0,1,4.00146-4.67481,13.86324,13.86324,0,0,1,8.58008-2.5498A16.14509,16.14509,0,0,1,64.189,492.002Z"/><path d="M74.23682,497.81738v-7.84375h5.873V478.22754h10.896v11.74609h6.83887v7.84375H91.00586v22.25586q0,2.58838.65674,3.22559.65625.63867,4.01855.63769.5017,0,1.0625-.01855.55957-.019,1.10108-.05859v8.23046l-5.21631.19239q-7.8047.271-10.66406-2.70411-1.85449-1.89256-1.8545-5.835V497.81738Z"/><path d="M132.35986,490.44043a17.13219,17.13219,0,0,1,7.27784,6.23047,20.69069,20.69069,0,0,1,3.35546,8.707,53.77755,53.77755,0,0,1,.3628,8.3584H112.68213q.25635,6.33692,4.4043,8.88672a11.18126,11.18126,0,0,0,6.07128,1.584,8.55166,8.55166,0,0,0,8.38086-4.8291h11.24268q-.44459,3.74708-4.082,7.61133-5.65943,6.14355-15.84522,6.14355a22.95912,22.95912,0,0,1-14.83447-5.18164q-6.427-5.18262-6.42676-16.86133,0-10.94383,5.80176-16.7832,5.80152-5.83887,15.06055-5.83984A23.97921,23.97921,0,0,1,132.35986,490.44043Zm-16.47363,9.51269a11.44089,11.44089,0,0,0-2.93359,6.51954h18.97119a9.18771,9.18771,0,0,0-2.93311-6.65528,9.65107,9.65107,0,0,0-6.53125-2.2705A8.73485,8.73485,0,0,0,115.88623,499.95312Z"/><path d="M172.32031,488.60156q.21168.02051.94629.0586v11.28222q-1.043-.11573-1.85449-.15429-.81153-.03809-1.314-.03907-6.646,0-8.92529,4.32813-1.27515,2.43311-1.2749,7.49512v20.13085H148.80859V489.58691h10.50977v7.3418a23.28153,23.28153,0,0,1,4.44336-5.75683,12.0966,12.0966,0,0,1,8.03662-2.58887C172.00439,488.583,172.17822,488.58887,172.32031,488.60156Z"/><path d="M190.96338,531.70312H179.95117V474.75h11.01221Z"/><path d="M229.14893,490.44043a17.13217,17.13217,0,0,1,7.27783,6.23047,20.6907,20.6907,0,0,1,3.35547,8.707,53.77779,53.77779,0,0,1,.36279,8.3584H209.47119q.25635,6.33692,4.4043,8.88672a11.18128,11.18128,0,0,0,6.07129,1.584,8.55169,8.55169,0,0,0,8.38086-4.8291h11.24267q-.44457,3.74708-4.082,7.61133-5.65943,6.14355-15.84521,6.14355a22.95914,22.95914,0,0,1-14.83448-5.18164q-6.427-5.18262-6.42675-16.86133,0-10.94383,5.80175-16.7832,5.80152-5.83887,15.06055-5.83984A23.97926,23.97926,0,0,1,229.14893,490.44043Zm-16.47364,9.51269a11.44089,11.44089,0,0,0-2.93359,6.51954h18.97119a9.18767,9.18767,0,0,0-2.9331-6.65528,9.65109,9.65109,0,0,0-6.53125-2.2705A8.73488,8.73488,0,0,0,212.67529,499.95312Z"/><path d="M268.04688,490.26367A13.387,13.387,0,0,1,272.877,494.919v-20.0918h11.166v56.876H273.33984v-5.834a15.51767,15.51767,0,0,1-5.37109,5.44727,15.07037,15.07037,0,0,1-7.49609,1.70019,15.64463,15.64463,0,0,1-12.4209-5.96972q-5.04273-5.96925-5.04248-15.31934,0-10.78125,4.96533-16.96289a16.14908,16.14908,0,0,1,13.27148-6.18164A13.58,13.58,0,0,1,268.04688,490.26367ZM270.752,520.2666a15.362,15.362,0,0,0,2.4336-9.00293q0-7.72706-3.90235-11.05078a8.40554,8.40554,0,0,0-5.56445-2.00879,7.73454,7.73454,0,0,0-7.08984,3.65039,16.91147,16.91147,0,0,0-2.25977,9.06153q0,5.83446,2.29883,9.33105a7.77611,7.77611,0,0,0,6.97461,3.49609A8.13367,8.13367,0,0,0,270.752,520.2666Z"/><path d="M314.88477,489.54883a13.22221,13.22221,0,0,1,6.48242,6.10449v-6.06641H332.1084v39.95215q0,8.15185-2.74317,12.28711-4.71385,7.10889-18.082,7.10938-8.07714,0-13.17578-3.168a11.69011,11.69011,0,0,1-5.6416-9.4668h11.97754a4.9619,4.9619,0,0,0,1.50684,2.78223q1.77686,1.50732,5.98925,1.50683,5.9502,0,7.96-3.97949,1.3125-2.55029,1.31348-8.57812v-2.70411a13.43277,13.43277,0,0,1-3.40039,4.05665,13.6702,13.6702,0,0,1-8.53906,2.51171,16.15745,16.15745,0,0,1-12.96289-5.69921q-4.8501-5.69971-4.84961-15.43653,0-9.38818,4.66992-15.7832,4.66845-6.394,13.23535-6.39453A14.48575,14.48575,0,0,1,314.88477,489.54883Zm3.75,30.19531q2.65575-2.91651,2.65527-9.292,0-5.98828-2.52051-9.11914a8.22345,8.22345,0,0,0-6.75195-3.12891,7.95747,7.95747,0,0,0-7.96485,5.44727,19.39979,19.39979,0,0,0-1.15429,7.14843,16.38183,16.38183,0,0,0,1.23047,6.53028,8.02555,8.02555,0,0,0,8.0039,5.332A8.45433,8.45433,0,0,0,318.63477,519.74414Z"/><path d="M369.83105,490.44043a17.1363,17.1363,0,0,1,7.27833,6.23047,20.71014,20.71014,0,0,1,3.35546,8.707,53.85031,53.85031,0,0,1,.36231,8.3584H350.15332q.25635,6.33692,4.4043,8.88672a11.18013,11.18013,0,0,0,6.07129,1.584,8.55329,8.55329,0,0,0,8.38086-4.8291h11.24316q-.44532,3.74708-4.083,7.61133-5.65869,6.14355-15.84472,6.14355a22.96234,22.96234,0,0,1-14.835-5.18164q-6.42627-5.18262-6.42578-16.86133,0-10.94383,5.80176-16.7832,5.80079-5.83887,15.06055-5.83984A23.97851,23.97851,0,0,1,369.83105,490.44043Zm-16.47363,9.51269a11.44089,11.44089,0,0,0-2.93359,6.51954h18.97168a9.18987,9.18987,0,0,0-2.9336-6.65528,9.65019,9.65019,0,0,0-6.53125-2.2705A8.73413,8.73413,0,0,0,353.35742,499.95312Z"/><path d="M409.791,488.60156q.2124.02051.94726.0586v11.28222q-1.04443-.11573-1.85547-.15429-.81006-.03809-1.31347-.03907-6.646,0-8.92481,4.32813-1.27587,2.43311-1.27539,7.49512v20.13085H386.28027V489.58691h10.50879v7.3418a23.29359,23.29359,0,0,1,4.44336-5.75683,12.09706,12.09706,0,0,1,8.03711-2.58887C409.47559,488.583,409.64941,488.58887,409.791,488.60156Z"/><path d="M412.66992,520.15039h11.708v11.55273h-11.708Z"/><path d="M430.05664,539.77832q.92724.07764,1.31348.09668c.25781.0127.48926.01953.69629.01953a3.43244,3.43244,0,0,0,2.45312-.792,4.25987,4.25987,0,0,0,.83106-3.07227v-46.25H446.3623v46.44336q0,6.375-2.51171,9.42774-2.51222,3.05272-9.85254,3.05273-.50244,0-1.48731-.03906-.98583-.03809-2.4541-.07715Zm16.30566-55.21387H435.35059V474.40234H446.3623Z"/><path d="M465.37207,518.25684a7.335,7.335,0,0,0,1.51465,4.17285q2.05663,2.20313,7.60937,2.20215a11.63893,11.63893,0,0,0,5.18262-.96582,3.2354,3.2354,0,0,0,.374-5.71778q-1.54833-.96533-11.5205-3.32324-7.17921-1.77686-10.11524-4.44336-2.93554-2.62793-2.93652-7.57324a13.121,13.121,0,0,1,4.58887-10.02637q4.58788-4.19238,12.91308-4.19238,7.8999,0,12.875,3.14844,4.97462,3.15087,5.71192,10.87695H480.55762a6.50935,6.50935,0,0,0-1.20117-3.36133q-1.82227-2.23974-6.19922-2.24121-3.60352,0-5.13379,1.12109a3.22146,3.22146,0,0,0-1.53028,2.627,2.87306,2.87306,0,0,0,1.627,2.74316q1.62744.88915,11.498,3.05274,6.58008,1.54541,9.86426,4.6748a10.61461,10.61461,0,0,1,3.2461,7.9209,12.78713,12.78713,0,0,1-4.666,10.21973q-4.66553,3.96093-14.4209,3.96093-9.95068,0-14.69336-4.19238a13.62618,13.62618,0,0,1-4.74219-10.68359Z"/></svg>