<?xml version="1.0" standalone="yes"?>
<svg xmlns="http://www.w3.org/2000/svg" width="120" height="120">
<path style="fill:#fefefe; stroke:none;" d="M0 0L0 120L120 120L120 0L0 0z"/>
<path style="fill:#565656; stroke:none;" d="M15 49C14.3456 45.9461 12.9934 46.0642 10 46L10 75L15 75C15 68.5724 11.9653 48.9605 22.9961 49.7122C32.9024 50.3872 30 68.6011 30 75L35 75C35 65.5161 37.977 40.636 21.0046 45.6489C18.7184 46.3242 16.918 47.6517 15 49M72 49C71.3456 45.9461 69.9934 46.0642 67 46L67 75L72 75C72 68.9109 70.2483 59.5501 73.3179 54.0941C75.1757 50.7922 79.2533 48.2663 82.7716 50.7608C88.6168 54.9051 86 68.7311 86 75L91 75C91 68.7565 89.3639 59.7377 92.4568 54.0941C94.2755 50.7754 98.2426 48.2587 101.772 50.7608C107.617 54.9051 105 68.7311 105 75L110 75C110 67.9047 111.511 58.8093 109.347 52.0039C106.123 41.8632 95.3401 44.7138 90 51C85.7182 43.1981 78.4497 44.466 72 49M37 46C39.3096 55.9785 44.3072 65.1346 47 75C49.0913 74.9752 51.6788 75.254 53.4915 73.9722C55.8165 72.3282 56.6239 68.5216 57.5764 66C60.0861 59.3559 62.7244 52.7264 65 46C55.6854 46.7195 53.8675 61.5666 51 69C47.3781 62.1278 46.0289 46.7196 37 46z"/>
</svg>
