<svg id="Layer_1" data-name="Layer 1" xmlns="http://www.w3.org/2000/svg" viewBox="0 0 504 184.18568"><defs><style>.cls-1{fill:#4d4d4d;}</style></defs><title>nvm</title><path class="cls-1" d="M15.76726,59.9036c0-14.295-.287-26.01474-1.14418-37.45112H36.92194l1.42933,22.871h.57209C45.783,32.17259,61.79251,19.30869,84.66347,19.30869c19.15327,0,48.88389,11.43458,48.88389,58.891V160.817H108.38985V81.05829c0-22.29887-8.29079-40.88006-32.01717-40.88006-16.58158,0-29.44548,11.71972-33.73345,25.7278A36.16146,36.16146,0,0,0,40.923,77.62755V160.817H15.76726Z"/><path class="cls-1" d="M171.20133,22.45248l27.15892,77.75909a355.60647,355.60647,0,0,1,11.14943,35.4479h.85724c3.14559-11.43457,7.14661-22.86915,11.72152-35.4479l26.872-77.75909h26.3017L220.94426,160.817H196.93093L144.32935,22.45248Z"/><path class="cls-1" d="M291.83812,59.9036c0-14.295-.28514-26.01474-1.14418-37.45112h22.01373l1.14057,22.29886h.859c7.72051-13.15084,20.58441-25.44265,43.45356-25.44265,18.86633,0,33.16316,11.43458,39.16559,27.72921h.57028a56.99183,56.99183,0,0,1,15.4374-18.0091c8.29079-6.28938,17.44062-9.72011,30.58966-9.72011,18.296,0,45.45316,12.00667,45.45316,60.03333v81.475H464.79331V82.48761c0-26.58683-9.72012-42.59632-30.01938-42.59632-14.29322,0-25.44265,10.57734-29.73062,22.871a41.408,41.408,0,0,0-1.9996,12.57876v85.476H378.45648V77.9127c0-22.01192-9.72011-38.02141-28.87158-38.02141-15.72255,0-27.15712,12.57875-31.15995,25.15751a34.6724,34.6724,0,0,0-2.00321,12.29181V160.817H291.83812Z"/></svg>