<svg id="Layer_1" data-name="Layer 1" xmlns="http://www.w3.org/2000/svg" viewBox="0 0 504 174.7742"><defs><style>.cls-1{fill:#f9771b;}.cls-2,.cls-3{fill:#0b69b8;}.cls-3{stroke:#fcfcfc;stroke-miterlimit:10;stroke-width:2.92368px;}.cls-4{fill:#448ecc;}.cls-5{fill:#fcfcfc;}</style></defs><title>profoundlogo</title><path class="cls-1" d="M350.45193,141.60508c-.02617-.73818-.00434-1.47784-.00434-2.21679l-.13212.00131c-.053-1.108-.14941-2.21626-.14489-3.32412.00327-.80373-.20914-1.063-1.08841-.70124a22.30065,22.30065,0,0,1-4.5977,1.21671c-6.54961,1.16794-11.57612-1.54946-13.344-7.29713-1.03975-3.38074-1.26818-6.052-.092-9.40965,1.36726-3.90294,4.12621-7.1976,8.67224-7.41743a12.46033,12.46033,0,0,1,6.12824,1.06546c.43809.16358,4.529,2.66607,4.62233,1.749.21723-2.13369.05684-6.69725.0254-8.975-.01016-.7365-.96962-.97426-1.64795-1.13373a37.06458,37.06458,0,0,0-11.90411-.88659c-7.64284.70148-13.19951,4.23212-16.10363,10.91128a23.29709,23.29709,0,0,0-.33905,17.69592c2.08124,5.7808,6.44338,9.52986,12.85648,11.04262a35.85274,35.85274,0,0,0,15.2196-.08494C350.53782,143.459,350.51546,143.40068,350.45193,141.60508Z"/><path class="cls-2" d="M185.7421,17.46551c8.06543.09221,16.175-.78839,24.16815.93673,3.96842.85647,7.56519,2.50692,10.19139,5.76044,2.84805,3.52835,3.50118,7.67319,3.15066,12.04353-.72408,9.02807-6.475,13.81481-14.89277,15.34334a52.14413,52.14413,0,0,1-10.14263.49056c-.96368-.01416-1.16975.3011-1.1647,1.20244.03537,6.31023-.00109,12.62089.04021,18.931.0061.93218-.24237,1.19318-1.1767,1.17766-3.39039-.05635-6.78228-.02221-10.17361-.0222Zm11.32908,17.31111q0,3.78135.001,7.5627c.0004.46027-.1155.953.65968.93759a40.3183,40.3183,0,0,0,6.71825-.29591c2.63585-.49692,5.00621-1.47318,6.324-4.03549a8.48989,8.48989,0,0,0-5.48134-12.25322c-2.40266-.624-4.848-.42568-7.28273-.506-.83183-.02744-.96248.308-.95253,1.02783C197.09243,29.73452,197.07108,32.25572,197.07118,34.77662Z"/><path class="cls-2" d="M483.66723,68.71435a16.43284,16.43284,0,0,1-4.6982,3.91027c-9.613,4.91953-20.46553.64918-23.8691-9.62193A31.29615,31.29615,0,0,1,455.502,41.441c2.6477-6.87059,8.35079-10.357,15.74092-10.15669A14.84618,14.84618,0,0,1,482.776,36.59252a6.05625,6.05625,0,0,0,.485.433c.02447-.5582.05785-.9668.058-1.37542.00321-6.98253.03112-13.9653-.02676-20.94735-.00936-1.12814.3429-1.35817,1.38278-1.33244,2.75976.06831,5.52287.05418,8.28344.00458.84169-.01512,1.15644.153,1.15511,1.085q-.04166,28.99529-.00624,57.99064c.00078.78773-.159,1.10464-1.02974,1.08758q-4.19975-.08228-8.4019.00013c-.87743.01739-1.06066-.312-1.02246-1.09322C483.70811,71.32225,483.66723,70.19477,483.66723,68.71435ZM464.76667,53.66108A18.02149,18.02149,0,0,0,466.271,60.829c1.40607,3.16357,3.68764,5.20973,7.295,5.29947,3.65141.09084,6.19824-1.71369,7.84642-4.89485a17.32206,17.32206,0,0,0,1.7883-6.92776,16.74943,16.74943,0,0,0-2.61612-10.93641c-3.76522-5.48121-11.18636-4.93225-14.13027,1.01195C465.16684,46.981,464.76669,49.773,464.76667,53.66108Z"/><path class="cls-2" d="M296.40271,52.8759c-.204,7.95417-3.02866,14.56067-10.29055,18.65287-7.9717,4.49218-21.23092,3.89572-28.08377-4.37775a21.225,21.225,0,0,1-4.8302-13.41269c-.15132-6.0796,1.371-11.64044,5.61726-16.20262a19.9149,19.9149,0,0,1,12.66428-6.21812c5.685-.66966,11.10131.15645,15.93487,3.41771,5.43077,3.66422,8.07838,8.978,8.7911,15.3662C296.30615,51.00176,296.336,51.9099,296.40271,52.8759Zm-11.27509-.999a15.72791,15.72791,0,0,0-.5398-4.55913c-1.27912-4.7548-4.78841-7.71863-9.30988-7.85785a9.59957,9.59957,0,0,0-10.07648,7.27262,19.28694,19.28694,0,0,0,.96371,13.95c1.63651,3.59193,4.64021,5.25428,8.52922,5.26794a8.97308,8.97308,0,0,0,8.69775-5.22464A19.60113,19.60113,0,0,0,285.12762,51.87692Z"/><path class="cls-2" d="M365.69986,52.89042C365.4834,60.88,362.64121,67.48549,355.368,71.55294c-8.00189,4.475-21.16313,3.83932-27.997-4.34833a21.21856,21.21856,0,0,1-4.87746-13.51407c-.14061-6.03521,1.37145-11.55944,5.57135-16.10293a19.929,19.929,0,0,1,12.759-6.27768c5.64109-.65561,11.02295.16386,15.8293,3.38631,5.48137,3.675,8.14826,9.01776,8.85336,15.453C365.60526,51.04977,365.63585,51.95773,365.69986,52.89042Zm-31.981-.98207a19.857,19.857,0,0,0,1.67422,8.68137,8.90931,8.90931,0,0,0,8.6034,5.36008c3.97493.0118,7.08013-1.63829,8.72034-5.34632a19.2613,19.2613,0,0,0,.68939-14.62437,9.39854,9.39854,0,0,0-9.07288-6.52788,9.56674,9.56674,0,0,0-9.4467,6.17434A14.70789,14.70789,0,0,0,333.7189,51.90835Z"/><path class="cls-2" d="M422.52962,37.4196a16.16651,16.16651,0,0,1,9.24169-5.83936,17.304,17.304,0,0,1,10.68133.70207c4.56115,1.99772,6.595,5.863,7.45818,10.52132a28.00385,28.00385,0,0,1,.38142,5.06613c.01488,8.0478-.01722,16.0958.03453,24.1433.0072,1.12113-.33669,1.36723-1.38631,1.33982-2.72017-.071-5.44568-.087-8.16447.00691-1.10478.03817-1.27436-.33613-1.27032-1.3274.0317-7.732.00653-15.46424-.003-23.1964a17.29875,17.29875,0,0,0-.3961-3.63739c-1.13512-5.25158-5.6763-7.35357-10.469-4.8451-2.69018,1.408-3.94129,3.87456-4.73871,6.63294a23.61363,23.61363,0,0,0-.77361,6.67281c.01638,6.15418-.01823,12.30861.02884,18.46247.00762.99649-.27714,1.252-1.24822,1.23007-2.839-.064-5.68046-.03991-8.52058-.01071-.70414.00725-1.0519-.09478-1.05022-.94259q.039-19.70526.00563-39.4106c-.00095-.73057.2461-.95124.95724-.94336,2.76118.03059,5.52336.04139,8.2841-.00527.83-.014.97958.33012.95952,1.0476C422.5013,34.53009,422.52962,35.97524,422.52962,37.4196Z"/><path class="cls-2" d="M396.763,67.87178c-.68833.2202-.91985.7085-1.27068,1.05289C390.35538,73.9673,384.317,75.599,377.476,73.30453c-4.93754-1.65609-7.10975-5.69725-8.054-10.53681a27.76238,27.76238,0,0,1-.41928-5.29937c-.00916-8.00815.02215-16.01649-.03267-24.02427-.00809-1.18069.35173-1.44647,1.46515-1.41387,2.71964.07961,5.4439.06084,8.16479.00677.91988-.01829,1.20243.2407,1.19745,1.18646-.03842,7.29786-.02094,14.596-.02088,21.89407a22.55279,22.55279,0,0,0,.4331,5.17253c1.32375,5.66823,7.35258,7.62691,11.82021,3.80921,2.526-2.15858,3.402-5.12206,3.88962-8.25719a51.12689,51.12689,0,0,0,.24756-7.67862q.03339-7.5149-.00912-15.02994c-.00491-.79392.17719-1.10906,1.03721-1.095,2.91845.04761,5.83845.041,8.75717.003.78176-.01018,1.007.25132,1.006,1.01812q-.0285,19.64554,0,39.29114c.00111.76386-.2104,1.01055-.999.99682q-4.14091-.0721-8.28371-.002c-.74555.01139-.94687-.239-.926-.94612C396.79351,70.91627,396.763,69.43087,396.763,67.87178Z"/><path class="cls-2" d="M323.95623,21.95786a13.15012,13.15012,0,0,0-3.29647-1.258c-3.16588-.53008-5.27477.84975-5.86205,3.978a39.7753,39.7753,0,0,0-.2397,6.729c-.01256.75515.53262.64474.9904.64593,2.4055.00629,4.81269.05547,7.21578-.02107,1.01843-.03244,1.25876.30475,1.21734,1.265-.07637,1.77128-.07887,3.55075.00045,5.32177.04477,1.00011-.176,1.37565-1.27214,1.32993-2.28325-.09522-4.5751.02514-6.85964-.05313-1.03007-.03529-1.32375.23691-1.31935,1.2974.04255,10.25288.0044,20.50612.05462,30.75893.0057,1.16146-.3049,1.44227-1.43272,1.40587-2.71818-.08772-5.442-.06808-8.16158-.00646-.9225.02091-1.17643-.22526-1.17322-1.16338.03516-10.29237.00186-20.585.0505-30.87727.00541-1.13981-.263-1.48237-1.41531-1.41888-1.88714.104-3.78462.00523-5.67685.04-.65975.01212-.90825-.19545-.89836-.87q.04515-3.07524-.00044-6.15148c-.01093-.69353.2774-.87191.91521-.86274,1.89247.02721,3.79023-.07106,5.67679.03791,1.19405.069,1.409-.35406,1.40078-1.45461-.02113-2.83071-.238-5.67521.409-8.483,1.39359-6.04755,5.72947-9.65454,11.915-9.87423a36.17886,36.17886,0,0,1,7.87285.69542c.41143.076.77331.1292.71359.70563C324.498,16.4039,324.23517,19.13541,323.95623,21.95786Z"/><path class="cls-2" d="M238.80163,40.947a14.43349,14.43349,0,0,1,3.25936-6.00189,11.27394,11.27394,0,0,1,10.32723-3.75026c.71125.08944.99521.34029.98269,1.116-.04839,2.99522-.037,5.99186-.00743,8.98757.00723.73244-.15151.83709-.85885.5966a11.8952,11.8952,0,0,0-4.90765-.49769,6.87384,6.87384,0,0,0-5.71121,3.85925,19.5161,19.5161,0,0,0-2.013,9.14539q-.11877,8.75-.01494,17.502c.015,1.25459-.3705,1.48563-1.51292,1.45167-2.757-.082-5.51842-.04688-8.27747-.01294-.72265.00889-1.03922-.12722-1.03767-.95471q.03672-19.69077.0057-39.38162c-.00085-.70612.20363-.97236.93693-.96255,2.56191.03427,5.12516.04432,7.68659-.00479.82846-.01588.98524.32012.9742,1.04655-.03354,2.20707-.01825,4.415-.00577,6.62252A2.01214,2.01214,0,0,0,238.80163,40.947Z"/><path class="cls-1" d="M186.40354,117.25844q0-12.45915.00024-24.91832c.00008-1.41916.0018-1.42,1.46595-1.42034,2.64456-.00062,5.29012.04195,7.9331-.02231.96222-.0234,1.25057.21379,1.248,1.22292q-.05432,20.95134-.02137,41.90291c.0006,1.60012-.18893,1.4148,1.43926,1.41658,5.95952.0065,11.91929.0284,17.87838-.02246,1.00941-.00861,1.25649.28585,1.2226,1.2522-.07308,2.08328-.04072,4.17113-.01193,6.25657.00849.616-.16557.83825-.81581.83705q-14.7498-.02727-29.49958.008c-.99612.00346-.83762-.56972-.8377-1.14756Q186.40241,129.94108,186.40354,117.25844Z"/><path class="cls-1" d="M257.12791,124.941c-.19193,7.33613-2.7972,13.43106-9.49819,17.202-7.36,4.14183-19.58493,3.58662-25.90326-4.0468a19.58084,19.58084,0,0,1-4.45129-12.37357c-.13812-5.608,1.26786-10.73693,5.18615-14.94368a18.37215,18.37215,0,0,1,11.68388-5.73176c5.24386-.61605,10.24008.14723,14.69743,3.15743,5.00776,3.38194,7.44855,8.28419,8.10379,14.177C257.03878,123.21206,257.06639,124.0497,257.12791,124.941Zm-29.49958-.87214a18.2261,18.2261,0,0,0,1.56609,8.02563,8.22241,8.22241,0,0,0,7.96422,4.8995c3.62073-.00362,6.46079-1.50961,7.96872-4.87883a17.76149,17.76149,0,0,0,.67933-13.48722,8.66872,8.66872,0,0,0-8.32877-6.07487,8.83521,8.83521,0,0,0-8.79329,5.73885A13.5769,13.5769,0,0,0,227.62833,124.06885Z"/><path class="cls-1" d="M287.84641,110.5934c0-1.30118.06476-2.60665-.0212-3.90213-.065-.97988.31907-1.17448,1.20963-1.15477,2.46019.05446,4.92338.06049,7.38318-.00231.94209-.024,1.18521.27392,1.18045,1.19554-.03612,7.04834-.00164,14.097-.02585,21.14544-.01737,5.07118.13465,10.14449-.10229,15.21324a21.24272,21.24272,0,0,1-2.92019,10.31785c-2.65593,4.33665-6.72455,6.56671-11.57058,7.44793a34.48721,34.48721,0,0,1-18.68351-1.74695c-.69069-.26133-.84806-.58886-.7608-1.31593.30074-2.50559.50621-5.02262.75851-7.64476a36.41453,36.41453,0,0,0,8.51382,3.04024,15.3269,15.3269,0,0,0,7.19376-.19024,8.69751,8.69751,0,0,0,6.12161-5.41369,22.68686,22.68686,0,0,0,1.23974-9.23982,14.00944,14.00944,0,0,1-4.18944,4.043c-8.45393,5.01136-18.90474,1.63782-22.24821-7.554-2.85208-7.84091-2.56014-15.71076,1.85045-23.03687,4.84518-8.048,14.12484-8.38017,19.91746-5.668A15.1928,15.1928,0,0,1,287.84641,110.5934Zm-.459,13.25076a16.31788,16.31788,0,0,0-1.24312-6.26756c-1.25515-2.93683-3.34435-4.7996-6.65622-5.01116-3.55339-.227-6.38041,1.13126-7.911,4.343a16.43178,16.43178,0,0,0,.301,15.67164,7.25911,7.25911,0,0,0,7.03889,4.1027,7.76278,7.76278,0,0,0,7.13024-4.91837A18.10063,18.10063,0,0,0,287.38739,123.84416Z"/><path class="cls-1" d="M314.19023,124.79226c0,5.92105-.01858,11.84223.01965,17.763.00595.91086-.1417,1.27138-1.17432,1.23647-2.59211-.08762-5.18962-.05766-7.78381-.01156-.78328.01391-1.06931-.14625-1.06722-1.00842q.04395-18.092.00048-36.18416c-.00214-.89246.29032-1.10364,1.12554-1.08852,2.55762.04629,5.1177.05814,7.67461-.00477.94678-.0233,1.23752.2166,1.22949,1.206C314.1657,112.73064,314.19023,118.76155,314.19023,124.79226Z"/><ellipse class="cls-1" cx="309.59769" cy="93.5891" rx="6.23708" ry="5.60192"/><circle class="cls-1" cx="103.25188" cy="102.45465" r="61.54129"/><circle class="cls-3" cx="72.02811" cy="71.29246" r="61.54129"/><path class="cls-4" d="M134.48009,72.09916a60.38781,60.38781,0,0,0-5.51741-25.256A62.03061,62.03061,0,0,0,104.673,41.92151c-33.55062,0-61.72765,25.70276-61.72765,61.13325a60.387,60.387,0,0,0,5.51741,25.256,62.03073,62.03073,0,0,0,24.2897,4.92169C106.84374,133.23248,134.48009,105.86216,134.48009,72.09916Z"/><path class="cls-5" d="M72.02832,134.20605a63.00317,63.00317,0,1,1,63.00293-63.00293A63.07463,63.07463,0,0,1,72.02832,134.20605Zm0-123.08251a60.07935,60.07935,0,1,0,60.0791,60.07958A60.14772,60.14772,0,0,0,72.02832,11.12354Z"/></svg>