<svg id="Layer_1" data-name="Layer 1" xmlns="http://www.w3.org/2000/svg" viewBox="0 0 1449.48493 165.76711"><defs><style>.cls-1{fill:none;}.cls-2{fill:#fff;}</style></defs><title>the-blog-starter</title><g id="lUmlHr"><path d="M38.76866,147.60289c-.02433-1.32477-.097-2.65092-.0561-3.97384.02758-.892-.2925-1.2418-1.24373-1.37976-3.07847-.44647-6.134-1.0376-9.21183-1.4886-.96245-.141-1.38874-.40131-1.36-1.42576.07595-2.70586.06213-5.41564.00633-8.1224-.01939-.94086.29175-1.23213,1.27521-1.21492,3.05952.05354,6.12164-.02174,9.18079.04094,1.0801.02213,1.37405-.32369,1.358-1.32383-.05517-3.42539.011-6.85253-.03963-10.278-.01476-.99954.29967-1.357,1.37292-1.32693,2.36556.06627,4.73689.08019,7.10119-.0044,1.20276-.043,1.4448.41841,1.4286,1.44821-.05216,3.31493.01959,6.63173-.04091,9.9464-.01969,1.07883.17522,1.57261,1.48336,1.54628,4.0982-.0825,8.19984.00611,12.29911-.04643,4.41958-.05664,6.57952-2.18814,6.56805-6.40024a18.96269,18.96269,0,0,0-.87679-5.88189c-.23187-.70888-.0964-.99437.74183-.98589q4.5037.04559,9.00812-.00089a.9691.9691,0,0,1,1.07144.82169c1.51053,5.01365,2.13412,10.08269.65972,15.19182-1.65242,5.72606-6.3921,9.0851-13.28917,9.54314-5.24832.34855-10.50693.16695-15.75959.13458-1.54568-.00952-2.05765.4203-1.91128,1.87372a26.55133,26.55133,0,0,1-.05649,3.30705Z"/><path d="M43.0805,95.42489c-4.92924-3.862-5.47805-8.94066-4.82956-14.17606.92534-7.47053,5.98277-11.73974,13.86454-11.959,5.13915-.143,10.28556-.08272,15.4282-.04652,1.13656.008,1.611-.27675,1.77435-1.42455.54716-3.84521.59873-3.83856,4.7185-3.83846,1.50252,0,3.00743.04969,4.50668-.01722.93749-.04185,1.16443.29646,1.15876,1.14259-.03407,5.08762-.06746,10.17634.01828,15.26285.022,1.306-.66379,1.24649-1.59015,1.24455q-10.142-.02133-20.284-.00749c-.34674,0-.6935-.00221-1.04021.001-6.55117.061-9.77828,5.37821-6.58434,10.89243A4.74271,4.74271,0,0,0,54.809,95.1445c4.21473-.12238,8.4368-.07569,12.65429-.01,1.21337.0189,1.70244-.28181,1.89108-1.50242.48851-3.16089.56452-3.15018,3.84451-3.15011,1.73368,0,3.46884.04126,5.20044-.01593.93743-.031,1.31323.19711,1.30713,1.181q-.06173,9.9541-.0054,19.90871c.00388.87033-.29721,1.15289-1.19566,1.137-2.48407-.044-4.97-.039-7.45426-.001-.77557.01188-1.20412-.23044-1.29031-.97526-.01267-.10954-.0429-.2172-.0644-.32583-.77093-3.89394-.77092-3.894-4.884-3.894-12.71363,0-25.42733.01916-38.14077-.02736-1.38731-.00507-2.02546.22452-2.204,1.72342-.41671,3.49753-.52043,3.48645-4.20662,3.48609-1.67588-.00016-3.3525-.03-5.02734.00977-.82679.01964-1.09989-.27258-1.0958-1.06046.02668-5.143.04973-10.2866-.01227-15.42905-.01537-1.27506.77435-1.10389,1.56873-1.08746,8.89158.184,17.79568-.41989,26.67769.38464A4.816,4.816,0,0,0,43.0805,95.42489Z"/><path d="M61.66526,35.25768c.00031,3.76015.03715,7.52084-.02265,11.28012-.01743,1.0947.28707,1.32514,1.37958,1.02952a8.075,8.075,0,0,0,6.19218-5.90022c1.35007-5.1865.67436-10.11308-2.833-14.44137-.71041-.87667-.47051-1.08161.40724-1.45322,2.42642-1.02727,4.849-2.072,7.20945-3.22862,1.04478-.512,1.53378-.20025,2.06429.62418a26.599,26.599,0,0,1,3.771,10.41471A30.34031,30.34031,0,0,1,79.28493,47.065c-2.03391,6.90985-6.74814,11.14222-14.107,12.62746a29.22464,29.22464,0,0,1-14.20855-.516c-5.55409-1.63229-9.4729-5.05777-11.34537-10.3229-2.21339-6.22369-2.5455-12.51023.88925-18.47224,3.91-6.78682,12.28012-9.5518,20.19053-7.99049.96842.19113.96959.72205.96725,1.42055C61.65825,27.62676,61.665,31.44224,61.66526,35.25768Zm-6.98925,5.412q0-2.73735-.00023-5.47469c-.0013-2.0865-.13976-2.18919-2.23023-1.66389a6.21865,6.21865,0,0,0-4.87612,6.74468c.34168,3.81844,3.184,7.13207,6.29741,7.41845.83543.07685.80949-.36023.80865-.88626Q54.67062,43.73883,54.676,40.66969Z"/></g><rect x="1087.41965" y="18.50881" width="22.82542" height="35.71601"/><rect x="1208.03525" y="119.79734" width="33.26412" height="25.5266"/><rect x="1281.48789" y="18.29042" width="25.66913" height="38.06544"/><path class="cls-1" d="M976.67908,145.33615H1018.228Q997.45347,145.27372,976.67908,145.33615Z"/><path class="cls-1" d="M1048.81982,142.13333c-6.5-13.12957-13.24481-26.12591-19.75018-39.25268-1.07361-2.16638-2.25018-2.9458-4.53583-2.84448-4.39343.1947-8.80121.11779-13.2008.02862-1.66-.03369-2.22046.57843-2.20117,2.30335.068,6.06976.10449,12.14264-.01673,18.21057-.04474,2.24243,1.09827,2.58807,2.76538,2.73889,4.382.39642,8.75434.919,13.13935,1.26843,1.75409.13983,2.34863.87958,2.31164,2.72705q-.15316,7.64558.00061,15.29633c.03974,1.90076-.44793,2.663-2.24267,2.72674H1052.756C1050.86279,145.13175,1049.81256,144.13858,1048.81982,142.13333Z"/><path class="cls-1" d="M1121.1543,145.33615h43.04925Q1142.67886,145.2685,1121.1543,145.33615Z"/><path class="cls-1" d="M1056.37738,145.33615h19.93121a12.58567,12.58567,0,0,0-1.30481-.06115C1068.79584,145.36441,1062.58362,145.2327,1056.37738,145.33615Z"/><path class="cls-1" d="M1082.40393,145.33615h.38409v-.21106A2.99779,2.99779,0,0,1,1082.40393,145.33615Z"/><path class="cls-1" d="M386.02722,42.329c-11.56067-.0542-20.37378,4.77924-25.32342,15.74579-3.72052,8.24341-4.54511,17.02564-4.48548,26.71033a70.92414,70.92414,0,0,0,1.19879,14.453,45.5925,45.5925,0,0,0,2.67041,9.0434c4.6894,11.04364,13.16962,16.36633,25.97236,16.30713,12.78039-.05915,21.62121-5.31482,25.60949-16.70172a69.85518,69.85518,0,0,0-.61328-49.48652C406.70007,47.16239,397.5968,42.38333,386.02722,42.329Z"/><path class="cls-1" d="M145.1441,123.53568c5.67884-.1875,11.38337.122,17.04145-.30707,9.53351-.723,14.60925-7.43994,13.51587-17.30572-.69471-6.26813-4.85364-11.01984-10.971-12.13233-6.69519-1.21759-13.47309-.37958-20.21131-.58551-1.71716-.05249-1.86169,1.0896-1.85675,2.46881.01538,4.27985.00562,8.55976.00562,12.8396-.00385,4.02814.06311,8.05805-.03247,12.08362C142.58862,122.57114,142.97858,123.60715,145.1441,123.53568Z"/><path class="cls-1" d="M896.11145,49.70951a2.46624,2.46624,0,0,0-1.462-1.89612c-4.40882,12.24341-8.81519,24.47973-13.34522,37.05957,8.7652,0,17.08649-.01,25.40778.00525,3.03155.00549,1.23242-1.92652.90783-2.85272C903.83832,71.23252,899.95459,60.47885,896.11145,49.70951Z"/><path class="cls-1" d="M162.18793,44.95218c-5.658-.42914-11.36261-.11963-17.04138-.30713-2.16553-.07147-2.55549.9646-2.50861,2.9386.09552,4.02558.02856,8.05548.03247,12.08362,0,4.27985.00977,8.55975-.00562,12.8396-.00494,1.37927.13959,2.5213,1.85676,2.46881,6.73822-.20587,13.51611.63208,20.2113-.58545,6.11737-1.11249,10.27631-5.86426,10.971-12.13238C176.79724,52.39206,171.7215,45.6752,162.18793,44.95218Z"/><path class="cls-1" d="M1011.43622,77.95468c6.59216-.12512,13.20141.29163,19.77325-.44818,9.76709-1.09954,14.61756-6.62964,15.06336-16.947.44873-10.38726-3.77283-16.16064-13.572-18.19207-7.21125-1.49494-14.53711-.55195-21.80988-.76569-2.04687-.06012-1.72229,1.49292-1.72754,2.77222-.02069,4.97351-.00848,9.9472-.00787,14.92083,0,5.33759.04309,10.67572-.02436,16.01239C1009.10883,77.07865,1009.52454,77.991,1011.43622,77.95468Z"/><path class="cls-1" d="M1386.02533,42.38333c-7.21106-1.5083-14.53687-.55249-21.80847-.79266-1.98041-.06543-1.83136,1.33148-1.83124,2.683q.00127,7.64246-.00031,15.28485c0,5.21624.03107,10.4328-.01818,15.64856-.01581,1.66626.20221,2.782,2.20367,2.74524,6.70789-.1233,13.43817.34124,20.118-.48188,9.73975-1.20013,14.40375-6.70813,14.82764-17.17431C1399.9259,50.18521,1395.6463,44.3956,1386.02533,42.38333Z"/><path d="M1220.46924,40.28031c-3.11218-.25189-6.192-.94953-9.30432-1.18964-1.92841-.14874-2.55439-.89313-2.50916-2.895.11261-4.97748.16034-9.96435-.01477-14.9378a5.168,5.168,0,0,1,.11572-1.40985h-.13287V45.51712h14.16284q.00192-1.26268.002-2.52539C1222.79156,41.17258,1222.28162,40.427,1220.46924,40.28031Z"/><path d="M1208.03522,119.79734v5.58679a5.25588,5.25588,0,0,1,3.40747-1.05988c3.79956-.24035,7.575-.71209,11.37213-.98755,2.19165-.159,3.14062-.822,3.13568-2.72638-.00073-.271-.00037-.542-.001-.813h-17.91424Z"/><path d="M409.94714,22.82383c-11.38977-4.19593-23.22149-4.85633-35.135-3.19391-20.50958,2.86187-35.36529,13.49505-42.02765,33.74347a95.05149,95.05149,0,0,0,.28461,61.84484c5.61914,16.35688,17.30029,26.47492,33.77466,30.801a76.82036,76.82036,0,0,0,29.65247,1.61c18.63128-2.4278,33.05951-11.13923,41.01666-28.98267,4.873-10.92725,6.28094-22.59113,6.21435-34.37622A98.14938,98.14938,0,0,0,441.324,60.68424C437.047,42.82322,427.54254,29.30582,409.94714,22.82383Zm1.72223,85.06311c-3.98828,11.3869-12.8291,16.64257-25.60949,16.70172-12.80274.0592-21.283-5.26349-25.97236-16.30713a45.5925,45.5925,0,0,1-2.67041-9.0434,70.92414,70.92414,0,0,1-1.19879-14.453c-.05963-9.68469.765-18.46692,4.48548-26.71033,4.94964-10.96655,13.76275-15.8,25.32342-15.74579,11.56958.05432,20.67285,4.83338,25.02887,16.07141A69.85518,69.85518,0,0,1,411.66937,107.88694Z"/><path d="M312.74591,102.42289c-4.91156.16375-9.84546.27136-14.7439-.03284-2.98779-.18555-3.61474,1.15979-3.827,3.67981-.41736,4.955-1.09815,9.88727-1.517,14.84216-.15839,1.87427-.6109,2.80927-2.73706,2.78735q-14.38917-.14839-28.78046.00232c-2.16363.02393-2.62494-.83422-2.55475-2.781.11811-3.27374.03083-6.55512.03077-9.83325,0-21.733.049-43.46619-.06006-65.19861-.014-2.793.76989-3.86688,3.55853-3.99579,2.9776-.13757,5.921-.91773,8.89954-1.19586,1.696-.15839,2.2124-.82813,2.18725-2.49506-.0805-5.34094-.09167-10.685.00281-16.02545.03265-1.84753-.76044-2.225-2.36725-2.22186q-26.083.052-52.1662-.00592c-1.75207-.0044-2.62433.38739-2.58472,2.40252.105,5.34009.06537,10.6839.01783,16.02564-.01325,1.48248.46466,2.14245,2.01355,2.30047,3.33538.3404,6.64135.97541,9.97638,1.32221,1.83557.19086,2.73748.72644,2.73236,2.8548q-.09439,38.60916-.00135,77.21856c.00477,2.04132-.71936,2.79065-2.63635,2.94019-2.98517.233-5.94977.73968-8.93536.96277-2.3183.17321-3.30762,1.04785-3.19617,3.59631.20673,4.72589.19666,9.47333.00452,14.20044-.10437,2.56891.7157,3.25256,3.219,3.23425,15.34931-.11212,30.69983-.05615,46.04993-.05609,15.23016.00006,30.461-.07294,45.68988.06806,2.70679.02508,3.386-.7417,3.4281-3.42536.20007-12.74512.58337-25.48822,1.02051-38.22778C315.54419,103.17826,315.05237,102.346,312.74591,102.42289Z"/><path d="M1362.70378,122.47367c-.37988-.44532-.38963-1.10553-.36516-2.13477.14209-5.94549.11084-11.89831.01355-17.8457-.03222-1.96857.68128-2.47595,2.43964-2.43305,4.2832.10443,8.57843.20142,12.85229-.03228,2.46564-.13483,3.65735.84869,4.75788,3.06652,6.56616,13.23047,13.2893,26.37513,19.94232,39.55835.77087,1.52759,1.41632,2.75293,3.53406,2.7201,9.61126-.149,19.22577-.10315,28.83874-.0318,1.75092.013,2.47882-.44379,2.43793-2.42261q-.16095-7.82739.00268-15.66046c.03925-1.86554-.62127-2.59686-2.3153-2.761-2.99561-.2901-5.97266-.88428-8.97095-1.01709-2.58423-.1145-4.12994-1.17016-5.44232-3.5747-4.4209-8.09937-8.42566-16.48145-13.64087-24.06055-1.49268-2.16919-.92194-2.70935.85541-3.62079,5.38171-2.75989,10.42492-6.19458,13.39166-11.75665,7.81573-14.65326,8.337-29.798.20184-44.318-7.018-12.52606-18.95434-17.00109-32.14563-17.6073-10.51916-.48346-21.07446-.09753-31.61383-.09753v-.11414c-11.11889,0-22.23834.04346-33.35657-.03949-1.59387-.0119-2.46344.29963-2.73449,1.55732h-.10541V45.51712h14.25885q-.08267,37.47153.00281,74.94342a3.30718,3.30718,0,0,1-.48755,2.01313h-13.77411v23.73226h56.00883l-.60041-23.22517m22.82681-62.68458c-.42389,10.46618-5.08789,15.97418-14.82764,17.17431-6.67987.82312-13.41015.35858-20.118.48188-2.00146.0368-2.21948-1.079-2.20367-2.74524.04925-5.21576.01818-10.43232.01818-15.64856q.001-7.64246.00031-15.28485c-.00012-1.35157-.14917-2.74848,1.83124-2.683,7.2716.24017,14.59741-.71564,21.80847.79266C1395.6463,44.3956,1399.9259,50.18521,1399.51648,60.29618Z"/><path d="M952.23737,123.57352c-2.87445-.29071-4.1233-1.52832-5.11292-4.24731-11.869-32.6117-23.882-65.16571-35.75714-97.775-.87622-2.40637-1.91864-3.35144-4.44836-3.28955-7.64039.18695-18.34626.06751-25.99079.06763L870.79529,44.66483c-9.01953,24.80078-18.09778,49.57843-26.99524,74.42724-1.09631,3.06159-2.52667,4.55414-5.67859,4.50214-1.94281-.032-3.888.5885-5.84387.79193-1.817.18891-2.52954,1.004-2.47663,3.02265q.20023,7.64355.00318,15.29614c-.05219,2.09936.63409,2.652,2.5744,2.64282q23.107-.10858,46.2146.00641c2.09412.01172,2.51105-.8479,2.47876-2.77417-.08569-5.0979-.09766-10.2.00635-15.29718.03753-1.83832-.58655-2.63586-2.29273-2.81537-2.76257-.29071-5.50555-.82129-8.27191-1.028-2.23889-.16736-3.13019-.75074-2.0871-3.28772,1.5083-3.66828,2.76044-7.45545,4.03943-11.22272.51825-1.52673,1.201-2.29254,2.94379-2.281,12.972.08606,25.945.06446,38.91742.02228a2.50745,2.50745,0,0,1,2.85028,1.91583c1.39941,4.10737,2.93091,8.16761,4.50311,12.20673.68073,1.74878.16406,2.384-1.52026,2.5575-2.8786.29638-5.74.77691-8.6192,1.06524-1.83411.18372-2.52588.99347-2.47168,3.00751.13391,4.97418.16577,9.95966-.00867,14.931-.08606,2.45142.7337,3.01953,2.94733,3.00232,12.74029-.0993,25.48163-.02942,38.22253-.06049,3.45886-.00848,8.11743,1.22211,10.06177-.62225,2.25311-2.13745.66937-7.103.707-10.83441C961.09259,124.61332,961.0437,124.46433,952.23737,123.57352ZM906.712,84.87821c-8.32129-.0152-16.64258-.00525-25.40778-.00525,4.53-12.57984,8.9364-24.81616,13.34522-37.05957a2.46624,2.46624,0,0,1,1.462,1.89612c3.84314,10.76934,7.72687,21.523,11.50842,32.316C907.94446,82.95169,909.74359,84.8837,906.712,84.87821Z"/><path d="M1208.65271,142.43808a3.13929,3.13929,0,0,0,.54462,2.3097V125.38413a3.6743,3.6743,0,0,0-.56549,2.48169C1208.84094,132.71463,1208.77911,137.583,1208.65271,142.43808Z"/><path d="M1281.98682,142.98825V122.07853q-14.82477-.23437-29.65448-.00556c-2.35974.0329-2.94379-.79132-2.91089-3.10864.10882-7.65088.13891-15.30658-.01288-22.95587-.05194-2.61689.81091-3.25025,3.17731-3.21027,8.10925.13709,16.22247-.00781,24.33264.09351,2.04986.02557,2.871-.50684,2.8114-2.82117q-.216-8.37525,0-16.76007c.06329-2.41461-.70453-3.09723-2.97064-3.06085-8.1095.13-16.2229-.02124-24.33271.097-2.20349.03211-3.05792-.54022-3.01336-3.01275.136-7.52839.10589-15.062.01477-22.59186-.027-2.23645.43439-3.24463,2.87048-3.21167,9.8949.13367,19.79248.10718,29.68836.02087V18.70249h23.97308a4.87521,4.87521,0,0,0-2.50525-.42646c-15.17908.10755-30.35931.05317-45.53912.05353-15.41156.00037-30.82331.03443-46.23456-.03906-1.64655-.00787-2.60956.2674-2.92426,1.55756h29.27771V45.51712h-15.24774q-.05557,37.14011.00842,74.28022H1238.608v25.52893q32.6044-.02958,65.20892.00988c.14844.00019.28107-.00634.41541-.0122h-22.24548Z"/><path d="M1238.03442,19.84806h-29.27771a5.168,5.168,0,0,0-.11572,1.40985c.17511,4.97345.12738,9.96032.01477,14.9378-.04523,2.00183.58075,2.74622,2.50916,2.895,3.11236.24011,6.19214.93775,9.30432,1.18964,1.81238.14673,2.32232.89227,2.31946,2.71142q-.002,1.2627-.002,2.52539h15.24774Z"/><path d="M695.07062,77.53049c-8.51795-3.92645-17.60169-5.8031-26.389-8.75256-3.81879-1.28186-7.62805-2.635-10.91809-5.22888A12.13933,12.13933,0,0,1,659.265,43.0593a21.34262,21.34262,0,0,1,10.66474-2.416c12.40252.01313,19.25934,6.6073,17.71338,19.24317-.27936,2.28345.8883,1.748,1.88342,1.66626,6.08655-.50025,12.1626-1.22467,18.25647-1.51257,2.78448-.1316,3.79108-1.4701,4.40924-4.20521,2.87573-12.72467-3.56683-26.76153-15.364-33.11816C688.56061,18.262,679.67712,17.173,670.626,17.09757c-1.55414,0-3.11438-.09845-4.66144.01581-10.97717.81067-21.19348,3.78326-29.55823,12.23455C622.17566,43.72568,621.509,76.61814,647.50909,88.51731c8.12134,3.71679,16.61383,6.00457,25.00129,8.72711,4.35986,1.41516,8.72015,2.85943,12.56115,5.64325a10.39223,10.39223,0,0,1,4.63806,10.14917c-.50793,4.361-3.14215,6.85785-6.75256,8.14435a30.50771,30.50771,0,0,1-17.412.97528c-8.45245-1.9654-12.23913-7.50959-11.57531-16.93152.14953-2.12183-.356-2.47125-2.06494-2.29163-5.4126.569-10.82953,1.1098-16.25391,1.51642-7.23938.5426-8.37329,1.86853-8.09985,9.949.01226.36377.05157.72644.07769,1.08966.99866,13.92285,8.39844,22.42993,19.86347,26.83471a66.37889,66.37889,0,0,0,42.93274,1.76935c17.84832-5.10528,26.69635-19.34894,24.90551-39.30951C714.07751,90.818,706.24908,82.68332,695.07062,77.53049Z"/><path d="M837.15332,57.35373c-.28528-11.89709-.48541-23.79809-.53015-35.69854-.01044-2.78589-.9281-3.39881-3.436-3.38337-17.60913.10846-35.21905.0575-52.82879.0575-17.72559-.00006-35.45142.05084-53.17639-.0556-2.62305-.01575-3.591.60791-3.59729,3.57855-.02454,11.657-.25879,23.315-.564,34.96838-.06457,2.46259.43305,3.47089,2.99024,3.36359,4.7423-.19892,9.50524-.223,14.24475.01044,2.52441.12426,3.15515-1.02771,3.369-3.29853.39783-4.225,1.08222-8.42163,1.4328-12.6496.1662-2.006.8581-2.726,2.77765-2.69189q8.16542.145,16.33411-.00446c1.94025-.03875,2.58636.58057,2.58148,2.67359q-.08917,38.07275.00958,76.14575c.007,2.33069-.95086,2.8692-2.8435,3.031-2.99805.25622-5.976.76208-8.97248,1.048-1.87066.17847-2.5025,1.07581-2.45819,3.04541.11469,5.0979.09168,10.20136.01209,15.30066-.02838,1.81781.44916,2.55634,2.33087,2.54919q25.37147-.09612,50.74359-.00091c1.84351.00671,2.39417-.65332,2.36243-2.51392-.0871-5.09906-.1471-10.2052.02539-15.2995.078-2.30352-.889-2.95062-2.77972-3.13037-2.8816-.274-5.7464-.7583-8.63025-.98376-2.04761-.16016-3.03876-.77631-3.03-3.27344q.132-37.8902.02624-75.78119c-.00323-1.93213.40027-2.85919,2.48352-2.81207,5.44257.123,10.89173.13763,16.33332-.00751,2.21594-.05914,2.72625,1.05743,2.93481,3.01239.463,4.34,1.11072,8.65808,1.59192,12.99628.2099,1.89288.925,2.68066,2.873,2.62359,4.862-.14251,9.73248-.13195,14.59533-.00586C836.401,60.22043,837.20984,59.71,837.15332,57.35373Z"/><path d="M1194.82471,18.31778l.63189-.0459q-5.54214.03416-11.08441.0459H1173.6v.01837q-15.486.011-30.97223-.00683c-17.72565-.00006-35.45142.05084-53.17646-.05567a4.87532,4.87532,0,0,0-2.419.42884h22.98987v22.8551c.02923.00018.05267-.00348.08252-.00293q8.1654.145,16.33416-.00446c1.94043-.03875,2.58625.58094,2.58136,2.67371q-.08926,38.07276.00946,76.14575c.007,2.33081-.95092,2.86908-2.8435,3.03089-2.998.25628-5.97614.762-8.97254,1.048-1.87072.17847-2.50232,1.07611-2.45813,3.04559.11469,5.09784.09174,10.2013.01215,15.3006-.02753,1.76538.43359,2.50617,2.18225,2.54144h4.20441q21.52433-.0683,43.04925,0h3.78125c1.72144-.03039,2.25061-.6994,2.21985-2.50738-.0871-5.099-.14746-10.2052.025-15.2995.078-2.30365-.88892-2.95044-2.77955-3.13019-2.88159-.27405-5.74639-.7583-8.63024-.98376-2.0478-.16016-3.03858-.77661-3.02985-3.27356q.132-37.8903.02612-75.78125c-.00323-1.93219.40064-2.859,2.48377-2.81189,5.09826.11529,10.2019.12866,15.30005.01135V54.03379h22.82544v-35.716Z"/><path d="M573.13977,82.00168V80.91043H516.93213V106.091H538.3858c.16205,6.64361-3.82214,13.48761-9.78827,16.236a28.53466,28.53466,0,0,1-39.50647-17.13489c-4.39514-13.499-4.20257-27.31457-.71618-40.94452,4.23309-16.54931,15.62286-23.89642,32.33368-21.53229,8.212,1.16175,14.47925,6.15943,16.775,13.3061v6.30406h32.70886V33.21579H556.08905a35.64228,35.64228,0,0,0-9.57434-7.2658c-14.42627-7.51014-29.86548-8.579-45.56256-5.94831C479.64136,23.57322,466.576,36.64225,461.1189,57.47855a102.14912,102.14912,0,0,0,.19635,52.91748c4.35632,16.30487,13.8269,28.55463,30.00305,34.16565a68.95469,68.95469,0,0,0,46.59082-.34,42.80661,42.80661,0,0,0,10.63824-5.46344v9.60688H573.728V82.00168Z"/><path d="M190.75018,86.42893c-.2016-.058-.40088-.118-.6054-.17371.1101.05768.22058.115.32916.17371Z"/><path d="M115.13428,86.42893h.00311c-.00018-.46076-.00159-.92163-.00171-1.38239C115.13562,85.50736,115.13422,85.96811,115.13428,86.42893Z"/><path d="M187.26306,82.53025c-.66327.149-1.569.125-1.61206,1.09484a1.01,1.01,0,0,0,.0849.46827c.23-.53473.92951-.59845,1.44171-.79834a29.4908,29.4908,0,0,0,2.97534-1.3725c-.2666.07275-.51788.15765-.78936.2265C188.67419,82.32383,187.95752,82.37424,187.26306,82.53025Z"/><path d="M190.74756,81.75186h-.2713c-.10663.05768-.21521.114-.32331.17066C190.35376,81.86777,190.5495,81.80887,190.74756,81.75186Z"/><path d="M115.13184,81.75186c-.00007,1.09827.0036,2.19642.00384,3.29468.00006-1.0982.00379-2.19641.00415-3.29468Z"/><path d="M187.2655,85.65049c.69446.156,1.41114.20642,2.10047.38122.26782.06793.51574.1518.77881.22351a29.49334,29.49334,0,0,0-2.96961-1.3695c-.51031-.19922-1.20666-.26313-1.43927-.79236a1.01339,1.01339,0,0,0-.08246.46228C185.69641,85.52555,186.60223,85.5015,187.2655,85.65049Z"/><path d="M190.47394,86.42893c-.10858-.05872-.21906-.116-.32916-.17371-.26307-.07171-.511-.15558-.77881-.22351-.68933-.1748-1.406-.22522-2.10047-.38122-.66327-.149-1.56909-.12494-1.61206-1.09485a1.33542,1.33542,0,0,0-.00244-.93055c.043-.96984.94879-.94586,1.61206-1.09484.69446-.156,1.41113-.20642,2.10053-.38123.27148-.06885.52276-.15375.78936-.2265.1081-.05664.21668-.113.32331-.17066C199.6131,76.80991,203.303,68.068,203.68591,56.87009c.54383-15.90778-6.07837-26.65979-20.00134-31.98206a53.86188,53.86188,0,0,0-14.5379-3.4154c-22.02973-1.93219-44.10694-.49524-66.15833-.96283-1.94732-.04126-2.42779.82391-2.37,2.68866.09369,3.02344-.01111,6.05316.03082,9.07928.04175,3.0116-.83478,6.75867.52106,8.82972,1.409,2.15228,5.23022,1.319,8.008,1.72271a16.28786,16.28786,0,0,0,3.16425.46472c2.47327-.14306,2.84711,1.2063,2.842,3.48218q-.03947,17.48732-.04468,34.97479c-.00036,1.09827-.00409,2.19648-.00415,3.29468.00012.46076.00153.92163.00171,1.38239q.00577,17.48739.04468,34.97473c.00512,2.27588-.36872,3.62524-2.842,3.48218a16.29245,16.29245,0,0,0-3.16425.46472c-2.77783.40375-6.599-.42957-8.008,1.72272-1.35584,2.071-.47931,5.81811-.521,8.82977-.04193,3.02606.0628,6.05579-.03088,9.07928-.0578,1.86475.42266,2.72992,2.37,2.6886,22.05139-.46759,44.1286.96936,66.15833-.96277a53.86421,53.86421,0,0,0,14.5379-3.4154c13.923-5.32233,20.54516-16.07434,20.00134-31.98212C203.3006,100.11283,199.61066,91.37094,190.47394,86.42893ZM145.14655,44.64505c5.67877.1875,11.38336-.122,17.04138.30713,9.53357.723,14.60931,7.43988,13.51593,17.30567-.6947,6.26812-4.85364,11.01989-10.971,12.13238-6.69519,1.21753-13.47308.37958-20.2113.58545-1.71717.05249-1.8617-1.08954-1.85676-2.46881.01539-4.27985.00562-8.55975.00562-12.8396-.00391-4.02814.06305-8.058-.03247-12.08362C142.59106,45.60965,142.981,44.57358,145.14655,44.64505Zm17.039,78.58356c-5.65808.42908-11.36261.11957-17.04145.30707-2.16552.07147-2.55548-.96454-2.5086-2.9386.09558-4.02557.02862-8.05548.03247-12.08362,0-4.27984.00976-8.55975-.00562-12.8396-.00494-1.37921.13959-2.5213,1.85675-2.46881,6.73822.20593,13.51612-.63208,20.21131.58551,6.11737,1.11249,10.2763,5.8642,10.971,12.13233C176.7948,115.78867,171.71906,122.50559,162.18555,123.22861Z"/><path d="M1281.98682,122.07853v20.90972h24.31665c-.033,1.845-.6847,2.275-2.07117,2.3357h3.42364V107.25852h-25.66912Z"/><path d="M1306.30347,142.98825h-24.31665v2.3357h22.24548C1305.61877,145.26328,1306.27051,144.83322,1306.30347,142.98825Z"/><path class="cls-2" d="M1082.40393,145.33615h-6.09534C1078.4433,145.5297,1080.79108,146.07218,1082.40393,145.33615Z"/><path class="cls-2" d="M1024.81873,145.34922c.09918.00036.17858-.00977.27069-.01307H1018.228C1020.42487,145.34275,1022.62183,145.34049,1024.81873,145.34922Z"/><path class="cls-2" d="M1053.81067,145.37943c.85528-.02509,1.71112-.029,2.56671-.04328H1052.756A7.61063,7.61063,0,0,0,1053.81067,145.37943Z"/><path class="cls-2" d="M973.85742,145.33615v.00544c.94055-.00318,1.88111-.00263,2.82166-.00544Z"/><path class="cls-2" d="M1121.1543,145.33615h-4.20441c.05219.001.09424.00782.1488.00763C1118.45056,145.33866,1119.80243,145.34043,1121.1543,145.33615Z"/><path class="cls-2" d="M1167.84229,145.34287c.05194.00018.09259-.00586.14251-.00672h-3.78125C1165.41644,145.33994,1166.62939,145.33841,1167.84229,145.34287Z"/><rect class="cls-2" x="1082.78802" y="145.33615" width="18.60461" height="14.10541"/><path class="cls-1" d="M1032.70081,42.36747c-7.21125-1.49494-14.53711-.55195-21.80988-.76569-2.04687-.06012-1.72229,1.49292-1.72754,2.77222-.02069,4.97351-.00848,9.9472-.00787,14.92083,0,5.33759.04309,10.67572-.02436,16.01239-.02233,1.77143.39338,2.68378,2.30506,2.64746,6.59216-.12512,13.20141.29163,19.77325-.44818,9.76709-1.09954,14.61756-6.62964,15.06336-16.947C1046.72156,50.17228,1042.5,44.3989,1032.70081,42.36747Z"/><path d="M1072.86682,123.543c-2.96576-.15448-4.49689-1.51275-5.88055-4.07361-4.27375-7.91-8.59705-15.80548-13.30054-23.436-1.38434-2.24585-1.25623-2.82568.82892-3.877,5.28918-2.66669,10.23627-6.064,13.16852-11.487,7.9707-14.74134,8.49688-29.98487.25879-44.62384-6.9679-12.382-18.79712-16.8545-31.8526-17.49018-10.51667-.51208-21.0741-.1037-31.61347-.1037l-.00006-.12182c-11.1189,0-22.23816.04248-33.35657-.03766-2.09515-.01508-3.15863.365-3.06524,2.93793.18017,4.97076.07995,9.954.03674,14.93145-.01386,1.60126.09747,2.74189,2.09473,2.90711,3.109.2572,6.18158,1.00342,9.29065,1.25323,2.22662.1789,2.85168,1.10425,2.845,3.40973q-.11171,38.24451-.00415,76.48944c.00573,2.17841-.66419,3.02137-2.69837,3.17334-2.99853.22394-5.97711.728-8.97131,1.03589-1.74738.17975-2.64606.80524-2.58612,2.92444.14416,5.09485.12048,10.199.0094,15.29559-.04438,2.03437.55468,2.7052,2.5437,2.69751,1.08105-.00415,2.16211-.00262,3.24316-.00628v-.00544h2.82166q20.77432-.06225,41.54889,0h3.43072V124.28879c-3.26019-.3114-6.51654-.67615-9.7782-.97119-1.66711-.15082-2.81012-.49646-2.76538-2.73889.12122-6.06793.08472-12.14081.01673-18.21057-.01929-1.72492.54119-2.337,2.20117-2.30335,4.39959.08917,8.80737.16608,13.2008-.02862,2.28565-.10132,3.46222.6781,4.53583,2.84448,6.50537,13.12677,13.25018,26.12311,19.75018,39.25268.99274,2.00525,2.043,2.99842,3.93622,3.20282h3.62134c6.20624-.10345,12.41846.02826,18.6264-.06115a12.58567,12.58567,0,0,1,1.30481.06115h6.09534a2.99779,2.99779,0,0,0,.38409-.21106V124.93015C1080.43481,123.05692,1076.20209,123.71665,1072.86682,123.543Zm-26.594-62.98346c-.4458,10.31732-5.29627,15.84742-15.06336,16.947-6.57184.73981-13.18109.32306-19.77325.44818-1.91168.03632-2.32739-.876-2.30506-2.64746.06745-5.33667.02436-10.6748.02436-16.01239-.00061-4.97363-.01282-9.94732.00787-14.92083.00525-1.2793-.31933-2.83234,1.72754-2.77222,7.27277.21374,14.59863-.72925,21.80988.76569C1042.5,44.3989,1046.72156,50.17228,1046.27283,60.55954Z"/></svg>