<svg id="Layer_1" data-name="Layer 1" xmlns="http://www.w3.org/2000/svg" viewBox="0 0 1241.53166 688.65954"><defs><style>.cls-1{fill:#ea5906;}.cls-2{fill:#f2f2f2;}</style></defs><title>webdriver</title><path d="M188.18382,535.38255l-40.666,128.48632h-4.478L102.28245,545.25169a26.94226,26.94226,0,0,1-1.00537-3.65528,27.37447,27.37447,0,0,1-1.00488,3.65528L59.33177,663.86887H54.94554l-40.666-128.48632h4.1123a1.93763,1.93763,0,0,1,2.01026,1.55371l35.457,114.13867a65.56711,65.56711,0,0,1,1.55371,6.58008q.364-1.82667.77686-3.47266.41088-1.645.86816-3.10742L98.62718,536.93626a2.04935,2.04935,0,0,1,2.19336-1.55371h1.188a1.93763,1.93763,0,0,1,2.01026,1.55371l39.56933,114.13867a59.45667,59.45667,0,0,1,1.645,6.48828q.364-1.82665.731-3.42676.364-1.59814.82275-3.06152l35.457-114.13867a2.04934,2.04934,0,0,1,2.19335-1.55371Z"/><path d="M289.71067,659.574l-.1831,4.29492H213.67893V535.38255h75.84864v4.29492H218.70481v56.93262h59.67383v4.20312H218.70481V659.574Z"/><path d="M354.77561,535.38255q21.01758,0,31.25342,8.40722,10.23341,8.4082,10.23486,23.85157a27.46856,27.46856,0,0,1-2.01025,10.37207,31.68178,31.68178,0,0,1-5.62012,9.09277,33.56821,33.56821,0,0,1-8.77295,7.03613,36.92265,36.92265,0,0,1-11.46875,4.11231,51.88614,51.88614,0,0,1,14.07325,3.33593,34.72189,34.72189,0,0,1,10.55468,6.48829,26.5953,26.5953,0,0,1,6.62549,9.4121,30.99494,30.99494,0,0,1,2.28467,12.1084,35.46682,35.46682,0,0,1-2.833,14.57617,28.563,28.563,0,0,1-8.27051,10.73731A37.61589,37.61589,0,0,1,377.53,661.58469a64.22211,64.22211,0,0,1-17.91113,2.28418H319.95823V535.38255Zm-29.7915,4.0205V596.8845h30.43115A46.286,46.286,0,0,0,371.90989,594.28a32.84707,32.84707,0,0,0,11.14893-6.7627,25.3392,25.3392,0,0,0,6.30566-9.32129,28.5212,28.5212,0,0,0,1.96484-10.18945q0-13.79736-9.00146-21.20117-9.00221-7.40186-27.55225-7.40235Zm34.63477,120.35352q18.00219,0,27.64355-7.72168,9.64088-7.72119,9.64111-22.52637a26.794,26.794,0,0,0-2.60449-11.97168A25.838,25.838,0,0,0,386.8972,608.49a34.46544,34.46544,0,0,0-11.69727-5.75684,55.35551,55.35551,0,0,0-15.48975-2.01074H324.98411v59.03418Z"/><path d="M540.55882,599.62571a77.85,77.85,0,0,1-4.38623,27.00391,57.19266,57.19266,0,0,1-12.33692,20.19629,53.22687,53.22687,0,0,1-19.00781,12.65625,65.61311,65.61311,0,0,1-24.3999,4.38671H434.09641V535.38255H480.428a65.61311,65.61311,0,0,1,24.3999,4.38671,53.25238,53.25238,0,0,1,19.00781,12.65625,57.20131,57.20131,0,0,1,12.33692,20.19629A77.85,77.85,0,0,1,540.55882,599.62571Zm-5.3003,0a76.09124,76.09124,0,0,0-3.97509-25.542,52.68141,52.68141,0,0,0-11.24024-18.8711,48.0911,48.0911,0,0,0-17.36279-11.69726,59.66522,59.66522,0,0,0-22.25244-4.02051H439.12229V659.75657H480.428a59.62626,59.62626,0,0,0,22.25244-4.02051,48.07871,48.07871,0,0,0,17.36279-11.69726,52.66457,52.66457,0,0,0,11.24024-18.8711A76.07511,76.07511,0,0,0,535.25852,599.62571Z"/><path d="M658.16966,663.86887h-4.11231a5.33389,5.33389,0,0,1-1.78222-.27441,3.35,3.35,0,0,1-1.50782-1.2793l-45.32666-55.46972a8.97623,8.97623,0,0,0-1.50781-1.64551,7.17894,7.17894,0,0,0-1.73633-1.05078,8.95331,8.95331,0,0,0-2.28467-.59375,24.41658,24.41658,0,0,0-3.24414-.18262H577.93382v60.49609h-5.02588V535.38255h30.979q20.926,0,31.80225,8.13281,10.87353,8.13575,10.874,24.67383a32.58366,32.58366,0,0,1-2.833,13.7539A31.89069,31.89069,0,0,1,635.78,592.6345a38.79133,38.79133,0,0,1-12.42774,7.21973,56.66175,56.66175,0,0,1-16.17529,3.24414,11.853,11.853,0,0,1,3.19824,2.74121Zm-80.23584-64.335H602.425a57.4539,57.4539,0,0,0,16.312-2.14746,35.57264,35.57264,0,0,0,12.33691-6.21386,27.2869,27.2869,0,0,0,7.76758-9.82422,30.25738,30.25738,0,0,0,2.69629-12.97657q0-14.89307-9.6875-21.93164-9.687-7.03565-27.96338-7.03711H577.93382Z"/><path d="M687.04368,663.86887h-5.02637V535.38255h5.02637Z"/><path d="M821.92552,535.38255,768.55638,663.86887h-4.47754L710.71067,535.38255h3.92969a1.93712,1.93712,0,0,1,2.00977,1.55371L764.35325,651.989q.54784,1.46339,1.05078,2.96973.501,1.50879.96,3.06152a63.20786,63.20786,0,0,1,1.919-6.03125l47.61133-115.05273a2.0486,2.0486,0,0,1,2.19238-1.55371Z"/><path d="M921.6218,659.574l-.18261,4.29492H845.59055V535.38255h75.84864v4.29492H850.61692v56.93262h59.67383v4.20312H850.61692V659.574Z"/><path d="M1037.13255,663.86887h-4.11231a5.33389,5.33389,0,0,1-1.78222-.27441,3.35,3.35,0,0,1-1.50782-1.2793l-45.32715-55.46972a8.94182,8.94182,0,0,0-1.50781-1.64551,7.16038,7.16038,0,0,0-1.73633-1.05078,8.94374,8.94374,0,0,0-2.28418-.59375,24.41648,24.41648,0,0,0-3.24414-.18262H956.8972v60.49609h-5.02637V535.38255h30.97949q20.9253,0,31.80176,8.13281,10.87353,8.13575,10.874,24.67383a32.58366,32.58366,0,0,1-2.833,13.7539,31.89069,31.89069,0,0,1-7.95019,10.69141,38.79133,38.79133,0,0,1-12.42774,7.21973,56.66175,56.66175,0,0,1-16.17578,3.24414,11.86325,11.86325,0,0,1,3.19922,2.74121Zm-80.23535-64.335h24.49023a57.45984,57.45984,0,0,0,16.3125-2.14746,35.57264,35.57264,0,0,0,12.33691-6.21386,27.2869,27.2869,0,0,0,7.76758-9.82422,30.25738,30.25738,0,0,0,2.69629-12.97657q0-14.89307-9.6875-21.93164-9.687-7.03565-27.96289-7.03711H956.8972Z"/><rect class="cls-1" x="1059.76762" y="531.92881" width="162.0769" height="132.17573" rx="18.15221"/><path class="cls-2" d="M1087.71458,639.23509h-3.17578v-81.1836h3.17578Z"/><path class="cls-2" d="M1097.0095,642.58372a1.83035,1.83035,0,0,1-.86523.98144,2.684,2.684,0,0,1-1.21289.28907h-1.15528l36.49219-86.8418a2.07486,2.07486,0,0,1,1.96289-1.27051h1.27051Z"/><path class="cls-2" d="M1209.95091,598.64329a50.14841,50.14841,0,0,1-2.77246,17.17773,37.74771,37.74771,0,0,1-7.79493,13.04981,33.82889,33.82889,0,0,1-12.00976,8.28515,42.5952,42.5952,0,0,1-30.833,0,33.83266,33.83266,0,0,1-12.01074-8.28515,37.76259,37.76259,0,0,1-7.79492-13.04981,54.52887,54.52887,0,0,1,0-34.32617,37.73717,37.73717,0,0,1,7.79492-13.07812,34.4884,34.4884,0,0,1,12.01074-8.34375,39.15126,39.15126,0,0,1,15.3584-2.94532,39.81039,39.81039,0,0,1,15.47461,2.916,34.1798,34.1798,0,0,1,12.00976,8.31445,37.73583,37.73583,0,0,1,7.79493,13.0791A50.39413,50.39413,0,0,1,1209.95091,598.64329Zm-3.34961,0a49.09274,49.09274,0,0,0-2.51172-16.25391,34.915,34.915,0,0,0-7.10156-12.21191,30.62452,30.62452,0,0,0-10.97071-7.67969,38.53885,38.53885,0,0,0-28.12011,0,30.616,30.616,0,0,0-10.97071,7.67969,35.61913,35.61913,0,0,0-7.16015,12.21191,52.69659,52.69659,0,0,0,0,32.50781,34.97952,34.97952,0,0,0,7.16015,12.1543,30.92435,30.92435,0,0,0,10.97071,7.62207,38.53885,38.53885,0,0,0,28.12011,0,30.933,30.933,0,0,0,10.97071-7.62207,34.29617,34.29617,0,0,0,7.10156-12.1543A49.08449,49.08449,0,0,0,1206.6013,598.64329Z"/><g id="g10"><g id="g129"><path id="path28" class="cls-1" d="M524.03452,155.5525h7.02683v-7.02683h-7.02683Z"/><path id="path30" class="cls-1" d="M535.83731,155.5525h7.02683v-7.02683h-7.02683Z"/><path id="path32" class="cls-1" d="M547.6401,155.5525h7.02683v-7.02683H547.6401Z"/><path id="path34" class="cls-1" d="M559.44693,155.5525h7.02683v-7.02683h-7.02683Z"/><g id="g36"><g id="g38"><g id="g44"><path id="path46" class="cls-1" d="M522.48314,91.34386V47.79935a21.77224,21.77224,0,1,0-.00426,43.54448h.00426"/></g><g id="g48"><path id="path50" class="cls-1" d="M712.71622,69.57162A21.76857,21.76857,0,0,0,690.94929,47.8014H690.946V91.34184a21.76858,21.76858,0,0,0,21.77022-21.76692v-.0033"/></g><g id="g52"><path id="path54" class="cls-1" d="M574.40009,49.907a18.06723,18.06723,0,1,1-18.07122,18.06722A18.06722,18.06722,0,0,1,574.40009,49.907m0,40.34973a22.28251,22.28251,0,1,0-22.28654-22.28251,22.2825,22.2825,0,0,0,22.28654,22.28251"/></g><g id="g56"><path id="path58" class="cls-1" d="M574.39847,83.09279a15.11854,15.11854,0,1,0-15.11854-15.11855h0A15.11836,15.11836,0,0,0,574.3981,83.09279h.00037"/></g><g id="g60"><path id="path62" class="cls-1" d="M639.03307,49.907A18.06723,18.06723,0,1,1,620.9618,67.97425,18.06723,18.06723,0,0,1,639.03307,49.907m0,40.34973a22.28251,22.28251,0,1,0-22.28655-22.28251,22.2825,22.2825,0,0,0,22.28655,22.28251"/></g><g id="g64"><path id="path66" class="cls-1" d="M639.02906,83.09279a15.11855,15.11855,0,1,0-15.11854-15.11855h0A15.11836,15.11836,0,0,0,639.0287,83.09279h.00036"/></g><path id="path68" class="cls-1" d="M676.26069,58.75024h-7.02683V65.773h7.02683Z"/><path id="path70" class="cls-1" d="M676.26069,68.86287h-7.02683V75.8897h7.02683Z"/><g id="g72"><path id="path74" class="cls-1" d="M532.53043,33.88812a12.52921,12.52921,0,0,1,12.51273-12.51271H668.38354a12.53009,12.53009,0,0,1,12.51678,12.51274V88.52547a12.53008,12.53008,0,0,1-12.51678,12.51273H545.04316a12.52923,12.52923,0,0,1-12.51272-12.51274Zm12.51272,71.36533H668.38354a16.77987,16.77987,0,0,0,16.732-16.728V33.88812a16.77987,16.77987,0,0,0-16.732-16.728H545.04316a16.77641,16.77641,0,0,0-16.728,16.728V88.52544a16.77641,16.77641,0,0,0,16.728,16.728"/></g><g id="g76"><path id="path78" class="cls-1" d="M632.5964,295.34817h45.48875a3.79376,3.79376,0,0,0,0-7.58751H632.5964a3.79376,3.79376,0,1,0,0,7.58751h0"/></g><g id="g80"><path id="path82" class="cls-1" d="M632.5964,306.73227h15.18712a3.79376,3.79376,0,0,0,0-7.58751H632.5964a3.79376,3.79376,0,0,0,0,7.58751"/></g><g id="g84"><path id="path86" class="cls-1" d="M632.5964,283.96774h45.48875a3.79376,3.79376,0,0,0,0-7.58751H632.5964a3.79375,3.79375,0,1,0,0,7.58751h0"/></g><g id="g88"><path id="path90" class="cls-1" d="M563.99662,233.37629c10.20945,0,17.5267-8.26519,17.5267-18.47463v-.117c0-10.20945-7.43829-18.59161-17.64368-18.59161-10.20945,0-17.53069,8.26517-17.53069,18.47462v.117c0,10.20945,7.43828,18.59161,17.64771,18.59161"/></g><g id="g92"><path id="path94" class="cls-1" d="M764.59162,327.07049a8.3428,8.3428,0,0,1-6.25233,2.27908c-2.96883,0-4.87682-.80272-6.13132-2.13387a9.44473,9.44473,0,0,0,5.615-3.29557c1.58526-2.09352,1.92007-4.80824.99634-8.06753-.32673-1.15366-.59293-2.06124-.82291-2.83572-.96-3.23508-1.21819-4.12653-2.31539-11.90363a31.21118,31.21118,0,0,0,9.34219-3.348,192.9567,192.9567,0,0,0,2.44449,21.77022c-.0242.81482-.28639,4.93328-2.87607,7.53506m-14.85635-8.717c-.03228-.68575-.06455-1.311-.117-1.85151-.40743-4.24754-2.73893-6.81707-6.22817-6.8735-3.72317-.04034-5.67148,2.06528-7.168,4.3484a6.1197,6.1197,0,0,1-.8592,1.00438,4.46476,4.46476,0,0,1-1.557-1.88376,2.21486,2.21486,0,0,1,.18555-1.81923,23.62864,23.62864,0,0,1,3.87242-4.99783,33.42307,33.42307,0,0,0,4.03779-5.0059,38.82154,38.82154,0,0,0,6.446.5365q1.60344,0,3.15842-.12908c1.14156,8.12,1.44006,9.13647,2.4485,12.52886.2259.76238.48811,1.65385.80675,2.78734.54457,1.916.44775,3.38432-.29042,4.36857-.96407,1.28273-2.95272,1.75468-4.17089,1.89182a30.34917,30.34917,0,0,1-.56473-4.90506m-22.218-2.76313a3.85926,3.85926,0,0,1-1.94427-2.52513c-.4195-1.93217.52843-4.63075,2.73892-7.79727a18.15537,18.15537,0,0,0,3.21894-7.57944,29.89878,29.89878,0,0,0,6.83321,2.80347,40.03813,40.03813,0,0,1-2.981,3.50533,26.35133,26.35133,0,0,0-4.40488,5.77231,5.58322,5.58322,0,0,0-.355,4.44117,6.71137,6.71137,0,0,0,1.41181,2.29521,8.23509,8.23509,0,0,1-4.51781-.91565m-9.94721-153.96874v-25.4369a61.98984,61.98984,0,0,1,22.52453,9.83833c13.59782,9.57212,20.49152,22.84724,20.49152,39.45424v83.31738H741.19582v-74.552c0-9.81414-3.34-19.4589-9.923-25.34817a35.041,35.041,0,0,0-13.70269-7.27288m-22.9763-1.71435H518.83056V139.05278a16.77642,16.77642,0,0,1,16.728-16.728H677.86973a16.77294,16.77294,0,0,1,16.724,16.728Zm0,54.16133c-3.95714-2.92851-7.402-3.93292-12.51679-3.81191-6.26039.14521-11.6011,5.05028-15.56628,9.50759-2.92448,3.27946-5.94173,6.67186-8.479,6.67186-1.62964,0-4.17088-2.0169-6.86548-4.1548-5.33667-4.23141-12.658-10.032-24.3518-10.59265-11.05656-.53649-19.22893,8.05945-24.4204,16.11486V190.3945h92.19966Zm0,25.2191h-89.8723a63.37668,63.37668,0,0,1,4.88084-8.62415c3.69089-5.39315,9.60843-11.75438,16.845-11.39941,9.26153.44774,14.96929,4.97363,20.00746,8.96705,3.75943,2.97693,7.30112,5.79246,11.5769,5.79246,5.94173,0,10.29819-4.897,14.14237-9.21716,3.04952-3.42063,6.22817-6.61134,9.05986-6.96228,3.50937-.43967,7.83356.36305,13.35982,6.65168ZM563.99662,193.41982c12.51274,0,20.71337,9.97549,20.71337,21.24583.0605.06051.0605.06051,0,.121,0,11.27034-8.32165,21.36281-20.83036,21.36281-12.51274,0-20.71742-9.97549-20.71742-21.24584v-.117c0-11.27437,8.32165-21.36684,20.83439-21.36684m-37.12677,45.33546h-2.88818l19.43466-46.33986h2.89221Zm-7.07523-44.62551h3.06969v41.30977H519.7946ZM694.59373,294.42929a16.77558,16.77558,0,0,1-16.724,16.728H590.90182a20.03773,20.03773,0,1,0-6.805,0H548.89019a20.03772,20.03772,0,1,0-6.66778,0h-6.66378a16.779,16.779,0,0,1-16.728-16.728V269.50062H694.59375Zm-13.44858,28.10727h5.3044v46.89252h-5.3044Zm17.05878,51.10778c1.30694.29446,10.05215,2.61388,13.57765,11.66157H661.896a24.98912,24.98912,0,0,0-4.78-10.02391,16.767,16.767,0,0,0-1.52477-1.63771Zm14.83215,16.65135H662.39624a18.64522,18.64522,0,0,0-.0847-2.46463h50.26472a23.06256,23.06256,0,0,1,.45984,2.46463m-58.304-31.26166v10.39505h-5.7602V322.53656h5.76018v27.64336h-1.96848v8.85414Zm-9.50354,26.44535c.04034-4.34839.92773-7.63995,2.53723-9.24133a3.00741,3.00741,0,0,1,2.4727-.92373c.75433.06052,2.10159.78255,3.6183,2.63809a19.95934,19.95934,0,0,1,4.33226,12.05288Zm-61.14782-90.5055a3.80286,3.80286,0,0,0,5.36894,0L601.079,283.34046a15.873,15.873,0,1,1-5.32859-5.4012L584.08077,289.609a3.79552,3.79552,0,0,0,0,5.36491M558.34939,350.18V322.53656h5.76022v46.89252h-5.76022V359.034h1.96847V350.1799Zm-3.461,39.82534a19.95922,19.95922,0,0,1,4.33227-12.05288c1.5167-1.85554,2.864-2.57757,3.61829-2.63809a3.00737,3.00737,0,0,1,2.47269.92373c1.61351,1.6014,2.50092,4.893,2.53724,9.24133ZM545.55431,287.338a3.79334,3.79334,0,0,0-3.79174,3.795v15.62355a15.82246,15.82246,0,1,1,7.58752,0V291.13369a3.79422,3.79422,0,0,0-3.79269-3.79576h-.00308m-18.92239,35.19863h5.3044v46.89252h-5.3044ZM551.18141,385.306H501.29586c3.52554-9.04773,12.27071-11.36713,13.57765-11.66156h42.61671a16.81182,16.81182,0,0,0-1.53285,1.63771,25.03884,25.03884,0,0,0-4.776,10.0239m-.50019,4.98977H500.04533a22.11615,22.11615,0,0,1,.45582-2.46464h50.26874a18.648,18.648,0,0,0-.08873,2.46464M495.85828,161.62168a35.02478,35.02478,0,0,0-13.69865,7.27288c-6.58715,5.88929-9.92709,15.534-9.92709,25.34817v74.552H452.84225V185.47734c0-16.607,6.8937-29.88211,20.49152-39.45424a61.98966,61.98966,0,0,1,22.52454-9.83834ZM485.11639,305.268c2.21049,3.16649,3.16245,5.8651,2.743,7.79727a3.85317,3.85317,0,0,1-1.94832,2.52513,8.22846,8.22846,0,0,1-4.51379.91565,6.76563,6.76563,0,0,0,1.40778-2.29521,5.58322,5.58322,0,0,0-.355-4.44117,26.10316,26.10316,0,0,0-4.40489-5.77231,40.0379,40.0379,0,0,1-2.98094-3.50533,29.82256,29.82256,0,0,0,6.8332-2.80347,18.155,18.155,0,0,0,3.2189,7.57944m-5.494,7.82952a4.4068,4.4068,0,0,1-1.55705,1.88376,5.91562,5.91562,0,0,1-.85514-1.00439c-1.50058-2.28311-3.44888-4.38874-7.172-4.34839-3.4892.05648-5.81671,2.626-6.22409,6.8735-.05241.54053-.08472,1.16576-.121,1.8515a29.475,29.475,0,0,1-.56472,4.90505c-1.21821-.13715-3.20684-.6091-4.17088-1.89183-.73415-.98424-.835-2.45254-.29446-4.36857.32271-1.13346.58488-2.02494.81077-2.78734,1.00844-3.39239,1.311-4.40891,2.4485-12.52886q1.555.12708,3.16246.12908a38.77216,38.77216,0,0,0,6.44192-.5365,33.677,33.677,0,0,0,4.0378,5.0059,23.62787,23.62787,0,0,1,3.8724,4.99783,2.21487,2.21487,0,0,1,.18555,1.81924m-24.52931,16.25205a8.33671,8.33671,0,0,1-6.25234-2.27908c-2.58966-2.60178-2.85187-6.72024-2.88009-7.53507a192.00581,192.00581,0,0,0,2.44449-21.77022,31.17072,31.17072,0,0,0,9.34218,3.34805c-1.09316,7.7771-1.35533,8.66855-2.31537,11.90363-.22992.77448-.49616,1.68209-.82292,2.83575-.92371,3.25928-.58894,5.974.99635,8.06752a9.4447,9.4447,0,0,0,5.615,3.29557c-1.25449,1.33115-3.16246,2.13387-6.12726,2.13387m314.14542-34.63794a12.68469,12.68469,0,0,0,4.413-9.197c0-4.417-2.73489-8.42251-7.164-11.35909v-88.6782c0-40.76117-37.70359-53.41912-48.91744-55.25045v-1.71434a16.779,16.779,0,0,0-16.728-16.728H512.5863a16.78164,16.78164,0,0,0-16.728,16.728v1.71433c-11.21789,1.83133-48.91744,14.48927-48.91744,55.25045V274.1556c-4.43311,2.93659-7.164,6.94211-7.164,11.35909a12.68469,12.68469,0,0,0,4.41294,9.197c.29446,6.4863-1.58123,19.41451-2.41622,24.31149l-.02825.32673c-.004.26219-.02826,6.51454,4.07814,10.66528a12.501,12.501,0,0,0,9.26957,3.54971c12.04885,0,12.56115-10.12878,12.80722-14.99753.03228-.61719.06049-1.17384.10891-1.66192.18957-2.01286.89952-3.04146,2.09754-3.06163h.113c1.28273,0,2.11369.3872,3.48113,2.47271,3.79981,5.619,10.67738,5.07852,14.35615,2.90834a8.05059,8.05059,0,0,0,3.92082-5.26408c.68171-3.15439-.46387-6.89369-3.4045-11.109a12.462,12.462,0,0,1-2.58967-8.14819,12.67324,12.67324,0,0,0,4.40488-9.18893c0-4.425-2.747-8.44268-7.19622-11.37924V194.24272c0-6.65572,2.0532-9.19295,6.2725-12.96451a12.651,12.651,0,0,1,6.39351-2.985V305.80853a16.779,16.779,0,0,0,16.728,16.728h11.51639v46.89254H514.462l-.19361.0363c-.16538.02825-16.50213,3.25526-18.4585,20.81826v17.99461h58.2556l17.914-6.25636v-13.622c.43968-7.03084-.81482-12.24651-3.65461-15.10243V322.53656h76.42771v50.76087c-2.83572,2.856-4.09831,8.07156-3.65057,15.1024v13.622l17.914,6.25632h58.25561V390.28362c-1.95638-17.563-18.29716-20.79-18.46658-20.81826l-.18556-.03631h-9.64064V322.53656H700.842a16.77643,16.77643,0,0,0,16.728-16.728V178.30129a12.667,12.667,0,0,1,6.39754,2.9769c4.21932,3.77158,6.26847,6.30881,6.26847,12.96452v79.89272c-4.44924,2.93659-7.19623,6.95421-7.19623,11.37924a12.69312,12.69312,0,0,0,4.40891,9.18893,12.49341,12.49341,0,0,1-2.59371,8.14819c-2.94062,4.21529-4.08621,7.95457-3.40046,11.109a8.03183,8.03183,0,0,0,3.91679,5.26406c3.67475,2.17017,10.5604,2.71068,14.35616-2.90835,1.36743-2.08543,2.19839-2.4727,3.47709-2.4727h.117c1.198.02017,1.904,1.04876,2.10159,3.06162.04841.48811.07262,1.04476.10083,1.66192.25011,4.86876.76238,14.99753,12.81528,14.99753a12.49159,12.49159,0,0,0,9.26559-3.54971c4.11039-4.15073,4.08218-10.40309,4.08218-10.66527l-.03228-.32674c-.831-4.897-2.70665-17.82519-2.41622-24.31148"/></g></g></g></g></g></svg>