<svg xmlns="http://www.w3.org/2000/svg" role="img" viewBox="6.63 -3.37 487.24 168.24"><title>AMP logo</title><path fill="#1d5fe6" d="M90.932 6.034c41.534.327 74.81 32.474 74.953 75.695.131 39.619-32.232 75.022-76.837 74.153-40.686-.793-73.918-33.934-73.008-77.206.803-38.219 31.985-72.247 74.892-72.642zM75.15 92.298c2.664 0 5.329.006 7.993-.003 1.274-.004 2.072.284 1.775 1.881-.653 3.512-1.188 7.045-1.762 10.57q-1.622 9.967-3.233 19.936c-.103.633-.434 1.31.382 1.747 1.389.743 5.187-.203 5.972-1.514q14.934-24.921 29.853-49.851c2.066-3.457.982-5.326-3.071-5.356q-6.995-.05-13.99 0c-1.448.008-2.432-.183-2.083-2.078 1.04-5.637 1.99-11.29 2.943-16.943q1.118-6.638 2.142-13.292c.102-.662.505-1.481-.573-1.874a5.644 5.644 0 0 0-6.168 2.141Q83.842 56.794 72.372 75.937c-2.308 3.85-4.685 7.66-6.884 11.572-1.648 2.93-.566 4.745 2.668 4.78 2.331.025 4.663.005 6.995.01z"/><path fill="#1d60e6" d="M358.741 95.808c4.682-12.206 9.204-23.97 13.705-35.74 2.548-6.664 5.092-13.33 7.565-20.02a2.704 2.704 0 0 1 2.99-1.973c6.997.06 13.995.078 20.992-.01 1.994-.024 2.523.71 2.52 2.634q-.08 39.972.002 79.944c.004 1.898-.592 2.41-2.431 2.373-5.413-.11-10.831-.142-16.242.011-2.194.062-2.845-.569-2.83-2.789.1-14.572.064-29.145.066-43.718a4.205 4.205 0 0 0-.525-2.252c-1.54 4.402-3.092 8.8-4.618 13.207-3.826 11.048-7.687 22.085-11.416 33.167-.649 1.926-1.615 2.454-3.562 2.384-4.326-.157-8.672-.226-12.989.022-2.341.134-3.163-.87-3.828-2.818-4.42-12.942-8.916-25.86-13.394-38.783-.829-2.393-1.684-4.776-2.56-7.253-.882.79-.614 1.669-.614 2.46.002 14.573-.02 29.146.077 43.718.014 2.067-.544 2.71-2.645 2.654-5.494-.145-10.995-.096-16.492-.018-1.545.022-2.218-.306-2.215-2.032q.067-40.221.002-80.443c-.003-1.883.734-2.468 2.514-2.455 6.997.054 13.995.065 20.991-.009a2.88 2.88 0 0 1 3.119 2.173q10.268 26.573 20.641 53.105c.268.687.635 1.335 1.177 2.462zM259.966 38.1c3.247 0 6.499.094 9.74-.037a2.808 2.808 0 0 1 3.1 2.206q7.843 21.486 15.745 42.95c4.556 12.367 9.16 24.716 13.726 37.08.983 2.66.95 2.676-1.904 2.677-5.828.003-11.66-.09-17.485.053-1.861.045-2.602-.622-3.119-2.293-1.15-3.721-2.576-7.357-3.72-11.08a2.66 2.66 0 0 0-3.03-2.183q-13.364.108-26.729-.003a2.54 2.54 0 0 0-2.835 2.098c-1.234 3.87-2.617 7.694-3.885 11.555-.4 1.217-.895 1.915-2.398 1.893q-9.241-.14-18.485-.01c-1.944.024-1.993-.635-1.4-2.223 4.72-12.659 9.372-25.343 14.042-38.021 5.243-14.236 10.508-28.464 15.69-42.721a2.601 2.601 0 0 1 2.955-1.967c3.329.084 6.661.026 9.992.026zm-.176 53.152c2.663 0 5.328-.057 7.99.022 1.479.044 1.978-.326 1.445-1.859-2.905-8.369-5.753-16.757-8.629-25.136-.17-.495.032-1.341-.822-1.284-.532.036-.642.647-.81 1.136q-4.338 12.698-8.73 25.379c-.477 1.374-.076 1.792 1.318 1.76 2.745-.063 5.492-.019 8.238-.018zm160.08-10.83c0-13.317.046-26.635-.047-39.952-.015-2.161.545-2.885 2.781-2.847 11.9.2 23.813-.326 35.704.327 13.662.75 24.756 8.959 26.154 24.007.935 10.062-1.495 18.616-9.548 25.088-5.393 4.332-11.855 5.85-18.571 6.27-4.23.264-8.492.163-12.734.05-1.865-.05-2.56.316-2.524 2.41.143 8.238.007 16.48.097 24.719.021 1.94-.517 2.581-2.527 2.53q-8.237-.207-16.482.002c-1.937.048-2.35-.594-2.34-2.403.068-13.4.037-26.8.037-40.201zm21.274-14.853c0 2.996.058 5.993-.026 8.987-.04 1.409.418 1.913 1.852 1.862 2.827-.1 5.667.087 8.488-.078 8.78-.514 12.216-4.468 11.423-12.97a8.798 8.798 0 0 0-6.905-7.864c-4.522-1.115-9.112-.369-13.665-.597-1.294-.065-1.178.816-1.174 1.672.014 2.996.005 5.992.007 8.988z"/></svg>