<svg xmlns="http://www.w3.org/2000/svg" role="img" viewBox="-7.88 -7.88 409.76 389.76"><title>Architect logo</title><path fill="#292b29" d="M197.058 0c-74.491 0-135.09 60.6-135.09 135.091 0 74.492 60.599 135.091 135.09 135.091 74.492 0 135.092-60.6 135.092-135.09C332.15 60.598 271.493 0 197.058 0zm92.73 197.977c-21.04 30.929-55.512 49.28-92.787 49.28-37.103 0-71.576-18.294-92.614-48.994l92.614-90.213zm19.437-62.886c0 14.407-2.744 28.528-8.233 41.962L208.55 87.412c-6.345-6.346-16.693-6.403-22.982-.114l-92.385 90.041c-5.546-13.549-8.347-27.727-8.347-42.248 0-61.857 50.366-112.223 112.223-112.223 61.858 0 112.167 50.309 112.167 112.223zM62.442 371.512l-27.301-63.96c-.404-1.268-2.037-1.94-3.324-1.94h-.846c-1.306 0-2.881.883-3.4 2.074L.096 371.608a1.162 1.162 0 0 0-.096.461c0 .615.519 1.115 1.134 1.115H8.76c.577 0 1.134-.596 1.326-1 .057-.134 5.322-12.91 5.322-12.91h31.778l5.322 13.141s.404 1.153 1.653 1.153h6.897c.826 0 1.518-.673 1.518-1.499-.02-.211-.135-.557-.135-.557zm-43.748-20.616l12.604-30.26 12.508 30.26zm171.438-1.69c0-12.124-7.8-20.116-19.174-20.116-6.494 0-11.182 2.728-13.91 6.301v-28.32h-.02a1.057 1.057 0 0 0-1.056-.999h-7.167a1.05 1.05 0 0 0-1.057 1.038v65.036c0 .557.461 1.018 1.019 1.018h7.377c.558 0 1.019-.46 1.019-1.018v-22.48c.096-5.917 4.227-12.123 12.027-12.123 6.86 0 11.566 5.169 11.566 12.97v21.633c0 .557.461 1.018 1.019 1.018h7.377c.558 0 1.019-.46 1.019-1.018zm17.023-40.232c-3.67.096-6.57 2.536-6.57 6.301 0 3.766 2.92 6.398 6.57 6.398 3.766 0 6.667-2.632 6.667-6.398 0-3.765-2.92-6.398-6.667-6.301zm97.468 41.922c0-.23 0-.48-.02-.691v-.077c0-.173 0-.346-.019-.519 0-.096-.019-.173-.019-.269a59.478 59.478 0 0 0-.153-1.69c-1.403-11.048-9.3-18.522-20.54-18.522-13.064 0-22.19 9.78-22.19 22.46 0 12.873 9.875 22.46 23.305 22.46 8.454 0 13.507-2.747 16.6-5.168 0 0 .692-.48.27-1.268l-3.113-5.207c-.27-.423-1.057-.461-1.576-.038-2.382 1.767-5.706 3.785-11.163 3.785-8.088 0-13.91-4.977-15.14-11.836h32.99c.499 0 .71-.422.71-.922 0 0 .039-1.076.039-2.133v-.057c.019-.115.019-.212.019-.308zm-33.642-3.285c1.402-6.763 6.398-10.894 13.16-10.894 6.207 0 11.087 4.323 11.567 10.894zM95.66 329.243s-1.71-.134-2.612-.134c-7.705 0-12.873 4.227-14.66 9.299l-.326-7.474a1.103 1.103 0 0 0-1.096-.98h-5.879a1.076 1.076 0 0 0-1.076 1.076v41.097c0 .576.48 1.057 1.057 1.057h7.263a1.08 1.08 0 0 0 1.076-1.038v-21.98c.096-6.11 4.226-12.123 12.315-12.123 1.268 0 3.17.326 3.17.326.577.077 1.019-.269 1.057-.768l.596-7.378c.038-.519-.385-.941-.884-.98zm38.177 33.604a.735.735 0 0 1 1.018.307l3.151 5.745c.192.365.058.769-.307 1l-.038.018c-2.96 1.826-7.129 4.093-14.449 4.093-13.91 0-23.497-9.78-23.497-22.364 0-12.777 10.24-22.556 23.497-22.556 7.397 0 11.836 2.267 14.756 4.303.134.096.538.442.211 1l-3.304 5.686c-.212.365-.654.462-1.019.25l-.077-.057c-2.286-1.422-5.38-2.633-9.53-2.633-8.933 0-14.947 5.918-14.947 14.007 0 7.896 6.014 13.814 14.564 13.814 4.591 0 7.57-1.23 9.913-2.594zm77.102-32.912h-7.282c-.557 0-1.018.461-1.018 1.018l-.096 41.212c0 .557.461 1.019 1.018 1.019h7.359c.557 0 1.018-.462 1.018-1.019v-41.212c0-.557-.442-1.018-.999-1.018zm44.305 33.757c-.115-.23-.864-.25-1.69.212-1.633.845-3.478 1.748-6.744 1.748-5.36 0-8.646-2.344-8.646-8.089v-19.828h16.1c.558 0 1.019-.46 1.019-1.018v-5.764c0-.557-.461-1.018-1.018-1.018h-16.101v-13.833c0-.558-.461-1.019-1.018-1.019h-7.09c-.557 0-1.018.461-1.018 1.019v13.833h-8.012c-.557 0-1.018.461-1.018 1.018v5.764c0 .557.46 1.018 1.018 1.018h7.82v20.405c0 10.24 6.494 15.889 16.081 15.889 6.801 0 10.74-2.344 12.604-3.67.326-.365.518-.73.326-1.133zm89.495-.691a.735.735 0 0 1 1.018.307l3.151 5.745c.192.365.058.768-.307.999l-.039.019c-2.959 1.825-7.128 4.092-14.448 4.092-13.91 0-23.498-9.78-23.498-22.364 0-12.776 10.24-22.556 23.498-22.556 7.397 0 11.835 2.267 14.756 4.304.134.096.538.442.21 1l-3.304 5.686c-.211.365-.653.461-1.018.25l-.077-.058c-2.286-1.421-5.38-2.632-9.53-2.632-8.934 0-14.947 5.918-14.947 14.006 0 7.897 6.013 13.815 14.563 13.815 4.592 0 7.57-1.23 9.914-2.594zm46.687.903c-.115-.23-.864-.25-1.69.211-1.633.845-3.478 1.748-6.744 1.748-5.36 0-8.646-2.344-8.646-8.088v-19.828h16.1c.558 0 1.019-.461 1.019-1.018v-5.764c0-.558-.461-1.019-1.018-1.019h-16.101v-13.833c0-.557-.461-1.018-1.018-1.018h-7.09c-.557 0-1.018.46-1.018 1.018v13.833h-8.012c-.557 0-1.018.461-1.018 1.019v5.764c0 .557.46 1.018 1.018 1.018h7.82v20.404c0 10.24 6.494 15.89 16.081 15.89 6.801 0 10.74-2.345 12.604-3.67.326-.365.519-.73.326-1.134z"/></svg>