<svg xmlns="http://www.w3.org/2000/svg" role="img" viewBox="-9.99 -9.99 519.48 515.98"><title>Chassis logo</title><defs><clipPath id="a" clipPathUnits="userSpaceOnUse"><path d="M0 300h500V0H0z"/></clipPath></defs><g clip-path="url(#a)" transform="matrix(4.58137 0 0 -4.58137 -893.367 936.325)"><path fill="#333233" d="M195 105.348c0 1.07.192 2.136.578 3.199a8.757 8.757 0 0 0 1.68 2.847 8.533 8.533 0 0 0 2.698 2.033c1.061.518 2.27.777 3.625.777 1.588 0 2.968-.36 4.139-1.078 1.17-.72 2.04-1.657 2.61-2.811l-3.161-2.207a3.743 3.743 0 0 1-.703 1.167 3.952 3.952 0 0 1-.928.752 3.58 3.58 0 0 1-1.042.402c-.36.075-.699.112-1.016.112-.736 0-1.372-.16-1.906-.476a4.26 4.26 0 0 1-1.331-1.23 5.538 5.538 0 0 1-.79-1.706 7.244 7.244 0 0 1-.263-1.931c0-.703.104-1.381.313-2.033.209-.652.502-1.23.878-1.731a4.248 4.248 0 0 1 1.368-1.192 3.658 3.658 0 0 1 1.781-.44c.335 0 .682.046 1.042.139.359.092.706.234 1.041.426.334.192.636.443.904.753.267.31.484.69.652 1.142l3.386-1.982a5.427 5.427 0 0 0-1.166-1.757 7.285 7.285 0 0 0-1.744-1.304 9.03 9.03 0 0 0-2.071-.803 8.72 8.72 0 0 0-2.145-.276c-1.238 0-2.37.264-3.398.79a8.63 8.63 0 0 0-2.66 2.096 9.906 9.906 0 0 0-1.744 2.96 9.406 9.406 0 0 0-.627 3.362"/><path fill="#333233" d="M228.746 114.103V96.291h-4.115v7.3h-7.1v-7.3h-4.116v17.812h4.116v-6.898h7.1v6.898z"/><path fill="#333233" d="M239.66 109.738l-2.133-6.624h4.19zm-8.506-13.448l6.85 17.813h3.336l6.824-17.813h-4.365l-1.38 3.99h-5.544l-1.356-3.99z"/><path fill="#333233" d="M261.111 108.885c-.066.066-.252.191-.553.376a9.856 9.856 0 0 1-1.129.577c-.45.201-.945.377-1.48.527a5.886 5.886 0 0 1-1.606.226c-.702 0-1.242-.125-1.618-.376-.376-.25-.563-.619-.563-1.104 0-.302.082-.552.25-.753.167-.2.404-.38.715-.54a6.493 6.493 0 0 1 1.154-.438c.46-.135.99-.286 1.593-.452a21.2 21.2 0 0 0 2.307-.766 6.388 6.388 0 0 0 1.758-1.028 4.092 4.092 0 0 0 1.115-1.493c.26-.586.39-1.288.39-2.107 0-1.003-.187-1.853-.564-2.546a4.767 4.767 0 0 0-1.494-1.682 6.307 6.307 0 0 0-2.145-.928 10.81 10.81 0 0 0-2.496-.289c-.653 0-1.318.051-1.995.151s-1.342.246-1.994.438c-.653.193-1.288.423-1.907.69a10.49 10.49 0 0 0-1.707.93l1.807 3.587c.084-.083.308-.243.678-.477.367-.234.82-.468 1.354-.703a13.385 13.385 0 0 1 1.808-.627 7.615 7.615 0 0 1 2.031-.276c1.455 0 2.184.443 2.184 1.33 0 .335-.11.61-.328.828-.216.217-.518.414-.903.59a9.892 9.892 0 0 1-1.354.49c-.519.15-1.087.316-1.705.501a14.83 14.83 0 0 0-2.134.815c-.602.293-1.104.632-1.505 1.016a3.63 3.63 0 0 0-.89 1.33c-.193.502-.289 1.087-.289 1.757 0 .936.174 1.764.527 2.483a5.35 5.35 0 0 0 1.43 1.82 6.215 6.215 0 0 0 2.095 1.115 8.283 8.283 0 0 0 2.521.377 9.72 9.72 0 0 0 1.857-.176 13.192 13.192 0 0 0 3.261-1.078c.485-.235.92-.469 1.305-.703z"/><path fill="#333233" d="M277.318 108.885c-.067.066-.25.191-.552.376a9.94 9.94 0 0 1-1.129.577c-.45.201-.945.377-1.48.527a5.891 5.891 0 0 1-1.606.226c-.703 0-1.242-.125-1.618-.376-.377-.25-.565-.619-.565-1.104 0-.302.084-.552.252-.753.166-.2.404-.38.715-.54a6.45 6.45 0 0 1 1.153-.438c.46-.135.991-.286 1.595-.452.851-.234 1.621-.49 2.307-.766a6.375 6.375 0 0 0 1.756-1.028 4.109 4.109 0 0 0 1.117-1.493c.258-.586.388-1.288.388-2.107 0-1.003-.187-1.853-.563-2.546a4.748 4.748 0 0 0-1.494-1.682 6.307 6.307 0 0 0-2.145-.928 10.81 10.81 0 0 0-2.496-.289c-.653 0-1.318.051-1.995.151-.678.1-1.342.246-1.994.438-.653.193-1.289.423-1.907.69-.62.268-1.189.578-1.707.93l1.807 3.587c.083-.083.31-.243.678-.477a9.994 9.994 0 0 1 1.355-.703 13.337 13.337 0 0 1 1.805-.627 7.64 7.64 0 0 1 2.033-.276c1.455 0 2.182.443 2.182 1.33 0 .335-.109.61-.325.828-.218.217-.519.414-.904.59a9.892 9.892 0 0 1-1.354.49c-.519.15-1.087.316-1.706.501-.82.251-1.532.522-2.133.815-.602.293-1.104.632-1.506 1.016a3.643 3.643 0 0 0-.89 1.33c-.192.502-.29 1.087-.29 1.757 0 .936.178 1.764.528 2.483a5.37 5.37 0 0 0 1.43 1.82 6.2 6.2 0 0 0 2.095 1.115 8.292 8.292 0 0 0 2.521.377c.637 0 1.255-.059 1.857-.176a13.308 13.308 0 0 0 3.262-1.078c.485-.235.92-.469 1.305-.703z"/><path fill="#333233" d="M282.813 114.104h4.114V96.291h-4.114z"/><path fill="#333233" d="M301.806 108.885c-.066.066-.252.191-.552.376a9.964 9.964 0 0 1-1.13.577c-.451.201-.945.377-1.48.527a5.886 5.886 0 0 1-1.606.226c-.702 0-1.242-.125-1.618-.376-.376-.25-.564-.619-.564-1.104 0-.302.083-.552.25-.753.169-.2.406-.38.716-.54a6.523 6.523 0 0 1 1.154-.438c.46-.135.99-.286 1.593-.452a21.2 21.2 0 0 0 2.307-.766 6.373 6.373 0 0 0 1.758-1.028 4.092 4.092 0 0 0 1.115-1.493c.26-.586.389-1.288.389-2.107 0-1.003-.186-1.853-.563-2.546a4.748 4.748 0 0 0-1.494-1.682 6.31 6.31 0 0 0-2.144-.928 10.821 10.821 0 0 0-2.498-.289c-.651 0-1.317.051-1.993.151-.677.1-1.343.246-1.995.438-.653.193-1.29.423-1.907.69a10.49 10.49 0 0 0-1.707.93l1.807 3.587c.084-.083.309-.243.678-.477.368-.234.819-.468 1.355-.703a13.32 13.32 0 0 1 1.807-.627 7.616 7.616 0 0 1 2.032-.276c1.454 0 2.183.443 2.183 1.33 0 .335-.11.61-.328.828-.216.217-.517.414-.902.59a9.99 9.99 0 0 1-1.354.49c-.52.15-1.088.316-1.707.501-.82.251-1.53.522-2.132.815-.603.293-1.105.632-1.505 1.016-.403.386-.7.828-.892 1.33-.192.502-.288 1.087-.288 1.757 0 .936.175 1.764.527 2.483a5.35 5.35 0 0 0 1.43 1.82 6.2 6.2 0 0 0 2.095 1.115 8.281 8.281 0 0 0 2.52.377 9.73 9.73 0 0 0 1.858-.176 13.165 13.165 0 0 0 3.262-1.078c.484-.235.919-.469 1.304-.703z"/><path fill="#56c6c8" d="M250 132.056v5.24c9 .378 13.096 2.776 17.861 6.879l3.243-3.698c-5.77-5.09-12.104-8.03-21.104-8.421m17.348 56.257c-4.703 3.826-10.348 6.056-17.348 6.39v5.244c9-.347 14.947-3.113 20.652-7.914zm-7.522-7.521c-2.658 1.919-4.826 3.077-9.826 3.368v6.142c7-.32 9.961-2.091 13.814-5.11zM247 147.948v-6.174c-6 .558-9.651 2.74-13.34 6.024l4.234 4.34c2.558-2.19 5.106-3.685 9.106-4.19m-16.451-3.261c4.495-4.072 10.451-6.743 16.451-7.324v-5.245c-9 .603-14.806 3.855-20.257 8.87zM221.386 163c.456-5 2.76-11.107 6.353-15.521l-3.714-3.913C219.5 148.95 216.616 156 216.138 163zm6.852 21.607c-3.876-4.511-6.376-9.607-6.852-16.607h-5.248c.495 9 3.578 14.793 8.392 20.266zM247 194.614c-6-.584-11.42-3.053-15.79-6.806l-3.774 3.707c5.333 4.69 10.564 7.736 19.564 8.347zm-12.68-9.916c3.558 2.97 6.68 4.944 12.68 5.499v-6.172c-4-.487-5.985-1.79-8.394-3.682zM231.948 168h-6.162c.455 5 2.47 9.796 5.562 13.497l4.355-4.402c-2.006-2.56-3.346-6.095-3.755-9.095m-1.085-17.398c-2.817 3.596-4.646 8.398-5.077 12.398h6.162c.376-2 1.54-5.792 3.289-8.224zm29.524 1.049l3.91-4.364C260.373 144 257 142.063 250 141.7v6.148c5 .333 7.645 1.64 10.387 3.803m.994 6.119l-1.551-1.554c-2.621-2.624-6.093-4.07-9.777-4.07-7.639 0-13.853 6.214-13.853 13.85 0 7.637 6.214 13.849 13.853 13.849 3.416 0 6.711-1.287 9.28-3.626l1.549-1.41 17.338 17.34-1.616 1.552c-7.177 6.885-16.606 10.676-26.551 10.676-21.165 0-38.386-17.217-38.386-38.381 0-21.162 17.221-38.381 38.386-38.381 10.23 0 19.86 4 27.117 11.263l1.552 1.55z"/></g></svg>