<svg xmlns="http://www.w3.org/2000/svg" role="img" viewBox="9.73 -0.27 482.04 81.54"><title>Cloud Grey (member) logo</title><defs><radialGradient id="a" cx="71.442" cy="58.791" r="63.733" gradientTransform="rotate(-116.715 73.253 55.851) scale(1 .9)" gradientUnits="userSpaceOnUse"><stop offset="0" stop-color="#464646"/><stop offset=".246" stop-color="#606060"/><stop offset=".404" stop-color="#6b6b6b"/><stop offset=".613" stop-color="#717171"/><stop offset="1" stop-color="#757575"/><stop offset="1" stop-color="#707070"/><stop offset="1" stop-color="#626262"/><stop offset="1" stop-color="#4e4e4e"/></radialGradient><radialGradient id="b" cx="71.442" cy="58.791" r="63.733" gradientUnits="userSpaceOnUse"><stop offset="0" stop-color="#4e4e4e"/><stop offset="0" stop-color="#626262"/><stop offset="0" stop-color="#707070"/><stop offset="0" stop-color="#757575"/><stop offset=".387" stop-color="#717171"/><stop offset=".596" stop-color="#6b6b6b"/><stop offset=".754" stop-color="#606060"/><stop offset="1" stop-color="#464646"/></radialGradient></defs><path fill="#383838" d="M109.431 42.199v-.115c0-11.36 8.491-20.77 20.08-20.77 7.172 0 11.475 2.64 15.606 6.427l-2.123 2.18c-3.5-3.385-7.516-5.91-13.54-5.91-9.638 0-16.925 7.86-16.925 17.958v.115c0 10.155 7.401 18.073 16.982 18.073 5.795 0 9.754-2.238 13.828-6.254l2.007 1.95c-4.245 4.188-8.835 7-15.949 7-11.475 0-19.966-9.122-19.966-20.654zm44.41-20.196h2.984v37.408h23.58v2.753H153.84zm30.584 20.196v-.115c0-10.959 8.09-20.77 20.253-20.77s20.138 9.697 20.138 20.655v.115c0 10.958-8.09 20.769-20.253 20.769s-20.138-9.696-20.138-20.654zm37.292 0v-.115c0-9.925-7.228-18.073-17.154-18.073s-17.04 8.032-17.04 17.958v.115c0 9.925 7.23 18.073 17.155 18.073s17.04-8.033 17.04-17.958zm12.626 3.271V22.002h2.984v23.18c0 9.466 5.106 14.916 13.597 14.916 8.147 0 13.369-4.934 13.369-14.63V22.003h2.983v23.121c0 11.533-6.713 17.671-16.467 17.671-9.638 0-16.466-6.08-16.466-17.326zm44.24-23.467h13.368c12.622 0 21.343 8.663 21.343 19.966v.115c0 11.302-8.721 20.08-21.343 20.08h-13.368zm2.983 2.754v34.654h10.385c11.187 0 18.244-7.631 18.244-17.212v-.115c0-9.524-7.057-17.327-18.244-17.327zm38.96 17.442v-.115a20.613 20.613 0 0 1 21.056-20.77c7.23 0 11.589 1.952 15.777 5.509l-5.565 6.713c-3.098-2.582-5.852-4.074-10.5-4.074-6.425 0-11.532 5.68-11.532 12.507v.115c0 7.344 5.05 12.737 12.164 12.737a14.095 14.095 0 0 0 8.319-2.41v-5.737h-8.893v-7.63h17.442v17.44a26.068 26.068 0 0 1-17.155 6.369c-12.508 0-21.113-8.778-21.113-20.654zm46.764-20.196h18.359c5.106 0 9.064 1.435 11.704 4.074a12.609 12.609 0 0 1 3.442 9.18v.115c0 6.482-3.5 10.556-8.605 12.45L402 62.163h-10.327l-8.606-12.851h-6.941v12.851h-8.836zm17.785 19.507c4.304 0 6.77-2.295 6.77-5.68v-.115c0-3.786-2.64-5.737-6.942-5.737h-8.777V41.51zm23.698-19.507h30.293v7.86h-21.515v8.147h18.933v7.86h-18.933v8.434h21.802v7.86h-30.58zM458.52 46.33l-15.433-24.327h10.327l9.58 16.122 9.755-16.122h10.04l-15.434 24.155v16.006h-8.835z"/><path fill="url(#a)" d="M69.21 61.79a10.744 10.744 0 0 0 4.652.859 11.968 11.968 0 0 0 11.72-10.724 11.982 11.982 0 0 0-23.715-3.335c-.251 1.402-.138 2.823-.308 4.23a21.434 21.434 0 0 1-22.53 19.052 21.29 21.29 0 0 1-19.536-16.478c-1.821-8.86.841-16.207 7.905-21.907a19.064 19.064 0 0 1 3.543-2.192c.382-.189.565-.201.58.325a25.456 25.456 0 0 0 1.784 8.643c.135.344.032.49-.223.69a11.867 11.867 0 0 0-4.745 10.556 11.98 11.98 0 0 0 23.735 1.089c.279-1.398.136-2.823.313-4.228a21.382 21.382 0 1 1 25.944 23.139 20.957 20.957 0 0 1-17.135-3.467c-.335-.234-.34-.385-.088-.704a26.813 26.813 0 0 0 5.648-13.283 14.11 14.11 0 0 0 .18-2.733 1.087 1.087 0 0 1 .362-.921q1.364-1.315 2.682-2.678c.253-.259.416-.28.684-.01q2.966 2.995 5.964 5.959c.324.32.19.474-.06.723q-3.522 3.503-7.025 7.024c-.09.09-.172.192-.331.37z"/><path fill="url(#b)" d="M47.013 49.03a17.28 17.28 0 0 1-2.932-2.127 21.386 21.386 0 1 1 34.334-22.996c.133.38.207.62-.363.516a25.837 25.837 0 0 0-9.158.062.675.675 0 0 1-.789-.338c-2.967-4.137-7.017-6.001-12.017-5.102a11.377 11.377 0 0 0-9.607 9.226 11.463 11.463 0 0 0 2.756 10.503c.229.267.376.463.197.85a25.908 25.908 0 0 0-2.316 8.787c-.015.189-.062.375-.105.62z"/></svg>