<svg xmlns="http://www.w3.org/2000/svg" role="img" viewBox="-10.40 -9.90 514.80 454.80"><title>Datree (member) logo</title><defs><clipPath id="a"><path d="M0 792h792V0H0z"/></clipPath><clipPath id="b"><path d="M409.819 557.37a23.92 23.92 0 0 1-7.811-5.222l-5.556-5.556-.453-.451-11.768-11.769-.453-.454-58.275-58.273-.451-.451 11.767-11.769.454.452 76.501 76.503a7.406 7.406 0 0 0 2.426 1.612 7.643 7.643 0 0 0 5.767 0 7.4 7.4 0 0 0 2.427-1.612l48.559-48.561a7.432 7.432 0 0 0 1.613-2.424 7.62 7.62 0 0 0 .567-2.887c0-.978-.189-1.961-.567-2.882a7.43 7.43 0 0 0-1.613-2.426l-5.553-5.555-.453-.451 11.765-11.77.454.453 5.555 5.555a23.97 23.97 0 0 1 5.224 7.814 24.29 24.29 0 0 1 1.831 9.262c0 3.156-.611 6.312-1.831 9.268a24.011 24.011 0 0 1-5.224 7.811l-48.558 48.561a23.992 23.992 0 0 1-7.813 5.222 24.267 24.267 0 0 1-9.265 1.832c-3.155 0-6.312-.61-9.266-1.832m6.041-133.264a38.883 38.883 0 0 1-5.086-6.263 39.515 39.515 0 0 1-3.695-7.23 41.446 41.446 0 0 1-2.166-7.76 48.306 48.306 0 0 1-.721-8.448l.027-70.385h16.578l-.027 70.385c0 1.871.147 3.663.441 5.365a25.484 25.484 0 0 0 1.34 4.861 21.579 21.579 0 0 0 2.107 4.076 23.256 23.256 0 0 0 2.97 3.632l31.086 31.082-11.767 11.771zm-114.245 24.356a24.308 24.308 0 0 1-1.385-7.458v-.024h.021v-.641c0-3.16.611-6.323 1.826-9.282a23.804 23.804 0 0 1 5.198-7.795l52.309-52.307v23.535l-40.541 40.539a7.554 7.554 0 0 0-1.636 2.442 7.46 7.46 0 0 0-.577 2.868c0 .575.069.944.19 1.533.075.356.172.709.296 1.052l-12.124 12.124a23.942 23.942 0 0 1-3.577-6.586"/></clipPath><clipPath id="c"><path d="M0 792h792V0H0z"/></clipPath><clipPath id="d"><path d="M363.649 557.37a23.945 23.945 0 0 1-7.815-5.223l-48.559-48.559a24.071 24.071 0 0 1-5.225-7.812 24.334 24.334 0 0 1-1.828-9.119v-.295a24.33 24.33 0 0 1 1.828-9.116 24.022 24.022 0 0 1 5.225-7.813l57.096-57.094a23.356 23.356 0 0 0 2.968-3.632 21.696 21.696 0 0 0 2.107-4.076 25.194 25.194 0 0 0 1.34-4.861c.297-1.702.442-3.494.442-5.365l-.024-70.385h16.577l.024 70.385c.004 2.9-.239 5.721-.721 8.448a41.748 41.748 0 0 1-2.164 7.76 39.524 39.524 0 0 1-3.697 7.23 38.87 38.87 0 0 1-5.084 6.263l-38.866 38.867-.454.453-11.768 11.768-.453.452-5.555 5.554a7.37 7.37 0 0 0-1.609 2.426 7.605 7.605 0 0 0-.569 2.883c0 .981.191 1.962.569 2.886a7.363 7.363 0 0 0 1.609 2.424l48.559 48.562a7.427 7.427 0 0 0 2.428 1.611 7.632 7.632 0 0 0 2.882.567c.979 0 1.963-.19 2.886-.567a7.394 7.394 0 0 0 2.425-1.611l5.555-5.555.453-.454 12.221 12.22-.453-.451-.454.451-5.555 5.555a23.908 23.908 0 0 1-7.811 5.223 24.248 24.248 0 0 1-9.267 1.832c-3.155 0-6.308-.61-9.263-1.832m40.584-42.998l50.492-50.495 12.675-12.672 5.555-5.554a7.52 7.52 0 0 0 1.611-2.426 7.77 7.77 0 0 0 .541-2.245h.06v-.641c0-.97-.192-1.947-.577-2.868a7.583 7.583 0 0 0-1.635-2.442l-40.546-40.542v-23.535l52.312 52.31a23.726 23.726 0 0 1 5.198 7.795 24.443 24.443 0 0 1 1.824 9.282v.641h.024a24.24 24.24 0 0 1-1.822 8.626 24.01 24.01 0 0 1-5.224 7.812l-5.555 5.555-.453.451-11.765 11.77h-.001l-.002.001-.453.451L416 526.138z"/></clipPath><clipPath id="e"><path d="M0 792h792V0H0z"/></clipPath><clipPath id="f"><path d="M325.052 559.203h166.724v-95.778H325.052z"/></clipPath><clipPath id="g"><path d="M416 526.138h75.768V370.952H416z"/></clipPath><clipPath id="h"><path d="M300.265 559.159h95.734V323.976h-95.734z"/></clipPath><clipPath id="i"><path d="M300.229 455.048h59.355v-84.093h-59.355z"/></clipPath><clipPath id="j"><path d="M412.089 443.433h46.625V324.02h-46.625z"/></clipPath></defs><g clip-path="url(#a)" transform="matrix(1.33333 0 0 -1.33333 -280.652 745.604)"><path fill="#f1122b" fill-rule="evenodd" d="M300.23 441.004v-.024h.021v-.642c0-3.16.611-6.323 1.826-9.282a23.814 23.814 0 0 1 5.198-7.795l52.309-52.306v23.535l-40.541 40.54a7.563 7.563 0 0 0-1.637 2.441 7.477 7.477 0 0 0-.576 2.867c0 .575.069.944.19 1.534.075.356.172.71.296 1.052l-12.124 12.123a23.91 23.91 0 0 1-3.577-6.585 24.343 24.343 0 0 1-1.385-7.458m103.961-46.599l.028-70.386h16.578l-.027 70.386c0 1.871.147 3.662.441 5.365a25.474 25.474 0 0 0 1.34 4.86 21.676 21.676 0 0 0 2.107 4.077 23.306 23.306 0 0 0 2.97 3.631l31.086 31.083-11.767 11.771-31.087-31.086a38.847 38.847 0 0 1-5.086-6.264 39.412 39.412 0 0 1-3.695-7.229 41.543 41.543 0 0 1-2.166-7.76 48.394 48.394 0 0 1-.722-8.448m-79.139 80.788l11.766-11.768.455.452 76.501 76.502a7.407 7.407 0 0 0 2.425 1.612 7.644 7.644 0 0 0 5.768 0 7.398 7.398 0 0 0 2.428-1.612l48.558-48.56a7.432 7.432 0 0 0 1.613-2.424 7.624 7.624 0 0 0 0-5.769 7.43 7.43 0 0 0-1.613-2.426l-5.554-5.556-.452-.45 11.765-11.77.454.453 5.555 5.554a23.95 23.95 0 0 1 5.223 7.815 24.271 24.271 0 0 1 1.832 9.262c0 3.156-.611 6.312-1.832 9.267a23.97 23.97 0 0 1-5.223 7.812l-48.559 48.561a23.989 23.989 0 0 1-7.811 5.222 24.295 24.295 0 0 1-9.266 1.832c-3.155 0-6.312-.61-9.267-1.832a23.953 23.953 0 0 1-7.81-5.222l-5.556-5.556-.452-.452-11.769-11.768-.453-.454-58.275-58.274z"/></g><g clip-path="url(#b)" transform="matrix(1.33333 0 0 -1.33333 -280.652 745.604)"><path fill="#f1122b" d="M396.003 654.976L182.638 441.61l213.365-213.364L609.368 441.61z"/></g><g clip-path="url(#c)" transform="matrix(1.33333 0 0 -1.33333 -280.652 745.604)"><path fill="#2e3191" fill-rule="evenodd" d="M383.778 533.918l-.004-.004z"/><path fill="#ffce30" fill-rule="evenodd" d="M300.222 486.657v-.295a24.316 24.316 0 0 1 1.829-9.116 24.012 24.012 0 0 1 5.225-7.813l57.096-57.094a23.342 23.342 0 0 0 2.967-3.631 21.8 21.8 0 0 0 2.108-4.077 25.349 25.349 0 0 0 1.34-4.86 31.33 31.33 0 0 0 .44-5.365l-.023-70.386h16.578l.024 70.386a48.102 48.102 0 0 1-.722 8.447 41.756 41.756 0 0 1-2.163 7.76 39.582 39.582 0 0 1-3.698 7.23 38.763 38.763 0 0 1-5.084 6.263l-38.866 38.866-.454.455-11.767 11.767-.453.452-5.556 5.554a7.404 7.404 0 0 0-1.608 2.426 7.596 7.596 0 0 0 0 5.769 7.38 7.38 0 0 0 1.608 2.425l48.56 48.56a7.416 7.416 0 0 0 2.428 1.612 7.624 7.624 0 0 0 5.767 0 7.394 7.394 0 0 0 2.425-1.611l5.555-5.555.453-.453 12.22 12.22-.452-.452-.454.452-5.554 5.554a23.896 23.896 0 0 1-7.812 5.223 24.249 24.249 0 0 1-9.267 1.833c-3.154 0-6.308-.61-9.263-1.833a23.94 23.94 0 0 1-7.815-5.223l-48.558-48.56a24.029 24.029 0 0 1-5.225-7.811 24.315 24.315 0 0 1-1.83-9.12m178.492-23.231l.453-.453 5.555-5.554a23.968 23.968 0 0 0 5.224-7.812 24.261 24.261 0 0 0 1.823-8.625h-.025v-.642c0-3.161-.607-6.323-1.823-9.282a23.755 23.755 0 0 0-5.2-7.795l-52.31-52.31v23.536l40.545 40.542a7.563 7.563 0 0 1 1.635 2.44 7.45 7.45 0 0 1 .577 2.869v.642h-.06a7.82 7.82 0 0 1-.54 2.244 7.501 7.501 0 0 1-1.612 2.426l-5.555 5.554-12.675 12.673-50.491 50.494L416 526.138l50.492-50.492.454-.45.002-.002z"/></g><g clip-path="url(#d)" transform="matrix(1.33333 0 0 -1.33333 -280.652 745.604)"><path fill="#ffce30" d="M609.36 441.61L395.994 654.977 182.63 441.61l213.365-213.365z"/></g><g clip-path="url(#e)" transform="matrix(1.33333 0 0 -1.33333 -280.652 745.604)"><g clip-path="url(#f)" opacity=".35"><path fill="#fff" fill-rule="evenodd" d="M331.014 469.23l77.47 77.264h.03a15.322 15.322 0 0 0 2.323 1.903 15.174 15.174 0 0 0 2.64 1.39l.03.03c.92.376 1.876.66 2.852.852 1.004.196 1.998.295 2.968.295s1.964-.099 2.966-.295a15.427 15.427 0 0 0 2.85-.852l.03-.03a15.311 15.311 0 0 0 2.644-1.392 15.087 15.087 0 0 0 2.323-1.9h.03l48.942-48.945v-.03a15.13 15.13 0 0 0 1.9-2.322 15.231 15.231 0 0 0 1.395-2.64 15.51 15.51 0 0 0 .88-2.882c.198-1 .297-1.996.297-2.967 0-.975-.1-1.97-.297-2.97-.17-.881-.467-1.837-.88-2.85v-.031a15.43 15.43 0 0 0-1.394-2.641 15.408 15.408 0 0 0-1.901-2.321v-.03l-5.702-5.636-.746-.754 6.049-6.05.226.226.227.226 5.555 5.554a23.953 23.953 0 0 1 5.224 7.814 24.286 24.286 0 0 1 1.832 9.262 24.3 24.3 0 0 1-1.832 9.267 23.958 23.958 0 0 1-5.224 7.811l-48.56 48.562a23.978 23.978 0 0 1-7.81 5.222 24.291 24.291 0 0 1-9.266 1.832c-3.155 0-6.311-.61-9.266-1.832a23.957 23.957 0 0 1-7.811-5.222l-5.556-5.556-.452-.452-11.77-11.768-.452-.454-58.274-58.274-.451-.45z"/></g><g clip-path="url(#g)" opacity=".5"><path fill="#fff" fill-rule="evenodd" d="M466.951 475.19l-.003.003-.003.003-.454.45-50.49 50.492V513.85l44.23-44.371 12.856-12.855 5.635-5.635v-.03a15.51 15.51 0 0 0 1.916-2.34 15.447 15.447 0 0 0 1.398-2.655l.032-.03a15.617 15.617 0 0 0 1.162-5.74v-.03a14.937 14.937 0 0 0-1.169-5.99 15.296 15.296 0 0 0-1.44-2.661 15.36 15.36 0 0 0-1.899-2.32v-.03l-39.752-39.931-6.56 5.255v-23.535l52.311 52.31a23.76 23.76 0 0 1 5.2 7.795 24.438 24.438 0 0 1 1.822 9.282v.642h.024a24.24 24.24 0 0 1-1.823 8.625 23.99 23.99 0 0 1-5.223 7.812l-5.555 5.554-.453.452v.002z"/></g><g clip-path="url(#h)" opacity=".5"><path fill="#fff" fill-rule="evenodd" d="M379.545 333.935l.021 61.283a43.743 43.743 0 0 1-.178 3.658 39.086 39.086 0 0 1-.455 3.47l.024.005a35.979 35.979 0 0 1-.753 3.26 32.62 32.62 0 0 1-1.004 3.033l-.009-.004a33.636 33.636 0 0 1-1.35 3.047 31.613 31.613 0 0 1-1.629 2.804 30.719 30.719 0 0 1-4.079 5.017l-.016-.013-38.904 38.903-.455.455c-4.033 4.034-7.512 7.699-11.657 11.687l-.09.09-.456.453h-.029l-5.56 5.56v.03c-.719.72-1.35 1.496-1.889 2.309a15.191 15.191 0 0 0-1.379 2.65 15.514 15.514 0 0 0-.878 2.834c-.195.992-.295 1.98-.295 2.945 0 .965.1 1.955.295 2.948.173.876.466 1.822.874 2.82l-.027.013a15.11 15.11 0 0 0 3.298 4.958v.03l48.606 48.609h.03a15.22 15.22 0 0 0 2.307 1.889c.808.534 1.692.998 2.625 1.38l.03.03a15.23 15.23 0 0 0 2.832.846c.993.195 1.982.295 2.945.295.965 0 1.954-.1 2.947-.295a15.4 15.4 0 0 0 2.834-.845l.03-.03c.936-.386 1.82-.847 2.624-1.382a15.195 15.195 0 0 0 2.335-1.888l6.647-6.89 6.242 6.242-.41.408-5.556 5.555a23.887 23.887 0 0 1-7.81 5.223 24.263 24.263 0 0 1-9.268 1.832 24.25 24.25 0 0 1-9.263-1.832 23.951 23.951 0 0 1-7.814-5.223l-48.559-48.56a24.048 24.048 0 0 1-5.226-7.812 24.345 24.345 0 0 1-1.829-9.266c0-3.154.612-6.308 1.83-9.263a24.02 24.02 0 0 1 5.225-7.813l57.096-57.095a23.296 23.296 0 0 0 2.967-3.631 21.8 21.8 0 0 0 2.108-4.077 25.329 25.329 0 0 0 1.34-4.86c.296-1.703.441-3.494.441-5.365l-.024-70.386z"/></g><g clip-path="url(#i)" opacity=".35"><path fill="#fff" fill-rule="evenodd" d="M359.584 394.49l-7.163-4.337-39.968 40.087a15.825 15.825 0 0 0-1.92 2.375 15.655 15.655 0 0 0-1.455 2.69 15.64 15.64 0 0 0-.874 2.926l-.034.181-2.978 16.636a23.93 23.93 0 0 1-3.577-6.586 24.335 24.335 0 0 1-1.386-7.482h.022v-.64c0-3.162.611-6.325 1.826-9.284a23.825 23.825 0 0 1 5.198-7.795l52.309-52.306z"/></g><g clip-path="url(#j)" opacity=".35"><path fill="#fff" fill-rule="evenodd" d="M412.089 394.146l.024-60.167 8.684-9.96-.027 70.387c0 1.87.147 3.662.44 5.365a25.474 25.474 0 0 0 1.34 4.86 21.676 21.676 0 0 0 2.108 4.077 23.306 23.306 0 0 0 2.97 3.63l31.086 31.083-12.172.013-25.01-25.035a32.022 32.022 0 0 1-2.205-2.408 31.28 31.28 0 0 1-3.52-5.395 32.26 32.26 0 0 1-1.341-3.011 33.009 33.009 0 0 1-1.023-3.072 35.81 35.81 0 0 1-.722-3.244 38.927 38.927 0 0 1-.451-3.455c-.1-1.174-.151-2.4-.151-3.669z"/></g><path fill="#231f20" fill-rule="evenodd" d="M210.49 261.205c0-24.655 14.79-28.3 23.688-28.3 20.473 0 22.082 13.291 22.082 17.366v57.35h-9.755v-21.119a41.153 41.153 0 0 1-11.47 1.608c-11.148 0-24.546-4.717-24.546-26.905m9.754 0c0 15.973 7.181 18.223 14.791 18.223 3.966 0 7.828-.75 11.471-2.25v-27.55c0-5.36-4.182-8.04-12.327-8.04-6.539 0-13.935 2.252-13.935 19.617"/><path fill="#231f20" fill-rule="evenodd" d="M285.192 288.11c-6.856 0-12.22-1.394-16.186-2.895v-8.362c3.433 1.183 8.685 2.682 14.794 2.682 10.505 0 14.363-3.86 14.793-12.65-3.107.43-6.326.645-9.754.645-15.757 0-25.19-6.325-25.19-16.937 0-4.183 1.608-17.688 22.618-17.688 20.58 0 22.188 13.291 22.188 17.366v15.436c0 14.471-8.36 22.403-23.263 22.403m13.401-37.732c0-5.896-4.18-8.79-12.326-8.79-8.47 0-12.865 3.001-12.865 9.111 0 7.611 11.257 9.006 15.865 9.006 3.537 0 6.754-.216 9.326-.644z"/><path fill="#231f20" fill-rule="evenodd" d="M345.622 278.999v8.254h-14.255v15.973h-9.755v-15.973h-9.326v-8.254h9.326v-30.444c0-14.47 12.97-15.65 16.4-15.65 3.002 0 5.468.645 7.61 1.5v8.79c-1.392-.856-3.427-1.607-6.216-1.607-5.04 0-8.04 1.716-8.04 6.323v31.088z"/><path fill="#231f20" fill-rule="evenodd" d="M365.027 276.853c4.181 1.074 9.862 2.146 16.188 2.252v9.005c-14.366 0-25.514-5.145-26.05-5.36v-48.987h9.862z"/><path fill="#231f20" fill-rule="evenodd" d="M410.434 241.267c-7.074 0-13.615 2.465-15.117 13.612h36.876c.214 2.36.32 4.826.32 7.398 0 15.65-9.216 25.834-23.581 25.834-23.69 0-23.69-21.331-23.69-28.3 0-22.296 13.399-27.013 24.654-27.013 7.61 0 13.936 1.394 18.975 3.539v8.897c-4.502-2.36-10.505-3.967-18.437-3.967m-1.502 38.055c10.615 0 13.184-9.326 13.722-15.543H395.21c.86 11.469 4.717 15.543 13.722 15.543"/><path fill="#231f20" fill-rule="evenodd" d="M465.01 241.267c-7.076 0-13.612 2.465-15.114 13.612h36.874c.217 2.36.323 4.826.323 7.398 0 15.65-9.22 25.834-23.582 25.834-23.69 0-23.69-21.331-23.69-28.3 0-22.296 13.399-27.013 24.655-27.013 7.61 0 13.934 1.394 18.972 3.539v8.897c-4.501-2.36-10.507-3.967-18.438-3.967m-1.5 38.055c10.612 0 13.186-9.326 13.722-15.543h-27.443c.857 11.469 4.715 15.543 13.722 15.543"/><path fill="#231f20" fill-rule="evenodd" d="M512.658 233.763h9.861v53.49h-9.861zm10.182 72.142h-10.502v-10.398h10.502z"/><path fill="#231f20" fill-rule="evenodd" d="M556.32 288.003c-11.47 0-25.188-4.823-25.188-27.547 0-22.727 13.718-27.551 25.188-27.551 11.473 0 25.19 4.824 25.19 27.55 0 22.725-13.717 27.548-25.19 27.548m0-46.415c-8.039 0-15.327 2.252-15.327 18.868 0 16.613 7.288 18.865 15.327 18.865 8.037 0 15.33-2.252 15.33-18.865 0-16.616-7.293-18.868-15.33-18.868"/><path fill="#231f20" fill-rule="evenodd" d="M504.289 243.304h-10.185v-9.541h10.185z"/></g></svg>