<svg xmlns="http://www.w3.org/2000/svg" role="img" viewBox="-2.65 -2.65 128.41 137.54"><title>Dojo logo</title><defs><clipPath id="B" clipPathUnits="userSpaceOnUse"><path d="M279.859 551.653a60.442 60.442 0 0 1 9.259-32.225c11.752-4.517 22.916-6.392 33.547-6.248-7.957 8.784-12.806 20.437-12.806 33.224 0 22.52 15.045 41.515 35.628 47.515-9.833 4.766-16.411 10.54-20.781 16.366-25.837-6.991-44.847-30.585-44.847-58.632m42.806-38.473l.001-.001v.001h-.001"/></clipPath><linearGradient id="C" x1="0" x2="1" y1="0" y2="0" gradientTransform="matrix(-49.5 -136 -136 49.5 343.67 654.31)" gradientUnits="userSpaceOnUse" spreadMethod="pad"><stop offset="0"/><stop offset=".715" stop-color="#ff1d25"/><stop offset="1" stop-color="#ff1d25"/></linearGradient><clipPath id="y" clipPathUnits="userSpaceOnUse"><path d="M0 1544h3116.844V0H0z"/></clipPath><clipPath id="z" clipPathUnits="userSpaceOnUse"><path d="M426.358 475.903h32.018v-28.816h-32.018z"/></clipPath><clipPath id="A" clipPathUnits="userSpaceOnUse"><path d="M437.884 482.986h17.285v-12.17h-17.285z"/></clipPath><clipPath id="w" clipPathUnits="userSpaceOnUse"><path d="M398.555 484.185a3.34 3.34 0 0 1-.029-.107c-8.345-7.303-7.757-16.846-7.356-19.701 2.726-8.395 9.357-15.372 18.437-18.152 9.565-2.928 19.491-.479 26.539 5.614a27.233 27.233 0 0 0-19.289-1.245c-14.254 4.363-22.341 19.317-18.298 33.591z"/></clipPath><linearGradient id="x" x1="0" x2="1" y1="0" y2="0" gradientTransform="scale(77.09943 -77.09943) rotate(13.61 27.914 18.84)" gradientUnits="userSpaceOnUse" spreadMethod="pad"><stop offset="0" stop-color="#2db5f9"/><stop offset="1" stop-color="#092432"/></linearGradient><clipPath id="r" clipPathUnits="userSpaceOnUse"><path d="M0 1544h3116.844V0H0z"/></clipPath><clipPath id="s" clipPathUnits="userSpaceOnUse"><path d="M398.526 591.582h147.332v-107.51H398.526z"/></clipPath><clipPath id="t" clipPathUnits="userSpaceOnUse"><path d="M545.859 547.903a56.721 56.721 0 0 1-10.621 33.115c-6.032 5.853-15.006 9.94-25.356 10.564 9.58-8.284 15.65-20.518 15.65-34.176 0-15.169-5.507-32.503-23.34-41.837-25.965-13.589-65.811-7.125-91.667-15.512.036.01.072.023.109.033a27.237 27.237 0 0 1-11.92-15.342c-.069-.225-.126-.45-.188-.676 7.577 6.632 22.517 11.416 51.666 7.664 20.811-2.678 37.348-3.411 51.542.667 14.189 3.077 25.659 11.243 33.746 22.726l.004.003-.001.001a56.715 56.715 0 0 1 10.376 32.77"/></clipPath><mask id="u" width="1" height="1" x="0" y="0" maskUnits="userSpaceOnUse"><g clip-path="url(#a)"><path fill="url(#b)" d="M-32768 32767h65535v-65535h-65535z"/></g></mask><clipPath id="a" clipPathUnits="userSpaceOnUse"><path d="M-32768 32767h65535v-65535h-65535z"/></clipPath><linearGradient id="b" x1="0" x2="1" y1="0" y2="0" gradientTransform="scale(-37.547 37.547) rotate(-73.496 4.134 16.97)" gradientUnits="userSpaceOnUse" spreadMethod="pad"><stop offset="0" stop-color="#fff"/><stop offset="1" stop-color="#fff" stop-opacity="0"/></linearGradient><linearGradient id="v" x1="0" x2="1" y1="0" y2="0" gradientTransform="scale(-37.547 37.547) rotate(-73.496 4.134 16.97)" gradientUnits="userSpaceOnUse" spreadMethod="pad"><stop offset="0"/><stop offset="1"/></linearGradient><clipPath id="p" clipPathUnits="userSpaceOnUse"><path d="M525.532 557.406c0-15.169-5.508-32.503-23.34-41.837-25.965-13.589-65.811-7.125-91.667-15.513.036.011.072.025.109.034a27.237 27.237 0 0 1-11.92-15.342c-.069-.225-.126-.45-.188-.676 7.577 6.632 22.517 11.417 51.666 7.665 20.811-2.68 37.348-3.411 51.542.667 14.189 3.077 25.659 11.242 33.746 22.724a.008.008 0 0 0 .004.004l-.001.001a56.718 56.718 0 0 1 10.376 32.77 56.725 56.725 0 0 1-10.621 33.114c-6.033 5.854-15.006 9.941-25.356 10.565 9.58-8.284 15.65-20.518 15.65-34.176"/></clipPath><linearGradient id="q" x1="0" x2="1" y1="0" y2="0" gradientTransform="scale(334.2 -334.2) rotate(-37.95 -1.205 -1.898)" gradientUnits="userSpaceOnUse" spreadMethod="pad"><stop offset="0"/><stop offset="1" stop-color="#d23de2"/></linearGradient><clipPath id="n" clipPathUnits="userSpaceOnUse"><path d="M410.523 500.062a50.148 50.148 0 0 1-5.331-2.052c-6.574-3.317-11.845-9.194-14.171-16.792a28.005 28.005 0 0 1-1.224-7.834c.031-5.215 1.329-8.883 1.375-9.02-.401 2.842-1.002 12.402 7.354 19.714.062.225.119.451.188.676a27.24 27.24 0 0 0 11.92 15.342c-.038-.01-.074-.024-.111-.034"/></clipPath><linearGradient id="o" x1="0" x2="1" y1="0" y2="0" gradientTransform="matrix(20.8368 0 0 -20.8368 389.797 482.23)" gradientUnits="userSpaceOnUse" spreadMethod="pad"><stop offset="0" stop-color="#c297ff"/><stop offset="1" stop-color="#ae31bb"/></linearGradient><clipPath id="l" clipPathUnits="userSpaceOnUse"><path d="M457.313 596.265c-34.395-21.079-76.523-82.301-134.648-83.085h.001c9.057-9.997 22.141-16.276 36.693-16.276 3.084 0 9.017.545 12.154 1.104 38.25 15.762 75.01 53.459 91.679 71.728 15.465 16.951 32.392 22.708 46.69 21.846-7.92 6.849-18.235 11.002-29.527 11.002a44.954 44.954 0 0 1-23.042-6.319m-.077-.046l.077.046a69.384 69.384 0 0 1-.077-.046"/></clipPath><linearGradient id="m" x1="0" x2="1" y1="0" y2="0" gradientTransform="scale(298.5486 -298.5486) rotate(-27.423 -2.922 -3.194)" gradientUnits="userSpaceOnUse" spreadMethod="pad"><stop offset="0" stop-color="#34e28b"/><stop offset="1"/></linearGradient><clipPath id="j" clipPathUnits="userSpaceOnUse"><path d="M468.192 601.569c-3.568-1.22-7.224-3.062-10.963-5.36a44.99 44.99 0 0 0 23.126 6.375c11.292 0 21.607-4.153 29.527-11.002 10.394-.627 19.402-4.744 25.435-10.637 0 0-16.653 24.192-46.693 24.192-6.243 0-13.063-1.044-20.432-3.568"/></clipPath><linearGradient id="k" x1="0" x2="1" y1="0" y2="0" gradientTransform="matrix(8.5 7 7 -8.5 502.071 593.352)" gradientUnits="userSpaceOnUse" spreadMethod="pad"><stop offset="0" stop-color="#5bcb99"/><stop offset="0" stop-color="#5bcb99"/><stop offset="1" stop-color="#85a8e8"/></linearGradient><clipPath id="h" clipPathUnits="userSpaceOnUse"><path d="M289.817 518.336c3.916-5.467 8.05-10.015 12.36-13.728 10.471-8.563 23.85-13.705 38.432-13.705.862 0 1.748.026 2.644.067 9.325.602 18.838 3.154 28.26 7.038-3.137-.559-9.07-1.104-12.154-1.104-14.552 0-27.636 6.279-36.693 16.276-10.632-.144-21.796 1.731-33.548 6.248.229-.367.461-.731.699-1.092"/></clipPath><linearGradient id="i" x1="0" x2="1" y1="0" y2="0" gradientTransform="matrix(0 23.04886 23.04886 0 330.315 492.236)" gradientUnits="userSpaceOnUse" spreadMethod="pad"><stop offset="0" stop-color="#ffdd42"/><stop offset="0" stop-color="#ffdd42"/><stop offset="1" stop-color="#fb784b"/></linearGradient><clipPath id="e" clipPathUnits="userSpaceOnUse"><path d="M0 1544h3116.844V0H0z"/></clipPath><mask id="f" width="1" height="1" x="0" y="0" maskUnits="userSpaceOnUse"><g clip-path="url(#c)"><path fill="url(#d)" d="M-32768 32767h65535v-65535h-65535z"/></g></mask><clipPath id="c" clipPathUnits="userSpaceOnUse"><path d="M-32768 32767h65535v-65535h-65535z"/></clipPath><linearGradient id="d" x1="0" x2="1" y1="0" y2="0" gradientTransform="scale(-.97516 .97516) rotate(-77.119 164.898 470.989)" gradientUnits="userSpaceOnUse" spreadMethod="pad"><stop offset="0" stop-color="#fff" stop-opacity=".5"/><stop offset=".715" stop-color="#fff"/><stop offset="1" stop-color="#fff"/></linearGradient><linearGradient id="g" x1="0" x2="1" y1="0" y2="0" gradientTransform="rotate(102.881 -920.151 1154.438) scale(.97516)" gradientUnits="userSpaceOnUse" spreadMethod="pad"><stop offset="0" stop-color="#ff1d25"/><stop offset=".715" stop-color="#ff1d25"/><stop offset="1" stop-color="#ff1d25"/></linearGradient></defs><path d="M76.084 96.026h1.432v29.725c0 3.711-1.184 4.019-2.504 4.019-.203 0-.428-.03-.669-.09l-.392-.097v2.54l.248.056c.342.076.654.113.955.113 3.241 0 5.026-2.189 5.026-6.163V93.446h-4.096z"/><path d="M19.228 120.346h-5.724v-24.33h5.724c4.684 0 12.543 1.587 12.543 12.212 0 10.544-7.859 12.118-12.543 12.118m-.048-26.899H9.3v2.57h1.54v24.329H9.31v2.57h9.87c9.695 0 15.255-5.354 15.255-14.688 0-9.255-5.702-14.781-15.255-14.781"/><path d="M55.265 121.009c-7.135 0-12.117-5.275-12.117-12.828 0-7.552 4.982-12.827 12.117-12.827 7.135 0 12.118 5.275 12.118 12.827 0 7.553-4.983 12.828-12.118 12.828m0-28.225c-8.564 0-14.781 6.476-14.781 15.397 0 8.922 6.217 15.397 14.781 15.397 8.565 0 14.781-6.475 14.781-15.397 0-8.921-6.216-15.397-14.78-15.397"/><path d="M102.432 121.009c-7.135 0-12.118-5.275-12.118-12.828 0-7.552 4.983-12.827 12.118-12.827 7.134 0 12.117 5.275 12.117 12.827 0 7.553-4.983 12.828-12.117 12.828m0-28.225c-8.565 0-14.782 6.476-14.782 15.397 0 8.922 6.217 15.397 14.782 15.397 8.565 0 14.781-6.475 14.781-15.397 0-8.921-6.216-15.397-14.781-15.397"/><g clip-path="url(#e)" transform="matrix(.42157 0 0 -.42157 -106.917 275.616)"><g mask="url(#f)"><path fill="none" stroke="url(#g)" stroke-miterlimit="10" d="M0 0v-.001" transform="translate(322.666 513.18)"/></g></g><g clip-path="url(#h)" transform="matrix(.42157 0 0 -.42157 -106.917 275.616)"><path fill="url(#i)" d="M289.817 518.336c3.916-5.467 8.05-10.015 12.36-13.728 10.471-8.563 23.85-13.705 38.432-13.705.862 0 1.748.026 2.644.067 9.325.602 18.838 3.154 28.26 7.038-3.137-.559-9.07-1.104-12.154-1.104-14.552 0-27.636 6.279-36.693 16.276-10.632-.144-21.796 1.731-33.548 6.248.229-.367.461-.731.699-1.092"/></g><path fill="#f15a24" d="M36.673 17.447c9.296 0 17.435 4.954 21.923 12.366a20.79 20.79 0 0 0-14.02-5.41c-2.03 0-3.99.295-5.847.836 4.673 2.265 11.087 3.99 19.892 4.594 0 0-.436-8.386-11.16-12.764-14.978-6.113-17.099-4.896-20.893-11.22 0 0-1.234 6.312 3.4 12.49a25.608 25.608 0 0 1 6.705-.892"/><path fill="#ed1c24" d="M47.46 17.07c-5.128-2.094-8.748-3.328-11.446-4.3.604 1.54 1.497 3.144 2.774 4.766 8.406.688 15.664 5.433 19.808 12.277a20.79 20.79 0 0 0-11.58-5.263c3.005 1.837 6.709 3.613 11.274 5.257.112.008.22.018.332.025 0 0-.437-8.385-11.161-12.763"/><path fill="#c1272d" d="M58.606 29.831l.004.006.033.003.02-.001c.164-.913 1.168-8.155-6.99-14.492C39.487 5.884 37.106 5.007 36.527 0c0 0-3.283 5.709-.514 12.77 2.698.972 6.318 2.206 11.447 4.3 10.725 4.377 11.16 12.763 11.16 12.763l-.015-.002"/><g clip-path="url(#j)" transform="matrix(.42157 0 0 -.42157 -106.917 275.616)"><path fill="url(#k)" d="M468.192 601.569c-3.568-1.22-7.224-3.062-10.963-5.36a44.99 44.99 0 0 0 23.126 6.375c11.292 0 21.607-4.153 29.527-11.002 10.394-.627 19.402-4.744 25.435-10.637 0 0-16.653 24.192-46.693 24.192-6.243 0-13.063-1.044-20.432-3.568"/></g><g clip-path="url(#l)" transform="matrix(.42157 0 0 -.42157 -106.917 275.616)"><path fill="url(#m)" d="M457.313 596.265c-34.395-21.079-76.523-82.301-134.648-83.085h.001c9.057-9.997 22.141-16.276 36.693-16.276 3.084 0 9.017.545 12.154 1.104 38.25 15.762 75.01 53.459 91.679 71.728 15.465 16.951 32.392 22.708 46.69 21.846-7.92 6.849-18.235 11.002-29.527 11.002a44.954 44.954 0 0 1-23.042-6.319m-.077-.046l.077.046a69.384 69.384 0 0 1-.077-.046"/></g><g clip-path="url(#n)" transform="matrix(.42157 0 0 -.42157 -106.917 275.616)"><path fill="url(#o)" d="M410.523 500.062a50.148 50.148 0 0 1-5.331-2.052c-6.574-3.317-11.845-9.194-14.171-16.792a28.005 28.005 0 0 1-1.224-7.834c.031-5.215 1.329-8.883 1.375-9.02-.401 2.842-1.002 12.402 7.354 19.714.062.225.119.451.188.676a27.24 27.24 0 0 0 11.92 15.342c-.038-.01-.074-.024-.111-.034"/></g><g clip-path="url(#p)" transform="matrix(.42157 0 0 -.42157 -106.917 275.616)"><path fill="url(#q)" d="M525.532 557.406c0-15.169-5.508-32.503-23.34-41.837-25.965-13.589-65.811-7.125-91.667-15.513.036.011.072.025.109.034a27.237 27.237 0 0 1-11.92-15.342c-.069-.225-.126-.45-.188-.676 7.577 6.632 22.517 11.417 51.666 7.665 20.811-2.68 37.348-3.411 51.542.667 14.189 3.077 25.659 11.242 33.746 22.724a.008.008 0 0 0 .004.004l-.001.001a56.718 56.718 0 0 1 10.376 32.77 56.725 56.725 0 0 1-10.621 33.114c-6.033 5.854-15.006 9.941-25.356 10.565 9.58-8.284 15.65-20.518 15.65-34.176"/></g><g clip-path="url(#r)" transform="matrix(.42157 0 0 -.42157 -106.917 275.616)"><g clip-path="url(#s)"><g mask="url(#u)" clip-path="url(#t)" opacity=".49"><path fill="url(#v)" d="M545.859 547.903a56.721 56.721 0 0 1-10.621 33.115c-6.032 5.853-15.006 9.94-25.356 10.564 9.58-8.284 15.65-20.518 15.65-34.176 0-15.169-5.507-32.503-23.34-41.837-25.965-13.589-65.811-7.125-91.667-15.512.036.01.072.023.109.033a27.237 27.237 0 0 1-11.92-15.342c-.069-.225-.126-.45-.188-.676 7.577 6.632 22.517 11.416 51.666 7.664 20.811-2.678 37.348-3.411 51.542.667 14.189 3.077 25.659 11.243 33.746 22.726l.004.003-.001.001a56.715 56.715 0 0 1 10.376 32.77"/></g></g></g><g clip-path="url(#w)" transform="matrix(.42157 0 0 -.42157 -106.917 275.616)"><path fill="url(#x)" d="M398.555 484.185a3.34 3.34 0 0 1-.029-.107c-8.345-7.303-7.757-16.846-7.356-19.701 2.726-8.395 9.357-15.372 18.437-18.152 9.565-2.928 19.491-.479 26.539 5.614a27.233 27.233 0 0 0-19.289-1.245c-14.254 4.363-22.341 19.317-18.298 33.591z"/></g><g clip-path="url(#y)" transform="matrix(.42157 0 0 -.42157 -106.917 275.616)"><g clip-path="url(#z)"><path fill="#2db5f9" d="M426.359 452.57c2.838 8.257 12 21 21.833 15.166 0 0 8-4.5 9.667 8.167 0 0 6-29.792-22.875-28.792 0 0 6.5 4.75 6.438 9.625-.001.062-6.875-4.188-15.063-4.167"/></g><g clip-path="url(#A)"><path fill="#5fd2ff" d="M437.883 470.816c2.858 1.454 5.56 2.92 10.81.587 4.072-1.81 9.202 5.264 4.765 11.583 0 0 .286-6.524-4.97-6.469-5.157.054-8.248-2.265-10.605-5.7"/></g></g><path fill="#219058" d="M89.908 37.176c-2.913 3.972-7.188 7.298-7.688 8.115-.5.816.846 3.447 2.846 3.636 2 .19.46-.764.292-1.688-.168-.924.596.592 2.974.236 2.378-.357-.861-1.238-.641-2.442.22-1.204 2.674-3.481 3.65-5.777.975-2.296 2.65-.006 1.795 1.792-.339.71 2.714-1.997 1.174-4.064s-2.704-2.123-4.402.192"/><path fill="#219058" d="M81.594 45.862c-.43.41-1.693 1.336-1.693 1.336s1.237 1.721 2.83 1.685c0 0 .342-.162-.15-.667-.493-.504-1.1-2.05-.987-2.354"/><g clip-path="url(#B)" transform="matrix(.42157 0 0 -.42157 -106.917 275.616)"><path fill="url(#C)" d="M279.859 551.653a60.442 60.442 0 0 1 9.259-32.225c11.752-4.517 22.916-6.392 33.547-6.248-7.957 8.784-12.806 20.437-12.806 33.224 0 22.52 15.045 41.515 35.628 47.515-9.833 4.766-16.411 10.54-20.781 16.366-25.837-6.991-44.847-30.585-44.847-58.632m42.806-38.473l.001-.001v.001h-.001"/></g><path fill="none" stroke="#fff" stroke-miterlimit="10" stroke-width="1.054" d="M29.109 59.276h0"/><path fill="#f7b852" d="M38.779 17.536c1.138 1.64 4.404 4.474 8.248 7.015a20.789 20.789 0 0 1 11.569 5.262c-4.145-6.846-11.407-11.592-19.817-12.277"/><path fill="#ff8431" d="M38.779 17.536a25.608 25.608 0 0 0-8.81.804c1.842 2.455 4.615 4.89 8.76 6.899a20.865 20.865 0 0 1 5.848-.837c.83 0 1.646.055 2.45.15-3.844-2.542-7.11-5.376-8.248-7.016"/><path fill="#fffb69" d="M52.99 23.366c.135 0-3.126-2.95-6.885-4.11 1.661 3.141 3.084 4.11 6.886 4.11"/><path fill="#c1272d" d="M45.75 9.99c1.633.949 3.095 2.139 3.688 2.582.295.221-.527-2.002-1.475-2.424-.949-.421-2.214-.158-2.214-.158"/><path fill="#c1272d" d="M50.298 13.212c1.624.965 3.277 2.342 3.663 2.62.3.214-.507-2.009-1.452-2.44-.944-.43-2.211-.18-2.211-.18"/><path fill="#c1272d" d="M54.583 16.365c1.337 1.284 1.745 2.127 1.983 2.473.147.215.04-1.457-.518-1.93-.558-.471-1.465-.543-1.465-.543"/><path fill="#44c688" d="M34.845 56.951c-.115-.368 1.323-.832 1.706-.854.382-.021 1.81.516 2.01.67-.44.22-2.09.606-2.758.58-.457-.05-.958-.396-.958-.396"/><path fill="#44c688" d="M40.022 55.729c-.123-.285.988-.776 1.293-.826.304-.049 1.491.262 1.663.368-.332.213-1.62.66-2.157.694-.37 0-.799-.236-.799-.236"/><path fill="#44c688" d="M44.355 54.138c-.126-.224.744-.727.99-.794.246-.068 1.25.083 1.4.154-.255.205-1.275.687-1.713.763-.304.032-.677-.123-.677-.123"/><path fill="#44c688" d="M47.8 52.573c-.132-.195.626-.715.846-.795.22-.079 1.145-.013 1.288.042-.218.204-1.113.717-1.508.817-.275.051-.627-.064-.627-.064"/><path fill="#44c688" d="M51.017 50.814c-.124-.163.51-.652.696-.732.187-.08.995-.068 1.122-.028-.18.189-.933.678-1.27.785-.237.057-.548-.025-.548-.025"/><path fill="#44c688" d="M29.659 57.365c-.06-.409 1.54-.656 1.948-.614.409.042 1.828.852 2.013 1.048-.502.159-2.314.288-3.016.147-.475-.13-.945-.58-.945-.58"/><path fill="#c1272d" d="M30.639 8.954c1.12 1.278 3.768 2.108 3.768 2.108s-.633-1.471-.528-4.269c.004-.1-3.24-.052-3.793-2.714-.111-.531-.567 3.597.553 4.875"/><path fill="#f15a24" d="M19.622 70.327c.138-.93.557-1.713 1.265-2.19.034-.023.07-.039.105-.06-.26-.067-.531-.098-.806-.14-3.861-.575-4.841 1.725-5.045 4.307a4.714 4.714 0 0 0-.012.442 4.687 4.687 0 0 1 4.446-2.365c.016.001.031.005.047.006"/><path fill="#f15a24" d="M24.323 69.485c-3.837-2.33-5.995-2.5-6.85 4.027 0 0 4.041-3.194 5.947-1.082 2.073 2.297 4.896.18 3.413-1.159-1.483-1.338-2.51-1.786-2.51-1.786"/><path fill="#f15a24" d="M22.732 70.242c-2.177 1.451-2.174 4.862-2.174 4.862s3.973-2.15 3.663-3.488c-.31-1.34-1.489-1.374-1.489-1.374"/><path fill="#f15a24" d="M4.651 43.425c.812-.474 1.685-.637 2.5-.383.039.012.074.03.113.044-.11-.245-.255-.475-.396-.715-1.965-3.374-4.372-2.699-6.515-1.243-.123.084-.24.173-.353.267a4.686 4.686 0 0 1 4.626 1.99c.01.013.016.027.025.04"/><path fill="#f15a24" d="M8.77 47.436C7.372 41.897 6.248 39.76.891 43.584c0 0 4.584-1.318 5.108 5.2.248 3.084 3.208 3.703 3.175 1.706-.032-1.997-.406-3.054-.406-3.054"/><path fill="#f15a24" d="M6.815 44.47c-2.546-.603-5.039 1.726-5.039 1.726s3.911-.136 4.386 2.236c.269 1.347.653-3.962.653-3.962"/><path fill="#29b36e" d="M88.35 35.434c2.485-2.795 5.374-5.292 8.73-7.047 3.18-1.675 7.702-2.728 10.43-2.597l1.045.899-.547-.044c-3.66-.278-7.393.512-10.74 2.12-3.362 1.6-6.33 3.969-8.919 6.669"/><path fill="#6fd191" d="M107.896 25.822c2.035.198 4.033.7 5.89 1.51 1.854.81 3.578 1.931 4.969 3.377-1.489-1.344-3.262-2.322-5.124-2.985-1.641-.583-3.448-.827-5.08-1.035-.003 0-1.04-.897-1.04-.897z"/><path fill="#c83ad7" d="M61.33 70.771a15.37 15.37 0 0 1 1.752-1.073c.43-.211.859-.42 1.305-.586.437-.19.892-.325 1.342-.475 1.81-.567 3.68-.864 5.55-1.02 3.744-.294 7.49-.042 11.184.44 3.684.495 7.373.946 11.087 1.065 3.704.117 7.452-.104 11.048-1.087-3.576 1.051-7.334 1.346-11.053 1.298-3.726-.048-7.44-.431-11.133-.856-3.683-.411-7.404-.588-11.076-.23-1.83.187-3.651.514-5.382 1.092-.43.153-.864.292-1.277.48-.423.167-.826.373-1.229.579-.791.433-1.545.93-2.214 1.52l-.299.263s.16-.794.396-1.41"/><g><path fill="#c1272d" d="M39.421 26.897c-3.583.79-3.03 3.636-3.03 3.636s1.133-1.37 7.378-2.108c0 0-2.683-.712-4.348-1.528"/></g><g><path fill="#fba9ff" d="M57.988 79.855c-.133-.785-.121-1.591-.048-2.389a10.51 10.51 0 0 1 1.568-4.56c.44-.694.982-1.32 1.568-1.904l.257-.237s-.354 1.135-.397 1.417c-.288.277-.638.733-.91 1.087-.464.612-.863 1.28-1.18 1.991-.316.711-.55 1.464-.697 2.237-.14.772-.224 1.566-.161 2.358"/></g><g><path fill="#ff737d" d="M28.276 59.277c-2.037-2.238-3.751-5.802-4.48-9.135-.372-1.759-.555-3.56-.463-5.35l.078-1.34.187-1.33c.046-.444.172-.876.264-1.313.095-.437.19-.872.338-1.295.487-1.719 1.244-3.351 2.16-4.872.44-.774.983-1.48 1.51-2.194l.862-1.013c.286-.34.619-.635.925-.954 1.274-1.227 2.672-2.333 4.212-3.201a22.424 22.424 0 0 1 4.86-2.04 22.369 22.369 0 0 0-4.78 2.176c-1.5.906-2.85 2.042-4.067 3.288-.293.323-.611.623-.882.965l-.817 1.02c-.496.716-1.007 1.422-1.413 2.193-.852 1.513-1.54 3.123-1.961 4.804-.131.413-.211.839-.29 1.264-.076.426-.187.845-.217 1.278l-.142 1.287-.036 1.295c-.038 1.725.19 3.448.596 5.116a20.391 20.391 0 0 0 4.858 8.925l.373.4s-1.364.049-1.675.026"/></g><g><path fill="#fdc666" d="M49.7 65.672a26.585 26.585 0 0 1-5.598.636c-1.901-.023-3.78-.39-5.6-.922a26.32 26.32 0 0 1-5.256-2.208c-1.668-.934-3.224-2.065-4.58-3.478l-.39-.417s1.342-.02 1.674-.032c1.101 1.188 2.39 2.217 3.786 3.099a25.514 25.514 0 0 0 4.971 2.408c1.743.613 3.559 1.07 5.408 1.192 1.855.1 3.733.012 5.586-.278"/></g></svg>