<svg xmlns="http://www.w3.org/2000/svg" role="img" viewBox="-14.74 -14.74 627.48 766.48"><title>ESLint logo</title><path fill="#1a1a1a" d="M0 577.691c0-1.406.941-2.345 2.348-2.345h99.953c1.407 0 2.344.939 2.344 2.345v20.18c0 1.407-.937 2.344-2.344 2.344H29.095c-.938 0-1.407.47-1.407 1.41v38.948c0 .938.47 1.406 1.407 1.406h61.708c1.409 0 2.348.94 2.348 2.348v20.176c0 1.41-.939 2.348-2.348 2.348H29.095c-.938 0-1.407.47-1.407 1.407v40.357c0 .938.47 1.408 1.407 1.408H102.3c1.407 0 2.344.938 2.344 2.346v20.178c0 1.41-.937 2.347-2.344 2.347H2.348c-1.407 0-2.348-.937-2.348-2.347z"/><path fill="#1a1a1a" d="M119.68 716.358c-.94-.938-1.409-2.346-.469-3.52l14.546-16.894c.94-1.172 2.346-1.172 3.285-.234 10.324 8.213 25.576 16.893 43.405 16.893 19.007 0 30.034-9.619 30.034-22.993 0-11.496-7.036-19.004-29.092-22.055l-8.45-1.172c-30.734-4.225-48.097-19.007-48.097-45.52 0-28.859 21.117-48.099 53.963-48.099 19.944 0 38.95 6.335 51.62 15.955 1.173.939 1.409 1.877.468 3.285l-11.262 17.363c-.938 1.173-2.112 1.408-3.285.704-12.901-8.447-24.87-12.436-38.243-12.436-16.19 0-25.105 8.917-25.105 21.35 0 11.029 7.741 18.537 29.328 21.587l8.447 1.172c30.737 4.226 47.629 18.771 47.629 46.223 0 28.39-20.413 49.507-60.065 49.507-23.463 0-46.22-9.386-58.656-21.116"/><path fill="#1a1a1a" d="M259.75 577.691c0-1.406.942-2.345 2.349-2.345h22.993c1.41 0 2.347.939 2.347 2.345v130.924c0 .938.469 1.408 1.406 1.408h73.207c1.407 0 2.344.938 2.344 2.346v20.178c0 1.41-.937 2.347-2.344 2.347h-99.953c-1.407 0-2.348-.937-2.348-2.347z"/><path fill="#1a1a1a" d="M383.64 734.894c-1.406 0-2.343-.938-2.343-2.346v-108.4c0-1.408.937-2.345 2.344-2.345h21.586c1.41 0 2.348.937 2.348 2.345v108.4c0 1.408-.938 2.346-2.348 2.346zm0-134.444c-1.406 0-2.343-.938-2.343-2.346v-20.413c0-1.407.937-2.345 2.344-2.345h21.586c1.41 0 2.348.938 2.348 2.345v20.413c0 1.408-.938 2.346-2.348 2.346z"/><path fill="#1a1a1a" d="M503.641 734.894c-1.406 0-2.344-.938-2.344-2.346V667.32c0-14.548-7.276-24.636-21.35-24.636-13.61 0-21.587 10.088-21.587 24.636v65.228c0 1.408-.939 2.346-2.348 2.346h-21.587c-1.406 0-2.344-.938-2.344-2.346v-108.4c0-1.408.938-2.345 2.344-2.345h21.587c1.41 0 2.348.937 2.348 2.345v8.212h.232c4.928-7.038 14.784-13.14 29.8-13.14 24.167 0 39.184 17.834 39.184 42v71.328c0 1.408-.939 2.346-2.348 2.346z"/><path fill="#1a1a1a" d="M584.49 736.302c-22.757 0-31.438-11.028-31.438-33.084v-59.596c0-.937-.47-1.407-1.41-1.407h-7.509c-1.406 0-2.344-.938-2.344-2.346v-15.72c0-1.408.938-2.347 2.344-2.347h7.508c.942 0 1.41-.468 1.41-1.408v-30.972c0-1.407.938-2.345 2.345-2.345h21.587c1.409 0 2.348.938 2.348 2.345v30.972c0 .94.468 1.408 1.405 1.408h15.017c1.41 0 2.347.939 2.347 2.347v15.72c0 1.408-.937 2.346-2.347 2.346h-15.017c-.937 0-1.405.47-1.405 1.407v58.659c0 7.977 3.284 10.557 10.556 10.557h5.866c1.41 0 2.347.94 2.347 2.348v18.77c0 1.407-.937 2.346-2.347 2.346z"/><g><path fill="#8080f2" d="M186.477 182.125l108.197-62.467a8.752 8.752 0 0 1 8.753 0l108.196 62.467a8.753 8.753 0 0 1 4.377 7.58v124.933a8.757 8.757 0 0 1-4.377 7.582l-108.196 62.467a8.752 8.752 0 0 1-8.753 0L186.477 322.22a8.757 8.757 0 0 1-4.376-7.582V189.704a8.753 8.753 0 0 1 4.376-7.58"/><path fill="#4b32c3" d="M473.317 347.178c0 3.308-1.99 6.364-4.857 8.02l-164.667 95.005a9.358 9.358 0 0 1-9.316 0l-164.795-95.005c-2.864-1.656-4.868-4.712-4.868-8.02V157.166c0-3.309 1.975-6.365 4.841-8.02L294.316 54.14a9.35 9.35 0 0 1 9.311 0l164.809 95.005c2.864 1.655 4.88 4.711 4.88 8.02zM580.363 239.03L451.089 14.13C446.393 5.998 437.716 0 428.326 0h-258.55c-9.392 0-18.069 5.998-22.765 14.13L17.737 238.534c-4.696 8.134-4.696 18.402 0 26.533L147.01 488.125c4.696 8.131 13.373 12.289 22.765 12.289h258.55c9.39 0 18.067-4.032 22.763-12.166l129.274-223.422c4.696-8.132 4.696-17.664 0-25.796"/></g></svg>