<svg xmlns="http://www.w3.org/2000/svg" role="img" viewBox="-8.87 -8.87 461.24 461.24"><title>Esprima logo</title><style>svg {enable-background:new 0 0 443.91 443.91}</style><path fill="#3d5ba9" d="M0 0v443.91h443.91V0H0zm277.77 268.24h-69.52v36.67h67.5v29.59h-67.5v52.95h69.52v29.59H177.09v-178.4h100.68v29.6zm120.2 135.51c-11.14 10.91-25.14 16.44-41.62 16.44-15.62 0-28.73-4.71-38.97-14.01-10.06-9.28-16.4-22.43-18.87-39.11l-.34-2.31 31.48-6.94.32 2.74c1.14 9.68 3.09 16.37 5.79 19.88 4.98 6.92 12.04 10.25 21.6 10.25 7.53 0 13.6-2.44 18.55-7.45 4.96-5.03 7.37-11.25 7.37-19.02 0-3.08-.43-5.93-1.28-8.47-.83-2.49-2.15-4.82-3.92-6.93-1.82-2.16-4.22-4.23-7.15-6.14-3-1.97-6.66-3.88-10.85-5.69l-16.7-6.95c-24.65-10.42-37.14-26-37.14-46.33 0-13.72 5.31-25.34 15.79-34.56 10.38-9.2 23.44-13.88 38.82-13.88 20.85 0 37.34 10.24 49 30.45l1.24 2.14-25.53 15.13-1.26-2.19c-3.73-6.47-7.24-10.7-10.44-12.57l-.09-.05c-3.32-2.12-7.74-3.2-13.14-3.2-6.71 0-12.09 1.82-16.45 5.57-4.26 3.59-6.32 7.96-6.32 13.38 0 7.41 5.66 13.34 17.32 18.13l17.29 7.07c14.41 5.82 25.14 13.09 31.89 21.59 6.84 8.61 10.31 19.28 10.31 31.71 0 16.58-5.62 30.48-16.7 41.32z"/><path fill="#fff" d="M177.09 417.04h100.68v-29.59h-69.51V334.5h67.49v-29.59h-67.49v-36.67h69.51v-29.59H177.09zm195.37-107.9l-17.29-7.07c-11.65-4.79-17.32-10.71-17.32-18.13 0-5.42 2.06-9.79 6.32-13.38 4.36-3.75 9.75-5.57 16.45-5.57 5.4 0 9.82 1.08 13.14 3.2l.09.05c3.2 1.86 6.71 6.09 10.44 12.57l1.26 2.19 25.53-15.13-1.24-2.14c-11.66-20.21-28.14-30.45-49-30.45-15.38 0-28.45 4.67-38.82 13.88-10.47 9.21-15.79 20.84-15.79 34.56 0 20.33 12.49 35.91 37.14 46.33l16.7 6.95c4.19 1.81 7.85 3.72 10.85 5.69 2.92 1.92 5.33 3.98 7.15 6.14 1.77 2.11 3.09 4.44 3.92 6.93.85 2.54 1.28 5.39 1.28 8.47 0 7.77-2.41 14-7.37 19.02-4.95 5.01-11.01 7.45-18.55 7.45-9.57 0-16.62-3.33-21.6-10.25-2.7-3.51-4.65-10.2-5.79-19.88l-.32-2.74-31.48 6.94.34 2.31c2.47 16.68 8.82 29.83 18.87 39.11 10.24 9.3 23.35 14.01 38.97 14.01 16.48 0 30.48-5.53 41.62-16.44 11.08-10.85 16.7-24.75 16.7-41.32 0-12.43-3.47-23.1-10.31-31.71-6.75-8.51-17.48-15.77-31.89-21.59z"/></svg>