<svg xmlns="http://www.w3.org/2000/svg" role="img" viewBox="-22.40 -22.40 1164.80 293.80"><title>Express logo</title><path stroke-width="10.636" d="M347.472 250V4.89h13.295v38.556a50.415 50.415 0 0 0 4.34-5.435C376.21 14.974 399.63.434 425.2.721c30.313-.904 54.947 10.317 69.422 37.29a119.87 119.87 0 0 1 2.893 109.882c-13.486 30.228-46.798 45.257-82.461 39.737a66.689 66.689 0 0 1-53.224-35.12v97.48zm13.295-158.404l2.978 28.782c5.254 32.759 24.623 52.117 55.031 55.754a62.54 62.54 0 0 0 68.699-39.736c11.827-28.186 10.955-60.095-2.34-87.62a61.264 61.264 0 0 0-64.54-35.664 59.669 59.669 0 0 0-53.308 44.076 304.406 304.406 0 0 0-6.52 34.398zm420.106 33.313a71.687 71.687 0 0 1-70.06 63.359c-55.755 2.808-81.92-34.217-86.079-76.942a123.273 123.273 0 0 1 10.86-67.89 75.73 75.73 0 0 1 78.835-42.268 72.432 72.432 0 0 1 64.263 55.127 371.945 371.945 0 0 1 6.244 40.736H638.508c-2.712 38.737 18.103 69.88 47.607 77.389 36.748 9.04 68.157-6.882 79.558-41.822 2.532-8.966 7.148-10.232 15.295-7.69zm-142.471-40.28h130.973c-.82-41.268-26.516-71.262-61.37-71.602-39.354-.638-67.891 28.154-69.603 71.603zm169.54 41.184h12.837a51.479 51.479 0 0 0 30.228 44.352 79.026 79.026 0 0 0 68.614-1.808 30.845 30.845 0 0 0 18.102-30.324 27.973 27.973 0 0 0-18.825-27.973c-14.125-5.254-29.143-8.147-43.534-12.763a319.084 319.084 0 0 1-43.81-16.018c-23.187-11.317-24.623-55.393 1.627-69.347a92.428 92.428 0 0 1 88.344-1.362c16.954 9.36 26.324 28.26 23.537 47.437h-11.008c0-.532-1-1-1-1.542-1.361-35.1-30.866-46.076-62.54-42.991-9.573 1.063-18.645 3.956-27.154 8.232a27.122 27.122 0 0 0-15.742 27.154 27.122 27.122 0 0 0 18.103 25.527c13.827 5.073 28.505 8.328 42.81 12.306l34.568 9.04a40.843 40.843 0 0 1 28.058 36.844c2.765 18.56-6.7 36.801-23.442 45.257-30.228 17.103-80.016 12.582-102.192-9.04a60.334 60.334 0 0 1-17.55-42.992zm306.107-67.795h-12.04c0-1.627-.638-3.19-.819-4.435a39.354 39.354 0 0 0-32.047-37.833 79.026 79.026 0 0 0-50.776 2.446 30.845 30.845 0 0 0-22.358 29.42 28.398 28.398 0 0 0 21.72 28.6l55.03 14.125a153.054 153.054 0 0 1 17.55 5.34c17.55 6.381 29.462 22.676 29.994 41.3a45.204 45.204 0 0 1-27.654 42.97 100.724 100.724 0 0 1-81.462.818 56.478 56.478 0 0 1-34.035-54.85h11.763a65.984 65.984 0 0 0 100.469 42.002 32.334 32.334 0 0 0 17.38-30.228 27.973 27.973 0 0 0-19.103-27.792c-14.125-5.254-29.143-8.052-43.534-12.763a320.68 320.68 0 0 1-44.076-15.838c-22.633-11.136-24.442-54.85 1.362-68.794a91.152 91.152 0 0 1 89.79-1 47.33 47.33 0 0 1 22.719 46.437zM325.593 183.843a20.74 20.74 0 0 1-25.707-9.774l-46.8-64.721-6.785-9.04-54.308 73.856a19.89 19.89 0 0 1-24.442 9.594l69.964-93.864-65.093-84.812c9.658-3.489 20.422.298 25.793 9.04l48.5 65.52 48.789-65.264a19.464 19.464 0 0 1 24.26-9.051l-25.26 33.514-34.217 44.533a9.04 9.04 0 0 0 0 13.487l65.168 86.982zM622.66 4.178V16.94a65.625 65.625 0 0 0-69.88 67.795V184.3h-12.943V4.976H552.6v36.747c15.656-26.803 39.822-36.747 70.145-37.47zM.021 88.724l5.701-28.153C21.38 4.9 85.195-18.264 129.102 16.218c25.707 20.187 32.12 48.788 30.865 81.015H15.135c-2.34 57.563 39.194 92.322 92.322 74.58 17.507-6.38 30.685-20.931 35.025-39.012 2.807-9.041 7.445-10.594 15.932-7.978a73.496 73.496 0 0 1-35.12 53.681 85.089 85.089 0 0 1-99.118-12.668 89.2 89.2 0 0 1-22.261-52.33c0-3.19-1.064-6.168-1.809-9.04Q0 96.414 0 88.724zm15.295-3.892h130.973c-.819-41.726-27.154-71.326-62.274-71.603-39.099-.532-67.072 28.42-68.795 71.422z"/></svg>