<svg xmlns="http://www.w3.org/2000/svg" role="img" viewBox="-11.37 -11.37 547.24 591.24"><title>Globalize logo</title><defs><clipPath id="a" clipPathUnits="userSpaceOnUse"><path d="M0 344h595v154H0z"/></clipPath><clipPath id="b" clipPathUnits="userSpaceOnUse"><path d="M.116 497.856h593.298V344H.116z"/></clipPath><clipPath id="c" clipPathUnits="userSpaceOnUse"><path d="M0 344h595v154H0z"/></clipPath></defs><g fill="#369f93" clip-path="url(#a)" transform="matrix(2.81336 0 0 -2.81336 45.913 1400.648)"><path d="M76.894 372.276c-26.827 0-48.653 21.828-48.653 48.65 0 26.828 21.826 48.654 48.653 48.654 26.825 0 48.651-21.826 48.651-48.653 0-26.823-21.826-48.651-48.65-48.651zm0 105.12c-31.137 0-56.469-25.33-56.469-56.47 0-31.136 25.332-56.466 56.47-56.466 31.134 0 56.47 25.33 56.47 56.467 0 31.139-25.336 56.469-56.47 56.469"/><path d="M76.896 470.418c-14.51 0-26.771-22.662-26.771-49.491 0-26.83 12.261-49.49 26.771-49.49 14.508 0 26.767 22.66 26.767 49.49 0 26.829-12.259 49.491-26.767 49.491zm0-105.118c-18.45 0-32.905 24.432-32.905 55.627 0 31.197 14.454 55.629 32.905 55.629 18.449 0 32.9-24.432 32.9-55.63 0-31.194-14.451-55.626-32.9-55.626"/><path d="M73.826 473.488h6.134V368.364h-6.134z"/><path d="M76.896 447.698c-26.83 0-49.491-12.26-49.491-26.767 0-14.51 22.662-26.77 49.491-26.77 26.83 0 49.49 12.26 49.49 26.77 0 14.508-22.66 26.767-49.49 26.767zm0-59.67c-31.193 0-55.63 14.452-55.63 32.903 0 18.447 24.437 32.899 55.63 32.899 31.197 0 55.625-14.452 55.625-32.9 0-18.45-24.428-32.902-55.625-32.902"/></g><g clip-path="url(#b)" transform="matrix(2.81336 0 0 -2.81336 45.913 1400.648)"><g clip-path="url(#c)"><path fill="#369f93" d="M24.331 423.995h105.126v-6.134H24.33z"/><path fill="#97a8b3" d="M120.99 357.865l.597-.304c3.02-1.52 6.622-1.545 9.626-.056a10.676 10.676 0 0 1 5.398 6.215c.91 2.726.705 5.643-.576 8.214a10.706 10.706 0 0 1-9.634 5.962 10.72 10.72 0 0 1-4.797-1.136 10.712 10.712 0 0 1-5.647-12.037l.174-.758-.647-.438a68.64 68.64 0 0 0-7.67-4.494c-9.666-4.821-20.019-7.269-30.777-7.269-26.46 0-50.22 14.668-62 38.273-9.837 19.714-9.665 43.006.404 62.535a24.796 24.796 0 0 0-6.22 4.783c-11.868-22.017-12.32-48.357-1.129-70.778C21.194 360.317 47.615 344 77.051 344h.005c11.956 0 23.472 2.726 34.226 8.087a76.587 76.587 0 0 1 9.15 5.399l.558.379"/></g></g><path fill="#97a8b3" stroke-width="1.25" d="M455.78 119.916c-25.81-51.724-70.229-90.312-125.05-108.633C308.342 3.799 285.19 0 261.901 0c-33.556 0-65.996 7.701-96.432 22.886a219.67 219.67 0 0 0-25.957 15.31l-1.527 1.044-1.69-.81c-8.436-4.13-18.43-4.174-26.762-.005-14.93 7.45-21.017 25.647-13.565 40.587 5.163 10.338 15.549 16.762 27.103 16.762 4.707 0 9.24-1.077 13.49-3.201 12.663-6.327 19.185-20.354 15.848-34.154l-.51-2.168 1.83-1.234c7.164-4.815 14.398-9.054 21.501-12.587 27.338-13.658 56.507-20.577 86.687-20.577 20.935 0 41.756 3.424 61.887 10.126 49.3 16.484 89.225 51.186 112.432 97.692 27.718 55.55 27.229 121.095-1.174 176.02a69.245 69.245 0 0 1 17.522 13.408c33.441-61.881 34.718-136.02 3.196-199.184"/><g fill="#3d5269" stroke-width="1.25"><path d="M0 546.992c0-1.78.275-3.975.548-5.757l6.853-39.474c2.879-16.722 12.61-26.729 37.01-26.729 9.32 0 21.52 2.193 28.646 4.388l-4.523 17.268c-7.402-2.055-18.915-3.427-26.181-3.427-10.553 0-14.117 4.663-15.489 12.748l-5.619 31.665a26.52 26.52 0 0 0-.41 4.522c0 5.62 2.74 8.909 11.376 8.909 4.112 0 9.596-.686 13.433-1.507l4.523-24.947h18.915l-6.853 38.515c-8.36 3.565-19.326 5.895-31.8 5.895C9.32 569.06 0 560.288 0 546.992m95.12-73.332l19.876-2.74L98 567.69H78.673l16.447-94.03m65.93 49.622c0-4.936-3.015-7.54-9.323-7.54-7.263 0-11.51 3.7-12.607 10.278l-2.88 16.585c-.136.96-.274 1.922-.274 2.743 0 4.798 3.016 7.539 9.319 7.539 7.404 0 11.516-3.702 12.612-10.282l2.879-16.585c.137-.959.275-1.917.275-2.738zm-44.55 23.437c0-1.506.138-3.153.414-4.66l2.74-15.489c3.017-17.135 11.376-27.004 34.681-27.004 17.954 0 26.041 10.28 26.041 22.206 0 1.51-.137 3.152-.41 4.798l-2.741 15.489c-2.878 16.036-10.555 27.002-34.816 27.002-16.998 0-25.908-10.145-25.908-22.342m116.919-25.768c.683-3.566-.276-5.208-3.703-5.208-4.247 0-11.103 2.738-15.078 5.208l-5.481 31.525c2.33.275 4.796.41 7.539.41 10.007 0 11.924-4.935 13.158-11.378zm-46.055 44.959l16.309-92.25 19.738-2.74-6.032 34.403c5.62-3.289 12.2-5.757 19.466-5.757 14.527 0 18.091 8.91 15.488 23.85l-3.154 17.957c-2.74 15.901-7.538 27.688-36.05 27.688-6.988 0-16.584-.959-25.765-3.151m92.244-18.505c-.55 3.562.273 4.934 3.7 4.934 4.935 0 10.28-2.879 14.664-6.58l5.074-28.92c-2.603-.55-5.484-.686-7.54-.686-10.006 0-11.24 4.934-12.471 11.376zm17.543 20.284l-.548-5.754c-4.66 3.562-11.651 7.126-21.245 7.126-14.532 0-17.408-8.773-14.805-23.713l3.154-17.957c2.743-15.898 9.045-27.687 35.362-27.687 6.993 0 16.176 1.234 25.497 4.112l-11.105 63.873h-16.31m50.165-94.029l19.873-2.74-16.997 96.77h-19.328l16.452-94.03m37.417-.683l19.873-2.743-3.7 20.562-19.737 2.74zm-5.209 29.47l19.874-2.743-12.062 67.985H368.01l11.514-65.242m26.452 50.44l31.8-36.599h-25.222l2.608-15.35h45.231l-.137 14.805L428.32 552.2h26.317l-2.606 15.488h-45.369l-.686-14.802m100.88-34.54c0-2.33-2.055-3.837-5.62-3.837-6.99 0-9.047 3.972-10.006 9.456l-.821 4.663c3.289-.824 4.796-1.099 8.77-2.333 5.212-1.507 7.677-3.975 7.677-7.95zm-34.951 6.442c2.738-15.353 9.594-25.222 30.701-25.222 12.61 0 22.206 5.484 22.206 16.722 0 13.023-6.718 19.055-23.165 23.989-8.087 2.465-8.222 2.465-13.981 3.974l-.821 4.661c-.413 2.465-.14 4.66 3.426 4.66 6.991 0 17.133-3.426 26.179-7.4l3.702 13.705c-8.09 5.074-20.835 9.184-32.624 9.184-13.841 0-19.738-6.03-19.738-17.406 0-2.47.275-5.21.823-8.09l3.291-18.777"/></g></svg>