<svg xmlns="http://www.w3.org/2000/svg" role="img" viewBox="-9.99 -9.99 443.98 519.48"><title>Grunt logo</title><path fill="#fba919" d="M79.834 96.013s6.765 26.093 7.73 34.792c.968 8.697-17.396 28.025-17.396 37.69s3.861 27.06 25.125 35.76c21.265 8.697 24.16 30.924 24.16 44.457 0 13.53-7.73 39.62-7.73 39.62s-4.83 64.75 21.261 76.346c26.091 11.596 20.295 11.596 26.091 11.596 5.797 0 48.322 17.4 73.447 10.634 25.127-6.765 31.888-14.495 31.888-14.495s25.13 1.93 32.86-20.3c7.734-22.225 12.563-68.611 9.663-89.874-2.9-21.264-6.764-49.285 10.63-58.952 17.4-9.665 35.76-21.258 32.86-30.924-2.9-9.665-18.359-23.196-18.359-23.196s-3.867-24.158-.97-29.957c2.898-5.799 20.296-20.299 10.63-30.927-9.659-10.63-27.06-10.63-27.06-10.63l-22.225 1.93s-37.69-33.822-86.977-31.89c-49.285 1.933-80.213 31.89-80.213 31.89s-16.427-5.798-30.925 0c-14.498 5.801-17.388 0-14.49 16.43z"/><path fill="#e78724" d="M168.139 239.902S149 269.164 134.963 289.93c-2.172 3.212 14.038 3.435 14.038 3.435zm9.111-60.67s-5.768 14.393-8.928 22.022c-3.43 8.295-16.51 12.421-16.51 12.421s6.78-7.11 6.78-25.125c0-7.558 9.757-10.562 9.757-10.562z"/><path fill="#e78724" d="M171.423 187.37s-11.82 14.07-33.765 6.19c-21.95-7.878-24.2-36.02-24.2-43.9 0-7.88 41.647 7.88 47.276 11.257 5.63 3.377 16.316 16.883 10.689 26.453zm-82.9-150.343s20.26-3.942 33.766 6.752c13.511 10.693 17.445 19.137 17.445 19.137L116.97 80.962s-11-5.1-14.377-19.735c-3.376-14.633-1.125-21.385-14.069-24.2z"/><path fill="#e78724" d="M165.514 146.73c-8.723-12.382-23.098-17.783-34.576-18.678-19.57-1.531-28.862 5.388-28.862 5.388s32.052 1.357 41.29 13.49c17.198 22.583 42.288 24.417 46.3 19.458-4.64.23-9.743-2.068-15.205-7.233-3.413-3.23-6.18-8.495-8.947-12.425zm-54.107 43.781s-35.563-12.225-28.803-24.605c6.752-12.383 1.377-19.13 1.377-19.13s-19.857 14.824-14.797 30.58c3.11 9.673 8.326 16.675 36.974 30.101 13.74 25.522 2.837 71.462 3.49 71.678 1.089.362 19.293-8.998 18.05-51.978-.379-13.198-1.434-31.215-16.291-36.646zM158.008 59.05c-14.912 7.575-35.34 18.124-35.34 18.124l8.04 4.023c-.767 1.243-1.138 1.984-1.138 1.984l8.253 3.753s20.145 14.593 32.488 23.975c-4.116-12.672-16.196-32.58-16.196-32.58s-3.423-9.148 3.893-19.28zm49.536 308.796c-45.832 0-61.357-23.268-61.357-23.268l7.163 17.442c2.707 7.546 31.59 31.027 54.125 31.027"/><path fill="#e78724" d="M151.21 328.857s4.217 25.77 21.1 25.77c14.349 0 18.576-21.768 18.576-26.267zm-28.098-38.867c1.5-4.13 6.752-20.826 8.44-36.02 2.022-18.198 1.285-44.815 1.285-44.815s-4.505 17.447-8.445 20.267c-3.937 2.812-11.255 21.945-11.255 21.945s-3.92 28.486-5.786 38.06c5.163 1.035 9.51-2.008 15.76.563zM82.338 177.077s9.565-3.38 12.382-24.2c2.813-20.825-3.38-38.835-3.38-38.835s.563 28.703-2.812 34.333c-3.38 5.626-6.19 7.314-10.132 14.633-3.942 7.32 1.688 11.817 3.942 14.07z"/><path fill="#fdc168" d="M93.76 41.953l-1.954-1.237c-5.758.194 1.953 1.237 1.953 1.237z"/><path fill="#fba919" d="M165.793 52.884s-9.002-1.5-13.507-8.252c-4.505-6.755-17.26-20.264-37.593-20.415-20.332-.152-40.45 5.404-40.45 5.404l17.561 11.096c1.857-.06 5.105-.035 10.475.144 22.038.732 25.43 22.53 25.43 22.53l77.668-10.694"/><path fill="#fff" d="M173.3 173.28s-10.508 10.507-26.644 7.128c-16.135-3.375-25.892-10.505-26.642-22.888-.75-12.382 3.38-17.26 3.38-17.26s18.008 5.632 26.642 13.137c8.63 7.502 15.007 19.51 23.263 19.883z"/><path fill="#c9c9c9" d="M160.583 169.527s-9.112 4.162-19.297.772c-13.332-4.447-14.22-18.312-14.22-18.312s-8.18 24.002 14.752 28.622c18.393 3.705 29.27-6.953 29.27-6.953z"/><path fill="#463014" d="M167.059 47.792c-.98-20.585 15.895-36.98 21.741-37.678.323 3.489-.325 17.095 5.52 21.279C196.022 20.279 201.777 8.027 224.5 0c-4.866 12.908-.65 23.72 1.36 28.732 15.517-14.085 25.972-11.757 25.972-11.757s-10.782 18.605-6.565 30.813c-31.15-2.443-78.056 3.31-78.208.004zm-66.04 31.355c-7.433-6.166-1.893-11.889-2.48-18.895-.32-3.727-.615-7.245-1.843-9.185-6.84-10.8-22.976-14.078-23.137-14.112l-7.573-1.483 5.013-5.865c.65-.76 21.237-20.402 53.095-10.116 22.285 7.187 38.783 31.56 39.397 32.544l-11.174 5.255c-.131-.208-13.173-23.117-32.293-29.282-15.455-4.987-29.699-.243-35.8 2.867 6.486 2.59 14.966 7.305 20.075 15.373 2.41 3.81 2.817 8.607 3.21 13.252.518 6.15 1.003 11.955 5.528 15.714zm-19.852 90.015s9.365-11.612 12.138-34.207c1.09-8.9-.845-26.454-3.942-33.208.562 16.603-3.658 33.208-3.658 33.208s-2.846 30.83-4.538 34.207z"/><path fill="#463014" d="M130.546 67.42c-.005-.025-3.005-13.135-11.322-19.753-11.733-9.332-26.058-4.368-26.196-4.324l-2.08-6.426c.693-.225 17.067-5.384 32.157 5.223 15.18 10.668 17.002 20.337 17.16 21.406zm-19.967 93.415s-4.913-7.033-4.03-14.768c.44-3.82 2.21-7.74 5.37-9.132 5.873-2.58 8.476 4.076 8.476 4.076s-8.266 2.04-9.816 19.824z"/><path fill="#463014" d="M164.52 171.554c.206.383.311.598.311.598s-15.323 11.5-31.027-.17c-8.406-6.252-7.612-21.718-5.037-28.277 6.697 1.518 12.378 4.253 17.125 7.448-6-5.355-11.252-9.297-11.238-9.388l-6.82-1.93-13.254-4.545c-.17 1.01-5.005 23.672 8.95 39.113 6.185 6.847 35.183 22.18 48.95-4.038z"/><path fill="#463014" d="M163.086 173.239c8.627 13.13 30.395 5.627 30.02-8.255 0 0-14.545 8.027-27.395-6.752-7.503-8.629-31.543-32.42-64.144-24.513 22.514 4.95 52.32 25.52 61.519 39.52z"/><path fill="#463014" d="M98.521 210.298c2.075 1.2 9.395 8.78 9.4 20.117 0 5.685-.566 34.245-3.38 51.693 4.232 2.75 7.18 3.335 11.395 6.138 2.11-20.208 3.623-49.495 2.917-61.318-.806-13.478-8.022-22.523-14.714-26.38-2.096-1.205-4.285-2.39-6.49-3.583-11.463-6.193-23.315-12.6-23.315-23.54 0-8.557 3.326-11.234 6.849-14.072l.38-.307c2.337-1.888 4.982-4.03 6.549-7.546 4.276-9.615 4.975-34.105 0-40.322-2.48-3.098-9.125-13.515-7.215-20.515.728-2.673 2.41-4.653 5.15-6.056 2.899-1.485 6.815-2.237 11.636-2.237 9.469 0 19.971 2.882 25.39 4.598 19.362 6.137 42.725 23.83 49.422 29.107.192.148.305.234.325.248l4.286 2.98-2.68-4.485c-.166-.28-17.14-28.19-47.49-38.423-5.904-1.99-17.505-5.331-28.904-5.331-6.788 0-12.548 1.185-17.108 3.52-5.557 2.843-9.322 7.38-10.885 13.114-3.833 14.058 8.65 29.71 9.075 30.21 1.455 2.598 2.072 21.469-1.29 29.022-.462 1.043-1.73 2.067-3.335 3.362-.502.407-1.065.83-1.66 1.28-4.743 3.58-11.915 8.99-11.915 21.458 0 17.06 17.29 26.31 31.185 33.748 2.28 1.226 4.455 2.387 6.422 3.52z"/><path fill="#463014" d="M101.019 79.147c-7.433-6.166-1.893-11.889-2.48-18.895-.32-3.727-.615-7.245-1.843-9.185-6.84-10.8-22.976-14.078-23.137-14.112l-7.573-1.483 5.013-5.865c.65-.76 21.237-20.402 53.095-10.116 22.285 7.187 38.783 31.56 39.397 32.544l-11.174 5.255c-.131-.208-13.173-23.117-32.293-29.282-15.455-4.987-29.699-.243-35.8 2.867 6.486 2.59 14.966 7.305 20.075 15.373 2.41 3.81 2.817 8.607 3.21 13.252.518 6.15 1.003 11.955 5.528 15.714z"/><path fill="#463014" d="M100.777 80.41l-.48-.397c-5.512-4.574-4.534-9.08-3.587-13.44.43-2.012.884-4.092.7-6.225-.3-3.588-.59-6.972-1.67-8.68-6.513-10.284-22.252-13.578-22.408-13.61l-9.458-1.855 6.27-7.33c.114-.137 13.332-13.48 35.719-13.48 6.103 0 12.355 1.015 18.575 3.024 23.26 7.5 39.853 32.77 40.01 33.02l.67 1.073-13.217 6.217-.531-.842c-1.422-2.424-13.955-23.093-31.685-28.812-4.355-1.406-8.942-2.116-13.632-2.116-8.494 0-15.382 2.315-19.047 3.87 6.125 2.758 13.553 7.4 18.253 14.813 2.556 4.038 2.97 8.973 3.375 13.74.498 5.93.968 11.505 5.128 14.958l1.57 1.302z"/><path fill="#463014" d="M130.546 67.42c-.005-.025-3.005-13.135-11.322-19.753-11.733-9.332-26.058-4.368-26.196-4.324l-2.08-6.426c.693-.225 17.067-5.384 32.157 5.223 15.18 10.668 17.002 20.337 17.16 21.406z"/><path fill="#463014" d="M129.74 68.953l-.293-1.29c-.031-.127-2.973-12.788-10.927-19.112-4.533-3.61-10-5.443-16.24-5.443-4.87 0-8.489 1.163-8.884 1.3l-1.075.357-2.79-8.572 1.069-.345c.48-.152 4.825-1.507 10.973-1.507 8.11 0 15.777 2.38 22.183 6.877 15.56 10.935 17.46 21.047 17.622 22.163l.137.882zM102.281 40.86c6.665 0 12.77 2.05 17.642 5.924 7.063 5.625 10.385 15.556 11.39 19.116l7.655-3.05c-.693-2.704-3.745-10.816-16.51-19.789-6.107-4.292-13.131-6.467-20.885-6.467-4.255 0-7.56.677-9.193 1.09l1.38 4.268c1.602-.43 4.683-1.092 8.52-1.092z"/><path fill="#463014" d="M171.606 348.445c-3.326 0-6.72-1.206-9.072-3.243-1.8-1.552-7.89-7.145-10.576-13.998-1.002-2.562-.777-4.612.677-6.087 1.003-1.01 3.083-2.22 7.306-2.22l3.004-.004c3.58-.003 9.609-.003 14.76-.003h4.94c3.213 0 5.516.694 6.84 2.048 1.7 1.748 1.156 3.97.68 5.14-.827 2.05-4.253 8.72-10.052 14.92-2.077 2.222-5.1 3.447-8.507 3.447zm3.486-174.434l-12.007-.772s3.07 5.41 5.057 12.408c2.246 7.915-2.053 19.482-2.053 19.482s16.01-18.125 9.003-31.118z"/><path fill="#463014" d="M160.103 380.149c-42.734-3.284-57.77-43.665-57.77-52.075l11.16.004-5.58-.004h5.58c.056 3.635 11.414 38.177 47.465 40.95z"/><path fill="#fff" d="M148.094 307.801c-.667-3.86-.737-7.52.078-11.117-3.248-2.44-9.076-3.347-13.448-4.765-3.576-2.263-21.873 2.32-35.148-13.745-16.632-20.117-13.132-32.127-13.132-32.127-4.264 4.738-8.397 2.932-14.897 25.024-6.51 22.097 3.055 37.501 20.882 52.966 8.422 7.305 20.328 10.315 30.568 11.467-3.43-3.445 5.86-3.789 12.263-6.185-.51-5.17.345-10.189 4.2-14.23 2.324-2.436 5.314-3.893 8.417-5.053.173-.401.32-.771.485-1.156a9.878 9.878 0 0 1-.268-1.079z"/><path fill="#c9c9c9" d="M135.174 329.184c-.37-1.085-.65-2.19-.924-3.304-.296-1.216-1.77-4.66.047-.727-.467-1.008-.773-2.045-.998-3.091-28.87-.037-53.987-19.859-49.134-61.532-3.78-5.018-9.072 10.118-9.072 10.118S60.64 312.615 97.968 328.88c12.437 5.425 23.43 9.313 26.022 7.743 5.402 1.098 10.279-2.669 12.108-5.145a27.56 27.56 0 0 1-.924-2.294z"/><path fill="#463014" d="M147.574 301.759c.045-3.518.763-6.925 2.463-10.32.12-.233.257-.457.385-.685-11.11-.095-23.905-1.16-34.8-5.52-11.975-4.79-26.955-21.178-29.529-40.433 0 0-22.553 17.404-15.926 54.653 6.22 34.98 35.49 46.382 68.873 48.312.017-.227-3.755-8.02-2.563-12.79-18.955 1.378-40.152-5.945-50.384-22.782-9.368-15.41-6.74-41.72-2.89-45.576 9.391 29.634 43.183 35.657 64.37 35.14z"/><path fill="#463014" d="M151.072 280.544c-6.007 17.629-18.278 31.895-18.278 31.895s16.879-.768 17.81-3.755c.69-2.201 15.241-36.264 20.826-76.166-5.254 8.631-19.844 46.517-20.358 48.026z"/><path fill="#e78724" d="M246.698 239.902s19.133 29.262 33.175 50.029c2.172 3.212-14.042 3.435-14.042 3.435zm-9.115-60.67s5.77 14.393 8.926 22.022c3.43 8.295 16.508 12.421 16.508 12.421s-6.778-7.11-6.778-25.125c0-7.558-9.756-10.562-9.756-10.562z"/><path fill="#e78724" d="M243.41 187.37s11.82 14.07 33.77 6.19c21.953-7.88 24.201-36.02 24.201-43.9 0-7.88-41.647 7.88-47.277 11.257-5.63 3.377-16.32 16.883-10.694 26.453zm82.902-150.343s-20.26-3.942-33.77 6.752c-13.506 10.693-17.447 19.137-17.447 19.137l22.766 18.045s11.005-5.1 14.382-19.735c3.375-14.632 1.125-21.384 14.069-24.199z"/><path fill="#e78724" d="M249.321 146.73c8.723-12.382 23.093-17.783 34.576-18.678 19.572-1.531 28.858 5.388 28.858 5.388s-32.052 1.357-41.291 13.49c-17.2 22.583-42.28 24.417-46.292 19.458 4.638.23 9.744-2.068 15.202-7.233 3.412-3.23 6.18-8.495 8.947-12.425zm54.108 43.781s35.557-12.225 28.804-24.605c-6.753-12.383-1.382-19.13-1.382-19.13s19.862 14.824 14.797 30.58c-3.11 9.673-8.327 16.675-36.974 30.101-13.74 25.522-2.837 71.462-3.487 71.678-1.09.362-19.291-8.998-18.049-51.978.378-13.198 1.433-31.215 16.29-36.646zM256.828 59.05c14.907 7.575 35.339 18.124 35.339 18.124l-8.04 4.023c.769 1.243 1.14 1.984 1.14 1.984l-8.252 3.753s-20.147 14.593-32.49 23.975c4.111-12.672 16.191-32.58 16.191-32.58s3.43-9.148-3.888-19.28zm-49.535 308.796c45.826 0 61.35-23.268 61.35-23.268l-7.158 17.442c-2.707 7.546-31.592 31.027-54.122 31.027"/><path fill="#e78724" d="M263.626 328.857s-4.222 25.77-21.102 25.77c-14.345 0-18.574-21.768-18.574-26.267zm28.097-38.867c-1.5-4.13-6.752-20.826-8.444-36.02-2.023-18.198-1.28-44.815-1.28-44.815s4.503 17.447 8.438 20.267c3.943 2.812 11.257 21.945 11.257 21.945s3.92 28.486 5.785 38.06c-5.161 1.035-9.503-2.008-15.756.563zM332.5 177.077s-9.57-3.38-12.382-24.2c-2.812-20.825 3.379-38.835 3.379-38.835s-.566 28.703 2.812 34.333c3.38 5.628 6.191 7.314 10.132 14.633 3.937 7.318-1.69 11.817-3.94 14.07z"/><path fill="#fdc168" d="M321.075 41.953l1.956-1.237c5.76.194-1.956 1.237-1.956 1.237z"/><path fill="#fba919" d="M249.038 52.884s9.007-1.5 13.507-8.252c4.504-6.755 17.263-20.264 37.598-20.415 20.333-.152 40.45 5.404 40.45 5.404L323.03 40.717c-1.857-.06-5.105-.035-10.48.144-22.034.732-25.427 22.53-25.427 22.53L209.46 52.697"/><path fill="#fff" d="M241.536 173.28s10.507 10.507 26.64 7.128c16.136-3.375 25.892-10.505 26.643-22.888.749-12.382-3.376-17.26-3.376-17.26s-18.013 5.632-26.643 13.137c-8.63 7.505-15.007 19.51-23.264 19.883z"/><path fill="#c9c9c9" d="M254.248 169.527s9.116 4.162 19.297.772c13.336-4.447 14.224-18.312 14.224-18.312s8.175 24.002-14.757 28.622c-18.389 3.705-29.268-6.953-29.268-6.953z"/><path fill="#463014" d="M313.815 79.147c7.433-6.166 1.898-11.889 2.485-18.895.314-3.727.608-7.245 1.838-9.185 6.841-10.8 22.976-14.078 23.142-14.112l7.574-1.483-5.014-5.865c-.65-.76-21.237-20.402-53.1-10.116-22.282 7.187-38.78 31.56-39.393 32.544l11.17 5.255c.136-.208 13.18-23.117 32.298-29.282 15.454-4.987 29.698-.243 35.796 2.867-6.482 2.59-14.966 7.305-20.075 15.373-2.41 3.81-2.814 8.607-3.205 13.252-.518 6.15-1.007 11.955-5.535 15.714zm19.848 90.015s-9.36-11.612-12.133-34.207c-1.09-8.9.842-26.454 3.937-33.208-.562 16.603 3.662 33.208 3.662 33.208s2.847 30.83 4.534 34.207z"/><path fill="#463014" d="M284.29 67.42c.004-.025 3.004-13.135 11.323-19.753 11.73-9.332 26.057-4.368 26.19-4.324l2.087-6.426c-.696-.225-17.068-5.384-32.162 5.223-15.18 10.668-16.998 20.337-17.16 21.406zm19.966 93.415s4.913-7.033 4.025-14.768c-.435-3.82-2.205-7.74-5.365-9.132-5.873-2.58-8.477 4.076-8.477 4.076s8.267 2.04 9.817 19.824z"/><path fill="#463014" d="M250.315 171.554c-.205.383-.31.598-.31.598s15.317 11.5 31.021-.17c8.412-6.252 7.617-21.718 5.037-28.277-6.693 1.518-12.373 4.253-17.123 7.448 6.002-5.355 11.254-9.297 11.235-9.388l6.824-1.93 13.254-4.543c.17 1.01 5.003 23.672-8.957 39.113-6.183 6.847-35.181 22.18-48.945-4.037z"/><path fill="#463014" d="M251.746 173.239c-8.627 13.13-30.39 5.627-30.013-8.255 0 0 14.54 8.027 27.39-6.752 7.503-8.629 31.547-32.42 64.147-24.513-22.512 4.95-52.32 25.52-61.524 39.52z"/><path fill="#463014" d="M316.318 210.298c-2.077 1.2-9.4 8.78-9.4 20.117-.005 5.685.562 34.245 3.38 51.693-4.234 2.75-7.182 3.335-11.397 6.138-2.11-20.208-3.627-49.495-2.917-61.318.805-13.478 8.019-22.523 14.71-26.38 2.095-1.205 4.286-2.39 6.496-3.583 11.463-6.193 23.315-12.6 23.315-23.54 0-8.557-3.33-11.234-6.852-14.072l-.375-.307c-2.338-1.888-4.988-4.03-6.55-7.546-4.277-9.615-4.979-34.105-.005-40.322 2.48-3.098 9.13-13.515 7.22-20.515-.733-2.673-2.417-4.653-5.155-6.056-2.9-1.485-6.81-2.237-11.635-2.237-9.464 0-19.972 2.882-25.386 4.598-19.362 6.137-42.725 23.83-49.427 29.107-.19.148-.302.234-.323.248l-4.288 2.98 2.68-4.485c.17-.28 17.141-28.19 47.49-38.423 5.906-1.99 17.505-5.331 28.906-5.331 6.787 0 12.54 1.185 17.106 3.52 5.559 2.843 9.32 7.38 10.887 13.114 3.832 14.058-8.651 29.71-9.077 30.21-1.455 2.598-2.07 21.469 1.286 29.022.463 1.043 1.73 2.067 3.339 3.362.502.407 1.06.83 1.66 1.28 4.744 3.58 11.913 8.99 11.913 21.458 0 17.06-17.29 26.31-31.18 33.748-2.282 1.226-4.46 2.387-6.421 3.52z"/><path fill="#463014" d="M295.692 77.14c-2.75-4.658-9.783-13.652-25.993-21.555-18.09-8.817-39.026-13.293-62.237-13.303v-.005h-.09v.002c-23.214.012-44.154 4.487-62.24 13.303-16.209 7.905-23.24 16.898-25.992 21.556l-1.18 1.562 13.88 3.09.44-.556.233-.509c.214-.917 2.075-5.87 17.552-13.417 16.544-8.07 35.841-12.16 57.35-12.168 21.51.007 40.799 4.098 57.343 12.168 15.477 7.547 17.344 12.5 17.556 13.417l.231.51.435.555 13.886-3.09z"/><path fill="#463014" d="M313.815 79.147c7.433-6.166 1.898-11.889 2.485-18.895.314-3.727.608-7.245 1.838-9.185 6.841-10.8 22.976-14.078 23.142-14.112l7.574-1.483-5.014-5.865c-.65-.76-21.237-20.402-53.1-10.116-22.282 7.187-38.78 31.56-39.393 32.544l11.17 5.255c.136-.208 13.18-23.117 32.298-29.282 15.454-4.987 29.698-.243 35.796 2.867-6.482 2.59-14.966 7.305-20.075 15.373-2.41 3.81-2.814 8.607-3.205 13.252-.518 6.15-1.007 11.955-5.535 15.714z"/><path fill="#463014" d="M299.51 75.645l1.564-1.302c4.162-3.453 4.63-9.03 5.132-14.958.403-4.77.82-9.705 3.375-13.74 4.695-7.41 12.13-12.054 18.253-14.815-3.666-1.553-10.555-3.868-19.05-3.868-4.693 0-9.272.71-13.628 2.116-17.734 5.72-30.266 26.388-31.685 28.812l-.532.841-13.218-6.216.672-1.073c.156-.25 16.744-25.52 40.005-33.02 6.22-2.01 12.472-3.023 18.58-3.023 22.386 0 35.605 13.345 35.718 13.48l6.27 7.33-9.46 1.855c-.157.031-15.895 3.324-22.412 13.61-1.08 1.71-1.364 5.09-1.67 8.68-.178 2.134.27 4.214.706 6.225.946 4.36 1.922 8.869-3.592 13.44l-.479.397z"/><path fill="#463014" d="M284.29 67.42c.004-.025 3.004-13.135 11.323-19.753 11.73-9.332 26.057-4.368 26.19-4.324l2.087-6.426c-.696-.225-17.068-5.384-32.162 5.223-15.18 10.668-16.998 20.337-17.16 21.406z"/><path fill="#463014" d="M273.327 64.263l.131-.882c.165-1.116 2.066-11.225 17.624-22.163 6.4-4.498 14.07-6.877 22.18-6.877 6.151 0 10.497 1.352 10.978 1.507l1.068.345-2.789 8.572-1.076-.357c-.402-.136-4.02-1.3-8.888-1.3-6.239 0-11.702 1.83-16.235 5.443-7.955 6.326-10.9 18.987-10.927 19.112l-.292 1.287zm47.748-22.31l1.385-4.268c-1.634-.415-4.943-1.09-9.198-1.09-7.752 0-14.78 2.177-20.883 6.467-12.769 8.976-15.82 17.085-16.513 19.788l7.662 3.05c1.002-3.562 4.32-13.492 11.386-19.115 4.877-3.875 10.974-5.924 17.64-5.924 3.832 0 6.92.661 8.52 1.092z"/><path fill="#463014" d="M234.727 344.998c-5.798-6.2-9.229-12.87-10.058-14.92-.474-1.167-1.014-3.392.687-5.14 1.325-1.354 3.622-2.048 6.834-2.048h4.944c5.152 0 11.177 0 14.76.003l3.004.005c4.22 0 6.3 1.207 7.3 2.22 1.456 1.472 1.683 3.522.681 6.086-2.685 6.854-8.776 12.447-10.577 13.998-2.358 2.037-5.744 3.243-9.07 3.243-3.408 0-6.428-1.225-8.505-3.447zm5.019-170.987l12-.772s-3.065 5.41-5.053 12.408c-2.245 7.915 2.053 19.482 2.053 19.482s-16.01-18.125-9-31.118z"/><path fill="#e78724" d="M207.42 131.145c-7.653 0-17.63-.21-25.116-5.59 0 0 9.802 17.183 25.102 17.183l.013-2.175.013 2.175c15.302 0 25.103-17.183 25.103-17.183-7.486 5.38-17.47 5.59-25.116 5.59z"/><path fill="#463014" d="M228.489 131.062c-7.676 4.645-14.53 6.255-21.07 6.398-6.54-.143-13.392-1.753-21.07-6.398 0 0 11.179 13.64 21.014 13.745v.009c.017 0 .035-.005.055-.005.018 0 .036.005.056.005v-.009c9.832-.105 21.015-13.745 21.015-13.745z"/><path fill="#463014" d="M254.733 380.149l-.856-11.126c36.043-2.773 47.4-37.315 47.46-40.95h11.16c.005 8.409-15.035 48.792-57.764 52.076z"/><path fill="#fff" d="M266.74 307.801c.67-3.86.736-7.52-.078-11.117 3.252-2.44 9.076-3.347 13.448-4.765 3.576-2.263 21.877 2.32 35.152-13.745 16.632-20.117 13.128-32.127 13.128-32.127 4.267 4.738 8.397 2.932 14.902 25.024 6.51 22.097-3.06 37.501-20.887 52.966-8.421 7.305-20.328 10.315-30.568 11.467 3.43-3.445-5.86-3.789-12.26-6.185.512-5.17-.348-10.189-4.201-14.23-2.32-2.436-5.315-3.893-8.416-5.053-.174-.401-.324-.771-.484-1.156.102-.351.2-.706.264-1.079z"/><path fill="#c9c9c9" d="M279.656 329.184c.375-1.085.65-2.19.925-3.304.3-1.216 1.774-4.66-.045-.727.467-1.008.772-2.045.998-3.091 28.87-.037 53.986-19.859 49.13-61.532 3.779-5.018 9.075 10.118 9.075 10.118s14.454 41.967-22.874 58.232c-12.438 5.425-23.428 9.313-26.023 7.743-5.406 1.098-10.283-2.669-12.107-5.145.341-.76.66-1.522.921-2.294z"/><path fill="#463014" d="M267.256 301.759c-.04-3.518-.763-6.925-2.458-10.32-.12-.233-.259-.457-.385-.685 11.109-.095 23.905-1.16 34.8-5.52 11.974-4.79 26.954-21.178 29.53-40.433 0 0 22.552 17.404 15.925 54.653-6.225 34.98-35.492 46.382-68.873 48.312-.017-.227 3.756-8.02 2.563-12.79 18.95 1.378 40.147-5.945 50.385-22.782 9.362-15.41 6.736-41.72 2.886-45.576-9.388 29.634-43.184 35.657-64.373 35.14z"/><g><path fill="#463014" d="M280.736 310.532c-3.988-4.311-11.32-9.45-28.227-9.45l-45.033-.027h-.111c-12.977.01-45.04.027-45.04.027-16.902 0-24.235 5.14-28.225 9.45-5.813 6.275-6.724 15.004-2.703 25.914 10.685 29.04 25.7 58.544 75.966 58.585v.005c.019 0 .035-.005.055-.005.018 0 .036.005.056.005v-.005c50.26-.044 65.275-29.545 75.964-58.585 4.021-10.91 3.107-19.639-2.702-25.914zm-7.825 23.878c-5.09 14.582-18.772 49.88-65.494 49.94-46.728-.06-60.404-35.357-65.495-49.94-2.817-8.091-2.603-14.078.659-17.798 2.228-2.542 7.346-5.576 19.01-5.576l12.185-.005c8.989-.008 20.275-.018 33.642-.022 13.362.004 24.655.014 33.642.022l12.18.005c11.667 0 16.784 3.033 19.013 5.576 3.258 3.723 3.475 9.707.658 17.798z"/></g><path fill="#463014" d="M263.761 280.544c6.007 17.629 18.276 31.895 18.276 31.895s-16.877-.768-17.81-3.755c-.685-2.201-15.237-36.264-20.822-76.166 5.25 8.631 19.84 46.517 20.356 48.026z"/><g fill="#463014"><path d="M73.155 421.86c-2.247-1.356-4.766-2.546-7.487-3.533-2.701-.98-5.687-1.76-8.88-2.322-3.196-.565-6.647-.848-10.259-.848-6.997 0-13.437 1.047-19.138 3.112-5.719 2.078-10.67 5.03-14.714 8.778-4.06 3.755-7.223 8.283-9.402 13.464C1.1 445.672 0 451.402 0 457.554c0 6.046 1.154 11.734 3.43 16.901 2.275 5.165 5.463 9.69 9.469 13.455 4 3.761 8.792 6.752 14.257 8.882C32.607 498.917 38.613 500 45.01 500c3.512 0 6.843-.165 9.9-.5 3.07-.333 6.015-.866 8.755-1.58a47.114 47.114 0 0 0 7.79-2.755 46.57 46.57 0 0 0 7.036-4.003c.409-.279.65-.741.65-1.235v-33.805a1.5 1.5 0 0 0-1.498-1.5H47.349a1.5 1.5 0 0 0-1.5 1.5v13.527c0 .83.67 1.5 1.5 1.5h10.9v9.602a36.256 36.256 0 0 1-4.777 1.33c-1.991.418-4.326.63-6.943.63-3.38 0-6.534-.568-9.365-1.685-2.81-1.106-5.27-2.737-7.306-4.842-2.05-2.113-3.684-4.749-4.85-7.84-1.179-3.114-1.777-6.744-1.777-10.792 0-3.656.543-7.006 1.607-9.96 1.058-2.93 2.58-5.472 4.512-7.542 1.926-2.066 4.3-3.693 7.05-4.832 2.766-1.15 5.938-1.725 9.431-1.725 1.927 0 3.68.086 5.207.262 1.517.172 2.975.46 4.33.834 1.362.384 2.712.882 4.013 1.483 1.366.633 7.727 4.256 9.203 5.085 1.009.565 1.63.6 2.304-.354l8.572-12.515c.435-.614.34-1.47-.228-1.974-1.785-1.596-3.83-3.09-6.077-4.454zm75.218 47.079a15.468 15.468 0 0 0-3.334-3.71 20.058 20.058 0 0 0-1.24-.914 28.654 28.654 0 0 0 4.813-2.798c2.238-1.623 4.158-3.494 5.702-5.57a23.412 23.412 0 0 0 3.531-6.84c.787-2.45 1.183-5.075 1.183-7.823 0-3.596-.672-6.976-1.995-10.05-1.346-3.117-3.518-5.852-6.453-8.124-2.895-2.235-6.652-3.994-11.165-5.235-4.458-1.218-9.893-1.834-16.157-1.834H95.536c-.827 0-1.497.67-1.497 1.498v80.085a1.5 1.5 0 0 0 1.497 1.497h19.768c.828 0 1.498-.673 1.498-1.497V469.49h3.531c1.576 0 2.418.27 2.842.493.591.31 1.13.865 1.61 1.646l14.156 23.26c1.725 2.81 4.557 4.231 8.41 4.231h17.897c.02.003.04 0 .05 0a1.499 1.499 0 0 0 1.03-2.59zM136 447.069c-.468 1.307-1.206 2.418-2.243 3.4-1.054.983-2.433 1.77-4.108 2.335-1.725.586-3.875.884-6.39.884h-6.457V432.94h6.457c4.728 0 8.217.89 10.37 2.636 2.088 1.695 3.1 4.01 3.1 7.081.004 1.581-.243 3.062-.73 4.412zm111.71-31.028h-19.766c-.83 0-1.498.671-1.498 1.5v47.432c0 2.643-.36 5.021-1.062 7.074-.69 2.003-1.692 3.716-2.979 5.096-1.284 1.365-2.882 2.435-4.752 3.173-3.802 1.5-9.31 1.5-13.112 0-1.866-.738-3.46-1.812-4.743-3.198-1.29-1.396-2.295-3.12-2.985-5.13-.7-2.042-1.06-4.424-1.06-7.072v-47.38c0-.825-.67-1.497-1.498-1.497h-19.767c-.828 0-1.498.671-1.498 1.498v47.432c0 5.088.885 9.83 2.625 14.09 1.75 4.288 4.31 8.035 7.612 11.136 3.29 3.092 7.342 5.53 12.034 7.241 4.663 1.698 9.989 2.56 15.838 2.56 5.806 0 11.113-.863 15.781-2.56 4.693-1.712 8.736-4.15 12.031-7.241 3.302-3.103 5.871-6.845 7.64-11.128 1.763-4.27 2.656-9.014 2.656-14.096v-47.433c0-.826-.667-1.497-1.496-1.497zm93.103 0h-17.43c-.827 0-1.497.671-1.497 1.5v42.377c0 1.267.035 2.614.11 4.042l-37.492-44.553c-.605-.685-1.14-1.23-1.61-1.633a6.837 6.837 0 0 0-1.725-1.085 7.237 7.237 0 0 0-1.99-.523c-.632-.08-1.42-.12-2.35-.12h-10.412c-.823 0-1.495.67-1.495 1.498v80.085a1.5 1.5 0 0 0 1.495 1.497h17.43c.827 0 1.503-.673 1.503-1.497v-42.925c0-1.066-.033-2.186-.098-3.383l37.21 44.187c1.127 1.353 2.343 2.313 3.617 2.847 1.233.512 2.728.771 4.438.771h10.294a1.5 1.5 0 0 0 1.495-1.497v-80.085a1.495 1.495 0 0 0-1.493-1.503zm81.756 0h-67.725a1.5 1.5 0 0 0-1.5 1.5v14.728c0 .827.673 1.5 1.5 1.5h22.48v63.855c0 .823.673 1.497 1.5 1.497h19.764c.827 0 1.5-.673 1.5-1.497v-63.855h22.477c.826 0 1.499-.673 1.499-1.5V417.54a1.495 1.495 0 0 0-1.495-1.499z"/></g></svg>