<svg xmlns="http://www.w3.org/2000/svg" role="img" viewBox="-2.85 -4.85 506.20 564.20"><title>Interledger logo</title><defs><clipPath id="a"><path fill="none" d="M-.574-15.903H500v495.492H-.574z"/></clipPath></defs><g clip-path="url(#a)"><path fill="#fff" d="M388.45 263.35c9.657-29.729 5.845-63.27 0-91.983-12.196-26.172-27.442-53.869-52.343-71.91-25.41-18.549-57.68-24.901-86.648-28.204-28.713 3.557-59.713 8.385-84.869 26.426-25.41 18.549-41.418 48.278-53.615 74.705-5.59 28.459-9.655 61.491 0 90.967 9.656 29.73 32.017 52.344 53.615 71.91 25.156 13.975 53.87 27.696 84.87 27.696 31.253 0 61.237-13.72 86.647-28.205 21.09-19.565 42.942-41.926 52.344-71.401z"/><path fill="#bbe2da" d="M249.967 357.367a171.962 171.962 0 0 1-85.123-22.106c1.017 19.82 39.386 43.196 85.886 43.196s82.836-28.713 85.63-43.705a175.178 175.178 0 0 1-86.393 22.615z"/><path fill="#ecd9d9" d="M164.59 335.515a177.22 177.22 0 0 1-48.278-74.96 173.42 173.42 0 0 1-5.337-87.917c-17.024 4.065-25.918 61.492-14.483 95.033s51.328 74.959 68.098 67.844z"/><path fill="#fcddd1" d="M167.64 103.523a174.497 174.497 0 0 1 81.82-32.27c-13.976-12.197-70.386-3.304-95.034 15.5s-53.36 68.098-43.45 85.63a175.305 175.305 0 0 1 56.663-68.86z"/><path fill="#f9e1c1" d="M249.46 71.252a174.138 174.138 0 0 1 83.09 32.525c24.9 18.295 43.958 41.672 55.9 67.844 10.419-17.787-12.958-65.049-43.958-85.377s-87.156-25.918-95.033-14.992z"/><path fill="#e7edd7" d="M388.45 171.621a175.444 175.444 0 0 1-52.343 163.131c24.139 2.287 57.426-29.729 67.59-68.352s-.254-92.746-15.246-94.779z"/><path fill="#9ec7d0" d="M96.492 267.67c-10.164 12.96 2.795 67.337 46.246 98.337s98.336 24.139 107.737 12.959a176.027 176.027 0 0 1-85.885-43.197 180.655 180.655 0 0 1-68.098-68.099z"/><path fill="#90d1c2" d="M403.697 266.654a178.232 178.232 0 0 1-67.59 68.353 177.108 177.108 0 0 1-85.632 43.704c11.435 13.976 73.943 6.861 107.738-13.467 33.795-20.582 52.09-81.057 45.484-98.59z"/><path fill="#f2b3bc" d="M110.975 172.384a178.628 178.628 0 0 1 43.451-85.886c-22.869-8.385-65.811 29.73-79.278 74.197s-2.541 95.795 21.09 106.467a179.263 179.263 0 0 1 14.737-94.778z"/><path fill="#fbc9b4" d="M249.46 71.252a177.11 177.11 0 0 1 95.032 14.992c9.656-18.295-52.09-52.344-95.033-52.344s-94.016 29.73-94.779 53.107a171.982 171.982 0 0 1 94.78-15.755z"/><path fill="#f1dda6" d="M403.697 266.654c20.582-4.065 35.828-54.885 20.328-106.721s-63.017-79.025-79.787-73.689a175.662 175.662 0 0 1 43.959 85.377 172.342 172.342 0 0 1 15.5 95.033z"/><path fill="#978ba4" d="M142.738 365.752a184.663 184.663 0 0 1-13.976-17.024 175.382 175.382 0 0 1-32.27-81.312 175.046 175.046 0 0 1-22.36-85.885 187.23 187.23 0 0 1 1.27-20.836c-16.517 4.574-36.336 70.64-18.295 119.426s70.13 88.427 85.63 85.631z"/><path fill="#56c3c1" d="M358.213 365.244a199.34 199.34 0 0 1-20.328 8.131 177.34 177.34 0 0 1-87.41 5.59 175.383 175.383 0 0 1-88.426-5.336c-6.606-2.286-13.213-4.827-19.311-7.623 7.623 23.886 47.008 54.377 107.992 54.377s96.303-30.237 107.483-55.139z"/><path fill="#81c88e" d="M424.279 159.933a155.337 155.337 0 0 1 1.27 21.852 174.25 174.25 0 0 1-21.852 84.87 173.536 173.536 0 0 1-32.27 82.581 200.878 200.878 0 0 1-13.214 16.008c28.205 1.779 69.877-29.221 85.123-85.885s-3.811-112.566-19.057-119.426z"/><path fill="#f49398" d="M75.402 160.95A205.455 205.455 0 0 1 87.09 142.4a175.148 175.148 0 0 1 67.336-55.902 175.386 175.386 0 0 1 74.705-47.77 195.331 195.331 0 0 1 20.074-5.336c-23.885-11.943-82.074-4.828-119.426 19.565S68.54 138.08 75.402 160.95z"/><path fill="#f9bd89" d="M249.46 33.646a165.214 165.214 0 0 1 21.343 5.59 172.883 172.883 0 0 1 73.943 47.008 177.234 177.234 0 0 1 68.607 56.156 157.518 157.518 0 0 1 11.18 17.533c10.672-20.582-21.853-82.074-55.394-107.484s-94.778-29.983-119.68-18.803z"/><path fill="#835677" d="M75.402 160.95a176.44 176.44 0 0 1 54.63-107.738A175.846 175.846 0 0 0 57.108 280.63a175.22 175.22 0 0 1 18.295-119.68z"/><path fill="#51797c" d="M142.738 365.752a173.905 173.905 0 0 1-85.631-85.377A175.554 175.554 0 0 0 250.73 420.13a173.609 173.609 0 0 1-107.992-54.377z"/><path fill="#489789" d="M358.213 365.244a176.64 176.64 0 0 1-107.483 55.14 175.369 175.369 0 0 0 192.606-140.77 177.487 177.487 0 0 1-85.123 85.63z"/><path fill="#6e985f" d="M424.279 159.933a174.69 174.69 0 0 1 19.057 119.426 175.812 175.812 0 0 0-74.45-226.91 176.026 176.026 0 0 1 55.393 107.484z"/><path fill="#f37f64" d="M249.46 33.646a174.265 174.265 0 0 1 119.425 18.803c-31.508-28.713-73.18-46.5-118.918-46.5a173.763 173.763 0 0 0-119.68 47.263 174.784 174.784 0 0 1 119.172-19.566z"/></g><path d="M19.988 531.703H8.165V474.75h11.823zm44.201-39.701q4.136 3.42 4.136 11.34v28.361H57.043v-25.617a11.766 11.766 0 0 0-.882-5.1q-1.612-3.245-6.137-3.246-5.562 0-7.633 4.752a16.427 16.427 0 0 0-1.074 6.414v22.797H30.305v-42.038H40.97v6.143a18.669 18.669 0 0 1 4.002-4.675 13.863 13.863 0 0 1 8.58-2.55 16.145 16.145 0 0 1 10.638 3.419zm10.048 5.815v-7.843h5.873v-11.746h10.896v11.746h6.839v7.843h-6.84v22.256q0 2.589.658 3.226.656.638 4.018.638.502 0 1.063-.019.56-.019 1.1-.059v8.23l-5.216.193q-7.804.271-10.664-2.704-1.854-1.892-1.854-5.835v-25.926zm58.123-7.377a17.132 17.132 0 0 1 7.278 6.23 20.69 20.69 0 0 1 3.355 8.708 53.778 53.778 0 0 1 .363 8.358h-30.674q.256 6.337 4.404 8.887a11.181 11.181 0 0 0 6.072 1.584 8.552 8.552 0 0 0 8.38-4.83h11.243q-.444 3.748-4.082 7.612-5.66 6.144-15.845 6.144a22.96 22.96 0 0 1-14.834-5.182q-6.427-5.182-6.427-16.861 0-10.944 5.802-16.783 5.801-5.84 15.06-5.84a23.98 23.98 0 0 1 9.905 1.973zm-16.474 9.513a11.44 11.44 0 0 0-2.933 6.52h18.97a9.188 9.188 0 0 0-2.932-6.656 9.651 9.651 0 0 0-6.532-2.27 8.735 8.735 0 0 0-6.573 2.406zm56.434-11.351q.212.02.947.058v11.282q-1.043-.115-1.855-.154-.811-.038-1.314-.039-6.646 0-8.925 4.328-1.275 2.433-1.275 7.495v20.131h-11.09v-42.116h10.51v7.342a23.282 23.282 0 0 1 4.444-5.757 12.097 12.097 0 0 1 8.036-2.589c.206 0 .38.006.522.019zm18.643 43.101h-11.012V474.75h11.012zm38.186-41.263a17.132 17.132 0 0 1 7.278 6.23 20.69 20.69 0 0 1 3.355 8.708 53.778 53.778 0 0 1 .363 8.358h-30.674q.257 6.337 4.404 8.887a11.181 11.181 0 0 0 6.072 1.584 8.552 8.552 0 0 0 8.38-4.83h11.243q-.444 3.748-4.082 7.612-5.66 6.144-15.845 6.144a22.96 22.96 0 0 1-14.834-5.182q-6.427-5.182-6.427-16.861 0-10.944 5.802-16.783 5.801-5.84 15.06-5.84a23.98 23.98 0 0 1 9.905 1.973zm-16.474 9.513a11.44 11.44 0 0 0-2.933 6.52h18.97a9.188 9.188 0 0 0-2.932-6.656 9.651 9.651 0 0 0-6.531-2.27 8.735 8.735 0 0 0-6.574 2.406zm55.372-9.689a13.387 13.387 0 0 1 4.83 4.655v-20.092h11.166v56.876H273.34v-5.834a15.518 15.518 0 0 1-5.371 5.447 15.07 15.07 0 0 1-7.496 1.7 15.645 15.645 0 0 1-12.421-5.97q-5.043-5.968-5.043-15.318 0-10.782 4.966-16.963a16.15 16.15 0 0 1 13.271-6.182 13.58 13.58 0 0 1 6.8 1.68zm2.705 30.003a15.362 15.362 0 0 0 2.434-9.003q0-7.727-3.903-11.051a8.406 8.406 0 0 0-5.564-2.009 7.735 7.735 0 0 0-7.09 3.65 16.911 16.911 0 0 0-2.26 9.062q0 5.834 2.299 9.331a7.776 7.776 0 0 0 6.975 3.496 8.134 8.134 0 0 0 7.109-3.476zm44.133-30.718a13.222 13.222 0 0 1 6.482 6.104v-6.066h10.741v39.952q0 8.152-2.743 12.287-4.714 7.11-18.082 7.11-8.077 0-13.176-3.168a11.69 11.69 0 0 1-5.641-9.467h11.977a4.962 4.962 0 0 0 1.507 2.782q1.777 1.507 5.99 1.507 5.95 0 7.96-3.98 1.312-2.55 1.313-8.578v-2.704a13.433 13.433 0 0 1-3.4 4.057 13.67 13.67 0 0 1-8.54 2.511 16.157 16.157 0 0 1-12.962-5.699q-4.85-5.7-4.85-15.436 0-9.388 4.67-15.783 4.668-6.394 13.235-6.395a14.486 14.486 0 0 1 5.519.966zm3.75 30.195q2.656-2.916 2.655-9.292 0-5.988-2.52-9.119a8.223 8.223 0 0 0-6.752-3.129 7.957 7.957 0 0 0-7.965 5.447 19.4 19.4 0 0 0-1.155 7.149 16.382 16.382 0 0 0 1.23 6.53 8.026 8.026 0 0 0 8.005 5.332 8.454 8.454 0 0 0 6.502-2.918zm51.196-29.304a17.136 17.136 0 0 1 7.278 6.23 20.71 20.71 0 0 1 3.356 8.708 53.85 53.85 0 0 1 .362 8.358h-30.674q.257 6.337 4.405 8.887a11.18 11.18 0 0 0 6.07 1.584 8.553 8.553 0 0 0 8.382-4.83h11.243q-.445 3.748-4.083 7.612-5.659 6.144-15.845 6.144a22.962 22.962 0 0 1-14.835-5.182q-6.426-5.182-6.426-16.861 0-10.944 5.802-16.783 5.801-5.84 15.06-5.84a23.979 23.979 0 0 1 9.905 1.973zm-16.474 9.513a11.44 11.44 0 0 0-2.933 6.52h18.972a9.19 9.19 0 0 0-2.934-6.656 9.65 9.65 0 0 0-6.531-2.27 8.734 8.734 0 0 0-6.574 2.406zm56.434-11.351q.212.02.947.058v11.282q-1.044-.115-1.855-.154-.81-.038-1.314-.039-6.646 0-8.924 4.328-1.276 2.433-1.276 7.495v20.131H386.28v-42.116h10.51v7.342a23.294 23.294 0 0 1 4.442-5.757 12.097 12.097 0 0 1 8.038-2.589c.206 0 .38.006.521.019zm2.879 31.548h11.708v11.553H412.67zm17.387 19.628q.927.078 1.313.097c.258.013.49.02.696.02a3.432 3.432 0 0 0 2.454-.792 4.26 4.26 0 0 0 .83-3.073v-46.25h11.012v46.444q0 6.375-2.511 9.427-2.513 3.053-9.853 3.053-.502 0-1.487-.039-.986-.038-2.454-.077zm16.305-55.214h-11.011v-10.162h11.011zm19.01 33.693a7.335 7.335 0 0 0 1.515 4.173q2.056 2.203 7.61 2.202a11.639 11.639 0 0 0 5.182-.966 3.235 3.235 0 0 0 .374-5.718q-1.549-.965-11.52-3.323-7.18-1.777-10.116-4.443-2.936-2.628-2.937-7.574a13.121 13.121 0 0 1 4.59-10.026q4.587-4.192 12.912-4.192 7.9 0 12.875 3.148 4.975 3.151 5.712 10.877h-11.011a6.51 6.51 0 0 0-1.202-3.361q-1.822-2.24-6.199-2.241-3.603 0-5.134 1.12a3.221 3.221 0 0 0-1.53 2.628 2.873 2.873 0 0 0 1.627 2.743q1.628.889 11.498 3.052 6.58 1.546 9.864 4.675a10.615 10.615 0 0 1 3.247 7.921 12.787 12.787 0 0 1-4.666 10.22q-4.666 3.96-14.421 3.96-9.951 0-14.694-4.192a13.626 13.626 0 0 1-4.742-10.683z"/></svg>