<svg xmlns="http://www.w3.org/2000/svg" role="img" viewBox="-3.00 -8.00 505.00 572.00"><title>Interledger logo</title><defs><clipPath id="a"><path fill="none" d="M-.574-18.615H500v495.492H-.574z"/></clipPath></defs><g clip-path="url(#a)"><path fill="#fff" d="M388.45 260.64c9.657-29.73 5.845-63.271 0-91.984-12.196-26.172-27.442-53.87-52.343-71.91-25.41-18.55-57.68-24.902-86.648-28.205-28.713 3.557-59.713 8.385-84.869 26.426-25.41 18.55-41.418 48.279-53.615 74.705-5.59 28.46-9.655 61.492 0 90.967 9.656 29.73 32.017 52.345 53.615 71.91 25.156 13.976 53.87 27.697 84.87 27.697 31.253 0 61.237-13.721 86.647-28.205 21.09-19.566 42.942-41.926 52.344-71.402z"/><path fill="#bbe2da" d="M249.967 354.656a171.962 171.962 0 0 1-85.123-22.107c1.017 19.82 39.386 43.197 85.886 43.197s82.836-28.713 85.63-43.705a175.178 175.178 0 0 1-86.393 22.615z"/><path fill="#ecd9d9" d="M164.59 332.803a177.22 177.22 0 0 1-48.278-74.959 173.42 173.42 0 0 1-5.337-87.918c-17.024 4.066-25.918 61.492-14.483 95.033s51.328 74.959 68.098 67.844z"/><path fill="#fcddd1" d="M167.64 100.811a174.497 174.497 0 0 1 81.82-32.27c-13.976-12.197-70.386-3.303-95.034 15.5s-53.36 68.098-43.45 85.631a175.305 175.305 0 0 1 56.663-68.86z"/><path fill="#f9e1c1" d="M249.46 68.541a174.138 174.138 0 0 1 83.09 32.525c24.9 18.295 43.958 41.672 55.9 67.844 10.419-17.787-12.958-65.05-43.958-85.377s-87.156-25.918-95.033-14.992z"/><path fill="#e7edd7" d="M388.45 168.91a175.444 175.444 0 0 1-52.343 163.13c24.139 2.288 57.426-29.729 67.59-68.352s-.254-92.745-15.246-94.778z"/><path fill="#9ec7d0" d="M96.492 264.959c-10.164 12.959 2.795 67.336 46.246 98.336s98.336 24.14 107.737 12.959a176.027 176.027 0 0 1-85.885-43.197 180.655 180.655 0 0 1-68.098-68.098z"/><path fill="#90d1c2" d="M403.697 263.943a178.232 178.232 0 0 1-67.59 68.352A177.108 177.108 0 0 1 250.475 376c11.435 13.975 73.943 6.86 107.738-13.467 33.795-20.582 52.09-81.058 45.484-98.59z"/><path fill="#f2b3bc" d="M110.975 169.672a178.628 178.628 0 0 1 43.451-85.885c-22.869-8.385-65.811 29.73-79.278 74.197s-2.541 95.795 21.09 106.467a179.263 179.263 0 0 1 14.737-94.779z"/><path fill="#fbc9b4" d="M249.46 68.541a177.11 177.11 0 0 1 95.032 14.992c9.656-18.295-52.09-52.344-95.033-52.344s-94.016 29.729-94.779 53.106a171.982 171.982 0 0 1 94.78-15.754z"/><path fill="#f1dda6" d="M403.697 263.943c20.582-4.066 35.828-54.886 20.328-106.722s-63.017-79.024-79.787-73.688a175.662 175.662 0 0 1 43.959 85.377 172.342 172.342 0 0 1 15.5 95.033z"/><path fill="#978ba4" d="M142.738 363.04a184.663 184.663 0 0 1-13.976-17.024 175.382 175.382 0 0 1-32.27-81.311 175.046 175.046 0 0 1-22.36-85.885 187.23 187.23 0 0 1 1.27-20.836c-16.517 4.573-36.336 70.639-18.295 119.426s70.13 88.426 85.63 85.63z"/><path fill="#56c3c1" d="M358.213 362.533a199.34 199.34 0 0 1-20.328 8.13 177.34 177.34 0 0 1-87.41 5.591 175.383 175.383 0 0 1-88.426-5.336c-6.606-2.287-13.213-4.828-19.311-7.623 7.623 23.885 47.008 54.377 107.992 54.377s96.303-30.238 107.483-55.14z"/><path fill="#81c88e" d="M424.279 157.221a155.337 155.337 0 0 1 1.27 21.853 174.25 174.25 0 0 1-21.852 84.869 173.536 173.536 0 0 1-32.27 82.582 200.878 200.878 0 0 1-13.214 16.008c28.205 1.778 69.877-29.222 85.123-85.885s-3.811-112.566-19.057-119.427z"/><path fill="#f49398" d="M75.402 158.238a205.455 205.455 0 0 1 11.688-18.55 175.148 175.148 0 0 1 67.336-55.901 175.386 175.386 0 0 1 74.705-47.77 195.331 195.331 0 0 1 20.074-5.337c-23.885-11.942-82.074-4.828-119.426 19.566S68.54 135.369 75.402 158.238z"/><path fill="#f9bd89" d="M249.46 30.934a165.214 165.214 0 0 1 21.343 5.59 172.883 172.883 0 0 1 73.943 47.009 177.234 177.234 0 0 1 68.607 56.156 157.518 157.518 0 0 1 11.18 17.532c10.672-20.582-21.853-82.073-55.394-107.483s-94.778-29.984-119.68-18.804z"/><path fill="#835677" d="M75.402 158.238A176.44 176.44 0 0 1 130.032 50.5a175.846 175.846 0 0 0-72.925 227.418 175.22 175.22 0 0 1 18.295-119.68z"/><path fill="#51797c" d="M142.738 363.04a173.905 173.905 0 0 1-85.631-85.376A175.554 175.554 0 0 0 250.73 417.418a173.609 173.609 0 0 1-107.992-54.377z"/><path fill="#489789" d="M358.213 362.533a176.64 176.64 0 0 1-107.483 55.14 175.369 175.369 0 0 0 192.606-140.771 177.487 177.487 0 0 1-85.123 85.63z"/><path fill="#6e985f" d="M424.279 157.221a174.69 174.69 0 0 1 19.057 119.426 175.812 175.812 0 0 0-74.45-226.91 176.026 176.026 0 0 1 55.393 107.484z"/><path fill="#f37f64" d="M249.46 30.934a174.265 174.265 0 0 1 119.425 18.804c-31.508-28.713-73.18-46.5-118.918-46.5A173.763 173.763 0 0 0 130.287 50.5a174.784 174.784 0 0 1 119.172-19.566z"/></g><path d="M22.356 532.581H8.165v-68.358h14.19zm53.052-47.651q4.964 4.105 4.965 13.612v34.04H66.83v-30.748a14.122 14.122 0 0 0-1.059-6.122q-1.935-3.894-7.366-3.895-6.675 0-9.16 5.704a19.717 19.717 0 0 0-1.29 7.698v27.362H34.739v-50.456h12.8v7.373a22.407 22.407 0 0 1 4.802-5.611 16.64 16.64 0 0 1 10.298-3.06q7.805 0 12.769 4.103zm12.06 6.98v-9.415h7.05v-14.098h13.077v14.098h8.208v9.415h-8.208v26.713q0 3.106.788 3.871.788.767 4.824.765.602 0 1.275-.022.672-.023 1.321-.07v9.879l-6.26.23q-9.368.326-12.8-3.245-2.226-2.272-2.226-7.004V491.91zm69.762-8.854a20.563 20.563 0 0 1 8.736 7.478 24.834 24.834 0 0 1 4.027 10.45 64.546 64.546 0 0 1 .435 10.033h-36.816q.308 7.606 5.286 10.666a13.42 13.42 0 0 0 7.287 1.901 10.264 10.264 0 0 0 10.06-5.796h13.494q-.534 4.497-4.9 9.136-6.793 7.373-19.018 7.373a27.557 27.557 0 0 1-17.805-6.219q-7.714-6.22-7.714-20.238 0-13.135 6.964-20.144 6.963-7.008 18.076-7.01a28.781 28.781 0 0 1 11.888 2.37zm-19.772 11.417a13.732 13.732 0 0 0-3.521 7.825h22.77q-.36-5.264-3.52-7.988a11.584 11.584 0 0 0-7.84-2.725q-5.089 0-7.89 2.888zm67.735-13.624q.254.024 1.136.07v13.541q-1.252-.138-2.226-.185-.974-.046-1.577-.047-7.977 0-10.713 5.195-1.53 2.92-1.53 8.996v24.162h-13.31v-50.55h12.614v8.812a27.944 27.944 0 0 1 5.334-6.91 14.519 14.519 0 0 1 9.646-3.107c.247 0 .455.007.626.023zm22.377 51.732h-13.218v-68.358h13.217zm45.832-49.525a20.563 20.563 0 0 1 8.735 7.478 24.834 24.834 0 0 1 4.027 10.45 64.546 64.546 0 0 1 .436 10.033h-36.816q.307 7.606 5.286 10.666a13.42 13.42 0 0 0 7.287 1.901 10.264 10.264 0 0 0 10.059-5.796h13.494q-.534 4.497-4.9 9.136-6.792 7.373-19.018 7.373a27.557 27.557 0 0 1-17.805-6.219q-7.714-6.22-7.714-20.238 0-13.135 6.964-20.144 6.963-7.008 18.077-7.01a28.781 28.781 0 0 1 11.888 2.37zm-19.773 11.417a13.732 13.732 0 0 0-3.52 7.825h22.77q-.361-5.264-3.521-7.988a11.584 11.584 0 0 0-7.84-2.725q-5.088 0-7.889 2.888zm66.461-11.63a16.068 16.068 0 0 1 5.797 5.588v-24.115h13.402v68.265h-12.847v-7.002a18.625 18.625 0 0 1-6.447 6.538 18.088 18.088 0 0 1-8.997 2.04 18.778 18.778 0 0 1-14.908-7.164q-6.053-7.165-6.052-18.387 0-12.94 5.96-20.36a19.383 19.383 0 0 1 15.929-7.42 16.3 16.3 0 0 1 8.162 2.017zm3.246 36.012q2.922-4.174 2.92-10.806 0-9.275-4.683-13.264a10.089 10.089 0 0 0-6.679-2.41q-5.798 0-8.51 4.38a20.298 20.298 0 0 0-2.712 10.877q0 7.002 2.76 11.2 2.756 4.196 8.37 4.195a9.762 9.762 0 0 0 8.534-4.172zm52.971-36.869a15.87 15.87 0 0 1 7.78 7.326v-7.28h12.892v47.952q0 9.784-3.292 14.748-5.658 8.532-21.703 8.533-9.695 0-15.814-3.803a14.031 14.031 0 0 1-6.772-11.362h14.376a5.956 5.956 0 0 0 1.809 3.34q2.132 1.808 7.188 1.808 7.142 0 9.554-4.777 1.576-3.06 1.577-10.296v-3.245a16.123 16.123 0 0 1-4.081 4.869q-3.942 3.015-10.25 3.014-9.738 0-15.558-6.84-5.821-6.841-5.82-18.528 0-11.268 5.604-18.944 5.604-7.674 15.886-7.675a17.387 17.387 0 0 1 6.624 1.16zm4.5 36.242q3.188-3.501 3.188-11.153 0-7.188-3.026-10.946a9.87 9.87 0 0 0-8.104-3.755q-6.929 0-9.56 6.538a23.285 23.285 0 0 0-1.385 8.58 19.663 19.663 0 0 0 1.477 7.838 9.633 9.633 0 0 0 9.607 6.4 10.147 10.147 0 0 0 7.804-3.502zm61.449-35.172a20.568 20.568 0 0 1 8.736 7.478 24.857 24.857 0 0 1 4.027 10.45 64.634 64.634 0 0 1 .435 10.033h-36.816q.307 7.606 5.286 10.666a13.419 13.419 0 0 0 7.287 1.901 10.266 10.266 0 0 0 10.06-5.796h13.494q-.535 4.497-4.9 9.136-6.793 7.373-19.018 7.373a27.56 27.56 0 0 1-17.806-6.219q-7.713-6.22-7.713-20.238 0-13.135 6.964-20.144 6.962-7.008 18.076-7.01a28.78 28.78 0 0 1 11.888 2.37zm-19.772 11.417a13.732 13.732 0 0 0-3.522 7.825h22.771q-.362-5.264-3.52-7.988a11.583 11.583 0 0 0-7.84-2.725q-5.09 0-7.89 2.888zm67.734-13.624q.255.024 1.137.07v13.541q-1.253-.138-2.227-.185-.972-.046-1.576-.047-7.977 0-10.712 5.195-1.532 2.92-1.531 8.996v24.162h-13.31v-50.55h12.613v8.812a27.958 27.958 0 0 1 5.334-6.91 14.52 14.52 0 0 1 9.646-3.107c.248 0 .456.007.626.023z"/></svg>