<svg xmlns="http://www.w3.org/2000/svg" role="img" viewBox="-12.55 -12.55 588.60 652.60"><title>Intern logo</title><path fill="#368662" d="M339.437 272.312l-5.585-3.413c-46.739-21.304-88.397 0-88.397 0l-5.84 5.07v9.614l5.84-1.802s41.658-21.306 88.397 0l7.11 3.601z"/><path fill="#368662" d="M206.038 267.514c0 22.326-18.126 40.433-40.498 40.433-22.38 0-40.5-18.107-40.5-40.433 0-22.33 18.12-40.441 40.5-40.441 22.37 0 40.498 18.112 40.498 40.441"/><path fill="#368662" d="M373.666 203.349c11.64-6.708 25.13-10.556 39.536-10.556 20.509 0 39.202 7.777 53.275 20.543.582.153 1.158.302 1.679.466 0 0 98.705-151.36-27.993-90.873 0 0-141.563-195.529-286.531-93.391 0 0 22.179 11.929 30.044 22.795 0 0-106.873 6.078-124.558 58.683 0 0 31.204-3.287 30.76 4.5 0 0-41.017 5.994 9.637 111.407 14.186-21.4 38.498-35.516 66.116-35.516 23.977 0 45.449 10.645 59.981 27.44 19.668-3.466 43.434-10.496 58.9-24.781.002-.003 116.617-25.161 89.154 9.283"/><path fill="#368662" d="M164.35 330.072c-34.508 0-62.483-27.933-62.483-62.389 0-34.457 27.975-62.395 62.484-62.395 34.513 0 62.486 27.938 62.486 62.395 0 34.456-27.973 62.39-62.486 62.39m1.186-141.685c-43.769 0-79.245 35.421-79.245 79.127 0 43.702 35.476 79.128 79.245 79.128 43.77 0 79.25-35.426 79.25-79.128 0-43.706-35.483-79.127-79.25-79.127"/><path fill="#368662" d="M411.915 331.458c-34.511 0-62.486-27.931-62.486-62.395 0-34.458 27.975-62.389 62.486-62.389 34.514 0 62.484 27.931 62.484 62.389 0 34.464-27.973 62.395-62.484 62.395m1.187-141.693c-43.767 0-79.248 35.428-79.248 79.131 0 43.702 35.481 79.128 79.248 79.128 43.769 0 79.248-35.426 79.248-79.128 0-43.703-35.479-79.131-79.248-79.131"/><path fill="#368662" d="M453.6 268.9c0 22.324-18.126 40.436-40.498 40.436-22.378 0-40.5-18.112-40.5-40.437 0-22.327 18.122-40.437 40.5-40.437 22.37 0 40.498 18.108 40.498 40.437"/><path fill="#368662" d="M365.24 331.547l74.67 6.09s55.652 84.709-158.798 109.059l-54.853-8.765c-.002 0 173.147-41.2 138.982-106.384"/><g><path fill="#231f20" d="M0 614.264h11.52c1.92 0 2.88-1.6 2.88-4.8v-95.806c0-1.92-.192-3.168-.576-3.744-.384-.576-1.152-.864-2.304-.864H0v-11.136h47.423v11.136h-11.52c-1.152 0-1.92.288-2.304.864-.384.576-.576 1.824-.576 3.744v95.806c0 3.2.96 4.8 2.88 4.8h11.52V625.4H0z"/><path fill="#231f20" d="M88.317 552.25c6.272-14.849 17.216-22.272 32.832-22.272 19.712 0 29.568 11.072 29.568 33.215v46.656c0 1.792.224 2.977.672 3.552.448.576 1.184.864 2.208.864h10.75v11.136h-44.542v-11.136h9.984c1.792 0 2.688-1.472 2.688-4.416v-46.08c0-7.296-1.439-12.607-4.32-15.936-2.88-3.328-7.456-4.992-13.728-4.992-8.064 0-14.4 3.264-19.008 9.792-4.608 6.53-6.912 15.87-6.912 28.032v29.183c0 1.792.224 2.976.672 3.55.448.578 1.184.866 2.208.866h10.176v11.134H56.638v-11.134H67.39c1.024 0 1.76-.288 2.208-.866.448-.574.672-1.758.672-3.55v-61.246c0-3.456-.96-5.184-2.88-5.184H56.638v-11.136h10.368c8.192 0 15.296-.576 21.311-1.728z"/><path fill="#231f20" d="M189.98 621.368c-4.031-4.096-6.047-10.88-6.047-20.352v-57.599h-14.018v-9.984l9.216-.576c2.69-.384 4.706-1.152 6.048-2.304 1.344-1.152 2.146-3.072 2.4-5.76l1.728-16.896h12.866v24.384h20.544v11.136h-21.12v57.407c0 5.248 1.022 8.992 3.072 11.232 2.048 2.24 5.376 3.36 9.984 3.36 2.813 0 6.078-.576 9.792-1.728v11.52c-4.608 1.536-9.474 2.302-14.594 2.302-9.216 0-15.84-2.046-19.87-6.142"/><path fill="#231f20" d="M261.21 549.178c-4.928 5.248-7.712 12.8-8.354 22.656h54.335c-.384-20.352-8.959-30.528-25.728-30.528-8.573 0-15.327 2.622-20.253 7.872m-8.352 32.83c.256 10.242 3.073 18.466 8.448 24.674 5.376 6.206 12.99 9.31 22.848 9.31 14.974 0 24.766-7.23 29.374-21.694l11.138 4.608c-2.432 8.704-7.168 15.68-14.207 20.928-7.041 5.248-16.257 7.872-27.65 7.872-15.231 0-27.134-4.512-35.709-13.536-8.576-9.024-12.862-20.834-12.862-35.423 0-14.336 4.384-26.048 13.15-35.137 8.768-9.087 20.127-13.631 34.079-13.631 13.696 0 24.448 4.224 32.256 12.67 7.807 8.447 11.712 20.031 11.712 34.75v4.61z"/><path fill="#231f20" d="M366.904 552.25c4.48-14.849 13.056-22.272 25.728-22.272 6.528 0 11.616 1.856 15.262 5.568 3.648 3.712 5.472 8.576 5.472 14.592 0 4.864-1.28 8.768-3.84 11.712-2.56 2.944-5.888 4.416-9.984 4.416-2.814 0-5.216-.992-7.198-2.977-1.984-1.983-2.975-4.319-2.975-7.008 0-2.303.735-4.415 2.207-6.336 1.472-1.919 3.422-3.135 5.856-3.647-1.408-2.816-4.223-4.224-8.447-4.224-7.168 0-12.577 3.264-16.223 9.792-3.649 6.527-5.473 15.423-5.473 26.69v31.294c0 2.944.896 4.416 2.69 4.416h11.71v11.135h-46.27v-11.135h10.75c1.025 0 1.761-.288 2.208-.865.448-.575.672-1.759.672-3.55v-61.249c0-3.456-.959-5.184-2.88-5.184h-11.135v-11.136H345.4c8.32 0 15.488-.576 21.504-1.728z"/><path fill="#231f20" d="M452.535 552.25c6.27-14.849 17.214-22.272 32.83-22.272 19.712 0 29.569 11.072 29.569 33.215v46.656c0 1.792.224 2.977.672 3.552.448.576 1.183.864 2.208.864h10.75v11.136H484.02v-11.136h9.985c1.79 0 2.687-1.472 2.687-4.416v-46.08c0-7.296-1.44-12.607-4.32-15.936-2.88-3.328-7.456-4.992-13.728-4.992-8.064 0-14.4 3.264-19.008 9.792-4.607 6.53-6.911 15.87-6.911 28.032v29.183c0 1.792.224 2.976.67 3.55.449.578 1.186.866 2.21.866h10.176v11.134h-44.928v-11.134h10.752c1.024 0 1.76-.288 2.208-.866.448-.574.672-1.758.672-3.55v-61.246c0-3.456-.961-5.184-2.88-5.184h-10.752v-11.136h10.368c8.193 0 15.296-.576 21.312-1.728v21.696z"/><path fill="#231f20" d="M551.604 627.704c-3.584 0-6.496-1.151-8.736-3.456-2.241-2.304-3.361-5.247-3.361-8.832 0-3.584 1.12-6.527 3.361-8.832 2.24-2.304 5.15-3.456 8.736-3.456 3.584 0 6.528 1.152 8.832 3.456 2.304 2.305 3.456 5.248 3.456 8.832 0 3.585-1.152 6.528-3.456 8.832-2.304 2.305-5.248 3.456-8.832 3.456"/></g></svg>