<svg xmlns="http://www.w3.org/2000/svg" role="img" viewBox="-20.70 -19.70 1024.40 288.40"><title>jQuery User Interface logo</title><path fill="#f89c15" d="M471.764 221.937c-.09.386-.183.849-.195 1.157-.024.772.348 1.155 1.427 1.155 2.006 0 7.018-2.158 9.841-3.543l4.908-23.361 11.24-1.543-8.046 38.239h-9.259l.043-3.469c-5.959 2.775-10.639 4.24-14.96 4.24-4.938 0-6.764-2.928-6.6-7.63.055-1.543.255-2.779.536-4.32l5.369-25.517 11.163-1.543-5.467 26.135m27.929 10.408l2.366-8.018c2.82 1.002 6.025 1.929 10.12 1.929 3.616 0 3.893-1.081 4.265-2.853.367-1.697-.68-2.621-4.849-4.859-7.718-4.162-7.933-6.935-6.733-12.567 1.744-8.093 4.215-10.251 14.628-10.251 3.55 0 8.074.77 11.124 1.772l-2.06 8.17c-2.75-.769-6.816-1.386-9.444-1.386-3.237 0-3.714.386-4.168 2.39-.375 1.775 0 2.158 3.559 4.086 8.48 4.626 9.735 6.245 8.445 12.184-1.841 8.478-4.422 11.87-15.687 11.87-3.472 0-8.3-1.002-11.566-2.467m54.983-26.058c.047-1.31-1.087-2.16-3.085-2.16-3.941 0-5.177 2.237-5.822 5.32l-.555 2.621c1.86-.46 2.725-.615 4.985-1.31 2.956-.848 4.39-2.233 4.477-4.47zm-19.804 3.623c1.85-8.634 5.896-14.184 17.778-14.184 7.097 0 12.387 3.084 12.168 9.407-.254 7.32-4.156 10.714-13.509 13.49-4.598 1.388-4.676 1.388-7.945 2.237l-.555 2.62c-.278 1.388-.168 2.62 1.838 2.62 3.933 0 9.708-1.926 14.877-4.163l1.818 7.711c-4.653 2.852-11.906 5.164-18.54 5.164-7.79 0-10.992-3.392-10.769-9.792.047-1.387.254-2.93.618-4.548l2.22-10.562m58.079-4.317c-4.879 2.624-6.69 3.622-11.104 6.321l-4.703 22.127h-10.874l7.683-36.62 9.619-1.619-.41 5.088c3.702-2.157 6.69-3.7 9.974-5.088l-.184 9.79m25.376-24.825l11.24-1.541-2.482 11.565-11.163 1.543zm-3.504 16.578l11.242-1.543-8.125 38.239h-10.886l7.77-36.696m39.478 11.18c.094-.464.184-.85.192-1.16.031-.77-.344-1.078-1.427-1.078-2.002 0-6.85 2.004-9.845 3.546l-5.083 24.208H627.26l7.683-36.62 9.623-1.619-.223 4.162c5.959-2.774 10.639-4.238 14.955-4.238 5.017 0 6.765 2.851 6.604 7.63-.046 1.312-.16 2.39-.543 4.32l-5.544 26.365h-10.882l5.368-25.516m33.354-3.315l-3.98 18.734c-.083.383-.177.77-.184 1-.024.54.281.771 1.055.771 1.846 0 3.953-.771 5.908-1.54l1.904 7.553c-3.147 1.699-7.667 3.084-12.066 3.084-5.478 0-8.316-2.62-8.164-7.093.024-.537.121-1.078.215-1.619l4.434-20.89h-5.56l1.85-8.714h5.552l1.865-9.02 11.233-1.542-2.225 10.562h8.95l-2.459 8.713h-8.328m32.738 1.078c.043-1.31-1.087-2.16-3.085-2.16-3.941 0-5.18 2.237-5.822 5.32l-.555 2.621c1.861-.46 2.725-.615 4.985-1.31 2.956-.848 4.391-2.233 4.477-4.47zm-19.804 3.623c1.85-8.634 5.896-14.184 17.779-14.184 7.096 0 12.387 3.084 12.164 9.407-.25 7.32-4.153 10.714-13.51 13.49-4.594 1.388-4.672 1.388-7.94 2.237l-.56 2.62c-.273 1.388-.164 2.62 1.842 2.62 3.933 0 9.709-1.926 14.878-4.163l1.818 7.711c-4.653 2.852-11.906 5.164-18.542 5.164-7.792 0-10.99-3.392-10.768-9.792.043-1.387.25-2.93.618-4.548l2.221-10.562m58.071-4.317c-4.872 2.624-6.682 3.622-11.096 6.321l-4.704 22.127h-10.882l7.68-36.62 9.622-1.619-.403 5.088c3.695-2.157 6.683-3.7 9.975-5.088l-.192 9.79m-4.805 37.932c3.918-3.853 4.52-5.859 5.27-9.483l6.088-28.678h-5.4l1.854-8.867h5.4l1.098-4.934c1.834-8.327 4.896-11.95 13.998-11.95 3.09 0 6.69.541 9.588 1.62l-2.538 8.559c-1.677-.617-4.665-1.158-6.37-1.158-2.467 0-3.253.617-3.71 2.543l-1.193 5.32h9.725l-2.62 8.867h-8.95l-6.295 29.912c-1.107 5.242-3.085 8.944-9.153 14.725l-6.792-6.476m41.989-20.892c-.375 2.002.059 2.773 1.99 2.773 2.773 0 5.842-1.616 8.38-3.699l3.429-16.266c-1.459-.307-3.077-.385-4.23-.385-5.64 0-6.425 2.775-7.25 6.398zm9.474 11.409l-.187-3.238c-2.698 2.007-6.698 4.01-12.098 4.01-8.18 0-9.63-4.934-7.867-13.338l2.123-10.098c1.857-8.946 5.635-15.575 20.45-15.575 3.933 0 9.075.694 14.267 2.314l-7.507 35.925h-9.18m19.193-8.789c.067-1.926.282-3.546.818-5.704l2.447-10.487c2.452-10.638 7.715-13.335 18.362-13.335 3.32 0 6.537.693 8.668 1.541l-2.932 8.79c-1.826-.617-4.051-1.08-6.21-1.08-4.934 0-6.615 1.541-7.538 5.86l-2.397 11.41c-.094.46-.191 1.08-.207 1.466-.047 1.231.551 1.848 1.94 1.848 2.78 0 8.003-1.541 10.654-2.312l.692 8.712c-3.214 1.542-8.504 2.851-12.516 2.851-8.645 0-12.011-2.928-11.78-9.56m53.492-18.965c.047-1.31-1.075-2.16-3.085-2.16-3.933 0-5.169 2.237-5.818 5.32l-.551 2.621c1.865-.46 2.721-.615 4.981-1.31 2.96-.848 4.399-2.233 4.473-4.47zm-19.792 3.623c1.837-8.634 5.888-14.184 17.77-14.184 7.093 0 12.395 3.084 12.172 9.407-.262 7.32-4.156 10.714-13.509 13.49-4.606 1.388-4.68 1.388-7.94 2.237l-.56 2.62c-.281 1.388-.168 2.62 1.834 2.62 3.941 0 9.712-1.926 14.881-4.163l1.81 7.711c-4.648 2.852-11.905 5.164-18.54 5.164-7.79 0-10.988-3.392-10.76-9.792.046-1.387.253-2.93.617-4.548l2.225-10.562"/><path fill="#f89c15" fill-rule="evenodd" d="M185.868 9.424H23.845C10.979 9.424 0 20.706 0 33.562v56.841c0 56.99 48.313 103.2 105.973 103.2 57.657 0 105.957-46.21 105.957-103.2V33.562c0-12.856-13.192-24.138-26.062-24.138"/><path fill="#fff" fill-rule="evenodd" d="M36.404 91.752c0 38.016 30.571 68.341 69.036 68.341 38.466 0 69.05-30.799 69.05-69.326h-34.812c0 19.263-14.228 34.907-33.448 34.907-19.243 0-33.447-14.917-33.447-33.922V58.659H36.404v33.093"/><path fill="#fff" fill-rule="evenodd" d="M36.404 91.005c0 38.006 30.571 68.714 69.036 68.714 38.466 0 69.05-30.425 69.05-68.952h-34.812c0 19.263-14.228 34.533-33.448 34.533-19.243 0-33.447-15.302-33.447-34.295V58.66H36.404v32.346m111.971-53.349L140.25 70.93l33.67 8.594 8.707-33.268-34.252-8.6"/><path fill="#2f2d2e" d="M878.552 58.024l1.244 5.252c.356 1.508-.602 2.72-2.143 2.72m-99.11-16.988c-.31 1.454-.689 3.294-.943 4.508l-10.967 51.345L778.17 50.77l.372-1.761M449.888 83.367l-6.057 21.458 6.057-21.452z"/><path fill="#2f2d2e" d="M879.796 63.276L876.64 49.91c-2.498-9.672-9.56-14.247-25.442-14.247h-66.794c-1.54 0-3.074.695-3.386 2.2L755.673 158.04c-.328 1.52-.426 2.602-.25 3.352.18.773 3.147.63 4.668.63h23.14c1.548 0 4.36.114 5.177-.216.86-.351 1.235-2.642 1.552-4.157l8.172-42.138 9.986-46.738c.328-1.502 1.841-2.73 3.378-2.73l66.157-.046c1.529 0 2.499-1.217 2.143-2.72"/><path fill="#2f2d2e" d="M973.913 14.56c-1.544.017-29.336 0-29.336 0-1.537 0-3.515 1.651-4.376 2.924l-51.494 75.77c-.888 1.272-1.877 1.23-2.221-.268l-3.805-16.608c-.324-1.507-1.86-2.734-3.42-2.734h-33.103c-1.525 0-2.444 1.27-2.045 2.758l14.843 52.023c.43 1.49.46 3.92.086 5.408l-6.921 26.353c-.364 1.49.582 1.942 2.139 1.942h32.683c1.54 0 3.124-.442 3.504-1.942l6.92-26.718c.384-1.49 1.447-3.519 2.366-4.762L983.79 17.234c.946-1.22.81-2.681-.723-2.681l-9.154.007M629.27 35.766h-29.88c-1.517 0-3.084.534-3.386 2.046l-9.872 46.202-9.838 44.24c-.317 1.498-1.841 1.394-3.374 1.394h-19.64c-19.417 0-17.18-12.272-13.188-30.664.054-.183 12.46-61.172 12.46-61.172.274-1.504-.734-2.046-2.251-2.046h-28.47c-1.532 0-3.057.542-3.362 2.046L507.021 98.94c-5.713 33.05-5.88 62.13 32.441 63.091.63.023 60.523 0 60.523 0 1.548 0 3.073-.508 3.402-1.998l12.996-61.3 12.95-61.56s.458-1.407-.062-1.407m-297.575-.104h-32.027c-1.54 0-3.088.367-3.427 1.877l-5.781 25.009c-.329 1.481.655 2.662 2.205 2.662h30.666c1.55 0 3.088-1.395 3.414-2.89l5.567-25.195s.443-1.463-.617-1.463m-41.11 37.982c-1.523 0-3.085 1.216-3.414 2.72l-4.32 19.075-9.635 44.05s-5.124 23.419-5.618 24.887c0 0-4.316 16.907-14.63 16.228-4.797-.318-10.282-1.418-10.282-1.418h-.014c-2.882-.867-3.085 2.122-3.438 3.619l-6.36 27.444c-.366 1.5.619 2.852 2.14 2.872 0 0 13.794 1.944 23.527 1.944h1.602c24.056 0 36.763-14.143 44.89-52.55l9.52-44.454 8.93-41.363c.328-1.505-.581-2.901-2.114-2.901m397.698 14.557c0 1.666-5.275 1.35-5.275 1.35l-42.001-.304c-1.45 0-1.87-2.034-1.967-3.492-.004-.048.102-1.744.227-2.162 3.253-11.263 12.934-17.698 28.289-17.698 17.278 0 20.97 8.573 20.97 18.074m-14.448-48.645c-53.876 0-66.736 33.304-73.891 66.31-7.16 33.655-6.55 60.253 49.199 60.253h51.002c1.51-.027 3.022-1.41 3.323-2.902l5.482-21.349c.317-1.512-.703-1.958-2.228-1.958h-50.138c-18.166 0-24.668-5.595-24.035-18.157-.012-1.43 1.627-5.068 3.163-5.068h77.234c3.39-.02 3.496-2.004 3.496-2.004 7.867-35.487 8.379-75.125-42.607-75.125m-261.321 69.348l-6.209 21.22c-.426 1.488-2.182 2.48-3.718 2.48h-32.027c-24.31 0-30.216-18.782-24.31-46.815 5.932-28.653 17.686-46.38 41.588-48.174 32.684-2.464 39.374 20.616 31.452 47.15zm28.465 22.485s15.088-36.656 18.514-57.842C495.205 41.116 481.023 0 426.186 0c-54.514 0-78.166 39.254-87.223 81.931-9.017 42.987 2.789 80.413 57.002 80.11l82.74-.051c1.525-.005 3.116-1.239 3.507-2.708l6.971-26.559c.38-1.503-.563-2.717-2.115-2.723l-6.663-.05-6.658-.03c-1.314-.014-2.069-.862-1.893-1.988.028-.208.051-.411.153-.622"/></svg>