<svg xmlns="http://www.w3.org/2000/svg" role="img" viewBox="-22.34 -22.34 1161.68 293.68"><title>jQuery Mobile logo</title><path fill="#41b73c" d="M824.16 222.48c.094-.48.192-.887.2-1.208.029-.81-.36-1.132-1.488-1.132-2.099 0-7.096 2.097-10.384 3.794l-5.317 25.26h-11.296l5.611-26.714c.094-.48.192-.887.2-1.208.029-.81-.36-1.132-1.492-1.132-2.094 0-7.174 2.097-10.294 3.714l-5.321 25.34H773.2l8.036-38.335 10.061-1.695-.233 4.36c6.233-2.906 11.133-4.44 15.648-4.44 3.873 0 5.832 1.695 6.617 4.601 6.09-3.471 11.537-4.6 16.057-4.6 5.243 0 7.075 2.987 6.9 7.989-.046 1.372-.177 2.906-.557 4.52l-5.804 27.6H818.55l5.61-26.714m42.66.566c.107-2.906-1.615-4.438-5.328-4.438-4.274 0-6.855 2.179-7.636 6.053l-2.037 9.764c-.098.566-.2 1.13-.213 1.614-.102 2.824 1.616 4.44 5.33 4.44 4.36 0 6.854-2.18 7.631-6.054l2.04-9.764c.099-.566.197-1.131.214-1.615zm-26.702 13.8c.029-.889.143-1.855.34-2.743l1.93-9.12c2.123-10.088 7.251-15.899 20.968-15.899 10.573 0 15.12 6.054 14.875 13.072-.033.89-.143 1.86-.343 2.828l-1.93 9.119c-2.021 9.441-6.77 15.897-21.051 15.897-10.008 0-15.042-5.97-14.789-13.154m68.632-15.171c.478-2.1-.054-3.067-2.074-3.067-2.5 0-6.589 1.613-8.982 3.067l-3.873 18.559a37.1 37.1 0 0 0 4.43.244c5.889 0 7.12-2.906 7.975-6.7zm-28.036 26.47l11.5-54.314 11.676-1.614-4.257 20.256c3.374-1.936 7.296-3.389 11.574-3.389 8.552 0 10.466 5.247 8.626 14.043l-2.225 10.571C915.669 243.06 912.606 250 895.82 250c-4.122 0-9.75-.566-15.107-1.855m52.992-54.717l11.754-1.614-2.6 12.105-11.673 1.614zm-3.677 17.351l11.763-1.615-8.499 40.03h-11.378l8.114-38.415m24.642-16.949l11.758-1.613-11.996 56.976h-11.378l11.615-55.362m33.941 26.309c.046-1.371-1.136-2.26-3.23-2.26-4.119 0-5.411 2.341-6.086 5.568l-.577 2.743c1.947-.482 2.843-.644 5.21-1.369 3.093-.888 4.598-2.342 4.684-4.682zm-20.714 3.794c1.93-9.04 6.167-14.85 18.596-14.85 7.419 0 12.96 3.228 12.728 9.845-.266 7.668-4.344 11.22-14.13 14.122-4.814 1.454-4.892 1.454-8.311 2.34l-.585 2.747c-.286 1.452-.176 2.743 1.922 2.743 4.119 0 10.163-2.018 15.566-4.358l1.902 8.07C990.717 247.58 983.13 250 976.186 250c-8.147 0-11.492-3.55-11.26-10.248.05-1.453.266-3.068.65-4.761l2.32-11.057"/><path fill="#2e64b3" d="M261.37 3.781H40.785c-4.683 0-9.306 3.402-10.35 7.985L.2 147.544c-1.016 4.577 1.944 8.547 6.647 8.547h217.889c4.676 0 9.319-4.126 10.328-8.695l30.25-135.738c1.017-4.589.72-7.877-3.944-7.877"/><path fill="#56c5f2" d="M297.218 39.6H137.7c-4.684 0-9.32 3.832-10.35 8.412L100.518 169.05c-1.023 4.597 1.944 9.43 6.627 9.43h158.8c4.677 0 9.307-4.793 10.342-9.378l26.832-120.086c1.033-4.555-1.191-9.416-5.901-9.416"/><path fill="#88d6f6" d="M137.701 39.6c-4.684 0-9.32 4.237-10.35 8.805L103.365 156.09h121.371c4.676 0 9.319-4.241 10.328-8.794L258.97 39.6H137.7"/><path fill="#41b73c" d="M156.103 82.173H83.758c-4.697 0-9.335 3.275-10.38 7.855L43.21 222.998c-1.055 4.569 1.907 9.25 6.603 9.25h72.267c4.678 0 9.332-4.894 10.368-9.474l30.17-132.19c1.044-4.555-1.724-8.384-6.412-8.384"/><path fill="#7fcd48" d="M156.103 82.173H83.758c-4.697 0-9.335 3.694-10.38 8.25L58.353 156.09h89.263l15.001-65.697"/><path fill="#acd91a" d="M156.103 82.173h-36.166l-19.42 87.373c-1.022 4.59 1.945 8.935 6.628 8.935h35.653l19.82-87.408c1.043-4.555-1.725-8.723-6.413-8.723"/><path fill="#fff" d="M156.355 82.173h-36.418l-16.32 73.918h44.252l14.999-65.507c1.043-4.576-1.824-8.41-6.513-8.41"/><path fill="#2f2d2e" d="M1003.236 62.523l1.341 5.658c.385 1.622-.646 2.932-2.306 2.932M895.474 52.805a733.848 733.848 0 0 0-1.015 4.861l-11.82 55.322 12.43-58.282.405-1.901M541.342 89.828l-6.523 23.12 6.523-23.113z"/><path fill="#2f2d2e" d="M1004.577 68.181l-3.402-14.403c-2.687-10.424-10.303-15.351-27.414-15.351h-71.973c-1.656 0-3.308.747-3.652 2.369l-27.303 129.493c-.352 1.638-.463 2.802-.274 3.612.192.836 3.394.677 5.038.677h24.928c1.672 0 4.699.127 5.578-.23.924-.378 1.333-2.847 1.669-4.481l8.81-45.405L927.344 74.1c.352-1.615 1.98-2.94 3.636-2.94l71.29-.047c1.644 0 2.69-1.315 2.306-2.932"/><path fill="#2f2d2e" d="M1105.996 15.688c-1.669.02-31.618 0-31.618 0-1.657 0-3.787 1.778-4.708 3.149l-55.494 81.646c-.953 1.37-2.024 1.322-2.388-.293l-4.103-17.894c-.351-1.622-2.008-2.946-3.689-2.946H968.33c-1.644 0-2.633 1.372-2.2 2.975l15.991 56.054c.462 1.604.503 4.225.09 5.83l-7.456 28.393c-.392 1.609.626 2.095 2.307 2.095h35.221c1.653 0 3.366-.48 3.771-2.095l7.46-28.792c.405-1.602 1.558-3.787 2.548-5.125l90.569-120.113c1.018-1.317.875-2.892-.778-2.892l-9.856.008M734.626 38.537h-32.19c-1.637 0-3.326.576-3.653 2.204L688.15 90.526l-10.601 47.667c-.34 1.616-1.98 1.507-3.64 1.507h-21.157c-20.927 0-18.514-13.225-14.208-33.044.054-.199 13.419-65.915 13.419-65.915.299-1.62-.785-2.204-2.43-2.204h-30.669c-1.656 0-3.296.584-3.62 2.204l-12.342 65.867c-6.151 35.613-6.34 66.948 34.963 67.983.68.024 65.208 0 65.208 0 1.669 0 3.313-.548 3.669-2.153l14-66.054 13.954-66.328s.494-1.52-.07-1.52m-320.636-.109h-34.514c-1.655 0-3.325.394-3.689 2.024l-6.23 26.946c-.355 1.593.706 2.867 2.375 2.867h33.046c1.67 0 3.325-1.504 3.68-3.113l5.998-27.148s.475-1.576-.666-1.576M369.694 79.35c-1.644 0-3.325 1.313-3.68 2.931l-4.656 20.557-10.381 47.465s-5.525 25.232-6.052 26.81c0 0-4.652 18.22-15.763 17.49-5.172-.342-11.083-1.526-11.083-1.526h-.014c-3.108-.94-3.325 2.286-3.703 3.898l-6.854 29.57c-.396 1.62.665 3.076 2.309 3.095 0 0 14.859 2.096 25.349 2.096h1.725c25.92 0 39.615-15.239 48.366-56.624l10.262-47.9 9.62-44.568c.355-1.625-.624-3.13-2.278-3.13m428.526 15.687c0 1.799-5.677 1.456-5.677 1.456l-45.262-.328c-1.562 0-2.012-2.192-2.118-3.76-.005-.053.11-1.881.24-2.335 3.506-12.134 13.939-19.067 30.486-19.067 18.617 0 22.596 9.236 22.596 19.475m-15.57-52.415c-58.054 0-71.915 35.885-79.624 71.448-7.705 36.264-7.05 64.926 53.02 64.926h54.955c1.628-.03 3.26-1.52 3.583-3.128l5.905-23.004c.34-1.628-.76-2.107-2.4-2.107h-54.03c-19.566 0-26.572-6.03-25.893-19.566-.013-1.541 1.75-5.46 3.407-5.46h83.223c3.648-.022 3.77-2.16 3.77-2.16 8.47-38.238 9.027-80.95-45.916-80.95m-281.578 74.723l-6.691 22.866c-.462 1.605-2.348 2.674-4.004 2.674h-34.514c-26.19 0-32.554-20.241-26.19-50.445 6.392-30.873 19.054-49.977 44.811-51.912 35.222-2.652 42.424 22.22 33.888 50.805zm30.67 24.23s16.26-39.499 19.95-62.326C590.173 44.304 574.89 0 515.8 0c-58.737 0-84.225 42.296-93.98 88.28-9.717 46.32 3.003 86.648 61.417 86.32l89.158-.054c1.64-.006 3.354-1.334 3.775-2.917l7.517-28.62c.405-1.616-.614-2.926-2.282-2.932l-7.182-.054-7.173-.032c-1.411-.015-2.233-.93-2.041-2.144.028-.22.061-.44.163-.668"/></svg>