<svg xmlns="http://www.w3.org/2000/svg" role="img" viewBox="-15.91 -15.91 784.32 827.32"><title>jQuery logo</title><g fill="#2e64b3" stroke-width=".353"><path d="M147.583 122.632c-47.995 68.952-42.063 158.66-5.34 231.931.818 1.79 1.765 3.48 2.666 5.208a42.132 42.132 0 0 0 1.732 3.34c.275.61.707 1.276 1.061 1.87.592 1.196 1.218 2.298 1.847 3.438 1.18 1.987 2.358 4.007 3.538 5.978.667 1.098 1.3 2.201 2.045 3.3 1.255 2.126 2.711 4.225 4.011 6.347.589.906 1.14 1.79 1.77 2.674 1.883 2.872 3.776 5.702 5.858 8.492 0 .083.078.156.156.193.313.474.667.926.98 1.358a231.705 231.705 0 0 0 5.389 7.117c.63.865 1.333 1.729 1.966 2.572 1.687 2.049 3.34 4.089 4.986 6.113.634.729 1.26 1.498 1.93 2.242 2.2 2.654 4.521 5.287 6.883 7.888 0 .033.074.09.115.151.078.1.156.198.313.292 2.279 2.502 4.6 4.955 6.96 7.394.745.749 1.49 1.472 2.317 2.262 1.806 1.832 3.616 3.675 5.546 5.48.785.753 1.567 1.477 2.32 2.201 2.514 2.362 5.027 4.724 7.66 6.978.042.04.083.066.12.098.432.375.905.754 1.3 1.124 2.316 1.982 4.64 3.95 6.993 5.895.947.79 1.889 1.535 2.836 2.3 1.966 1.555 3.928 3.044 5.891 4.542 1.024.765 2.049 1.551 3.11 2.36 2.122 1.59 4.324 3.14 6.484 4.675.785.572 1.571 1.144 2.398 1.67.198.177.432.333.63.494 2.16 1.415 4.204 2.79 6.332 4.188.937.604 1.847 1.197 2.752 1.802 3.3 2.106 6.599 4.13 9.865 6.097a73.115 73.115 0 0 1 2.79 1.551 224.632 224.632 0 0 0 7.43 4.151c1.374.766 2.751 1.437 4.163 2.14a224.24 224.24 0 0 0 5.274 2.793c.432.173.864.333 1.255.547.745.338 1.452.712 2.16 1.061 2.757 1.358 5.583 2.638 8.496 3.934.546.26 1.135.489 1.727.786a311.92 311.92 0 0 0 9.866 4.088c.79.293 1.572.651 2.398.922a382.36 382.36 0 0 0 9.277 3.46c.395.16.746.28 1.14.411 3.46 1.185 6.88 2.3 10.38 3.387.823.234 1.65.526 2.514.744 3.579 1.079 7.034 2.341 10.692 3.028 232.05 42.297 299.468-139.455 299.468-139.455-56.642 73.725-157.162 93.205-252.37 71.545-3.542-.803-7.04-1.926-10.614-2.992-.83-.234-1.773-.506-2.6-.802a296.617 296.617 0 0 1-10.215-3.304 18.254 18.254 0 0 1-1.457-.53c-3.024-1.041-6.01-2.18-9.002-3.336-.826-.358-1.69-.655-2.518-.967-3.303-1.297-6.561-2.691-9.746-4.09-.707-.252-1.3-.552-1.97-.823a559.1 559.1 0 0 1-8.175-3.834c-.823-.354-1.572-.749-2.399-1.16-2.122-1.004-4.241-2.123-6.323-3.226-1.456-.744-2.875-1.432-4.25-2.197-2.555-1.374-5.109-2.83-7.664-4.245-.79-.535-1.654-.988-2.56-1.478-3.299-1.962-6.643-3.99-9.902-6.071a59.58 59.58 0 0 1-2.674-1.79c-2.399-1.51-4.76-3.107-7.076-4.678-.749-.53-1.494-1.082-2.28-1.634a406.257 406.257 0 0 1-6.68-4.796c-.946-.744-1.93-1.49-2.95-2.238-2.008-1.551-4.011-3.086-6.015-4.698-.868-.725-1.765-1.437-2.637-2.14-2.592-2.082-5.028-4.172-7.508-6.331-.235-.256-.585-.474-.865-.688a639.935 639.935 0 0 1-7.86-7.174c-.788-.745-1.449-1.436-2.239-2.144-1.884-1.847-3.772-3.653-5.62-5.525-.785-.782-1.497-1.51-2.242-2.255a222.917 222.917 0 0 1-6.958-7.352 3.3 3.3 0 0 1-.358-.353c-2.394-2.633-4.714-5.308-7.03-8.023-.634-.724-1.223-1.473-1.847-2.18-1.696-2.082-3.386-4.189-5.114-6.27-.547-.807-1.181-1.571-1.81-2.361a288.64 288.64 0 0 1-5.855-7.801c-52.837-72.079-71.901-171.553-29.637-253.18"/><path d="M296.574 64.509c-34.793 49.924-32.863 116.774-5.78 169.602 4.48 8.845 9.59 17.44 15.328 25.594 5.192 7.466 10.931 16.312 17.889 22.31 2.435 2.753 5.068 5.427 7.783 8.113.67.67 1.342 1.325 2.045 2.029a260.37 260.37 0 0 0 7.94 7.348c.083.102.235.2.317.3a.58.58 0 0 1 .078.054 189.618 189.618 0 0 0 9.278 7.688c.745.53 1.415 1.124 2.16 1.65 3.147 2.46 6.372 4.813 9.63 7.134.12.04.198.12.359.18 1.411 1.021 2.905 1.963 4.439 2.947.666.431 1.373.942 2.044 1.357a198.273 198.273 0 0 0 7.192 4.444c.358.177.707.37 1.061.546a99.12 99.12 0 0 0 6.373 3.56c.745.452 1.49.806 2.238 1.218 1.494.744 2.987 1.53 4.44 2.299.196.103.477.213.71.317 3.065 1.513 6.172 2.905 9.237 4.303.745.296 1.378.551 2.081.844 2.523 1.081 5.073 2.147 7.59 3.106 1.137.378 2.202.822 3.263 1.2 2.316.824 4.678 1.63 6.999 2.395 1.135.374 2.159.691 3.184 1.025 3.3 1.045 6.644 2.381 10.141 2.925C613.696 378.7 655.127 240.735 655.127 240.735c-37.305 53.742-109.524 79.331-186.568 59.325a162.934 162.934 0 0 1-10.146-2.95c-1.061-.275-1.999-.609-3.023-.963a156.919 156.919 0 0 1-7.118-2.44c-1.062-.39-2.16-.785-3.22-1.197-2.556-1-5.11-1.983-7.591-3.085-.745-.296-1.452-.547-2.041-.864-3.184-1.379-6.332-2.855-9.397-4.324-1.571-.806-3.106-1.592-4.677-2.419-.943-.473-1.848-.925-2.674-1.357-2.087-1.079-4.012-2.223-5.978-3.378-.465-.256-.943-.494-1.416-.77-2.394-1.452-4.875-2.909-7.15-4.422-.79-.449-1.457-.963-2.201-1.432a253.214 253.214 0 0 1-4.723-3.085c-3.258-2.264-6.442-4.658-9.627-7.06-.749-.609-1.456-1.156-2.163-1.748-33.81-26.615-60.54-63.012-73.194-104.23-13.367-42.812-10.421-90.872 12.618-129.845"/><path d="M421.819 21.088c-20.52 30.111-22.488 67.521-8.34 100.734 15.021 35.306 45.72 62.998 81.496 76.105 1.453.572 2.91 1.046 4.403 1.556.67.194 1.295.412 2.007.626 2.081.65 4.163 1.435 6.324 1.851 98.943 19.105 125.758-50.773 132.95-61.053-23.545 33.85-63.053 41.964-111.524 30.193-3.815-.925-7.982-2.3-11.676-3.636a152.258 152.258 0 0 1-13.955-5.76c-8.529-4.144-16.786-9.138-24.413-14.918C435.69 113.882 408.806 51.121 437.107 0"/></g><g fill="#2f2d2e" stroke-width=".353"><path d="M646.579 638.395l1.247 5.259c.35 1.506-.605 2.723-2.146 2.723m-99.238-17.013a507.229 507.229 0 0 0-.942 4.517l-10.985 51.408 11.552-54.159.375-1.766m-329.074 34.404l-6.068 21.483 6.068-21.476z"/><path d="M647.826 643.654l-3.166-13.387c-2.497-9.686-9.572-14.263-25.473-14.263h-66.879c-1.54 0-3.078.694-3.392 2.2l-25.371 120.332c-.331 1.52-.43 2.603-.257 3.355.179.776 3.156.631 4.68.631h23.168c1.55 0 4.365.115 5.183-.215.858-.352 1.236-2.646 1.55-4.164l8.187-42.19 10.001-46.8c.325-1.503 1.838-2.731 3.38-2.731l66.243-.045c1.527 0 2.497-1.222 2.146-2.723"/><path d="M742.063 594.873c-1.551.017-29.379 0-29.379 0-1.537 0-3.517 1.653-4.375 2.926l-51.57 75.87c-.879 1.273-1.876 1.228-2.217-.271l-3.811-16.629c-.324-1.507-1.862-2.736-3.426-2.736h-33.146c-1.524 0-2.446 1.273-2.04 2.761l14.856 52.089c.429 1.491.466 3.926.084 5.417l-6.926 26.384c-.368 1.495.578 1.947 2.142 1.947h32.727c1.537 0 3.128-.445 3.503-1.947l6.934-26.753c.378-1.492 1.45-3.52 2.368-4.765l84.162-111.614c.946-1.223.81-2.688-.727-2.688l-9.16.01m-345.086 21.231h-29.915c-1.524 0-3.088.536-3.393 2.05l-9.886 46.261-9.849 44.295c-.314 1.502-1.841 1.4-3.382 1.4h-19.658c-19.448 0-17.204-12.289-13.204-30.707.048-.183 12.471-61.25 12.471-61.25.277-1.506-.733-2.049-2.257-2.049h-28.5c-1.537 0-3.068.543-3.365 2.05l-11.467 61.204c-5.717 33.094-5.89 62.213 32.486 63.173.632.023 60.598 0 60.598 0 1.551 0 3.075-.509 3.406-2l13.012-61.38 12.964-61.634s.46-1.413-.06-1.413m-297.953-.101h-32.07c-1.54 0-3.09.365-3.43 1.878l-5.79 25.04c-.328 1.482.656 2.667 2.207 2.667H90.65c1.552 0 3.09-1.4 3.418-2.895l5.574-25.228s.445-1.462-.618-1.462m-41.163 38.029c-1.525 0-3.09 1.217-3.418 2.723l-4.325 19.1-9.648 44.107s-5.133 23.446-5.624 24.915c0 0-4.322 16.93-14.649 16.25-4.804-.317-10.295-1.419-10.295-1.419h-.014c-2.887-.871-3.09 2.125-3.443 3.623L.077 790.811c-.367 1.504.619 2.857 2.144 2.877 0 0 13.808 1.947 23.558 1.947h1.6c24.088 0 36.812-14.162 44.946-52.618l9.535-44.51 8.942-41.416c.328-1.508-.581-2.907-2.119-2.907m398.205 14.576c0 1.67-5.28 1.353-5.28 1.353l-42.056-.305c-1.453 0-1.868-2.038-1.97-3.495-.004-.05.105-1.746.23-2.167 3.25-11.277 12.95-17.72 28.324-17.72 17.3 0 20.996 8.583 20.996 18.097m-14.465-48.704c-53.948 0-66.825 33.343-73.988 66.391-7.166 33.698-6.555 60.332 49.266 60.332h51.066c1.51-.026 3.024-1.412 3.329-2.908l5.487-21.374c.317-1.514-.707-1.96-2.23-1.96h-50.205c-18.185 0-24.696-5.603-24.06-18.18-.014-1.433 1.625-5.075 3.162-5.075h77.333c3.396-.02 3.504-2.007 3.504-2.007 7.872-35.53 8.386-75.22-42.664-75.22M211.013 685.25l-6.217 21.25c-.43 1.492-2.183 2.486-3.724 2.486h-32.07c-24.338 0-30.254-18.81-24.338-46.877 5.94-28.689 17.708-46.44 41.643-48.237 32.727-2.465 39.424 20.645 31.49 47.21zm28.5 22.517s15.11-36.703 18.535-57.915c4.694-28.388-9.507-69.556-64.416-69.556-54.579 0-78.264 39.302-87.332 82.035-9.028 43.04 2.793 80.515 57.072 80.211l82.847-.05c1.528-.007 3.119-1.24 3.511-2.712l6.984-26.595c.378-1.5-.568-2.719-2.119-2.725l-6.673-.05-6.67-.03c-1.31-.013-2.067-.864-1.891-1.992.023-.205.05-.41.152-.62"/></g></svg>