<svg xmlns="http://www.w3.org/2000/svg" role="img" viewBox="0.04 -9.46 497.92 595.92"><title>Jerryscript logo</title><defs><style>.cls-2{fill:#fefefd}.cls-4{fill:#f5ab33}.cls-5{fill:#343b36}</style></defs><path fill="#070909" d="M469.978 230.515q0 56.208-.026 112.416c-.012 8.217-2.033 16.104-4.542 23.884a109.581 109.581 0 0 1-5.302 14.145c-1.754 3.633-3.813 7.125-5.84 10.618a93.307 93.307 0 0 1-16.619 20.618c-6.845 6.521-13.812 12.883-22.412 17.231-5.294 2.677-10.507 5.51-16.023 7.695a96.383 96.383 0 0 1-22.677 5.993c-8.344 1.122-16.253 3.11-23.425 7.981-4.782 3.247-10.252 5.486-15.525 7.972-4.045 1.906-8.115 3.756-12.171 5.635-2.355 1.09-4.705 2.202-7.11 3.169-1.55.622-2.7.61-3.525-1.499-1.594-4.074-3.668-7.962-5.56-11.919-1.157-2.422-2.664-4.735-3.411-7.274-.534-1.813-1.387-1.938-2.861-1.935-12.52.027-25.038.005-37.557.006-22.135.002-44.27.15-66.403-.07a67.998 67.998 0 0 0-19.425 2.676 118.577 118.577 0 0 1-47.117 3.558c-11.167-1.37-22.088-3.913-32.27-8.648a103.379 103.379 0 0 1-21.304-13.235 133.374 133.374 0 0 1-15.37-14.61 96.922 96.922 0 0 1-12.288-17.076 139.561 139.561 0 0 1-8.068-15.798 178.768 178.768 0 0 1-8.177-25.687 189.978 189.978 0 0 1-3.575-20.858c-1.279-9.989-1.143-20.09-1.372-30.15-.243-10.7-.19-21.407-.429-32.108-.05-2.3.773-3.047 2.895-3.061 3.354-.022 6.708-.205 10.063-.236 1.626-.016 2.393-.432 2.4-2.328.036-10.974.287-21.947.333-32.921q.212-50.761.324-101.522c.022-8.06-.003-16.131 1.549-24.078a106.296 106.296 0 0 1 4.866-17.18 83.551 83.551 0 0 1 6.408-13.95c3.924-6.476 7.913-12.854 12.934-18.6a134.496 134.496 0 0 1 13.058-13.084 101.172 101.172 0 0 1 28.309-17.54 129.974 129.974 0 0 1 30.398-8.406c5.87-.853 11.95-.207 17.935-.313 36.728-.65 73.46-.201 110.188-.437 11.7-.076 23.405-.379 35.095-.093 5.072.124 8.917-2.093 12.97-4.389 6.53-3.699 12.912-7.668 19.695-10.917 1.72-.823 3.345-3.017 5.18-1.977 1.409.797 1.984 3.052 2.952 4.645 2.357 3.876 4.743 7.736 7.084 11.623.708 1.175 1.836.954 2.893 1.036 7.853.609 15.757.664 23.531 2.134 9.437 1.783 18.717 4.308 27.206 8.774 8.845 4.653 17.292 10.017 24.615 17.028 5.254 5.03 10.763 9.85 15.053 15.711 6.159 8.417 11.724 17.166 15.188 27.221a204.778 204.778 0 0 1 5.961 20.738c1.192 5.17 1.135 10.456 1.149 15.693q.13 51.85.044 103.7zM268.65 427.313l.96-.067c2.25 1.088 4.578.602 6.894.337 5.886-.098 11.77-.235 17.657-.276 2.138-.015 1.896-.936 1.17-2.338-1.279-2.473-2.532-4.962-3.698-7.49-3.407-7.382-6.618-14.858-10.188-22.16-2.802-5.73-5.4-11.555-8.239-17.27-3.28-6.601-6.048-13.456-10.304-20.608a127.059 127.059 0 0 1-42.35 69.718l.594.525h22.168a46.421 46.421 0 0 0 8 .04l13.451-.126a4.238 4.238 0 0 0 3.885-.285zm168.807-158.087a8.934 8.934 0 0 0 2.382 5.204l2.484 9.394c2.007 7.524 3.749 15.137 4.132 22.91.738 14.966.034 29.804-4.473 44.312-.891 2.868-2.384 5.664-2.46 8.792l-2.074 4.297a108.855 108.855 0 0 1-8.055 16.614c-2.427 4.292-5.293 8.294-8.13 12.328a157.41 157.41 0 0 1-12.616 15.342c-2.66 2.919-5.393 5.772-8.213 8.784a1.902 1.902 0 0 0 2.054-.223c3.197-2.31 6.777-3.983 10.065-6.195a99.048 99.048 0 0 0 17.426-15.392 93.188 93.188 0 0 0 15.232-23.29 80.84 80.84 0 0 0 5.567-16.632c2.392-10.297 2.326-20.86 2.33-31.373q.033-92.377.003-184.753a151.394 151.394 0 0 0-.925-20.622 103.833 103.833 0 0 0-5.18-21.001 86.742 86.742 0 0 0-8.205-16.897 80.978 80.978 0 0 0-13.193-15.984c-2.656-2.493-5.129-5.195-7.894-7.557-3.795-3.24-8.186-5.652-12.342-8.392a51.668 51.668 0 0 0-10.008-5.146 117.22 117.22 0 0 0-24.851-6.316c-1.101-.162-2.528-1.062-3.244.073-.67 1.063.509 2.35.698 3.58.046.3.498.515.682.818q5.062 8.352 10.101 16.718c3.547 5.891 7.062 11.801 10.63 17.68 3.53 5.814 7.15 11.573 10.652 17.403 4.14 6.895 8.137 13.876 12.316 20.746 1.87 3.073 1.908 3.521-1.374 5.086-7.615 3.63-14.821 8.022-22.101 12.232-6.956 4.024-13.793 8.313-20.362 13.007a135.664 135.664 0 0 0-17.11 14.207c-4.127 4.114-3.015 6.878.443 9.858.046 1.406 1.032 1.541 2.105 1.56.473 2.221 2.45 3.263 3.913 4.566 4.326 3.853 8.88 7.45 13.35 11.144q4.742 3.92 9.493 7.83a1.45 1.45 0 0 0 1.027.89c3.215 3.02 6.467 6.002 9.636 9.069 5.686 5.501 11.063 11.276 16.243 17.275 3.986 4.615 7.619 9.47 11.309 14.292a169.043 169.043 0 0 1 10.273 15.995 6.959 6.959 0 0 0 2.028 3.887c1.377 1.71 1.929 3.885 2.705 5.82 1.095 2.73 3.192 5.025 3.53 8.06zm-293.624-114.46l.073-8.412c.015-2.99.043-5.98.044-8.97q.005-46.077-.034-92.154c-.003-2.01.238-3.046 2.571-2.267a16.465 16.465 0 0 0 3.487.484c15.388 1.6 30.781 3.158 46.164 4.804 7.913.846 15.733 2.57 23.743 2.495 9.951 2.155 20.157 2.193 30.195 3.622 5.037.53 10.073 1.071 15.112 1.582a4.392 4.392 0 0 0 3.174-1.294c6.026-5.453 11.731-11.258 17.99-16.462.42-.35.89-.772.692-1.35-.231-.68-.917-.343-1.408-.39-.54-.05-1.088-.013-1.632-.011q-55.777.213-111.554.45c-14.74.083-29.557-.572-43.845 4.411-5.93 2.068-11.866 4.149-17.32 7.218A95.8 95.8 0 0 0 94.9 60.078a100.602 100.602 0 0 0-20.91 25.475 91.72 91.72 0 0 0-6.807 15.727 68.475 68.475 0 0 0-4.249 22.782c-.01 43.36-.604 86.72-.206 130.08.036 3.99.131 7.982.083 11.972-.018 1.461.477 1.931 1.892 1.755 1.888-.234 3.79-.379 5.689-.513 23.419-1.651 46.836-3.336 70.262-4.879 2.637-.174 3.303-1.116 3.293-3.614-.077-20.776-.037-41.552-.032-62.328l-.006-7.152zm238.007-46.063c-.11-.188-.288-.488-.462-.79-1.736-3-3.427-6.026-5.218-8.994-3.465-5.74-7.033-11.42-10.473-17.175-4.811-8.05-9.451-16.206-14.339-24.21-4.34-7.107-8.96-14.042-13.373-21.106-2.33-3.73-3.15-4.086-6.907-1.632-4.27 2.79-8.66 5.383-12.868 8.283a199.426 199.426 0 0 0-20.43 15.986c-11.733 10.569-23.054 21.454-31.973 34.66a168.826 168.826 0 0 0-13.809 23.613 116.252 116.252 0 0 0-9.315 27.708 101.462 101.462 0 0 0 2.11 47.043c.776 2.722 2.03 5.192 2.883 7.828a83.213 83.213 0 0 0 7.45 16.208 121.766 121.766 0 0 0 11.688 17.134c2.345 2.793 4.35 5.931 6.985 8.407 3.647 3.428 7.203 6.966 10.826 10.412 5.61 5.337 11.742 10.008 17.59 15.034 3.981 3.422 8.293 6.496 12.016 10.173 3.622 3.577 7.383 7.023 10.784 10.855 5.417 6.103 10.366 12.361 13.312 20.141 3.257 8.603 1.753 16.54-3.322 23.583-7.545 10.47-18.194 17.415-29.304 23.62-4.131 2.307-8.366 4.429-12.537 6.667-.82.44-1.47.93-.854 2.14 1.097 2.159 1.97 4.43 2.985 6.63q3.728 8.074 7.5 16.127c2.68 5.746 5.333 11.504 8.058 17.228 2.697 5.664 5.7 11.195 8.142 16.965 2.306 5.449 5.465 10.463 7.667 15.946.506 1.26 1.421 1.202 2.444.691 3.43-1.715 6.908-3.343 10.278-5.17q7.263-3.935 14.393-8.116a158.378 158.378 0 0 0 18.264-12.22 189.225 189.225 0 0 0 21.79-20.065 135.332 135.332 0 0 0 15.314-20.17 94.277 94.277 0 0 0 8.633-18.226 96.757 96.757 0 0 0 5.671-25.829c1.088-15.437.157-30.602-5.07-45.242a127.167 127.167 0 0 0-12.075-25.193 164.105 164.105 0 0 0-17.37-23.195c-6.58-7.22-13.495-14.058-20.621-20.734-6.647-6.228-13.873-11.732-20.74-17.675-7.737-6.695-15.319-13.475-20.143-22.84-3.926-7.622-3.501-16.383 1.673-23.138a99.78 99.78 0 0 1 18.799-18.404c10.306-7.892 21.405-14.627 32.542-21.276.644-.385 1.281-.677 1.406-1.682zM166.9 198.68h-.086q0 61.781-.008 123.562a22.695 22.695 0 0 1-.431 6.486c-1.728 5.844-3.268 11.734-6.569 17.016-4.122 6.597-8.73 9.992-17.093 9.169a9.02 9.02 0 0 1-6.075-3.433 27.029 27.029 0 0 1-4.7-8.951c-2.607-7.218-3.697-14.692-4.314-22.285-.859-10.579-.9-21.19-1.354-31.784-.084-1.97-.54-2.558-2.655-2.34-8.744.903-17.507 1.638-26.272 2.334q-21.537 1.708-43.086 3.268c-2.07.151-2.784 1.073-2.716 3.095.463 13.76 1.324 27.489 3.158 41.14.349 2.595 1.158 5.126 1.58 7.714a128.773 128.773 0 0 0 8.1 28.358 110.029 110.029 0 0 0 9.406 18.41c3.969 6.088 9.071 11.065 14.123 16.189a67.437 67.437 0 0 0 17.767 12.79 81.149 81.149 0 0 0 23.088 7.636 103.46 103.46 0 0 0 53.163-4.264c2.323-.826 4.374-2.088 6.615-2.98a58.833 58.833 0 0 0 12.949-7.453 112.089 112.089 0 0 0 14.416-13.13 97.69 97.69 0 0 0 15.447-21.567 106.073 106.073 0 0 0 10.542-28.451c1.441-6.906 3.142-13.802 3.225-20.882.32-27.39.472-54.783.731-82.175a8.453 8.453 0 0 0-1.61-5.03c-2.655-3.928-5.407-7.814-7.725-11.938a135.785 135.785 0 0 1-10.29-22.139 124.003 124.003 0 0 1-6.299-25.963 131.934 131.934 0 0 1 2.122-45.9c.68-2.913 1.651-5.722 2.309-8.611 1.652-7.26 4.842-13.942 7.924-20.601a127.212 127.212 0 0 1 10.473-18.47c1.636-2.388 3.151-5.025 3.027-8.207-.07-1.789-.552-2.837-2.58-3.002-8.037-.655-16.02-1.805-24.028-2.74-15.649-1.828-31.33-3.382-46.986-5.148-4.775-.538-4.803-.686-4.846 4.292-.164 19.044-.364 38.087-.424 57.131-.073 22.952-.017 45.903-.017 68.854zm101.831 70.215a5.803 5.803 0 0 0-.576 3.308c-.224 14.961-.215 29.93-.722 44.88-.35 10.306-.31 20.68-2.481 30.854-.128.596-.462 1.338.163 1.755.468.312 1.003-.168 1.5-.383a85.192 85.192 0 0 0 8.403-3.634c6.988-3.975 14.458-6.978 21.39-11.103a76.18 76.18 0 0 0 17.85-14.027c1.297-1.428 3.243-3.135 1.902-5.67a51.025 51.025 0 0 0-3.054-5.35 76.88 76.88 0 0 0-10.221-11.455c-3.493-3.352-7.048-6.64-10.758-9.783-4.203-3.561-8.66-6.813-12.731-10.542-3.375-3.09-7.04-5.864-10.665-8.85z"/><path d="M381.84 108.703c-.125 1.005-.762 1.297-1.406 1.682-11.137 6.649-22.236 13.384-32.542 21.276a99.78 99.78 0 0 0-18.799 18.404c-5.174 6.755-5.599 15.516-1.673 23.138 4.824 9.365 12.406 16.145 20.142 22.84 6.868 5.943 14.093 11.447 20.74 17.675 7.127 6.676 14.041 13.513 20.622 20.734a164.105 164.105 0 0 1 17.37 23.195 127.167 127.167 0 0 1 12.075 25.193c5.227 14.64 6.158 29.805 5.07 45.242a96.757 96.757 0 0 1-5.671 25.829 94.277 94.277 0 0 1-8.633 18.227 135.332 135.332 0 0 1-15.314 20.17 189.225 189.225 0 0 1-21.79 20.064 158.378 158.378 0 0 1-18.264 12.22q-7.122 4.186-14.393 8.117c-3.37 1.826-6.848 3.454-10.278 5.17-1.023.51-1.938.569-2.444-.692-2.202-5.483-5.36-10.497-7.667-15.946-2.442-5.77-5.445-11.301-8.142-16.965-2.725-5.724-5.378-11.482-8.057-17.228q-3.759-8.06-7.5-16.127c-1.017-2.2-1.89-4.471-2.986-6.63-.616-1.21.035-1.7.854-2.14 4.17-2.238 8.406-4.36 12.537-6.668 11.11-6.204 21.759-13.15 29.304-23.62 5.075-7.041 6.58-14.979 3.322-23.582-2.946-7.78-7.895-14.039-13.312-20.141-3.401-3.832-7.162-7.278-10.784-10.855-3.723-3.677-8.035-6.75-12.016-10.173-5.848-5.026-11.98-9.697-17.59-15.034-3.623-3.446-7.179-6.984-10.826-10.412-2.635-2.476-4.64-5.614-6.985-8.407a121.766 121.766 0 0 1-11.688-17.134 83.213 83.213 0 0 1-7.45-16.208c-.854-2.636-2.107-5.106-2.883-7.828a101.462 101.462 0 0 1-2.11-47.043 116.252 116.252 0 0 1 9.315-27.708 168.826 168.826 0 0 1 13.81-23.613c8.918-13.206 20.239-24.091 31.972-34.66A199.426 199.426 0 0 1 318.2 43.08c4.209-2.9 8.597-5.494 12.868-8.283 3.758-2.454 4.577-2.098 6.907 1.632 4.412 7.064 9.033 14 13.373 21.106 4.888 8.004 9.528 16.16 14.34 24.21 3.439 5.756 7.007 11.435 10.472 17.175 1.79 2.967 3.482 5.995 5.218 8.995.174.301.352.6.462.789z" class="cls-2"/><path d="M166.9 198.68c0-22.95-.055-45.902.018-68.854.06-19.044.26-38.087.424-57.131.043-4.978.071-4.83 4.846-4.292 15.656 1.766 31.337 3.32 46.986 5.148 8.008.935 15.991 2.085 24.029 2.74 2.027.165 2.51 1.213 2.58 3.002.123 3.182-1.392 5.819-3.028 8.208a127.212 127.212 0 0 0-10.473 18.469c-3.082 6.66-6.272 13.34-7.924 20.6-.658 2.89-1.63 5.7-2.309 8.611a131.934 131.934 0 0 0-2.122 45.901 124.003 124.003 0 0 0 6.299 25.963 135.785 135.785 0 0 0 10.29 22.139c2.318 4.124 5.07 8.01 7.725 11.937a8.453 8.453 0 0 1 1.61 5.031c-.259 27.392-.411 54.785-.731 82.175-.083 7.08-1.784 13.976-3.225 20.882a106.073 106.073 0 0 1-10.542 28.45 97.69 97.69 0 0 1-15.447 21.569 112.089 112.089 0 0 1-14.416 13.13 58.833 58.833 0 0 1-12.95 7.451c-2.24.893-4.29 2.155-6.614 2.981a103.46 103.46 0 0 1-53.163 4.264 81.149 81.149 0 0 1-23.088-7.635 67.437 67.437 0 0 1-17.767-12.791c-5.052-5.124-10.154-10.101-14.123-16.19a110.029 110.029 0 0 1-9.406-18.409 128.773 128.773 0 0 1-8.1-28.358c-.422-2.588-1.231-5.119-1.58-7.714-1.834-13.651-2.695-27.38-3.158-41.14-.068-2.022.646-2.944 2.716-3.095q21.548-1.574 43.086-3.268c8.765-.696 17.528-1.431 26.272-2.334 2.114-.218 2.57.37 2.655 2.34.453 10.594.495 21.205 1.354 31.784.617 7.593 1.707 15.067 4.315 22.285a27.029 27.029 0 0 0 4.699 8.951 9.02 9.02 0 0 0 6.075 3.433c8.363.823 12.971-2.572 17.093-9.169 3.3-5.282 4.84-11.172 6.569-17.016a22.695 22.695 0 0 0 .431-6.486q.016-61.78.008-123.562z" class="cls-2"/><path fill="#fbd258" d="M143.915 196.534c-.005 20.777-.045 41.553.032 62.33.01 2.497-.656 3.44-3.293 3.613-23.426 1.543-46.843 3.228-70.262 4.88-1.9.133-3.8.278-5.69.512-1.414.176-1.91-.294-1.891-1.755.048-3.99-.047-7.981-.084-11.972-.397-43.36.197-86.72.207-130.08a68.475 68.475 0 0 1 4.25-22.782 91.72 91.72 0 0 1 6.806-15.727A100.602 100.602 0 0 1 94.9 60.078a95.8 95.8 0 0 1 16.387-11.556c5.453-3.069 11.39-5.15 17.32-7.218 14.287-4.982 29.104-4.328 43.844-4.411q55.776-.318 111.554-.45c.544-.002 1.092-.04 1.632.012.49.046 1.177-.29 1.408.389.197.578-.273 1-.693 1.35-6.258 5.204-11.963 11.01-17.989 16.462a4.392 4.392 0 0 1-3.174 1.294c-5.039-.51-10.075-1.052-15.112-1.582-1.823-.513-2.437-1.689-2.195-3.557.173-1.338-.151-2.748.074-4.071.724-4.263-3.921-8.689-8.389-8.68-6.018.011-10.017 3.496-12.728 8.212-1.719 2.989-3.228 5.14-6.957 4.474-8.01.075-15.83-1.65-23.743-2.495-15.383-1.646-30.776-3.203-46.164-4.804a16.465 16.465 0 0 1-3.487-.484c-2.333-.779-2.574.258-2.571 2.267q.077 46.077.034 92.155c0 2.99-.029 5.98-.044 8.969-.168 1.975-1.546 2.529-3.218 3.004-7.143 2.031-11.854 6.975-14.92 13.43-3.19 6.71-3.597 13.904-2.55 21.202a7.765 7.765 0 0 0 1.067 3.005c3.626 6.036 9.1 8.697 15.926 9.05 1.244.064 2.547-.252 3.704.49zm-25.296-92.677c-.218-1.888-.033-3.572-.631-4.904-2.789-6.214-14.339-9.55-20.204-5.965-7.598 4.644-11.387 11.83-12.925 20.253a11.623 11.623 0 0 0 12.33 13.848 16.015 16.015 0 0 0 9.112-2.916c6.947-5.197 11.459-11.804 12.318-20.316zm6.823 133.863a3.212 3.212 0 0 0-1.291-2.773c-3.305-2.974-7.133-2.35-10.738-1.534-3.583.81-4.317 3.78-2.24 6.927 1.227 1.858 5.854 3.282 8.484 2.61 5.168-1.318 5.777-1.844 5.785-5.23zm-51.869-17.897c-.062-1.697-1.305-2.956-2.62-2.654-2.776.636-5.877 4.518-5.862 7.338a2.458 2.458 0 0 0 3.49 2.443c2.366-.82 5.08-4.695 4.992-7.127zm355.62 31.636a169.043 169.043 0 0 0-10.273-15.995c-3.69-4.822-7.323-9.677-11.309-14.292-5.18-6-10.557-11.774-16.243-17.275-3.17-3.067-6.421-6.05-9.636-9.07a5.783 5.783 0 0 0 3.61-2.256c1.093-1.258 2.029-1.382 3.479-.465a13.664 13.664 0 0 0 5.654 1.683c7.212.957 17.606-5.469 20.557-13.736 1.834-5.14.94-10.637-3.344-13.985-5.05-3.947-10.614-5.139-16.734-2.574-1.404.588-2.715.82-3.536-1.125-2.884-6.832-7.979-10.626-15.5-11.035a21.578 21.578 0 0 0-17.801 7.277c-2.848 3.037-4.156 6.841-6.273 10.228-3.458-2.981-4.57-5.745-.443-9.859a135.664 135.664 0 0 1 17.11-14.207c6.569-4.694 13.406-8.983 20.362-13.007 7.28-4.21 14.486-8.602 22.1-12.232 3.283-1.565 3.244-2.013 1.375-5.086-4.18-6.87-8.175-13.851-12.316-20.746-3.501-5.83-7.123-11.59-10.652-17.404-3.568-5.878-7.083-11.788-10.63-17.679q-5.038-8.366-10.102-16.718c-.183-.303-.635-.518-.68-.818-.19-1.23-1.368-2.518-.699-3.58.716-1.135 2.143-.235 3.244-.073a117.22 117.22 0 0 1 24.851 6.316 51.668 51.668 0 0 1 10.008 5.146c4.156 2.74 8.547 5.152 12.342 8.392 2.765 2.362 5.238 5.064 7.894 7.557a80.978 80.978 0 0 1 13.193 15.984 86.742 86.742 0 0 1 8.204 16.897 103.833 103.833 0 0 1 5.181 21.001 151.394 151.394 0 0 1 .925 20.622q.024 92.376-.004 184.753c-.003 10.513.063 21.076-2.33 31.373a80.84 80.84 0 0 1-5.566 16.632 93.188 93.188 0 0 1-15.232 23.29 99.048 99.048 0 0 1-17.426 15.392c-3.288 2.212-6.868 3.885-10.065 6.195a1.902 1.902 0 0 1-2.054.223c2.82-3.012 5.553-5.865 8.213-8.784a157.41 157.41 0 0 0 12.616-15.342c2.837-4.034 5.703-8.036 8.13-12.328a108.87 108.87 0 0 0 8.055-16.614h1.89c.298 1.206.818 2.3 2.265 2.18 2.89-.24 6.499-4.572 6.34-7.482a2.298 2.298 0 0 0-3.427-2.033 14.008 14.008 0 0 0-4.033 3.02l-.96.019c.075-3.129 1.568-5.925 2.459-8.793 4.507-14.508 5.211-29.346 4.473-44.312-.383-7.773-2.125-15.386-4.132-22.91q-1.253-4.694-2.485-9.394c.941-.327 1.31-1.143 1.752-1.942a59.494 59.494 0 0 0 3.916-9.748c1.265-3.7 1.419-7.354-1.78-10.21-2.643-2.36-5.922-2.353-9.186-1.655a16.144 16.144 0 0 1-5.347.584zm-.635-155.682c1.532.334 3.06-.514 4.683-1.05a3.77 3.77 0 0 0 2.99-3.394 4.4 4.4 0 0 0-2.162-4.38 11.602 11.602 0 0 0-10.636-.661 3.452 3.452 0 0 0-2.492 3.448c.092 3.589 2.871 6.013 7.617 6.037zM268.731 268.895c3.625 2.986 7.29 5.76 10.665 8.85 4.072 3.729 8.528 6.98 12.731 10.542 3.71 3.144 7.265 6.43 10.758 9.783a76.88 76.88 0 0 1 10.22 11.454 51.025 51.025 0 0 1 3.055 5.35c1.341 2.537-.605 4.243-1.902 5.671a76.18 76.18 0 0 1-17.85 14.027c-6.932 4.125-14.402 7.128-21.39 11.103a85.192 85.192 0 0 1-8.402 3.634c-.498.215-1.033.695-1.5.383-.626-.416-.292-1.159-.164-1.755 2.172-10.175 2.131-20.548 2.48-30.854.508-14.95.5-29.919.723-44.88a5.803 5.803 0 0 1 .576-3.308zm14.16 31.99c-.442-.952-.163-2.893-2.404-2.5-2.575.45-5.905 4.316-6.104 6.945a2.646 2.646 0 0 0 3.802 2.648c2.773-1.386 4.267-3.756 4.705-7.093zm-39.577 126.799h-22.168l-.594-.525a127.059 127.059 0 0 0 42.35-69.718c4.256 7.152 7.024 14.007 10.304 20.608 2.84 5.715 5.437 11.54 8.239 17.27 3.57 7.302 6.781 14.778 10.188 22.16 1.166 2.528 2.42 5.017 3.698 7.49.726 1.402.968 2.323-1.17 2.338-5.886.041-11.771.178-17.658.278-3.361.262-4.105-1.558-3.563-4.442a5.87 5.87 0 0 0-.016-1.352 7.204 7.204 0 0 0-5.681-6.34c-4.783-.673-9.006.847-13.053 3.264-4.094 2.444-7.292 5.93-10.876 8.969z"/><path d="M380.705 193.937l-9.494-7.829c-4.468-3.693-9.023-7.29-13.35-11.144-1.463-1.303-3.439-2.345-3.912-4.567.928-1.538 1.612-3.218 2.485-4.76 2.18-3.844 4.188-8.346 9.467-8.463 9.208-.203 18.448-.058 23.44 9.908.62 1.237 1.526 1.28 2.717.743 3.847-1.732 7.319-.663 10.254 1.948a8.826 8.826 0 0 1 2.57 10.526c-1.076 2.795-3.089 4.825-5.14 6.843-4.343 4.276-7.214 4.307-11.739.177-.78-.712-1.47-.942-2.28.026-1.772 2.124-3.968 3.92-5.018 6.592zm-236.872-39.171l.076 34.617c-.2.877-.39 1.755-.6 2.63a1.558 1.558 0 0 1-1.695 1.407c-6.522-.253-16.307-4.212-16.266-14.03.021-5.081.444-10.085 2.527-14.58 3.866-8.346 6.438-11.552 15.958-10.044z" class="cls-4"/><path d="M380.705 193.937c1.05-2.673 3.246-4.468 5.019-6.592.808-.968 1.5-.738 2.28-.026 4.524 4.13 7.395 4.099 11.738-.177 2.051-2.018 4.063-4.048 5.14-6.843a8.826 8.826 0 0 0-2.57-10.526c-2.935-2.61-6.407-3.68-10.254-1.948-1.19.536-2.097.494-2.717-.743-4.992-9.966-14.232-10.11-23.44-9.908-5.28.117-7.287 4.619-9.467 8.464-.873 1.54-1.557 3.221-2.485 4.759-1.073-.018-2.059-.153-2.105-1.558 2.117-3.387 3.425-7.191 6.273-10.228a21.578 21.578 0 0 1 17.8-7.277c7.522.409 12.617 4.203 15.5 11.035.822 1.946 2.133 1.713 3.537 1.125 6.12-2.565 11.684-1.373 16.734 2.574 4.284 3.348 5.178 8.845 3.344 13.985-2.951 8.267-13.345 14.693-20.557 13.736a13.664 13.664 0 0 1-5.654-1.683c-1.45-.917-2.386-.793-3.48.465a5.783 5.783 0 0 1-3.609 2.257 1.45 1.45 0 0 1-1.027-.89zm20.549-27.564c4.757 2.395 7.07 6.017 7.561 10.524.505 4.635-2.905 7.86-5.689 12.014 8.117-6.444 10.893-12.551 8.445-17.673-1.332-2.787-6.561-5.468-10.317-4.865zm-19.45-10.003c-3.56-2.171-7.085-1.677-11.105-1.635a33.833 33.833 0 0 0 5.471 1.26c1.76.098 3.442 1.017 5.635.375z" class="cls-5"/><path d="M219.881 50.746c3.729.666 5.238-1.485 6.957-4.474 2.71-4.716 6.71-8.2 12.728-8.212 4.468-.009 9.113 4.417 8.389 8.68-.225 1.323.099 2.733-.074 4.071-.242 1.868.372 3.044 2.195 3.557-10.038-1.429-20.244-1.467-30.195-3.622z" class="cls-4"/><path d="M143.833 154.766c-9.52-1.508-12.092 1.698-15.958 10.043-2.083 4.496-2.506 9.5-2.527 14.58-.041 9.819 9.744 13.778 16.266 14.03a1.558 1.558 0 0 0 1.695-1.406c.21-.875.4-1.753.6-2.63l.006 7.152c-1.157-.742-2.46-.426-3.704-.49-6.826-.353-12.3-3.014-15.926-9.05a7.765 7.765 0 0 1-1.067-3.005c-1.047-7.298-.64-14.493 2.55-21.202 3.066-6.455 7.777-11.399 14.92-13.43 1.672-.476 3.05-1.03 3.218-3.004l-.073 8.412zm285.36 96.693a16.144 16.144 0 0 0 5.347-.584c3.264-.698 6.543-.706 9.186 1.654 3.199 2.857 3.045 6.51 1.78 10.211a59.494 59.494 0 0 1-3.916 9.748c-.442.799-.81 1.615-1.752 1.942a8.935 8.935 0 0 1-2.381-5.204 13.971 13.971 0 0 0 .287-12.292 4.104 4.104 0 0 0-6.523-1.588 6.959 6.959 0 0 1-2.028-3.887zm12.659 13.298a16.927 16.927 0 0 0 1.376-5.636c.139-2.083-.927-3.584-2.318-4.916a1.323 1.323 0 0 0-1.498-.345c-.664.37-.256.981-.01 1.401 1.643 2.795 1.846 5.971 2.45 9.496zM243.314 427.684c3.584-3.038 6.782-6.525 10.876-8.97 4.047-2.416 8.27-3.936 13.053-3.262a7.204 7.204 0 0 1 5.681 6.339 5.87 5.87 0 0 1 .016 1.352c-.542 2.884.202 4.704 3.563 4.442-2.315.263-4.642.749-6.892-.34 1.487-4.886.243-7.911-3.605-8.376.906 2.854 2.76 5.36 2.644 8.444a4.238 4.238 0 0 1-3.885.285c2.268-.874 1.245-2.59.752-3.853-.748-1.919-1.28-4.34-4.133-4.245-5.5.184-8.88 3.794-12.495 7.488l2.425.736a46.421 46.421 0 0 1-8-.04z" class="cls-5"/><path d="M251.314 427.724l-2.425-.736c3.615-3.694 6.995-7.304 12.495-7.488 2.853-.095 3.385 2.326 4.133 4.245.493 1.264 1.516 2.979-.752 3.853l-13.45.126zm179.907-172.378a4.104 4.104 0 0 1 6.523 1.588 13.971 13.971 0 0 1-.287 12.292c-.339-3.035-2.436-5.33-3.53-8.06-.777-1.935-1.33-4.11-2.706-5.82zM268.65 427.313c.117-3.084-1.738-5.59-2.644-8.444 3.848.465 5.092 3.49 3.605 8.376l-.96.068zm170.688-63.177h-1.89l2.074-4.297.961-.019a8.19 8.19 0 0 0-1.145 4.316z" class="cls-4"/><path d="M118.619 103.857c-.86 8.512-5.371 15.119-12.318 20.317a16.015 16.015 0 0 1-9.113 2.915 11.623 11.623 0 0 1-12.33-13.848c1.54-8.423 5.328-15.61 12.926-20.253 5.865-3.585 17.415-.249 20.204 5.965.598 1.332.413 3.016.63 4.904zm-8.735 1.814a14.45 14.45 0 0 0-.616-3.602c-1.332-4.842-10.183-7.854-14-4.54a22.337 22.337 0 0 0-8.003 18.726c.168 3.49 2.59 7.027 5.411 7.665 4.094.927 8.601 1.77 11.517-2.11a26.762 26.762 0 0 0 5.691-16.14zm1.95 8.725c2.597-4.2 5.118-8.517 3.301-13.737-1.191-3.423-4.324-4.63-7.492-5.784 6.034 5.577 6.367 12.212 4.191 19.521z" class="cls-5"/><path d="M125.442 237.72c-.008 3.386-.617 3.912-5.785 5.23-2.63.672-7.257-.752-8.484-2.61-2.077-3.147-1.343-6.118 2.24-6.927 3.605-.815 7.433-1.44 10.738 1.534a3.212 3.212 0 0 1 1.291 2.773z" class="cls-4"/><path d="M73.573 219.823c.089 2.432-2.626 6.308-4.993 7.127a2.458 2.458 0 0 1-3.489-2.443c-.015-2.82 3.086-6.702 5.861-7.338 1.316-.302 2.56.956 2.621 2.654zm-5.744 4.33c2.297-1.042 2.93-2.56 1.929-4.69-1.028 1.378-2.467 2.434-1.93 4.69z" class="cls-5"/><path d="M428.558 95.777c-4.746-.024-7.525-2.448-7.617-6.037a3.452 3.452 0 0 1 2.492-3.448 11.602 11.602 0 0 1 10.636.661 4.4 4.4 0 0 1 2.162 4.38 3.77 3.77 0 0 1-2.99 3.393c-1.623.537-3.151 1.385-4.683 1.051z" class="cls-4"/><path d="M439.338 364.136a8.189 8.189 0 0 1 1.145-4.315 14.003 14.003 0 0 1 4.033-3.02 2.298 2.298 0 0 1 3.427 2.032c.159 2.91-3.45 7.242-6.34 7.483-1.447.12-1.967-.975-2.265-2.18zm2.706-.055a6.404 6.404 0 0 0 2.762-5.457c-2.49 1.271-3.707 2.691-2.762 5.457zM282.89 300.885c-.438 3.337-1.932 5.707-4.705 7.093a2.646 2.646 0 0 1-3.802-2.648c.2-2.63 3.53-6.494 6.104-6.945 2.24-.393 1.962 1.548 2.403 2.5zm-6.268 5.29c2.185-1.758 3.892-2.942 3.096-5.74-2.008 1.207-2.542 2.98-3.096 5.74z" class="cls-5"/><path d="M401.254 166.373c3.756-.603 8.985 2.078 10.317 4.865 2.448 5.122-.328 11.229-8.445 17.673 2.784-4.154 6.194-7.38 5.69-12.014-.491-4.507-2.805-8.13-7.562-10.524zm-19.449-10.003c-2.193.642-3.874-.277-5.635-.375a33.833 33.833 0 0 1-5.471-1.26c4.02-.042 7.545-.536 11.106 1.635zm60.047 108.387c-.604-3.525-.807-6.7-2.45-9.496-.246-.42-.654-1.03.01-1.4a1.323 1.323 0 0 1 1.498.344c1.39 1.332 2.457 2.833 2.318 4.916a16.927 16.927 0 0 1-1.376 5.636zM109.884 105.67a26.762 26.762 0 0 1-5.69 16.14c-2.917 3.88-7.424 3.037-11.518 2.11-2.821-.638-5.243-4.176-5.411-7.665a22.337 22.337 0 0 1 8.003-18.726c3.817-3.314 12.668-.302 14 4.54a14.45 14.45 0 0 1 .616 3.602z" class="cls-4"/><path d="M111.834 114.396c2.176-7.31 1.843-13.944-4.191-19.521 3.168 1.153 6.3 2.36 7.492 5.784 1.817 5.22-.704 9.538-3.3 13.737zM67.829 224.153c-.538-2.256.9-3.312 1.929-4.69 1 2.13.368 3.648-1.93 4.69zm374.215 139.928c-.945-2.766.272-4.186 2.762-5.457a6.404 6.404 0 0 1-2.762 5.457zm-165.422-57.906c.554-2.76 1.088-4.533 3.096-5.74.796 2.798-.911 3.982-3.096 5.74z" class="cls-4"/><path d="M24.784 530.782v1.506q.166 7.573 1.56 10.651 1.393 3.08 5.97 3.078 4.534 0 5.99-3.366a18.363 18.363 0 0 0 .874-6.732v-45.663H52.82v45.442q0 8.326-2.816 13.198-4.763 8.238-17.192 8.238-12.43 0-16.673-6.666-4.243-6.665-4.243-18.18v-1.506zm72.914-22.542a19.644 19.644 0 0 1 8.343 7.142 23.735 23.735 0 0 1 3.846 9.982 61.714 61.714 0 0 1 .416 9.581h-35.16q.293 7.264 5.047 10.186a12.821 12.821 0 0 0 6.96 1.816 9.802 9.802 0 0 0 9.607-5.536h12.887q-.51 4.296-4.68 8.725-6.486 7.042-18.162 7.042a26.316 26.316 0 0 1-17.005-5.94q-7.366-5.939-7.366-19.327 0-12.544 6.65-19.238 6.65-6.693 17.264-6.694a27.489 27.489 0 0 1 11.353 2.262zm-18.883 10.905a13.116 13.116 0 0 0-3.363 7.473H97.2q-.345-5.026-3.363-7.628a11.06 11.06 0 0 0-7.486-2.603q-4.86 0-7.535 2.758zm64.689-13.012c.162.016.524.039 1.085.067v12.933q-1.196-.133-2.126-.177-.93-.044-1.505-.044-7.618 0-10.231 4.96-1.462 2.79-1.462 8.593v23.075h-12.711v-48.277H128.6v8.415a26.715 26.715 0 0 1 5.093-6.6 13.868 13.868 0 0 1 9.212-2.966c.237 0 .436.008.598.021zm35.3 0c.161.016.524.039 1.085.067v12.933q-1.196-.133-2.126-.177-.93-.044-1.506-.044-7.618 0-10.231 4.96-1.462 2.79-1.462 8.593v23.075h-12.711v-48.277H163.9v8.415a26.715 26.715 0 0 1 5.093-6.6 13.868 13.868 0 0 1 9.213-2.966c.236 0 .435.008.598.021zm10.386 58.664l1.594.088a19.948 19.948 0 0 0 3.543-.133 6.355 6.355 0 0 0 2.835-1.019 6.819 6.819 0 0 0 2.06-3.144 7.596 7.596 0 0 0 .82-2.923l-17.74-50.403h14.04l10.542 35.61 9.965-35.61h13.42l-16.55 47.48q-4.799 13.728-7.592 17.03-2.793 3.298-11.173 3.299-1.685 0-2.705-.023-1.02-.022-3.06-.155zm59.393-29.41a13.249 13.249 0 0 0 2.486 6.689q3.393 4.03 11.622 4.03a24.999 24.999 0 0 0 8.005-1.063q5.833-2.037 5.833-7.574a5.58 5.58 0 0 0-2.857-5.005 31.004 31.004 0 0 0-9.064-3.055l-7.068-1.55q-10.42-2.304-14.316-5.006-6.601-4.517-6.6-14.128a18.766 18.766 0 0 1 6.456-14.572q6.457-5.8 18.966-5.802 10.446 0 17.822 5.47 7.376 5.471 7.734 15.878h-13.11a9.346 9.346 0 0 0-5.266-8.37 18.041 18.041 0 0 0-8.128-1.639 15.472 15.472 0 0 0-8.627 2.125 6.728 6.728 0 0 0-3.224 5.936 5.6 5.6 0 0 0 3.179 5.226q2.042 1.152 8.673 2.701l11.457 2.703q7.532 1.77 11.29 4.738 5.838 4.607 5.837 13.332a18.732 18.732 0 0 1-6.917 14.86q-6.915 5.911-19.54 5.911-12.892 0-20.279-5.824-7.386-5.823-7.386-16.01zm78.527-10.807a11.198 11.198 0 0 0-1.82-4.871q-2.133-2.923-6.615-2.923-6.396 0-8.747 6.333a26.29 26.29 0 0 0-1.243 8.924 24.168 24.168 0 0 0 1.243 8.527q2.264 6.023 8.524 6.023 4.44 0 6.305-2.391A11.89 11.89 0 0 0 327.02 538h12.888a21.108 21.108 0 0 1-4.167 10.895q-5.941 8.282-17.6 8.282-11.66 0-17.158-6.909-5.497-6.91-5.498-17.917 0-12.422 6.074-19.33 6.073-6.91 16.758-6.91 9.09 0 14.874 4.074 5.787 4.075 6.85 14.395zm48.386-18.447q.243.024 1.086.067v12.933q-1.197-.133-2.126-.177a32.35 32.35 0 0 0-1.506-.044q-7.618 0-10.231 4.96-1.462 2.79-1.462 8.593v23.075h-12.711v-48.277h12.047v8.415a26.715 26.715 0 0 1 5.094-6.6 13.867 13.867 0 0 1 9.211-2.966c.237 0 .436.008.598.021zm21.459-4.627h-12.8v-11.649h12.8zm-12.8 5.757h12.8v48.277h-12.8zm65.623 5.182q5.907 6.245 5.907 18.337 0 12.754-5.774 19.443a18.738 18.738 0 0 1-14.866 6.688 15.588 15.588 0 0 1-9.629-2.88 18.591 18.591 0 0 1-4.1-4.65v25.158h-12.49v-67.278h12.091v7.131a20.28 20.28 0 0 1 4.368-4.96 16.121 16.121 0 0 1 10.073-3.234 19.094 19.094 0 0 1 14.42 6.245zm-9.688 9.08q-2.572-4.296-8.345-4.297-6.936 0-9.53 6.511a24.454 24.454 0 0 0-1.343 8.77q0 8.415 4.516 11.826a10.37 10.37 0 0 0 6.355 1.993 9.24 9.24 0 0 0 8.123-4.075q2.797-4.074 2.797-10.852a18.852 18.852 0 0 0-2.573-9.876zm19.536-4.828v-8.991h6.732v-13.464h12.49v13.464h7.84v8.99h-7.84v25.513q0 2.967.754 3.698.753.73 4.605.73.576 0 1.219-.022.641-.022 1.262-.067v9.435l-5.979.22q-8.947.31-12.225-3.099-2.125-2.17-2.126-6.688v-29.72z"/></svg>