<svg xmlns="http://www.w3.org/2000/svg" role="img" viewBox="-21.84 -21.84 808.68 1135.68"><title>libuv logo</title><path fill="#403c3d" stroke-width="1.388" d="M115.623 810.044v50.694h51.913v-50.694zm.192 279.884h51.535V884.974h-51.535zm649.788-204.954l-75.134 204.954h-40.125l-75.527-204.954h53.892l41.695 126.672 41.307-126.672zM557.87 1089.928h-49.96v-18.883c-13.376 14.162-30.426 21.242-51.137 21.242-20.2 0-36.329-6.028-48.39-18.094-13.902-13.897-20.846-33.303-20.846-58.22v-131h51.533v123.918c0 12.855 3.626 22.563 10.884 29.111 5.964 5.51 13.482 8.262 22.552 8.262 9.33 0 16.98-2.752 22.945-8.262 7.252-6.548 10.884-16.256 10.884-29.111V884.974h51.535zM313.745 987.256c0-18.094-1.427-31.077-4.277-38.943-5.189-13.113-15.17-19.67-29.946-19.67-14.784 0-24.765 6.557-29.948 19.67-2.85 7.866-4.277 20.849-4.277 38.943 0 18.096 1.427 31.08 4.277 38.943 5.183 13.378 15.164 20.065 29.948 20.065 14.776 0 24.757-6.687 29.946-20.065 2.85-7.864 4.277-20.847 4.277-38.943zm51.535 0c0 20.981-.922 36.72-2.755 47.207-2.888 17.048-8.92 30.16-18.094 39.334-12.335 12.337-28.98 18.49-49.963 18.49-20.981 0-38.026-7.21-51.137-21.635v19.276h-49.566V809.84h51.532v93.233c12.282-13.633 28.755-20.456 49.405-20.456 20.91 0 37.509 6.164 49.793 18.49 9.15 9.179 15.158 22.292 18.035 39.337 1.834 10.49 2.75 26.098 2.75 46.812zM88.9 1089.928H59.793c-19.67 0-34.881-6.158-45.632-18.487C4.718 1060.689 0 1047.316 0 1031.315V809.84h51.533v218.33c0 12.33 5.966 18.487 17.903 18.487H88.9v43.271"/><g stroke-width="1.067"><path fill="#e9e9e9" fill-rule="evenodd" d="M757.193 380.824c0 208.959-167.626 378.353-374.396 378.353-206.773 0-374.387-169.394-374.387-378.353C8.41 171.854 176.024 2.46 382.797 2.46c206.77 0 374.396 169.394 374.396 378.365"/><path fill="#403c3d" fill-rule="evenodd" d="M747.456 380.824c0 203.523-163.26 368.514-364.659 368.514-201.398 0-364.65-164.991-364.65-368.514 0-203.53 163.252-368.522 364.65-368.522 201.398 0 364.66 164.991 364.66 368.522"/><path fill="#adda1a" d="M743.708 328.306c-2.75-3.254-5.916-6.227-9.75-8.785 1.616 7 6.85 15.215 11.618 23.602-.506-4.978-1.17-9.9-1.868-14.817zm-172.663 322.33c-27.257 2.528-21.144 17.855 12.975 14.592 12.512-1.197 32.83-14.263 51.887-19.254 9.6-9.36 18.736-19.203 27.278-29.57-11.566 6.318-33.37 16.131-54.53 26.29-12.127 5.816-27.317 6.987-37.61 7.942zm175.199-298.633c-3.945-4.805-7.124-12.134-11.377-17.483-.994-1.759-4.545-8.176-8.16-16.092-.3-.795-.579-1.581-1.024-2.38l-.022.03a146.566 146.566 0 0 1-3.015-7.281l-.005-.026a107.576 107.576 0 0 1-2.073-5.894c-3.003-9.502-11.643-25.94-23.825-39.741-.073-.79-.099-1.543.141-2.066l-2.013.048c-6.897-7.441-14.804-13.948-23.436-17.898-25.072-11.464-47.167-23.001-47.167-23.001-.766 6.533 5.462 14.882 9.026 22.215.792 2.886 1.302 5.621 1.35 7.959l-.228-.207c-.338.743-.154 1.948-.038 3.094-.27 1.235-.75 2.268-1.56 2.95-4.198-13.386-11.668-23.934-15.515-35.868-4.125-12.79-7.385-25.114-16.971-34.686-11.982-11.965-34.415-18.507-51.425-25.982-6.511-4.032-12.487-7.886-17.019-11.01l.116-.173c-18.077-14.618-42.66-37.14-68.624-18.91-15.669 11.011-30.88 31.998-49.227 40.904-2.013.99-4.36 2.04-6.858 2.917l-.107.125-.78.164c-1.807.592-3.666 1.072-5.517 1.336-4.776 1.305-8.541 2.748-11.805 4.044-.382.722-1.011.743-1.165.467-6.297 2.489-10.898 4.243-18.03 2.947-4.352-.787-15.554.004-20.215.436 0 0-29.578.022 6.824-4.049a71.64 71.64 0 0 1-3.945-3.197c-19.46 1.56-36.488-5.337-55.897-2.528 2.18 3.547 9.326 2.683 10.726 6.935-14.85 4.96-23.11-16.282-37.862-7.518 2.206 4.096.248 9.268-2.96 12.003 1.242-12.57-15.832-23.2-26.798-13.723 4.155 4.692 4.369 12.47 1.91 18.632l-7.453 8.426c-1.748.73-3.68 1.024-5.788.605 7.171-3.184 12.427-8.957 12.449-15.754.038-12.017-14.616-15.245-26.743-14.904-24.065.687-43.003 11.542-57.332 25.55l.103-.41-8.31 9.057s-25.959 10.954-35.267 40.225c.3-3.608.702-7.696 1.22-12.056 4.194-12.285 10.817-21.458 21.179-28.86-12.294 1.56-29.852 6.715-35.288 23.14-2.553 7.695-5.188 13.438-7.257 26.314l-.124-.146s-4.948 25.343-1.743 39.775c2.784 12.557 6.742 25.481 8.558 33.903a24.59 24.59 0 0 0 .664 3.466c22.93-11.02 54.706-13.888 84.747-18.352-12.542 2.07-30.384 6.974-47.56 11.166-17.14 4.191-41.985 10.716-42.37 26.324-.227 9.173 6.592 17.24 18.154 17.543-1.028-2.238-.947-5.505-.861-8.78-2.386.198-1.975 2.964-3.457 3.988-.887-17.794 29.398-19.613 49.283-23.126 2.703-.476 5.26-1.137 7.787-1.6 9.266-1.637 23.038-.85 37.88-.63 20.403.29 34.783-2.282 53.563 4.818 6.03 2.286 18.736 3.064 24.857 3.725 21.71 2.325 37.859-1.409 64.417.868 10.58.903 21.191 5.03 31.133 9.571 13.785 6.283 24.631 14.079 41.5 9.576 6.1.315 12.234-.843 14.256.315 9.754.878 8.229 8.56 19.469 7.653 13.082-1.05 23.397-9.338 38.912-10.375 12.097-.795 24.84 2.243 38.912.804 9.754-.998 19.418-5.337 27.668-8.768 20.814-8.672 55.04-25.688 57.936-48.642 2.347-18.585-11.545-28.238-31.13-23.14 19.894-10.435 38.24 5.156 38.043 24.73-.055 5.972-4.202 11.386-6.913 18.343-2.729 6.983-2.789 11.875-6.057 15.945-1.632 2.048-3.74 3.76-5.954 5.18-3.817 1.906-9.322 3.505-16.874 5.597-11.15 3.098-21.645 6.404-21.645 6.404-1.713.337-2.381.674-2.497.976-6.867 1.897-15.143 4.701-19.902 8.201-9.166 6.746-23.89 12.074-38.05 9.55-1.312-.238-2.383-.285-3.252-.19-4.652-.614-9.236-1.262-13.746-1.426 0 0-25.762.652-24.305 1.525 1.46.895 1.824.873 1.824.873 9.429 7.514 13.93 20.041 19.024 31.89 5.727 13.33 10.024 27.062 11.244 44.662 3.663-14.277 8.649-27.335 15.1-39.054 8.4-13.91 25.11-35.826 50.804-44.373 9.047-2.865 16.539-7.164 22.287-13.075-7.92 11.87-21.593 16.908-32.855 24.734-23.367 16.22-35.875 40.134-46.691 70.174-2.468 6.844-4.926 13.672-8.645 19.941-3.59 6.02-9.068 11.443-11.244 17.535-1.405 3.928-.844 8.34-1.726 11.97-2.442 10.029-6.657 19.989-12.504 27.87-4.965 5.627-15.237 17.207-17.19 19.005l-.095.155c-13.643 13.36-29.822 24.367-47.175 34.314l.167.354-.934.635-.094-.194c-2.407 1.56-4.575 3.336-6.588 5.25-2.073 1.741-3.817 3.478-4.648 4.896-7.145 8.357-12.636 18.196-20.758 25.736-4.656 4.33-10.157 7.808-15.605 11.395l.038-.134s-6.532 4.463-12.122 7.86c-17.246 8.249-35.057 22.837-61.372 23.152-14.127.156-33.506-.929-39.781-11.974 0 0-3.718-1.784-3.457 6.383.334 10.418 17.593 10.724 26.554 15.058 4.536 2.654-4.395.45-7.526.9 6.888 7.462 10.974 17.513 25.937 17.53 0 0-3.491-3.293-4.69-3.958-1.204-.657.762-1.655 6.12.337 4.396 1.633 10.131 3.107 17.636 3.063.484 0 .955.009 1.46 0a56.61 56.61 0 0 0 3.689-.233s13.292-.073 26.117-5.67c12.834-5.6 27.407-4.126 34.115-9.134 6.708-5.004 11.664-14.722 16.033-16.204 4.378-1.478 10.517-4.896 15.524-10.608 4.267-4.857 10.76-2.113 16.072-7.074 4.836-4.51 37.062-20.659 37.062-20.659 9.578-6.659 15.45-14.467 26.28-19.963 15.703-11.07-21.782 7.782-32.688 12.051-13.558 5.298-1.315-1.862-1.315-1.862l21.957-12.674c6.614-3.27 13.24-6.512 20.005-9.618 4.373-1.88 11.861-5.034 17.708-7.143 11.519-2.943 21.697-2.083 31.403-3.885 10.307-1.905 19.35-6.935 29.399-8.772 1.597-.285 4.305.545 6.057 0 10.91-3.392 21.825-14.116 31.994-19.933 23.457-13.412 40.827-25.99 47.56-55.033 1.581-6.818 2.532-13.72 4.323-20.724 3.817-14.985 6.648-28.717 5.183-48.646-.865-11.844-7.642-24.146-6.914-39.08.686-14.039 10.452-24.72 14.697-37.48 5.072-15.237-4.198-25.923-17.99-31.683l.008-.013s-10.208-4.861-14.14-5.155c-3.937-.298 2.043-1.322 4.664-1.322 2.014 0 3.757-1.4 5.123-3.57 1.56-2.225 2.434-5.349 4.177-7.704 2.45-3.305 8.52-7.838 8.649-11.157.167-4.338-7.197-10.301-11.245-12.769-6.982-4.26-18.252-6.861-27.668-11.165-10.482-4.775-18.038-10.051-23.345-15.146-2.943-7.64-8.49-12.401-7.784-21.536.176-2.316 1.02-4.554 1.774-6.883l.317-.86c.874-2.977 2.077-7.618 0-12.92-2.074-5.306-9.621-6.849-9.621-6.849l-.03.004c-4.091-1.374-8.944-2.208-12.329-3.599-5.341-2.173-9.54-5.099-13.711-7.294 5.187 1.66 11.497 4.334 21.26 5.22 4.309.384 16.397 2.57 18.676 10.327l.24.873.2.774c.1.44.172.885.24 1.335.078.583.164 1.15.176 1.78l.039.903c.043 3.094-.6 6.343-2.043 9.576-5.548 12.423.527 21.825 9.57 26.687 8.554 6.78 21.212 10.504 33.664 15.223 9.947 3.763 21.028 9.307 26.67 15.698 2.93 5.116 4.502 10.747 2.574 16.1-3.084 6.037-10.49 8.664-12.812 16.049 2.913 3.733 8.212 4.559 12.105 7.169 6.045 4.066 10.495 9.523 11.862 17.362l.077.825c.146.933.227 1.867.27 2.813.013.847-.022 1.694-.034 2.54-.72 13.975-11.352 28.42-14.449 35.088-3.495 7.505-2.403 15.244-2.403 15.244.775 3.025 1.56 5.42 2.347 7.282 1.401 4.13 3.012 9.92 4.233 16.748 4.339 9.675 9.034 20.931 11.128 28.558 4.378 15.906 10.5 44.204 1.752 106.96-8.743 62.746-92.418 65.394-117.782 76.011-17.464 7.303 2.04 13.253 35.13 7.065 14.971-2.809 34.316-15.262 52.479-19 7.697-1.585 12.653-2.316 15.46-2.35 49.252-62.829 78.736-142.198 78.736-228.58 0-9.714-.484-19.303-1.212-28.822"/><path fill="#f4f4f4" d="M338.415 131.91c12.105-17.82 11.866-30.953 10.508-44.581-.27-.847.29-.821.98-1.443 23.762 4.874 25.65 28.298 15.452 45.954-4.84 8.357-9.57 12.76-16.994 10.427-6.146-1.936-6.986-6.927-9.946-10.358zm-9.827-11.374c-10.058-2.912-12.97-14.424-17.027-19.181 10.962-11.81 10.332-22.184 9.904-31.656-.107-2.178-.497-4.598.372-6.745 2.048.172 5.638.7 8.572 2.273 13.343 7.12 18.865 32.598 11.107 47.574-3.328 6.422-6.7 9.541-12.928 7.735zm-21.216-23.913c-9.06-4.593-14.153-10.716-16.514-17.668-1.388-4.07-2.454-4.563-1.516-9.62 2.018-10.914 2.694-22.957-.004-31.625l.65-.32c26.148 9.308 41.149 26.907 17.384 59.233zm68.692 9.282c.184-.484.608-.406 1.04-.302 8.323 3.707 17.08 9.934 21.337 16.675 8.092 12.79 10.49 32.023 3.748 47.484-2.994.695-4.922 1.391-7.333 2.255-.411.108-.84.23-1.255.38l-2.245.83-.227.095-.356.117.026.009c-.98.432-1.662.76-1.662.76-3.178 1.642-6.515 2.619-9.69 3.172-19.657-4.26-25.59-26.903-25.59-26.903 18.364-8.154 28.743-31.648 22.207-44.572zm37.717 31.185c7.235 3.803 12.067 9.018 14.855 14.951-.895.787-1.812 1.595-2.75 2.411a19.704 19.704 0 0 0-5.196-6.23c1.015 2.98 1.598 6.031 1.812 9.169a1214.667 1214.667 0 0 1-3.894 3.34c-1.126 2.182-4.579 5.064-8.991 6.952 3.5-10.738 3.92-22.14 4.164-30.593zM280.17 67.906c-3.757-2.49-6.683-5.48-8.794-8.777-1.671-2.618-4.018-6.905-3.513-10.426.347-2.424 2.249-5.674 3.217-8.387 2.78-7.787 3.868-14.813 1.688-20.4 15.896 7.07 18.39 24.833 7.402 47.99zm-30.44-46.37c1.83-2.005 3.243-2.999 4.396-5.042 1.893-3.362.004-5.07 1.01-7.109 17.08 2.226 18.548 14.346 11.176 31.536-11.381-3.89-14.414-11.577-16.581-19.385zm-6.943-18.485c5.945 1.668 12.59 5.081 6.254 15.283-3.89-4.2-5.209-9.744-6.254-15.283"/><path fill="#f6836c" d="M339.199 448.25c-10.255-2.147-18.728.834-27.668 2.386-5.946 1.015-14.239 3.452-17.85-.307-1.52-1.82-.308-3.682-.308-3.682 3.414-8.525 13.348-13.546 21.615-15.949 25.937-7.544 51.065 6.322 76.094 7.972 32.255 2.135 55.383-9.164 71.767-20.732 4.31-3.042 10.011-10.44 17.302-5.583-3.106 6.508-11.339 10.79-18.163 14.355-11.947 6.235-22.544 11.693-36.316 15.154 23.209-3.587 39.705-13.357 57.07-22.336 2.125 4.511 4.515 13.555 6.087 21.217l.219-.026s1.58 4.29 1.114 8.482c.06 2-.339 3.72-1.752 4.667a7.424 7.424 0 0 1-1.765 1.659c-6.34 4.196-25.15 13.482-40.236 14.584-.497.025-.977.09-1.47.142l-1.109.316-.034-.212c-13.682 1.603-22.532 7.302-5.037 4.394 17.51-2.916 55.005-9.36 41.345-4.178l.047-.005c-17.057 6.733-39.435 13.327-61.397 11.166-14.196-1.391-28.88-8.43-41.504-15.154-12.61-6.71-24.57-15.534-38.051-18.33"/><path fill="#f4f4f4" d="M252.336 620.082c1.748-.96 2.129 3.107 3.551 8.201 1.427 5.138 8.499 15.69 8.499 15.69 1.006 2.174-2.857 4.317-5.792 5.298-2.895.98-2.895-.471-2.895-.471s-5.24-7.562-6.049-14.61c-.822-6.97.955-13.188 2.686-14.108zm17.408-.782c2.01-1.093 2.434 3.539 4.048 9.346 1.62 5.83 9.711 17.838 9.711 17.838 1.148 2.463-3.31 4.882-6.678 6.015-3.324 1.106-3.32-.545-3.32-.545s-5.988-8.595-6.896-16.61c-.921-7.93 1.144-14.99 3.135-16.044zm17.315-9.507c2.57-1.382 3.097 4.494 5.14 11.844 2.043 7.402 12.363 22.613 12.363 22.613 1.46 3.124-4.263 6.209-8.572 7.626-4.262 1.405-4.25-.674-4.25-.674s-7.615-10.889-8.75-21.035c-1.149-10.038 1.512-19.012 4.069-20.374zm24.61-10.841c2.608-1.318 2.985 4.364 4.788 11.472 1.846 7.19 11.69 21.973 11.69 21.973 1.37 3.02-4.425 5.959-8.773 7.307-4.292 1.313-4.249-.7-4.249-.7s-7.274-10.578-8.117-20.383c-.849-9.718 2.081-18.381 4.66-19.67zm18.958-13.733c2.6-1.72 3.701 3.98 6.499 10.92 2.818 6.965 15.21 20.646 15.21 20.646 1.855 2.904-3.966 6.732-8.447 8.754-4.412 1.975-4.609-.125-4.609-.125s-9.06-9.779-11.18-19.64c-2.099-9.739-.06-18.865 2.527-20.555zm20.891-17.69c2.318-1.931 4.053 3.072 7.625 8.975 3.62 6.02 17.405 16.684 17.405 16.684 2.184 2.393-2.973 6.848-7.098 9.368-4.074 2.48-4.494.579-4.494.579s-10.08-7.679-13.352-16.395c-3.234-8.633-2.36-17.288-.086-19.211zm79.414-52.259c1.79-1.62 3.671 1.776 7.158 5.622 3.517 3.91 15.862 10.042 15.862 10.042 1.996 1.482-1.97 5.202-5.187 7.44-3.213 2.243-3.723.925-3.723.925s-9.094-4.342-12.533-10.266c-3.423-5.851-3.367-12.125-1.577-13.763zm-35.91 65.348c-4.047 2.756-4.638.959-4.638.959s-10.91-6.737-14.86-15.042c-3.864-8.184-3.534-16.653-1.298-18.697 2.257-2.053 4.386 2.666 8.464 8.167 4.138 5.591 19.054 14.946 19.054 14.946 2.39 2.17-2.656 6.892-6.721 9.667zm6.632-49.585c2.193-2.074 4.54 2.325 8.923 7.325 4.433 5.116 19.991 13.257 19.991 13.257 2.532 1.927-2.42 6.745-6.434 9.636-4.014 2.899-4.686 1.188-4.686 1.188s-11.377-5.82-15.708-13.538c-4.292-7.614-4.3-15.79-2.086-17.868zm43.316-154.417s2.523.427 1.383 4.031c-1.135 3.595-1.353 14.748 2.095 19.544 3.47 4.818-2.373 2.99-6.935-1.875-4.57-4.844-7.8-13.763-6.816-19.83 0 0-.26-2.549 10.273-1.87zm-16.12 29.513c5.53 6.235-2.938 4.571-10.028-1.573-7.089-6.132-12.893-18.097-12.358-26.73 0 0-.724-3.535 14.158-4.144 0 0 3.615.237 2.497 5.448-1.062 5.199.193 20.81 5.731 26.999zm-30.46 3.98c5.418 7.959-3.993 4.765-11.19-3.35-7.2-8.119-12.062-22.733-10.211-32.585 0 0-.317-4.135 16.74-2.554 0 0 4.087.821 2.103 6.594-2.03 5.83-2.848 23.926 2.558 31.894zm-46.268-8.03c-7.277-9.281-11.642-25.662-8.995-36.396 0 0-.06-4.61 18.364-2.03 0 0 4.356 1.114 1.816 7.419-2.544 6.291-4.61 26.203.741 35.255 5.346 9.04-4.648 5.078-11.926-4.247zm-35.635-4.904c-7.402-9.376-11.895-26.017-9.274-37.014 0 0-.098-4.662 18.535-2.29 0 0 4.417 1.08 1.877 7.531-2.532 6.447-4.515 26.791.92 35.93 5.466 9.152-4.66 5.242-12.058-4.157zm-34.479 9.178c-8.948-12.155-14.945-33.734-12.576-48.041 0 0-.347-6.115 20.98-3.172 0 0 5.12 1.348 2.588 9.809-2.544 8.409-3.705 34.858 3.007 46.715 6.708 11.84-5.042 6.827-13.999-5.31zm-34.543-7.618c-8.91-10.496-14.782-29.66-12.306-42.631 0 0-.334-5.488 21.075-3.833 0 0 5.123.994 2.502 8.68-2.588 7.68-3.928 31.545 2.733 41.906 6.686 10.336-5.08 6.387-14.004-4.122zm-33.532-12.172c-6.493-9.14-10.075-25.21-7.329-35.723 0 0 .064-4.506 17.075-1.866 0 0 4.035 1.119 1.486 7.255-2.527 6.166-4.999 25.68-.283 34.577 4.72 8.888-4.45 4.939-10.949-4.243zm-26.554-6.698c-5.98-7.277-9.762-20.114-7.856-28.575 0 0-.15-3.613 14.556-1.703 0 0 3.534.843 1.598 5.816-1.86 4.952-3.144 20.634 1.306 27.724 4.43 7.087-3.61 4.006-9.604-3.262zm-30.893 5.017c-7.196-8.12-12.058-22.729-10.212-32.59 0 0-.317-4.126 16.74-2.553 0 0 4.091.82 2.103 6.602-2.03 5.825-2.848 23.922 2.562 31.898 5.415 7.955-3.997 4.766-11.193-3.357zm-22.467-.311c-7.094-6.136-12.898-18.106-12.363-26.735 0 0-.724-3.534 14.149-4.14 0 0 3.624.23 2.51 5.445-1.07 5.203.184 20.815 5.723 26.998 5.53 6.231-2.939 4.58-10.02-1.568m324.205-195.278c5.513-3.025 12.016-22.63 25.368-14.489 9.925 6.05 14.654 7.584 14.654 7.584s-6.931 1.966-10.084 7.22c-3.157 5.255-6.935 9.3-17.965 7.649-11.583-1.737-13.704.095-19.533 1.054 0 0 2.038-5.989 7.56-9.018"/><path fill="#403c3d" fill-rule="evenodd" d="M425.886 154.452a19.704 19.704 0 0 0-5.196-6.23c1.015 2.98 1.598 6.031 1.812 9.169a1214.667 1214.667 0 0 1-3.894 3.34c-1.126 2.182-4.579 5.064-8.991 6.952 3.5-10.738 3.92-22.14 4.164-30.593 7.235 3.803 12.067 9.018 14.855 14.951-.895.787-1.812 1.595-2.75 2.411zm-23.697 15.31c-2.994.695-4.922 1.391-7.333 2.255-.411.108-.84.23-1.255.38l-2.245.83-.227.095-.356.117.026.009c-.98.432-1.662.76-1.662.76-3.178 1.642-6.515 2.619-9.69 3.172-19.657-4.26-25.59-26.903-25.59-26.903 18.364-8.154 28.743-31.648 22.207-44.572.184-.484.608-.406 1.04-.303 8.323 3.708 17.08 9.935 21.337 16.675 8.092 12.79 10.49 32.024 3.748 47.485zm-53.828-27.495c-6.146-1.936-6.986-6.927-9.946-10.358 12.105-17.82 11.866-30.952 10.508-44.58-.27-.847.29-.821.98-1.443 23.762 4.874 25.65 28.298 15.452 45.954-4.84 8.357-9.57 12.76-16.994 10.427zm-19.773-21.73c-10.058-2.913-12.97-14.425-17.027-19.182 10.962-11.81 10.332-22.184 9.904-31.656-.107-2.178-.497-4.598.372-6.745 2.048.172 5.638.7 8.572 2.273 13.343 7.12 18.865 32.598 11.107 47.574-3.328 6.422-6.7 9.541-12.928 7.735zm-21.216-23.914c-9.06-4.593-14.153-10.716-16.514-17.668-1.388-4.07-2.454-4.563-1.516-9.62 2.018-10.914 2.694-22.957-.004-31.625l.65-.32c26.148 9.308 41.149 26.907 17.384 59.233zM135.805 353.697s3.624.229 2.51 5.444c-1.07 5.203.184 20.815 5.723 26.998 5.53 6.231-2.939 4.58-10.02-1.568-7.093-6.136-12.897-18.106-12.362-26.735 0 0-.724-3.534 14.149-4.14zm10.469-1.405s-.317-4.126 16.74-2.553c0 0 4.091.82 2.103 6.602-2.03 5.825-2.848 23.922 2.562 31.898 5.415 7.955-3.997 4.766-11.193-3.357-7.196-8.12-12.058-22.729-10.212-32.59zm33.25-1.002s-.15-3.613 14.555-1.703c0 0 3.534.843 1.598 5.816-1.86 4.952-3.144 20.634 1.306 27.724 4.43 7.087-3.61 4.006-9.604-3.262-5.98-7.277-9.762-20.114-7.856-28.575zm27.08-.45s.064-4.506 17.075-1.866c0 0 4.035 1.119 1.486 7.255-2.527 6.166-4.999 25.68-.283 34.577 4.72 8.888-4.45 4.939-10.949-4.243-6.493-9.14-10.075-25.21-7.329-35.723zm28.555 5.264s-.334-5.488 21.075-3.833c0 0 5.123.994 2.502 8.68-2.588 7.68-3.928 31.545 2.733 41.906 6.686 10.336-5.08 6.387-14.004-4.122-8.91-10.496-14.782-29.66-12.306-42.631zm34.273 2.208s-.347-6.115 20.98-3.172c0 0 5.12 1.348 2.588 9.809-2.544 8.409-3.705 34.858 3.007 46.715 6.708 11.84-5.042 6.827-13.999-5.31-8.948-12.156-14.945-33.735-12.576-48.042zm37.781 1.849s-.098-4.662 18.535-2.29c0 0 4.417 1.08 1.877 7.531-2.532 6.447-4.515 26.791.92 35.93 5.466 9.152-4.66 5.242-12.058-4.157-7.402-9.376-11.895-26.017-9.274-37.014zm35.914 5.522s-.06-4.61 18.364-2.03c0 0 4.356 1.114 1.816 7.419-2.544 6.291-4.61 26.203.741 35.255 5.346 9.04-4.648 5.078-11.926-4.247-7.277-9.282-11.642-25.663-8.995-36.397zm33.862 8.491s-.317-4.135 16.74-2.554c0 0 4.087.821 2.103 6.594-2.03 5.83-2.848 23.926 2.558 31.894 5.418 7.96-3.993 4.766-11.19-3.349-7.2-8.119-12.062-22.733-10.211-32.585zm43.633-.492s3.615.237 2.497 5.448c-1.062 5.199.193 20.81 5.731 26.999 5.53 6.235-2.938 4.571-10.028-1.573-7.089-6.132-12.893-18.097-12.358-26.73 0 0-.724-3.535 14.158-4.144zm42.227 44.256c4.31-3.042 10.011-10.44 17.302-5.583-3.106 6.508-11.339 10.79-18.163 14.355-11.947 6.235-22.544 11.693-36.316 15.154 23.209-3.587 39.705-13.357 57.07-22.336 2.125 4.511 4.515 13.555 6.087 21.217l.219-.026s1.58 4.29 1.114 8.482c.06 2-.339 3.72-1.752 4.667a7.424 7.424 0 0 1-1.765 1.659c-6.34 4.196-25.15 13.482-40.236 14.584-.497.025-.977.09-1.47.142l-1.109.316-.034-.212c-13.682 1.603-22.532 7.302-5.037 4.394 17.51-2.916 55.005-9.36 41.345-4.178l.047-.005c-17.057 6.733-39.435 13.327-61.397 11.166-14.196-1.391-28.88-8.43-41.504-15.154-12.61-6.71-24.57-15.534-38.051-18.33-10.255-2.147-18.728.834-27.668 2.385-5.945 1.016-14.238 3.453-17.85-.306-1.52-1.82-.308-3.682-.308-3.682 3.414-8.525 13.348-13.547 21.615-15.949 25.937-7.545 51.065 6.322 76.094 7.972 32.256 2.135 55.383-9.165 71.768-20.732zm-17.88-41.322s2.524.427 1.384 4.031c-1.135 3.595-1.353 14.748 2.095 19.544 3.47 4.818-2.373 2.99-6.935-1.875-4.57-4.844-7.8-13.763-6.816-19.83 0 0-.26-2.549 10.273-1.87zm3.796 161.759c-3.213 2.242-3.723.924-3.723.924s-9.094-4.342-12.533-10.266c-3.423-5.851-3.367-12.125-1.577-13.763 1.79-1.62 3.671 1.776 7.158 5.622 3.517 3.91 15.862 10.042 15.862 10.042 1.996 1.482-1.97 5.202-5.187 7.44zm-24.63 22.876c-4.015 2.899-4.687 1.188-4.687 1.188s-11.377-5.82-15.708-13.538c-4.292-7.614-4.3-15.79-2.086-17.868 2.193-2.074 4.54 2.325 8.923 7.325 4.433 5.116 19.991 13.257 19.991 13.257 2.532 1.927-2.42 6.745-6.434 9.636zm-29.112 19.367c-4.048 2.756-4.64.959-4.64.959s-10.91-6.737-14.86-15.042c-3.863-8.184-3.533-16.653-1.297-18.697 2.257-2.053 4.386 2.666 8.464 8.167 4.138 5.591 19.054 14.946 19.054 14.946 2.39 2.17-2.656 6.892-6.721 9.667zm-25.573 21.938c-4.074 2.48-4.494.579-4.494.579s-10.08-7.679-13.352-16.395c-3.234-8.633-2.36-17.288-.086-19.211 2.318-1.931 4.053 3.072 7.625 8.975 3.62 6.02 17.405 16.684 17.405 16.684 2.184 2.393-2.973 6.848-7.098 9.368zm-25.56 22.983c-4.413 1.975-4.61-.125-4.61-.125s-9.06-9.779-11.18-19.64c-2.099-9.739-.06-18.865 2.527-20.555 2.6-1.72 3.701 3.98 6.499 10.92 2.818 6.965 15.21 20.646 15.21 20.646 1.855 2.904-3.966 6.732-8.447 8.754zm-24.516 14.165c-4.292 1.313-4.249-.7-4.249-.7s-7.274-10.578-8.117-20.383c-.849-9.718 2.081-18.381 4.66-19.67 2.609-1.317 2.986 4.365 4.79 11.473 1.845 7.19 11.69 21.973 11.69 21.973 1.37 3.02-4.426 5.959-8.774 7.307zm-23.384 12.172c-4.262 1.405-4.25-.674-4.25-.674s-7.615-10.889-8.75-21.035c-1.149-10.038 1.512-19.012 4.069-20.374 2.57-1.382 3.097 4.494 5.14 11.844 2.043 7.402 12.363 22.613 12.363 22.613 1.46 3.124-4.263 6.209-8.572 7.626zm-19.165.623c-3.324 1.106-3.32-.545-3.32-.545s-5.988-8.595-6.896-16.61c-.921-7.93 1.144-14.99 3.135-16.044 2.01-1.093 2.434 3.539 4.048 9.346 1.62 5.83 9.711 17.838 9.711 17.838 1.148 2.463-3.31 4.882-6.678 6.015zm-18.23-3.228c-2.896.98-2.896-.471-2.896-.471s-5.24-7.562-6.049-14.61c-.822-6.97.955-13.188 2.686-14.108 1.748-.96 2.129 3.107 3.551 8.201 1.427 5.138 8.499 15.69 8.499 15.69 1.006 2.174-2.857 4.317-5.792 5.298zM280.17 67.906c-3.757-2.49-6.683-5.48-8.794-8.777-1.671-2.618-4.018-6.905-3.513-10.426.347-2.424 2.249-5.674 3.217-8.387 2.78-7.787 3.868-14.813 1.688-20.4 15.896 7.07 18.39 24.833 7.402 47.99zm-30.44-46.37c1.83-2.005 3.243-2.999 4.396-5.042 1.893-3.362.004-5.07 1.01-7.109 17.08 2.226 18.548 14.346 11.176 31.536-11.381-3.89-14.414-11.577-16.581-19.385zm-6.943-18.485c5.945 1.668 12.59 5.081 6.254 15.283-3.89-4.2-5.209-9.744-6.254-15.283zm502.788 340.072c-4.768-8.387-10.002-16.602-11.617-23.602 3.833 2.558 6.999 5.531 9.75 8.785-.575-4.066-1.252-8.098-1.958-12.125-4.16-3.34-8.838-6.274-14.346-8.594-8.863-39.97-27.934-65.21-67.112-79.638-13.133-4.835-25.573-10.435-38.526-16.135.75-42.545-48.178-41.65-78.664-63.55-13.258-9.55-28.294-27.166-43.462-30.424-29.334-6.309-47.385 14.359-64.708 28.791-4.254-4.688-10.623-9.269-19.867-13.438 0 0-16.535-23.831-24.245-28.312-.51-.298-.857-.57-1.08-.834-4.258-2.022-9.6-3.159-13.369-5.678-3.727-2.476-4.434-8.33-8.16-11.166-1.825-1.382-4.657-2.882-7.132-3.884-2.99-1.214-8.114-.99-11.125-2.653-3.705-2.053-4-8.729-6.687-12.043-2.96-3.66-6.768-6.655-12.928-8.746-2.497-.838-6.267-.894-8.524-2.117-2.519-1.374-3.136-5.682-5.085-8.323-4.532-6.162-12.187-10.936-20.916-14.052-1.881-.67-4.404-.67-5.78-1.603-1.725-1.167-1.794-4.204-2.972-6.326-1.82-3.275-4.25-6.603-8.164-8.638-1.675-.881-4.25-.8-5.89-1.741-1.928-1.115-2.446-3.837-4.07-5.432-3.281-3.232-7.18-5.686-15.28-3.59C250.79 4.298 247 1.282 240.827 0l-.189.333c.78 7.45 1.838 14.977 7.445 20.132-1.422 8.56 2.562 14.847 9 19.911 1.55 1.223 4.121 1.867 5.449 3.479 1.76 2.143 1.032 6.498 1.799 9.186 2.382 8.297 7.458 15.919 15.896 22.146 1.234.916 3.59 1.356 4.661 2.58 2.356 2.7 1.67 7.233 3.448 10.348 1.868 3.28 5.05 7.238 8.979 10.289 2.154 1.676 5.367 2.57 7.38 4.567 1.632 1.612 2.082 4.511 3.247 6.922 3.149 6.525 11.485 14.083 15.486 20.901.527.9.942 1.858 1.289 2.826 1.666 3.47 5.697 10.825 11.193 14.221 0 0 .574 10.21 10.65 21.852-20.412-1.115-40.104-12.773-55.242-1.193-4.37-4.818-18.39-8.599-24.391-1.836-4.425-7.783-27.92-12.748-32.491-.45-33.404-15.145-73.712 6.447-86.67 28.122a91.513 91.513 0 0 0-6.777 3.634c-9.141-2.779-21.525-3.764-34.929 6.002-13.21 9.631-27.02 52.829-24.643 82.74.257 3.201 6.271 10.768 8.43 25.922 2.15 15.037 3.782 19.972 3.782 19.972-2.938 5.18-6.442 7.497-6.918 13.56-1.036 13.118 10.063 20.243 20.459 26.963 3.705 1.745 7.89 2.994 12.44 3.163 2.745 4.385 13.326 19.25 30.816 19.25.432 0 .874-.03 1.302-.056 6.678 5.673 13.648 7.199 8.837.203-.398-.575-.737-1.223-1.054-1.893 3.217 1.932 7.107 3.811 10.576 4.153.069.008 1.705.423 3.059.423.488 0 1.919 0 2.424-1.11.506-1.124-.514-2.325-.852-2.714-1.4-1.629-2.977-5.872-4.164-9.835 1.285 2.377 2.678 4.628 4.241 6.573 8.323 10.323 19.975 15.21 13.468 4.93-2.086-3.288-3.277-7.774-3.86-12.535 3.226 4.01 8.777 8.68 17.803 10.543 7.462 7.169 16.736 10.103 11.18 2.48-1.422-1.949-2.347-4.463-2.9-7.207 4.498 5.453 12.106 12.457 21.431 12.457l.681-.013.189-.008c6.4 4.368 11.758 5.099 6.969-1.206-2.073-2.748-3.204-6.55-3.714-10.565 4.228 8.712 12.384 20.707 26.426 24.557.102.043 2.523.713 4.519.713 1.555 0 2.54-.402 3.007-1.262.681-1.24-.214-2.675-.51-3.146-.904-1.473-1.747-3.3-2.476-5.107 6.301 3.733 10.962 4.053 6.053-2.031-2.532-3.137-3.88-7.562-4.438-12.134 3.427 9.252 10.405 22.245 24.194 30.762.099.048 2.583 1.223 5.333 1.223 1.328 0 2.515-.277 3.538-.795a3.256 3.256 0 0 0 1.688-2.16c.72-2.9-2.005-7.022-2.249-7.36-1.135-2.255-3.213-7.021-4.236-11.195l.103.086c9.963 8.124 22.9 11.887 14.92 3.781-4.845-4.926-6.713-13.37-6.88-20.261 2.913 8.253 9.99 22.547 24.648 25.382.098.008 2.369.449 4.048.449.93 0 2.052-.104 2.446-1.011.167-.38.235-1.003-.429-1.755-1.096-1.248-2.651-5.003-3.478-8.041.694.536 1.37 1.106 2.095 1.577 7.11 4.714 15.502 7.177 16.599 5.652 2.27 1.884 5.83 4.36 10.662 6.508.454 1.045.9 2.091 1.263 3.141 0 0 2.253 6.339 3.123 9.77-11.502-3.012-31.185-8.845-45.83-5.579-11.57 2.576-41.723 19.424-34.432 31.268.488.79 1.11 1.34 1.825 1.789l.45.172c2.883 1.552 7.959 2.46 13.3 2.416l1.94-.056c3.106-.173 11.237-1.353 13.995-2.256 8.062-2.649 15.267-1.058 15.267-1.058l-.107.073c5.731.678 11.78 2.71 18.025 5.933 6.708 3.448 15.837 9.143 18.163 11.956 4.19 5.09-2.232 17.025-4.627 24.375-.115.432-.26.886-.402 1.336l-.167.609-.026-.018a50.1 50.1 0 0 1-1.204 3.22c-.407-.519-.77-1.02-1.04-1.487-2.292-3.902-3.53-7.315-4.712-5.747-1.187 1.573-1.243 7.8 1.01 13.68.232.606.514 1.18.819 1.755-2.596 4.805-5.749 9.84-9.073 14.657-2.583-2.472-5.196-5.259-6.464-7.48-2.951-5.112-4.523-9.597-6.031-7.531-1.525 2.048-1.564 10.323 1.328 18.088.942 2.536 2.386 4.83 3.893 6.836-2.291 2.92-4.527 5.621-6.57 7.911a146.39 146.39 0 0 1-3.145 3.37c-3.153-3.292-7.145-7.79-8.76-11.052-2.81-5.7-4.258-10.557-5.855-8.487-1.594 2.083-1.907 10.833.753 19.294 1.093 3.465 2.978 6.628 4.84 9.203a752.89 752.89 0 0 1-10.944 10.28c-2.313-3.102-4.592-6.507-5.637-9.117-2.506-6.162-3.692-11.386-5.389-9.386-1.666 2.018-2.399 11.11-.15 20.171.553 2.234 1.397 4.382 2.36 6.37a1415.695 1415.695 0 0 1-10.785 9.64c-.986-2.165-1.808-4.213-2.262-5.903-1.97-7.337-2.707-13.395-4.644-11.541-1.94 1.814-3.59 11.589-2.171 21.977.132.993.325 1.983.544 2.972l-.947.821c-2.189 1.915-4.575 4.222-7.042 6.759-.613-1.953-1.088-3.777-1.341-5.294-1.247-7.648-1.44-13.762-3.423-12.302-1.979 1.435-4.348 10.868-3.872 21.42.073 1.66.274 3.336.544 4.978a348.391 348.391 0 0 0-8.46 10.016c-1.564-4.053-2.977-8.253-3.526-11.282-1.43-8.007-1.726-14.433-3.752-12.856-1.855 1.422-3.89 9.99-3.667 19.96-2.017 1.49-4.635 8.438-4.72 16.316-.039 2.679.432 5.423 1.075 7.903-1.307 1.862-3.598 3.15-5.2 5.432-8.268 11.688-4.897 25.61 12.97 28.709 5.475 17.05 19.35 25.326 40.639 25.516 2.861.03 5.843-.981 8.644-.804 3.161.216 5.766 1.512 8.653 1.603 15.515.471 23.654-4.507 35.443-7.985 8.802-2.576 17.88-3.41 23.354-5.574 8.383-3.319 12.367-12.432 19.019-16.749 2.476-1.603 7.15-2.36 11.244-4.779 3.457-2.053 6.447-5.786 9.51-7.173 2.673-1.231 7.132-.985 10.375-2.398 5.427-2.381 11.429-7.519 18.162-11.174 14.098-7.619 25.574-13.258 40.639-19.925 7.196-3.189 14.813-10.682 19.023-11.166 4.99-.583 10.804 3.63 14.697 3.185 7.934 9.532 10.701 22.854 10.367 39.979.471.047.124 4.247.124 4.247s2.772 36.768-54.046 56.62c-17.67 6.17-50.148 22.387-74.274 34.879 93.773-2.943 178.588-41.625 241.6-103.066-19.058 4.99-39.375 18.057-51.887 19.254-34.12 3.263-40.232-12.064-12.975-14.592 10.293-.955 25.483-2.126 37.61-7.942 21.16-10.159 42.964-19.972 54.53-26.29 1.889-2.294 3.697-4.657 5.534-7-2.805.035-7.762.765-15.46 2.351-18.162 3.738-37.506 16.191-52.478 19-33.09 6.188-52.594.238-35.13-7.065 25.364-10.617 109.04-13.266 117.783-76.012 8.747-62.755 2.625-91.053-1.752-106.96-2.095-7.626-6.79-18.882-11.13-28.557-1.22-6.828-2.83-12.618-4.231-16.749-.789-1.862-1.573-4.256-2.348-7.28 0 0-1.092-7.74 2.403-15.245 3.097-6.668 13.73-21.113 14.449-35.088.013-.846.047-1.693.034-2.54a25.72 25.72 0 0 0-.27-2.813l-.077-.826c-1.367-7.838-5.817-13.296-11.861-17.362-3.894-2.61-9.193-3.435-12.106-7.168 2.322-7.385 9.728-10.012 12.812-16.049 1.928-5.354.356-10.984-2.574-16.1-5.641-6.391-16.723-11.935-26.67-15.699-12.452-4.718-25.11-8.443-33.665-15.223-9.042-4.86-15.116-14.263-9.57-26.687 1.444-3.232 2.087-6.481 2.044-9.575l-.038-.903c-.013-.631-.099-1.197-.176-1.78-.069-.45-.141-.895-.24-1.336l-.201-.773-.24-.873c-2.279-7.756-14.367-9.943-18.677-10.327-9.762-.886-16.072-3.56-21.26-5.22 4.173 2.195 8.371 5.12 13.713 7.294 3.384 1.391 8.237 2.225 12.328 3.6l.03-.005s7.548 1.542 9.621 6.849c2.078 5.302.874 9.942 0 12.92l-.317.86c-.754 2.329-1.598 4.567-1.773 6.883-.707 9.135 4.84 13.897 7.783 21.536 5.307 5.095 12.864 10.37 23.346 15.146 9.415 4.303 20.685 6.905 27.667 11.165 4.048 2.468 11.412 8.43 11.245 12.769-.129 3.319-6.199 7.851-8.649 11.157-1.743 2.355-2.617 5.48-4.176 7.704-1.367 2.17-3.11 3.57-5.124 3.57-2.621 0-8.601 1.024-4.664 1.322 3.932.294 14.14 5.155 14.14 5.155l-.009.013c13.794 5.76 23.063 16.446 17.992 31.682-4.245 12.76-14.012 23.442-14.698 37.48-.728 14.934 6.049 27.237 6.914 39.08 1.465 19.93-1.366 33.662-5.183 48.647-1.79 7.005-2.741 13.905-4.322 20.724-6.734 29.042-24.104 41.62-47.56 55.033-10.17 5.816-21.085 16.541-31.995 19.933-1.752.545-4.46-.285-6.057 0-10.05 1.837-19.092 6.866-29.399 8.772-9.706 1.802-19.884.942-31.403 3.885-5.847 2.108-13.334 5.263-17.708 7.142-6.764 3.107-13.39 6.348-20.004 9.62l-21.958 12.673s-12.243 7.16 1.315 1.862c10.906-4.27 48.392-23.122 32.688-12.051-10.829 5.496-16.702 13.304-26.28 19.963 0 0-32.225 16.148-37.062 20.66-5.311 4.96-11.805 2.216-16.072 7.073-5.007 5.712-11.146 9.13-15.524 10.608-4.369 1.482-9.325 11.2-16.033 16.204-6.708 5.008-21.281 3.534-34.115 9.135-12.825 5.595-26.117 5.669-26.117 5.669a56.724 56.724 0 0 1-3.688.233c-.505.009-.977 0-1.46 0-7.506.043-13.241-1.43-17.636-3.063-5.359-1.992-7.325-.994-6.122-.338 1.2.666 4.691 3.959 4.691 3.959-14.963-.018-19.05-10.069-25.937-17.531 3.131-.45 12.062 1.754 7.526-.899-8.961-4.334-26.22-4.64-26.554-15.059-.261-8.167 3.457-6.382 3.457-6.382 6.275 11.045 25.654 12.13 39.782 11.974 26.314-.316 44.125-14.904 61.37-23.152 5.591-3.397 12.123-7.86 12.123-7.86l-.038.133c5.449-3.586 10.949-7.065 15.605-11.394 8.122-7.54 13.613-17.38 20.758-25.737.831-1.417 2.575-3.154 4.648-4.895 2.013-1.915 4.181-3.69 6.588-5.25l.095.194.933-.635-.167-.354c17.353-9.948 33.532-20.953 47.176-34.314l.094-.156c1.953-1.797 12.225-13.378 17.19-19.004 5.847-7.881 10.062-17.841 12.504-27.87.882-3.63.321-8.042 1.726-11.97 2.176-6.093 7.655-11.516 11.245-17.535 3.718-6.27 6.177-13.097 8.644-19.942 10.816-30.04 23.324-53.952 46.691-70.174 11.262-7.825 24.935-12.863 32.855-24.733-5.748 5.91-13.24 10.21-22.287 13.075-25.693 8.547-42.404 30.464-50.804 44.373-6.45 11.719-11.437 24.777-15.1 39.054-1.22-17.6-5.517-31.332-11.244-44.663-5.093-11.848-9.595-24.375-19.023-31.89 0 0-.364.022-1.825-.872-1.457-.873 24.305-1.525 24.305-1.525 4.51.164 9.094.812 13.746 1.426.87-.095 1.94-.048 3.251.19 14.162 2.523 28.885-2.805 38.052-9.55 4.759-3.5 13.035-6.304 19.901-8.201.116-.303.784-.64 2.498-.977 0 0 10.494-3.305 21.645-6.404 7.552-2.09 13.056-3.69 16.873-5.595 2.214-1.422 4.322-3.133 5.954-5.181 3.268-4.07 3.328-8.962 6.057-15.945 2.711-6.957 6.858-12.371 6.914-18.343.197-19.574-18.15-35.165-38.043-24.73 19.585-5.098 33.476 4.555 31.129 23.14-2.896 22.953-37.122 39.97-57.936 48.642-8.25 3.431-17.914 7.77-27.668 8.768-14.071 1.439-26.815-1.6-38.912-.804-15.515 1.037-25.83 9.325-38.912 10.375-11.24.907-9.715-6.776-19.47-7.653-2.02-1.158-8.155 0-14.255-.315-16.869 4.502-27.715-3.293-41.5-9.576-9.942-4.541-20.552-8.668-31.133-9.571-26.558-2.277-42.707 1.456-64.416-.868-6.122-.662-18.827-1.44-24.858-3.725-18.78-7.1-33.16-4.529-53.562-4.818-14.843-.22-28.615-1.007-37.88.63-2.528.463-5.085 1.124-7.788 1.6-19.884 3.512-50.17 5.332-49.283 23.126 1.482-1.024 1.071-3.79 3.457-3.989-.086 3.276-.167 6.543.861 8.78-11.561-.302-18.38-8.37-18.154-17.543.386-15.607 25.23-22.132 42.37-26.324 17.177-4.191 35.018-9.095 47.56-11.165-30.04 4.463-61.817 7.333-84.747 18.351a24.59 24.59 0 0 1-.664-3.465c-1.816-8.422-5.774-21.346-8.558-33.903-3.204-14.433 1.743-39.776 1.743-39.776l.124.147c2.07-12.877 4.704-18.62 7.257-26.315 5.436-16.424 22.994-21.58 35.288-23.14-10.362 7.403-16.984 16.576-21.178 28.861a344.78 344.78 0 0 0-1.22 12.056c9.307-29.271 35.266-40.225 35.266-40.225l8.31-9.057-.103.41c14.33-14.008 33.267-24.863 57.332-25.55 12.127-.341 26.781 2.887 26.743 14.903-.022 6.797-5.278 12.57-12.448 15.755 2.107.42 4.039.125 5.787-.605l7.453-8.426c2.459-6.162 2.245-13.94-1.91-18.632 10.966-9.477 28.04 1.153 26.798 13.723 3.208-2.735 5.166-7.907 2.96-12.004 14.753-8.763 23.011 12.48 37.863 7.519-1.401-4.252-8.546-3.388-10.726-6.935 19.409-2.809 36.436 4.087 55.896 2.527a71.64 71.64 0 0 0 3.945 3.198c-36.402 4.07-6.823 4.049-6.823 4.049 4.66-.432 15.862-1.223 20.214-.436 7.132 1.296 11.733-.459 18.03-2.947.154.276.784.254 1.165-.467 3.264-1.296 7.03-2.74 11.805-4.045 1.851-.263 3.71-.743 5.518-1.335l.78-.164.106-.125c2.498-.878 4.845-1.928 6.859-2.917 18.346-8.906 33.557-29.893 49.227-40.903 25.963-18.23 50.546 4.29 68.623 18.909l-.116.173c4.532 3.124 10.508 6.978 17.02 11.01 17.01 7.475 39.443 14.017 51.424 25.982 9.586 9.571 12.846 21.895 16.971 34.685 3.847 11.935 11.318 22.483 15.516 35.87.81-.683 1.289-1.716 1.559-2.952-.116-1.145-.3-2.35.038-3.094l.227.208c-.047-2.338-.556-5.073-1.349-7.96-3.564-7.332-9.792-15.68-9.025-22.214 0 0 22.094 11.537 47.166 23 8.632 3.95 16.54 10.458 23.436 17.899l2.013-.048c-.24.523-.214 1.275-.141 2.066 12.182 13.801 20.822 30.238 23.825 39.74.621 1.954 1.32 3.928 2.074 5.894l.004.026a146.566 146.566 0 0 0 3.016 7.281l.02-.03c.446.8.725 1.586 1.025 2.38 3.615 7.917 7.166 14.334 8.16 16.093 4.254 5.349 7.432 12.678 11.377 17.483-.227-2.96-.377-5.942-.668-8.88zM391.669 223.391c37.383 34.918 41.983 72.753 44.853 83.681 2.827 10.855 4.207 7.182 4.207 7.182.518-36.98-28.473-83.816-54.556-99.22-25.702-15.206-92.145-12.562-107.75-13.785-15.357-1.184-23.033 18.55-23.033 18.55-.197 4.18 3.183-.613 3.183-.613 10.032-18.27 18.852-14.93 18.852-14.93 31.793 9.386 37.46 56.58 38.784 67.522 1.315 10.85 4.03 3.785 4.03 3.785 3.09-27.158-16.504-60.257-20.625-64.513-4.116-4.218-.184-6.612 12.95-2.896 39.546 11.218 43.247 75.222 45.628 82.982 2.386 7.73 3.868.294 3.868.294-5.345-58.849-27.483-73.359-33.382-81.452-2.45-3.358 17.546-3.863 26.344 1.923 49.695 32.442 44.117 94.584 48.59 85.713 4.531-9.053-12.504-65.287-36.446-84.421-4.789-3.82 16.617 2.852 24.503 10.198zm91.922-48.587c9.925 6.05 14.654 7.584 14.654 7.584s-6.931 1.966-10.084 7.22c-3.157 5.255-6.935 9.3-17.965 7.649-11.583-1.737-13.704.095-19.533 1.054 0 0 2.038-5.989 7.56-9.018 5.513-3.025 12.016-22.63 25.368-14.489zm.878-14.453c3.628-1.055 15.34.747 7.783-.8-7.59-2.143-12.303.039-17.289 3.198-11.463 7.237-20.8 23.86-32.863 31.09-5.235 3.158-10.354 2.433-14.706 7.985 2.819 5.69 5.68 2.342 9.518 3.189 8.507 1.867 16.346 5.203 24.211 10.353 8.709 5.726 18.141 16.23 31.129 15.163 4.142-.333 11.669-4.386 14.701-6.382 3.787-2.493 12.778-8.444 10.375-17.544-1.066-4.031-5.821-4.68-8.653-7.976-3.92-4.585-3.77-9.088-6.91-14.35 6.846 1.39 10.766 5.491 18.15 6.381-11.63-10.539-25.033-19.444-41.499-25.524 1.234-.709 2.022-3.608 6.053-4.783zm-275.941 47.851c-.939-6.991-7.454-13.2-19.024-9.575 0 0-14.958 3.448-19.032 30.178 0 0-.711 13.486 3.47 10.504-3.521-16.204 11.724-23.545 15.22-25.191 4.917-2.217 8.982-1.47 9.29 2.752.339 4.554-4.814 6.568-6.356 11.265 5.47-3.12 17.704-10.427 16.432-19.933zm286.277 57.51c11.711-1.89 33.63-10.069 42.425-15.622 9.544-6.019 16.637-29.106 6.91-41.888-4.357-5.721-14.788-12.976-17.298-13.56-2.861 1.677 1.8 3.202 2.592 3.985 3.298 3.284 10.657 9.294 12.97 14.354 4.725 10.349 3.277 26.186-5.191 31.911-5.706 3.846-33.614 14.368-45.822 14.35-34.342-.047-37.829-38.15-58.801-51.04.373 3.643 3.007 11.29 6.006 15.245 11.792 15.556 23.058 47.622 56.209 42.264"/><path fill="#5d802f" d="M298.213 613.211c.189 1.807.994 3.544 1.56 5.199.115-8.422.466-20.72 9.205-25.897 1.37-.803 2.733-1.227 4.078-1.227 3.431 0 5.629 2.442 7.008 5.194-.15-6.849.827-13.425 5.333-16.537 2.219-1.55 4.284-2.298 6.258-2.298 5.66 0 7.942 5.898 9.167 9.065.202.497.369.942.544 1.344 2.326 5.367 8.525 16.316 11.425 18.723 1.148-.92 2.583-2.117 3.033-2.774-.159-.216-.425-.505-.763-.907-18.017-21.035-12.444-35.187-4.583-43.362.56-.653 2.043-2.096 4.227-2.096 2.682 0 4.777 1.97 6.225 5.83 2.283 6.092 11.355 17.98 13.086 19.198l.424.211c.887.454 1.996 1.02 2.63 1.02l.514-.32c.566-.609.865-1.145 1.033-1.546-3.779-4.607-16.775-21.826-11.965-35.714.712-2.066 2.888-8.357 7.99-8.357 4.707 0 7.868 5.7 8.948 7.968 2.758 3.548 10.058 12.32 13.939 14.627.96.549 2.047.842 3.238.842 1.92 0 3.581-.726 4.4-1.214-4.563-3.474-13.417-17.245-10.573-29.206 1.26-5.315 5.685-7.696 9.51-7.696 1.872 0 3.534.55 4.682 1.56.433.376 1.332 1.357 2.544 2.71 3.372 3.72 11.253 12.47 15.965 14.16.917.324 1.752.497 2.515.497 1.769 0 2.938-.904 4.07-2.083a23.03 23.03 0 0 0-1.226-.873c-2.129-1.452-12.748-12.44-8.374-26.186 1.593-5.025 5.144-5.565 6.597-5.565 3.405 0 6.502 2.523 7.791 4.023 2.292 2.631 11.463 10.4 13.776 10.565 1.718-.307.964-1.171 3.56-4.481 2.142-4.97-4.489-5.22-10.769-7.255-3.431-1.11-11.064-9.45-17.948-6.119-6.88 3.323-73.777 49.122-44.267 12.842 12.418-15.262 28.563-21.756 27.368-25.689-1.825-5.976-20.647-6.347-26.023-10.284-2.797-2.044-5.209 2.33-6.884 6.352-16.71 66.087-75.297 101.036-80.87 104.778 0 0-15.4 9.523-11.364 9.368 4.04-.147 11.574-1.573 12.966 11.61m134.454-189.898c-26.777 8.638-51.01 4.918-51.01 4.918-9.5-.225-10.271-11.9-11.68-21.597-1.44-9.938 9.453 10.155 22.784 13.17 12.692 2.913 17.477 1.975 16.192-7.946-1.375-10.396 11.908 1.577 19.927 3.085 0 0 .986.64 5.14.415 4.147-.229 11.772 2.986-1.353 7.955"/></g></svg>