<svg xmlns="http://www.w3.org/2000/svg" role="img" viewBox="5.79 15.29 244.92 225.17"><title>Lodash logo</title><path fill="#fff" d="M0 0h256v256H0V0z"/><path d="M10.58 20.15c7.3.04 14.6 0 21.9.03-.02 48.7-.02 97.39 0 146.09 29.01-.04 58.01.03 87.01-.03.02 6.14.01 12.28.01 18.42-36.31-.03-72.63-.01-108.94-.01.02-54.83-.01-109.66.02-164.5zm168.79 43.04c15.11-1.67 31.26 1.44 43.38 11.03 12.63 9.65 19.54 25.16 21.19 40.7 1.96 17.19-.6 35.73-10.77 50.12-8.69 12.42-23.13 20.36-38.18 21.62-15.68 1.85-32.62-1.26-45.08-11.46-12-9.44-18.5-24.35-20.3-39.24-1.86-16.69.26-34.55 9.46-48.94 8.69-13.74 24.19-22.53 40.3-23.83z"/><path fill="#fff" d="M182.43 80.32c10.33-1.2 21.27 2.04 28.65 9.5 7.57 7.31 11.33 17.74 12.41 28.03.93 11.08.05 22.72-5.16 32.73-4.75 9.78-14.29 17.06-25.02 18.92-9.76 1.88-20.32-.57-28.16-6.7-7.75-5.93-12.33-15.17-14.25-24.59-2.3-12.46-1.66-25.87 3.82-37.45 4.9-11 15.65-19.24 27.71-20.44z"/><path fill="#3492ff" d="M10.53 210.16c78.52 0 157.05-.01 235.57 0 .04 8.58.04 17.16 0 25.74-78.53 0-157.05.01-235.58-.01-.03-8.58-.05-17.16.01-25.73z"/></svg>