<svg xmlns="http://www.w3.org/2000/svg" role="img" viewBox="26.30 14.05 253.39 309.14"><title>Lodash logo</title><defs><style>.cls-1{fill:#fff}</style></defs><path d="M24.76 0h256v256h-256z" class="cls-1"/><path d="M35.34 20.15c7.3.04 14.6 0 21.9.03q-.03 73.05 0 146.09c29.01-.04 58.01.03 87.01-.03.02 6.14.01 12.28.01 18.42q-54.465-.045-108.94-.01.03-82.245.02-164.5zm168.79 43.04c15.11-1.67 31.26 1.44 43.38 11.03 12.63 9.65 19.54 25.16 21.19 40.7 1.96 17.19-.6 35.73-10.77 50.12a52.367 52.367 0 0 1-38.18 21.62c-15.68 1.85-32.62-1.26-45.08-11.46-12-9.44-18.5-24.35-20.3-39.24-1.86-16.69.26-34.55 9.46-48.94 8.69-13.74 24.19-22.53 40.3-23.83z"/><path d="M207.19 80.32c10.33-1.2 21.27 2.04 28.65 9.5 7.57 7.31 11.33 17.74 12.41 28.03.93 11.08.05 22.72-5.16 32.73a34.91 34.91 0 0 1-25.02 18.92 35.452 35.452 0 0 1-28.16-6.7c-7.75-5.93-12.33-15.17-14.25-24.59-2.3-12.46-1.66-25.87 3.82-37.45 4.9-11 15.65-19.24 27.71-20.44z" class="cls-1"/><path fill="#3492ff" d="M35.29 210.16h235.57q.06 12.87 0 25.74-117.795 0-235.58-.01c-.03-8.58-.05-17.16.01-25.73z"/><path d="M32.386 266.823h10.301v40.437h24.617v8.863H32.386zm71.475 44.84q-4.615 5.698-14.013 5.697-9.4 0-14.015-5.697a22.618 22.618 0 0 1 0-27.386q4.616-5.781 14.015-5.78 9.397 0 14.013 5.78a22.618 22.618 0 0 1 0 27.386zm-7.625-5.268q2.24-2.973 2.24-8.45 0-5.478-2.24-8.433a8.473 8.473 0 0 0-12.86 0q-2.258 2.956-2.258 8.433t2.257 8.45a8.44 8.44 0 0 0 12.86 0zm48.721-38.501a16.288 16.288 0 0 1 8.401 6.253 21.928 21.928 0 0 1 3.515 7.961 38.168 38.168 0 0 1 .938 8.16q0 9.834-3.95 16.657-5.356 9.199-16.536 9.198H116.07v-49.3h21.256a25.959 25.959 0 0 1 7.632 1.07zm-18.887 7.49v32.177h9.514q7.302 0 10.183-7.19a25.335 25.335 0 0 0 1.575-9.4q0-7.526-2.362-11.556-2.362-4.03-9.396-4.03zm53.137 18.564a15.104 15.104 0 0 0 3.808-.836 2.869 2.869 0 0 0 2.054-2.71 3.205 3.205 0 0 0-1.576-3.093 9.968 9.968 0 0 0-4.628-.853q-3.423 0-4.847 1.672a6.893 6.893 0 0 0-1.357 3.345h-9.198a13.948 13.948 0 0 1 2.687-7.86q3.796-4.816 13.035-4.816a23.243 23.243 0 0 1 10.681 2.375q4.669 2.374 4.67 8.963v16.723q0 1.74.066 4.214a5.296 5.296 0 0 0 .569 2.542 3.413 3.413 0 0 0 1.404 1.105v1.404h-10.368a10.588 10.588 0 0 1-.603-2.073q-.167-.97-.267-2.208a19.656 19.656 0 0 1-4.575 3.645 13.825 13.825 0 0 1-6.997 1.773 12.07 12.07 0 0 1-8.226-2.826q-3.248-2.826-3.246-8.01 0-6.724 5.222-9.734a23.334 23.334 0 0 1 8.423-2.34zm5.83 4.448a10.579 10.579 0 0 1-1.85.92 15.63 15.63 0 0 1-2.56.653l-2.169.401a14.264 14.264 0 0 0-4.38 1.304 4.354 4.354 0 0 0-2.253 4.047 4.23 4.23 0 0 0 1.375 3.529 5.23 5.23 0 0 0 3.346 1.087 9.961 9.961 0 0 0 5.756-1.807q2.632-1.806 2.734-6.589zm25.218 6.087a6.35 6.35 0 0 0 1.31 3.613q1.782 1.907 6.587 1.906a10.085 10.085 0 0 0 4.488-.836 2.801 2.801 0 0 0 .323-4.95q-1.34-.835-9.973-2.876-6.214-1.538-8.756-3.847a8.339 8.339 0 0 1-2.542-6.556 11.358 11.358 0 0 1 3.973-8.678q3.971-3.63 11.178-3.63 6.838 0 11.144 2.726 4.307 2.727 4.945 9.415h-9.533a5.634 5.634 0 0 0-1.039-2.91q-1.577-1.94-5.367-1.94a7.727 7.727 0 0 0-4.443.97 2.793 2.793 0 0 0-1.325 2.275 2.488 2.488 0 0 0 1.409 2.375q1.408.769 9.953 2.642 5.695 1.338 8.539 4.047a9.187 9.187 0 0 1 2.81 6.857 11.07 11.07 0 0 1-4.04 8.847q-4.038 3.427-12.483 3.427-8.613 0-12.719-3.629a11.794 11.794 0 0 1-4.105-9.248zm56.905-24.615a10.71 10.71 0 0 1 4.512 3.582 9.565 9.565 0 0 1 1.83 4.201 52.063 52.063 0 0 1 .334 7.047v21.425h-9.732v-22.2a9.843 9.843 0 0 0-.997-4.755q-1.295-2.545-4.914-2.545a6.74 6.74 0 0 0-5.694 2.528q-1.942 2.529-1.941 7.216v19.756h-9.533V266.99h9.533v17.392a11.663 11.663 0 0 1 4.778-4.432 13.46 13.46 0 0 1 5.712-1.254 15.428 15.428 0 0 1 6.111 1.172z"/></svg>