<svg xmlns="http://www.w3.org/2000/svg" role="img" viewBox="-9.99 -9.99 519.48 436.48"><title>Marko logo</title><defs><linearGradient id="a" x1="98.768" x2="98.768" y1="82.878" y2="29.178" gradientTransform="scale(1.18807 .8417)" gradientUnits="userSpaceOnUse"><stop offset="0%" stop-color="#8AC23E"/><stop offset="100%" stop-color="#8AC23E" stop-opacity="0"/></linearGradient><linearGradient id="b" x1="111.478" x2="111.478" y1=".034" y2="53.692" gradientTransform="scale(1.18714 .84236)" gradientUnits="userSpaceOnUse"><stop offset="0%" stop-color="#698932"/><stop offset="100%" stop-color="#698932" stop-opacity="0"/></linearGradient><linearGradient id="c" x1="134.704" x2="134.704" y1=".034" y2="53.734" gradientTransform="scale(1.18807 .8417)" gradientUnits="userSpaceOnUse"><stop offset="0%" stop-color="#FFED01"/><stop offset="100%" stop-color="#FFED01" stop-opacity="0"/></linearGradient><linearGradient id="d" x1="175.925" x2="175.925" y1=".034" y2="53.75" gradientTransform="scale(1.18807 .8417)" gradientUnits="userSpaceOnUse"><stop offset="0%" stop-color="#E02A89"/><stop offset="100%" stop-color="#E02A89" stop-opacity="0"/></linearGradient><linearGradient id="e" x1="188.606" x2="188.606" y1="82.878" y2="136.578" gradientTransform="scale(1.18807 .8417)" gradientUnits="userSpaceOnUse"><stop offset="0%" stop-color="#7F1E4F"/><stop offset="100%" stop-color="#7F1E4F" stop-opacity="0"/></linearGradient><linearGradient id="f" x1="147.364" x2="147.364" y1="82.878" y2="136.578" gradientTransform="scale(1.18807 .8417)" gradientUnits="userSpaceOnUse"><stop offset="0%" stop-color="#E95506"/><stop offset="100%" stop-color="#E95506" stop-opacity="0"/></linearGradient><linearGradient id="g" x1="26.838" x2="26.838" y1="82.878" y2="29.212" gradientTransform="scale(1.18807 .8417)" gradientUnits="userSpaceOnUse"><stop offset="0%" stop-color="#88D0F1"/><stop offset="100%" stop-color="#88D0F1" stop-opacity="0"/></linearGradient><linearGradient id="h" x1="39.487" x2="39.487" y1=".034" y2="53.7" gradientTransform="scale(1.18807 .8417)" gradientUnits="userSpaceOnUse"><stop offset="0%" stop-color="#00828B"/><stop offset="83.25%" stop-color="#00828B" stop-opacity="0"/></linearGradient><linearGradient id="i" x1="39.507" x2="39.507" y1="165.592" y2="111.985" gradientTransform="scale(1.18714 .84236)" gradientUnits="userSpaceOnUse"><stop offset="0%" stop-color="#2073BA"/><stop offset="100%" stop-color="#2073BA" stop-opacity="0"/></linearGradient><linearGradient id="j" x1="62.801" x2="62.801" y1=".034" y2="53.7" gradientTransform="scale(1.18807 .8417)" gradientUnits="userSpaceOnUse"><stop offset="0%" stop-color="#8ED0E1"/><stop offset="100%" stop-color="#88D0F1" stop-opacity="0"/></linearGradient></defs><path fill="#272525" d="M158.008 343.75c-2.344-3.125-5.469-5.664-9.375-7.422-3.906-1.758-8.985-2.734-15.235-2.734-2.343 0-4.882.195-7.226.781-2.344.586-4.688 1.172-6.836 1.953-2.148.781-4.102 1.563-5.86 2.54-1.757.976-3.124 1.757-4.296 2.538-2.344-2.344-5.274-4.297-8.79-5.664-3.515-1.367-8.007-2.148-13.476-2.148-6.445 0-12.5.39-18.164 1.367-5.664.976-10.352 1.953-13.867 2.93v76.757h18.36v-64.062c1.171-.195 3.124-.39 5.468-.781 2.344-.39 4.687-.39 6.64-.39 5.665 0 9.57 1.757 11.524 5.468 2.148 3.71 3.125 9.765 3.125 17.969v41.796h18.36v-43.945c0-3.32-.196-6.25-.391-9.18-.39-2.93-.781-5.468-1.758-8.007 1.367-.977 3.32-1.758 5.86-2.735 2.538-.976 5.468-1.367 8.398-1.367 5.86 0 9.57 1.758 11.719 5.469 1.953 3.71 3.125 9.765 3.125 17.969v41.796h18.75v-44.53c0-5.274-.391-10.352-1.368-14.845-.78-4.492-2.343-8.398-4.687-11.523zm71.289-1.758c-2.54-2.734-5.86-4.883-9.961-6.445-4.102-1.563-8.984-2.149-15.04-2.344h-.39c-5.078 0-9.765.39-14.258 1.172-4.492.781-7.812 1.563-10.156 2.344l2.344 14.844c2.148-.782 5.078-1.563 8.594-2.149a71.014 71.014 0 0 1 11.718-.976h2.149c2.148.195 4.101.585 5.664 1.171 2.148.782 3.71 1.954 5.078 3.32 1.172 1.563 2.149 3.126 2.734 5.079.586 1.953.782 3.906.782 6.055v3.125c-2.54-.586-4.883-.977-7.227-1.368-2.148-.195-4.297-.39-6.445-.39h-.586c-4.102 0-8.203.39-11.914 1.367-3.906.781-7.422 2.344-10.547 4.297-3.125 1.953-5.469 4.492-7.227 7.617-1.757 3.125-2.734 7.031-2.734 11.523 0 4.688.781 8.79 2.344 11.914 1.562 3.32 3.71 5.86 6.445 7.813 2.734 1.953 6.055 3.516 10.156 4.492 3.907.977 8.203 1.367 13.086 1.367h.39c7.032 0 13.282-.39 18.946-1.367 5.664-.781 9.961-1.562 12.89-2.148v-48.047c0-4.688-.585-8.985-1.562-12.89-.976-3.321-2.734-6.641-5.273-9.376zm-10.742 58.985c-2.93.586-7.227.976-12.89.976h-1.173c-4.101-.195-7.422-.976-9.96-2.539-2.735-1.758-4.102-4.687-4.102-8.984 0-2.149.586-4.102 1.562-5.47.977-1.562 2.344-2.538 4.102-3.32a24.049 24.049 0 0 1 5.664-1.757c.976-.195 1.953-.195 2.93-.39 1.171 0 2.148-.196 3.32-.196 2.344 0 4.492.195 6.445.39 1.953.391 3.32.586 4.492.977v20.313zm71.289-66.407c-1.563-.195-3.32-.39-4.883-.586-1.563-.195-3.125-.195-4.297-.195-6.445 0-12.305.586-17.773 1.758-5.274 1.172-9.766 2.344-13.282 3.71v75.587h18.36v-63.672c.976-.39 2.539-.586 4.687-.977 2.344-.39 4.492-.586 6.446-.586 3.515 0 6.64.196 9.375.782 2.734.586 4.687 1.171 6.25 1.562l3.125-15.43c-.977-.39-2.149-.586-3.711-.976-.977-.586-2.54-.781-4.297-.977zm66.992 56.836c-3.125-4.101-6.445-7.812-9.766-11.523-3.32-3.516-6.445-6.64-9.57-9.18 5.664-5.86 11.328-11.719 16.797-17.773 5.664-6.055 10.937-11.914 16.015-17.578h-21.68c-1.562 1.953-3.515 4.101-5.859 6.836-2.343 2.539-4.687 5.273-7.226 8.007-2.54 2.735-5.078 5.47-7.813 8.399-2.539 2.734-5.078 5.469-7.421 7.812v-69.531L301.952 300v114.648h18.36V378.32c2.734 1.953 5.468 4.493 8.398 7.422 2.93 2.93 5.664 5.86 8.398 9.18a168.94 168.94 0 0 1 7.618 9.96c2.343 3.516 4.492 6.641 6.25 9.962h21.289c-1.758-3.516-4.102-7.227-6.836-11.328-2.54-4.102-5.47-8.204-8.594-12.11zm85.156-33.594c-1.953-5.078-4.492-9.57-7.812-13.085-3.32-3.711-7.422-6.446-12.11-8.399-4.687-1.953-9.765-2.93-15.43-2.93-5.468 0-10.742.977-15.234 2.93-4.687 1.953-8.594 4.688-12.11 8.399-3.32 3.71-6.054 8.007-7.812 13.086-1.953 5.078-2.734 10.742-2.734 16.992s.977 11.914 2.734 17.187c1.954 5.078 4.493 9.57 7.813 13.281 3.32 3.711 7.422 6.446 11.914 8.594 4.687 1.953 9.766 3.125 15.43 3.125s10.937-.976 15.625-3.125a33.452 33.452 0 0 0 12.109-8.594c3.32-3.71 5.86-8.007 7.813-13.28 1.757-5.079 2.734-10.938 2.734-17.188 0-6.25-.977-11.914-2.93-16.993zm-21.094 36.133c-3.32 4.688-8.203 7.032-14.257 7.032-6.055 0-10.743-2.344-14.258-7.032-3.32-4.687-5.078-10.937-5.078-18.945 0-7.813 1.757-14.063 5.078-18.75 3.32-4.688 8.203-6.836 14.258-6.836 6.054 0 10.742 2.344 14.257 6.836 3.32 4.688 5.079 10.938 5.079 18.75 0 8.008-1.758 14.258-5.079 18.945z"/><path fill="#8dc220" d="M250.195 0h70.508a44926.158 44926.158 0 0 1-83.398 136.133h-70.508C195.507 89.453 224.219 42.578 250.195 0z"/><path fill="#44bfef" d="M83.398 0h70.508c-13.867 22.656-27.93 45.508-41.797 68.164l-41.601 67.969c13.867 22.656 27.734 45.508 41.601 68.164 13.868 22.656 27.735 45.312 41.797 67.969H83.398c-13.867-22.657-27.93-45.313-41.796-67.97C27.734 181.837 13.867 158.985 0 136.329L41.602 68.36C55.469 45.508 69.532 22.852 83.398 0z"/><path fill="#00ac71" d="M83.398 0c28.711 46.875 57.422 93.75 83.399 136.133h70.508A564030.172 564030.172 0 0 1 153.906 0z"/><path fill="#f9bc00" d="M320.703 0h-70.508c13.868 22.656 27.735 45.508 41.797 68.164 13.867 22.656 27.735 45.313 41.797 67.969-13.867 22.656-27.93 45.508-41.797 68.164-13.867 22.656-27.734 45.312-41.797 67.969h70.508c13.867-22.657 27.735-45.313 41.797-67.97 13.867-22.655 27.734-45.312 41.797-68.163-14.063-22.656-27.93-45.313-41.797-67.969C348.633 45.508 334.57 22.852 320.703 0z"/><path fill="url(#a)" d="M149.3 24.6h-36.1c-4.6 7.5-9.2 15.1-13.8 22.6-4.6 7.5-9.2 15.1-13.9 22.6h36.1c4.6-7.5 9.3-15.1 13.9-22.6 4.5-7.6 9.1-15.1 13.8-22.6z" transform="scale(1.95313)"/><path fill="url(#b)" d="M100.5 45.2h36.1c4.6-7.5 9.2-15.1 13.8-22.6 4.6-7.5 9.2-15.1 13.8-22.6h-36.1c-4.6 7.5-9.2 15.1-13.8 22.6-4.6 7.6-9.2 15.1-13.8 22.6z" transform="scale(1.95313)"/><path fill="url(#c)" d="M191.9 45.2h-36.1c-4.6-7.5-9.3-15.1-13.9-22.6-4.6-7.5-9.2-15.1-13.8-22.6h36.1c4.6 7.5 9.2 15.1 13.8 22.6 4.7 7.6 9.3 15.1 13.9 22.6z" transform="scale(1.95313)"/><path fill="#df1b1c" d="M416.406 0h-70.508c13.868 22.852 27.735 45.508 41.602 68.164 13.867 22.656 27.93 45.313 41.797 67.969-13.867 22.656-27.93 45.508-41.797 68.164-13.867 22.656-27.734 45.312-41.797 67.969h70.508c13.867-22.657 27.734-45.313 41.797-67.97 13.867-22.655 27.734-45.312 41.797-68.163-13.867-22.656-27.735-45.313-41.797-67.969C444.336 45.508 430.273 22.852 416.406 0z"/><path fill="url(#d)" d="M240.9 45.2h-36.1c-4.7-7.5-9.3-15.1-13.9-22.6-4.6-7.5-9.2-15.1-13.8-22.6h36.1c4.6 7.5 9.2 15.1 13.8 22.6 4.6 7.6 9.3 15.1 13.9 22.6z" transform="scale(1.95313)"/><path fill="url(#e)" d="M192.2 115h36.1c4.6-7.5 9.2-15 13.8-22.6 4.6-7.5 9.2-15.1 13.9-22.6h-36.2c-4.6 7.5-9.2 15.1-13.8 22.6-4.6 7.5-9.2 15-13.8 22.6z" transform="scale(1.95313)"/><path fill="url(#f)" d="M143.2 115h36.1c4.6-7.5 9.2-15.1 13.8-22.6 4.6-7.5 9.2-15.1 13.9-22.6h-36.1c-4.6 7.5-9.2 15.1-13.8 22.6-4.7 7.5-9.3 15-13.9 22.6z" transform="scale(1.95313)"/><path fill="url(#g)" d="M63.8 24.6H27.7c-4.6 7.5-9.2 15.1-13.8 22.6C9.2 54.7 4.6 62.3 0 69.8h36.1c4.6-7.5 9.2-15 13.8-22.6 4.6-7.5 9.2-15.1 13.9-22.6z" transform="scale(1.95313)"/><path fill="url(#h)" d="M15 45.2h36.1c4.6-7.5 9.2-15.1 13.8-22.6C69.6 15.1 74.2 7.5 78.8 0H42.7c-4.6 7.5-9.2 15-13.8 22.6-4.6 7.5-9.2 15.1-13.9 22.6z" transform="scale(1.95313)"/><path fill="url(#i)" d="M15 94.3h36.1c4.6 7.5 9.2 15.1 13.8 22.6 4.6 7.5 9.2 15.1 13.8 22.6H42.6c-4.6-7.5-9.3-15-13.9-22.6-4.5-7.5-9.1-15-13.7-22.6z" transform="scale(1.95313)"/><path fill="url(#j)" d="M106.5 45.2H70.4c-4.6-7.5-9.2-15.1-13.8-22.6C51.9 15.1 47.3 7.5 42.7 0h36.1c4.6 7.5 9.2 15 13.8 22.6 4.7 7.5 9.3 15.1 13.9 22.6z" transform="scale(1.95313)"/></svg>