<svg xmlns="http://www.w3.org/2000/svg" role="img" viewBox="107.01 124.01 519.48 462.98"><title>Messageformat logo</title><style>.st0{fill:#7a7a7a}.st3{fill:#00a9ac}.st4{fill:#58c4c8}.st5{fill:#c8e8e9}</style><style>.st0{fill:#7a7a7a}.st3{fill:#00a9ac}.st4{fill:#58c4c8}.st5{fill:#c8e8e9}</style><style>.st0{fill:#7a7a7a}.st3{fill:#00a9ac}.st4{fill:#58c4c8}.st5{fill:#c8e8e9}</style><style>.st0{fill:#7a7a7a}.st3{fill:#00a9ac}.st4{fill:#58c4c8}.st5{fill:#c8e8e9}</style><style id="style2" type="text/css">.st0{fill:#7a7a7a}.st3{fill:#00a9ac}.st4{fill:#58c4c8}.st5{fill:#c8e8e9}</style><g id="g30" transform="translate(-46.634 -51.553) scale(1.37855)"><path id="path4" fill="#7a7a7a" d="M149.7 444.8v-1.3c2.1-.2 2.7-.9 2.7-3.3v-12.6c0-3.4-.8-5.3-2.9-5.3-1 0-2 .4-3.2 1.4-.7.6-1.5 1.5-1.5 1.8v14.7c0 2.1.6 3 2.5 3.3v1.3h-12.8v-1.3c2-.2 2.6-1 2.6-3.3v-13.3c0-3.3-.8-4.6-3-4.6-1.3 0-4.6 2.1-4.6 3.4v14.4c0 2.1.6 3 2.5 3.3v1.3h-13.2v-1.3c2.4-.4 3-1.2 3-3.4v-15.9c0-2.6-.7-3.2-3.1-3.5v-1.3h10.6v4.1h.2c2.1-3.4 4.4-4.8 8-4.8 3.5 0 5.4 1.3 7.1 4.8 2.9-3.5 5-4.8 8.1-4.8 4.5 0 7.5 2.9 7.5 7.9v13.7c0 2.4.6 3.2 2.8 3.3v1.3z" class="st0"/><path id="path6" fill="#7a7a7a" d="M187.4 438.6c-3.3 5.3-6.2 7-11 7-6.7 0-11.3-5.6-11.3-13.2 0-8.2 4.6-13.8 11.6-13.8 3.2 0 5.5 1 7.1 2.8 2 2.3 3 5.8 3.3 9.8h-13.9c.3 5.3 1.2 10.3 6.6 10.3 2.4 0 4.1-1.1 6.4-3.8zm-7.1-10.6c0-2.9 0-4-.5-5.1-.8-1.7-1.4-2.6-3-2.6-2.5 0-3.9 2.2-3.9 8.8h7.4z" class="st0"/><path id="path8" fill="#7a7a7a" d="M207.5 426.7c-.8-2.4-1.4-3.4-2.6-4.5-1.2-1.2-2.7-1.8-4.1-1.8-2.1 0-3.7 1.4-3.7 3.2 0 1.9 1.5 3.3 5.3 4.9 5.5 2.3 7.6 4.7 7.6 8.6 0 5-3.5 8.4-8.5 8.4-1.5 0-4.4-.6-6-1.3-.6-.2-1-.3-1.3-.3-.5 0-.8.4-1.4 1.5h-1.4v-9.1h1.5c1.2 4.8 3.7 7.3 7.6 7.3 2.5 0 4.1-1.4 4.1-3.6 0-1.8-1.5-3.2-5.3-4.8-5.6-2.4-7.9-4.9-7.9-8.6 0-4.6 3.6-8.1 8.7-8.1 1.3 0 2.5.2 4.3.8.9.3 1.4.4 1.7.4.7 0 1.1-.3 1.4-1.1h1.2v8h-1.2z" class="st0"/><path id="path10" fill="#7a7a7a" d="M230 426.7c-.8-2.4-1.4-3.4-2.6-4.5-1.2-1.2-2.7-1.8-4.1-1.8-2.1 0-3.7 1.4-3.7 3.2 0 1.9 1.5 3.3 5.3 4.9 5.5 2.3 7.6 4.7 7.6 8.6 0 5-3.5 8.4-8.5 8.4-1.5 0-4.4-.6-6-1.3-.6-.2-1-.3-1.3-.3-.5 0-.8.4-1.4 1.5h-1.4v-9.1h1.5c1.2 4.8 3.7 7.3 7.6 7.3 2.5 0 4.1-1.4 4.1-3.6 0-1.8-1.5-3.2-5.3-4.8-5.6-2.4-7.9-4.9-7.9-8.6 0-4.6 3.6-8.1 8.7-8.1 1.3 0 2.5.2 4.3.8.9.3 1.4.4 1.7.4.7 0 1.1-.3 1.4-1.1h1.2v8H230z" class="st0"/><path id="path12" fill="#7a7a7a" d="M261.9 442.4c-2.1 2.3-3.8 3.2-6.2 3.2-2.7 0-3.9-1-4.5-3.8-3 2.8-5.6 3.8-8.8 3.8-3.5 0-6.1-1.8-6.1-5.9 0-2.4 1.2-4.5 3.7-6.2 2.1-1.4 4.7-2.4 11.1-4.2v-3.8c0-3.5-1.2-5.1-4.5-5.1-2 0-3.6.7-3.6 2 0 .3.1.7.6 1.3.7.9 1.1 1.5 1.1 2.3 0 1.9-1.5 3.3-3.8 3.3s-3.6-1.4-3.6-3.8c0-4.4 4.3-7 10.6-7 6.7 0 10.8 2.7 10.8 7.4v14.4c0 .9.4 1.5 1.2 1.5.3 0 .4-.1.6-.2l.6-.6zm-10.8-11.2c-4.4 1.2-6.7 3.5-6.7 6.7 0 2.4 1.2 3.7 2.9 3.7 1.3 0 2.7-.5 3.9-2.2v-8.2z" class="st0"/><path id="path14" fill="#7a7a7a" d="M280.4 441.1c6 0 9.8 2.5 9.8 6.6 0 5.2-5.2 8.5-14.4 8.5-7 0-10.7-1.8-10.7-5.1 0-2.3 1.8-3.6 5.3-4.1-3.5-1.3-4.5-2.5-4.5-4.5 0-3.3 2.2-5.2 6.6-6.5-3.9-1.1-6.9-4.2-6.9-8.4 0-5.5 4.6-8.9 11.2-8.9 2.2 0 3.8.3 6.2 1.2h7.1v2.9h-4.4c1.5 1.4 2.2 3.2 2.2 5.4 0 3.5-1.7 5.9-5.1 7.3-1.8.8-2 .8-7 .8-2.2 0-3.8 1.1-3.8 2.7 0 1.5 1.2 2 5.6 2h2.8zm-8.6 6.6c-1.5 1.3-1.9 1.9-1.9 3 0 2.4 2.5 3.7 7.4 3.7 5.5 0 8.5-1.5 8.5-3.6 0-1.9-1.3-3.1-4.9-3.1zm4.9-27.3c-2.6 0-3.6 1.8-3.6 7.2 0 5.1 1 7.1 3.6 7.1 2.7 0 3.6-2 3.6-7.2.1-5.1-.9-7.1-3.6-7.1z" class="st0"/><path id="path16" fill="#7a7a7a" d="M313.8 438.6c-3.3 5.3-6.2 7-11 7-6.7 0-11.3-5.6-11.3-13.2 0-8.2 4.6-13.8 11.6-13.8 3.2 0 5.5 1 7.1 2.8 2 2.3 3 5.8 3.3 9.8h-13.9c.3 5.3 1.2 10.3 6.6 10.3 2.4 0 4.1-1.1 6.4-3.8zm-7.1-10.6c0-2.9 0-4-.5-5.1-.8-1.7-1.4-2.6-3-2.6-2.5 0-3.9 2.2-3.9 8.8h7.4z" class="st0"/><path id="path18" fill="#7a7a7a" d="M320.4 419.3c0-4.4.4-7.7 2.2-9.9 1.5-1.8 3.9-2.8 7.5-2.8 4.7 0 7.9 2.3 7.9 5.5 0 2-1.4 3.5-3.4 3.5-1.9 0-3.3-1.4-3.3-3.2 0-1.9 1.2-2.4 1.2-3.2 0-.7-.6-1.1-1.6-1.1-2 0-2.8 1.1-2.8 4.4v6.6h4.8v2.4h-4.8v17.1c0 3.6.7 4.5 4.5 4.6v1.3h-15.4v-1.3c2.5-.3 3.2-1 3.2-3.5v-18.3h-3.2V419h3.2z" class="st0"/><path id="path20" fill="#7a7a7a" d="M349 445.5c-6.9 0-12.4-5.5-12.4-13.4 0-8.1 5.4-13.6 12.7-13.6 7 0 12.3 5.6 12.3 13.5-.1 7.9-5.5 13.5-12.6 13.5zm0-25.2c-3.4 0-4.4 2.9-4.4 12.4 0 8 1.2 11.1 4.4 11.1s4.3-2.9 4.3-11.1c0-9.5-1-12.4-4.3-12.4z" class="st0"/><path id="path22" fill="#7a7a7a" d="M375.8 423.8c2.6-3.8 4.7-5.2 7.5-5.2 2.6 0 4.5 1.8 4.5 4.4 0 2.2-1.4 3.8-3.5 3.8-1.4 0-2.4-.6-3.3-2.1-.6-1-1.1-1.3-1.5-1.3-1.9 0-3.4 2.5-3.4 5.8v9.8c0 3.5.6 4.3 4 4.5v1.3h-14.7v-1.3c2.4-.4 3-1.1 3-3.3v-16c0-2.6-.7-3.2-3-3.5v-1.3h10.5v4.4z" class="st0"/><path id="path24" fill="#7a7a7a" d="M420.8 444.8v-1.3c2.1-.2 2.7-.9 2.7-3.3v-12.6c0-3.4-.8-5.3-2.9-5.3-1 0-2 .4-3.2 1.4-.7.6-1.5 1.5-1.5 1.8v14.7c0 2.1.6 3 2.5 3.3v1.3h-12.8v-1.3c2-.2 2.6-1 2.6-3.3v-13.3c0-3.3-.8-4.6-3-4.6-1.3 0-4.6 2.1-4.6 3.4v14.4c0 2.1.6 3 2.5 3.3v1.3h-13.2v-1.3c2.4-.4 3-1.2 3-3.4v-15.9c0-2.6-.7-3.2-3.1-3.5v-1.3h10.6v4.1h.2c2.1-3.4 4.4-4.8 8-4.8 3.5 0 5.4 1.3 7.1 4.8 2.9-3.5 5-4.8 8.1-4.8 4.5 0 7.5 2.9 7.5 7.9v13.7c0 2.4.6 3.2 2.8 3.3v1.3z" class="st0"/><path id="path26" fill="#7a7a7a" d="M463.3 442.4c-2.1 2.3-3.8 3.2-6.2 3.2-2.7 0-3.9-1-4.5-3.8-3 2.8-5.6 3.8-8.8 3.8-3.5 0-6.1-1.8-6.1-5.9 0-2.4 1.2-4.5 3.7-6.2 2.1-1.4 4.7-2.4 11.1-4.2v-3.8c0-3.5-1.2-5.1-4.5-5.1-2 0-3.6.7-3.6 2 0 .3.1.7.6 1.3.7.9 1.1 1.5 1.1 2.3 0 1.9-1.5 3.3-3.8 3.3s-3.6-1.4-3.6-3.8c0-4.4 4.3-7 10.6-7 6.7 0 10.8 2.7 10.8 7.4v14.4c0 .9.4 1.5 1.2 1.5.3 0 .4-.1.6-.2l.6-.6zm-10.8-11.2c-4.4 1.2-6.7 3.5-6.7 6.7 0 2.4 1.2 3.7 2.9 3.7 1.3 0 2.7-.5 3.9-2.2v-8.2z" class="st0"/><path id="path28" fill="#7a7a7a" d="M481.4 439.2c-2.3 4.5-4.5 6.2-8.2 6.2-3.8 0-6.2-2.2-6.2-5.9v-17.8h-2.9v-1.5c4-2.7 6-5.6 9.2-10.3h1.4v9.3h5.3v2.4h-5.3v16.5c0 2.2.6 3.3 2.2 3.3 1.2 0 2-.8 3.2-2.9z" class="st0"/></g><g id="g58" transform="translate(-46.634 -51.553) scale(1.37855)"><circle id="circle32" cx="300" cy="252.8" r="118.2" fill="#4c5963"/><path id="polygon34" fill="#fff" d="M266.3 294.9h-35l35-87.7 35.1 35.1 35-35.1 35.1 87.7h-35.1l-17.5-35.1-17.5 17.5-17.6-17.5z"/><g id="g56"><path id="rect36" fill="#58c4c8" d="M253.7 207.2h12.6V220h-12.6z" class="st4"/><path id="rect38" fill="#c8e8e9" d="M253.7 219.7h12.6v12.8h-12.6z" class="st5"/><path id="rect40" fill="#00a9ac" d="M253.5 232.2h12.8v12.6h-12.8z" class="st3"/><path id="rect42" fill="#c8e8e9" d="M241.1 232.2h12.6V245h-12.6z" class="st5"/><path id="rect44" fill="#58c4c8" d="M241.1 244.8h12.6v12.8h-12.6z" class="st4"/><path id="rect46" fill="#00a9ac" d="M253.5 257.4h12.8v12.5h-12.8z" class="st3"/><path id="rect48" fill="#c8e8e9" d="M241.1 257.4h12.6v12.8h-12.6z" class="st5"/><path id="rect50" fill="#58c4c8" d="M240.9 269.9h12.8v12.6h-12.8z" class="st4"/><path id="rect52" fill="#c8e8e9" d="M228.5 269.9h12.6v12.8h-12.6z" class="st5"/><path id="rect54" fill="#00a9ac" d="M228.5 282.5h12.6V295h-12.6z" class="st3"/></g></g></svg>