<svg xmlns="http://www.w3.org/2000/svg" role="img" viewBox="-4.87 -4.87 431.24 487.24"><title>Mocha logo</title><path fill="#8d6748" fill-rule="evenodd" d="M404.748 365.37l-181.16 104.67a24.996 24.996 0 0 1-25.16 0L17.267 365.37c-7.8-4.528-12.58-12.831-12.58-21.638v-209.34c0-9.057 4.78-17.109 12.58-21.638l181.16-104.67a24.996 24.996 0 0 1 25.16 0l181.16 104.67c7.8 4.53 12.58 12.832 12.58 21.639v209.34c-.251 8.806-5.032 17.109-12.58 21.638z" clip-rule="evenodd"/><path fill="#fff" d="M210.756 44.065c2.516 0 4.78.754 7.045 2.012l156.502 90.328c4.277 2.517 7.045 7.297 7.045 12.33V329.39c0 5.032-2.768 9.812-7.045 12.329l-156.502 90.328c-2.264 1.258-4.529 2.012-7.045 2.012s-5.032-.754-7.045-2.012L47.21 341.72c-4.278-2.517-7.045-7.297-7.045-12.33V148.735c0-5.032 2.767-9.812 7.045-12.329l156.5-90.329c2.265-1.258 4.78-2.012 7.045-2.012m0-7.549c-3.774 0-7.548 1.007-10.819 3.02L43.435 129.864c-6.793 3.774-10.819 11.07-10.819 18.619v180.656c0 7.8 4.026 14.845 10.82 18.62l156.501 90.327c3.271 2.013 7.045 3.02 10.82 3.02 3.773 0 7.548-1.007 10.819-3.02l156.501-90.328c6.794-3.774 10.82-11.07 10.82-18.619V148.483c0-7.8-4.026-14.845-10.82-18.62L221.576 39.537c-3.271-2.013-7.046-3.02-10.82-3.02z"/><path fill="#fff" d="M233.024 148.483c0-1.258-1.007-2.516-2.516-2.516h-47.303c-1.258 0-2.516 1.006-2.516 2.516 0 8.555 1.258 37.993 13.838 52.335.504.503 1.007.755 1.762.755h21.135c.755 0 1.258-.252 1.761-.755 12.58-14.09 13.839-43.529 13.839-52.335zm-18.62 45.793H199.56c-.755 0-1.258-.252-1.762-.755-8.554-10.064-9.56-30.193-9.812-37.238 0-1.258 1.006-2.516 2.516-2.516h33.212c1.258 0 2.516 1.006 2.516 2.516 0 7.045-1.258 26.922-9.812 37.238-.755.503-1.258.755-2.013.755z"/><path fill="#fff" d="M211.637 140.934s9.058-5.283 3.523-14.845c-3.271-5.032-4.781-9.31-3.523-11.07-3.271 4.025-8.806 8.303-2.768 17.36 2.013 2.265 3.02 7.046 2.768 8.555zm-10.064.756s6.038-3.523 2.264-10.065c-2.264-3.271-3.27-6.29-2.264-7.297-2.265 2.768-5.787 5.536-1.762 11.826 1.258 1.258 1.762 4.529 1.762 5.535zm20.632 29.186c-1.007 6.794-3.02 14.594-7.297 19.626-.503.503-1.007.755-1.51.755h-12.58c-.504 0-1.258-.252-1.51-.755-3.02-3.774-5.032-8.807-6.29-14.09 0 0 14.593 2.012 22.896-1.007 6.039-2.264 6.29-4.529 6.29-4.529z"/><path d="M56.897 211.637h9.31l15.347 23.651 15.349-23.651h9.31v50.322h-8.807v-35.98L81.554 249.63h-.251l-15.6-23.4v35.98h-8.806zm94.857 51.077c-3.774 0-7.297-.755-10.568-2.013-3.27-1.258-6.039-3.271-8.303-5.535-2.265-2.265-4.026-5.033-5.284-8.304a26.598 26.598 0 0 1-2.013-10.064v-.252c0-3.522.755-6.793 2.013-10.064 1.258-3.02 3.02-5.787 5.536-8.303 2.264-2.265 5.032-4.278 8.303-5.536 3.27-1.51 6.793-2.012 10.567-2.012s7.297.754 10.568 2.012c3.27 1.258 6.039 3.271 8.303 5.536 2.265 2.264 4.026 5.032 5.284 8.303a26.598 26.598 0 0 1 2.013 10.064v.252c0 3.523-.755 6.793-2.013 10.064-1.258 3.02-3.02 5.787-5.536 8.304-2.264 2.264-5.032 4.277-8.303 5.535-3.27 1.51-6.793 2.013-10.567 2.013zm0-8.052c2.516 0 4.78-.503 6.793-1.51 2.013-1.006 3.774-2.264 5.284-3.773 1.51-1.51 2.516-3.523 3.523-5.536.754-2.264 1.258-4.529 1.258-6.793v-.252c0-2.516-.504-4.78-1.258-7.045-.755-2.265-2.013-4.026-3.523-5.787-1.51-1.51-3.27-2.768-5.284-3.774-2.013-1.007-4.277-1.51-6.793-1.51s-4.78.503-6.794 1.51c-2.013 1.006-3.774 2.264-5.284 3.774-1.51 1.51-2.516 3.522-3.522 5.535-.755 2.265-1.258 4.53-1.258 6.794v.251c0 2.516.503 4.781 1.258 7.045.755 2.265 2.013 4.026 3.522 5.788 1.51 1.51 3.271 2.767 5.284 3.774 2.013 1.006 4.53 1.51 6.794 1.51zm68.941 8.052a25.64 25.64 0 0 1-10.064-2.013c-3.02-1.258-5.788-3.271-8.052-5.535-2.265-2.265-4.026-5.033-5.284-8.304-1.258-3.27-2.013-6.541-2.013-10.064v-.252c0-3.522.755-7.045 2.013-10.064 1.258-3.02 3.02-5.787 5.284-8.303 2.264-2.265 5.032-4.278 8.303-5.536 3.271-1.258 6.542-2.012 10.568-2.012 2.264 0 4.277.251 6.29.503 2.013.503 3.523 1.006 5.284 1.51 1.51.754 3.02 1.51 4.277 2.516 1.258 1.006 2.516 2.012 3.774 3.27l-5.787 6.542c-2.013-1.761-4.025-3.27-6.29-4.529-2.264-1.258-4.78-1.76-7.8-1.76-2.516 0-4.529.502-6.542 1.509-2.013 1.006-3.774 2.264-5.284 3.774-1.51 1.51-2.516 3.522-3.522 5.535-.755 2.265-1.258 4.53-1.258 6.794v.251c0 2.516.503 4.781 1.258 7.045.755 2.265 2.013 4.026 3.522 5.788 1.51 1.51 3.271 3.019 5.284 3.774 2.013.755 4.278 1.51 6.542 1.51 3.02 0 5.787-.504 7.8-1.762s4.277-2.768 6.542-4.78l5.787 5.787c-1.258 1.51-2.516 2.516-4.026 3.774-1.51 1.258-3.02 2.013-4.529 2.767-1.51.755-3.522 1.51-5.284 1.762-2.264.503-4.529.503-6.793.503zm38.245-51.077h8.806v20.884h24.155v-20.884h8.806v50.322h-8.806v-21.135h-24.155v21.135h-8.806zm80.767-.252h8.051L369.9 261.96h-9.31l-5.032-12.077h-23.651l-5.284 12.077h-9.058zm12.58 30.697l-8.555-20.129-8.554 20.129z" fill="#fff"/><path fill="#fff" d="M50.607 277.812h320.802v2.768H50.607zm320.803-94.607H235.036c0 1.006-.252 1.761-.252 2.768H371.41v-2.768zm-320.804 0v2.768H179.18c0-1.007-.251-1.762-.251-2.768z"/></svg>