<svg xmlns="http://www.w3.org/2000/svg" role="img" viewBox="0.20 -4.80 502.10 509.60"><title>Moment.js logo</title><path d="M58.169 402.07H79.77v71.845H65.782V425.32q0-2.095.048-5.873.048-3.777.05-5.824l-13.615 60.292h-14.59l-13.518-60.292q0 2.046.049 5.824.048 3.778.049 5.873v48.595H10.266V402.07h21.845l13.078 56.49zm78.677 65.346q-6.726 8.302-20.423 8.302-13.696 0-20.422-8.302a32.963 32.963 0 0 1 0-39.91q6.726-8.424 20.422-8.424 13.697 0 20.423 8.424a32.961 32.961 0 0 1 0 39.91zm-11.113-7.678q3.265-4.332 3.265-12.314t-3.265-12.289q-3.266-4.306-9.358-4.307-6.094 0-9.383 4.307-3.29 4.307-3.29 12.29 0 7.981 3.29 12.313t9.383 4.33q6.092 0 9.358-4.33zm94.07-38.756a15.457 15.457 0 0 1 6.19 4.776 15.272 15.272 0 0 1 3.022 6.825 47.246 47.246 0 0 1 .487 7.846l-.098 33.486h-14.232v-33.827a11.103 11.103 0 0 0-.975-4.971q-1.852-3.703-6.824-3.704-5.751 0-7.944 4.776a14.995 14.995 0 0 0-1.121 6.093v31.633h-13.989v-31.633a17.775 17.775 0 0 0-.974-6.872q-1.755-3.85-6.873-3.85-5.947 0-7.994 3.85a14.833 14.833 0 0 0-1.12 6.53v31.975H153.27v-53.03h13.502v7.75a22.34 22.34 0 0 1 4.874-5.898q4.045-3.119 10.479-3.12 6.092 0 9.846 2.681a15.598 15.598 0 0 1 4.581 6.385 17.658 17.658 0 0 1 6.775-6.872 20.665 20.665 0 0 1 9.553-2.193 18.506 18.506 0 0 1 6.922 1.364zm57.089.881a21.622 21.622 0 0 1 9.181 7.86 26.119 26.119 0 0 1 4.233 10.984 68.04 68.04 0 0 1 .457 10.544h-38.694q.324 7.993 5.555 11.21a14.113 14.113 0 0 0 7.66 1.998 10.79 10.79 0 0 0 10.572-6.092h14.182q-.563 4.727-5.15 9.601-7.137 7.75-19.987 7.75a28.958 28.958 0 0 1-18.714-6.537q-8.108-6.536-8.107-21.27 0-13.804 7.319-21.17 7.318-7.367 18.998-7.367a30.251 30.251 0 0 1 12.495 2.489zm-20.782 12a14.431 14.431 0 0 0-3.7 8.223h23.933q-.381-5.53-3.701-8.394a12.174 12.174 0 0 0-8.239-2.864q-5.35 0-8.293 3.036zm84.518-10.029q5.218 4.314 5.218 14.305v35.776h-14.233v-32.316a14.854 14.854 0 0 0-1.112-6.433q-2.035-4.095-7.742-4.094-7.015 0-9.628 5.995a20.723 20.723 0 0 0-1.356 8.09v28.758h-13.89v-53.03h13.452v7.75a23.533 23.533 0 0 1 5.048-5.898 17.488 17.488 0 0 1 10.823-3.217q8.203 0 13.42 4.314zm12.675 7.334v-9.893h7.409v-14.817h13.744v14.817h8.627v9.893h-8.627v28.076q0 3.266.83 4.069.827.804 5.067.805.633 0 1.341-.025.706-.023 1.389-.073v10.382l-6.58.244q-9.846.34-13.452-3.412-2.34-2.388-2.34-7.36v-32.706zm38.457 28.173h14.767v14.574H391.76zm21.932 24.76q1.17.098 1.658.122c.324.016.617.025.877.025a4.33 4.33 0 0 0 3.095-1q1.048-1 1.048-3.874V421.03h13.89v58.587q0 8.042-3.167 11.892-3.169 3.85-12.429 3.85a55.24 55.24 0 0 1-1.876-.048q-1.244-.05-3.096-.098zm20.569-69.65H420.37v-12.819h13.89zm23.98 42.502q.441 3.704 1.91 5.263 2.596 2.78 9.599 2.779a14.686 14.686 0 0 0 6.538-1.218 4.082 4.082 0 0 0 .472-7.214q-1.953-1.217-14.533-4.191-9.055-2.243-12.76-5.606-3.704-3.313-3.703-9.554a16.556 16.556 0 0 1 5.788-12.647q5.789-5.288 16.29-5.29 9.964 0 16.24 3.974 6.277 3.972 7.206 13.72h-13.892a8.203 8.203 0 0 0-1.514-4.24q-2.299-2.827-7.82-2.827-4.546 0-6.476 1.413a4.067 4.067 0 0 0-1.93 3.314 3.625 3.625 0 0 0 2.052 3.461q2.052 1.122 14.504 3.851 8.3 1.95 12.443 5.897a13.391 13.391 0 0 1 4.095 9.993 16.13 16.13 0 0 1-5.886 12.891q-5.886 4.995-18.191 4.996-12.553 0-18.534-5.289a17.187 17.187 0 0 1-5.984-13.476z"/><path fill="#376660" d="M250 383.5c104.528 0 189.25-84.722 189.25-189.25S354.528 5 250 5 60.75 89.722 60.75 194.25 145.472 383.5 250 383.5zm0-28.413A160.837 160.837 0 1 1 410.837 194.25 160.837 160.837 0 0 1 250 355.087z"/><path fill="#529990" d="M250 42.85a151.4 151.4 0 1 0 151.4 151.4A151.4 151.4 0 0 0 250 42.85zm9.333 160.733H174.3a9.45 9.45 0 0 1-9.437-9.333 9.317 9.317 0 0 1 9.3-9.334l.137.001h66.367V61.827a9.334 9.334 0 0 1 18.664-.412q.004.154.002.308z"/></svg>