<svg xmlns="http://www.w3.org/2000/svg" role="img" viewBox="59.95 60.20 379.60 379.35"><title>Moment logo</title><style>svg {enable-background:new 0 0 500 500}</style><path fill="#376660" d="M250 432.5c100.8 0 182.5-81.7 182.5-182.5S350.8 67.5 250 67.5 67.5 149.2 67.5 250 149.2 432.5 250 432.5zm0-27.4c-85.7 0-155.1-69.5-155.1-155.1 0-85.7 69.5-155.1 155.1-155.1 85.7 0 155.1 69.5 155.1 155.1 0 85.7-69.4 155.1-155.1 155.1z"/><path fill="#529990" d="M250 104c-80.6 0-146 65.4-146 146s65.4 146 146 146 146-65.4 146-146-65.4-146-146-146zm9 155h-82c-4.9 0-9.1-4-9.1-9 0-5.1 4.1-9 9.1-9h64V122.3c0-5.1 4-9.2 9-9.2 5.1 0 9 4.1 9 9.1V259z"/></svg>