<svg xmlns="http://www.w3.org/2000/svg" role="img" viewBox="5.01 9.51 493.48 160.48"><title>nvm logo</title><path fill="#4d4d4d" d="M15.767 59.904c0-14.295-.287-26.015-1.144-37.452h22.299l1.43 22.871h.571c6.86-13.15 22.87-26.014 45.74-26.014 19.154 0 48.884 11.434 48.884 58.89v82.618H108.39V81.058c0-22.299-8.29-40.88-32.017-40.88-16.582 0-29.446 11.72-33.734 25.728a36.161 36.161 0 0 0-1.716 11.722v83.189H15.767zm155.434-37.452l27.16 77.76a355.606 355.606 0 0 1 11.149 35.447h.857c3.146-11.434 7.147-22.869 11.721-35.447l26.872-77.76h26.302l-54.318 138.365h-24.013L144.329 22.452zm120.637 37.452c0-14.295-.285-26.015-1.144-37.452h22.014l1.14 22.3h.86c7.72-13.152 20.584-25.443 43.453-25.443 18.866 0 33.163 11.434 39.165 27.729h.57a56.992 56.992 0 0 1 15.438-18.01c8.29-6.289 17.44-9.72 30.59-9.72 18.296 0 45.453 12.007 45.453 60.034v81.475h-24.584v-78.33c0-26.586-9.72-42.596-30.02-42.596-14.292 0-25.442 10.578-29.73 22.871a41.408 41.408 0 0 0-2 12.58v85.475h-24.587V77.913c0-22.012-9.72-38.022-28.871-38.022-15.723 0-27.157 12.579-31.16 25.158a34.672 34.672 0 0 0-2.003 12.292v83.476h-24.584z"/></svg>