<svg xmlns="http://www.w3.org/2000/svg" role="img" viewBox="7.99 42.99 104.39 33.89"><title>nvm logo</title><path fill="#fefefe" d="M0 0v120h120V0H0z"/><path fill="#565656" d="M15 49c-.654-3.054-2.007-2.936-5-3v29h5c0-6.428-3.035-26.04 7.996-25.288C32.902 50.387 30 68.602 30 75h5c0-9.484 2.977-34.364-13.995-29.351-2.287.675-4.087 2.003-6.005 3.351m57 0c-.654-3.054-2.007-2.936-5-3v29h5c0-6.09-1.752-15.45 1.318-20.906 1.858-3.302 5.935-5.828 9.454-3.333C88.617 54.905 86 68.73 86 75h5c0-6.243-1.636-15.262 1.457-20.906 1.819-3.319 5.786-5.835 9.315-3.333C107.617 54.905 105 68.73 105 75h5c0-7.095 1.511-16.19-.653-22.996C106.123 41.864 95.34 44.714 90 51c-4.282-7.802-11.55-6.534-18-2m-35-3c2.31 9.978 7.307 19.135 10 29 2.091-.025 4.679.254 6.492-1.028 2.325-1.644 3.132-5.45 4.084-7.972 2.51-6.644 5.148-13.274 7.424-20-9.315.72-11.133 15.567-14 23-3.622-6.872-4.971-22.28-14-23z"/></svg>