<svg xmlns="http://www.w3.org/2000/svg" role="img" viewBox="-10.54 -10.54 481.58 548.08"><title>PEP logo</title><defs><clipPath id="a" clipPathUnits="userSpaceOnUse"><path d="M0 792h612V0H0z"/></clipPath></defs><path fill="#344f57" d="M446.668 364.822L230.475 509.984 14.293 364.822V14.293h432.375z"/><path fill="#344f57" d="M28.587 357.204l201.888 135.564 201.898-135.564V28.587H28.587zm201.888 169.995L0 372.44V0h460.961v372.44z"/><g clip-path="url(#a)" transform="matrix(1.33333 0 0 -1.33333 -178.186 792.532)"><path fill="#fff" d="M207.127 510.737h9.604c1.118 0 2.156.51 3.124 1.533.96 1.028 1.442 2.875 1.442 5.548 0 2.736-.561 4.597-1.678 5.593-1.121.996-2.24 1.491-3.356 1.491h-9.136zm-18.174-36.17v66.183h28.524c3.227 0 6.215-.668 8.945-2.006 2.734-1.332 5.086-3.075 7.038-5.218 1.957-2.142 3.496-4.6 4.615-7.366 1.122-2.765 1.675-5.543 1.675-8.342 0-2.922-.53-5.765-1.582-8.526-1.058-2.773-2.53-5.223-4.432-7.368-1.893-2.142-4.192-3.855-6.895-5.128-2.703-1.272-5.671-1.907-8.903-1.907h-10.811v-20.322z"/><path fill="#fff" d="M329.334 502.678v-15.845H282.17v66.182h46.327v-15.843h-28.152v-9.322h24.05v-14.726h-24.05v-10.446z"/><path fill="#fff" d="M391.415 510.737h9.603c1.122 0 2.158.51 3.124 1.533.962 1.028 1.445 2.875 1.445 5.548 0 2.736-.561 4.597-1.68 5.593-1.12.996-2.24 1.491-3.36 1.491h-9.132zm-18.173-36.17v66.183h28.523c3.227 0 6.21-.668 8.95-2.006 2.73-1.332 5.076-3.075 7.038-5.218a24.36 24.36 0 0 0 4.61-7.366c1.12-2.765 1.675-5.543 1.675-8.342 0-2.922-.525-5.765-1.584-8.526-1.057-2.773-2.531-5.223-4.426-7.368-1.894-2.142-4.198-3.855-6.898-5.128-2.702-1.272-5.672-1.907-8.902-1.907h-10.813v-20.322z"/><path fill="#c89b2f" d="M166.758 395.16v-29.734l93.532-61.962 18.61-67.616 27.597-16.96 27.6 16.934 18.603 67.642 93.535 61.963v29.734z"/><path fill="#dabc29" d="M306.503 395.16V218.888l27.597 16.935 18.605 67.642 93.532 61.963v29.734z"/><path fill="#e7d055" d="M446.235 365.427H166.758v29.734h279.477z"/><path fill="#48a6dd" d="M253.127 450.122l24.828-27.194V395.16H227.96l-42.072 54.962z"/><path fill="#3185b1" d="M185.889 450.122l42.072-54.962h33.619l-42.074 54.962z"/><path fill="#bb4277" d="M359.858 450.122l-24.823-27.194V395.16h49.991l42.077 54.962z"/><path fill="#db4783" d="M427.104 450.122l-42.078-54.962h-33.62l42.075 54.962z"/><path fill="#3cb279" d="M277.955 462.913V395.16h57.081v67.752z"/><path fill="#30925d" d="M306.503 395.16h-28.548v67.752h28.548z"/><path fill="#fff" d="M468.64 583.68H144.36V320.783l162.136-108.871 162.145 108.87zm-7.147-7.147V324.592L306.496 220.52l-154.99 104.07v251.942h154.998z"/></g></svg>