<svg xmlns="http://www.w3.org/2000/svg" role="img" viewBox="-17.59 -17.59 673.18 914.68"><title>QUnit logo</title><g stroke-width=".392"><path fill="#992094" d="M603.775 505.922c0 30.797-31.06 63.4-61.962 63.4H93.194c-30.826 0-58.772-32.603-58.772-63.4V57.212C34.422 26.415 62.368 0 93.194 0h448.619c30.903 0 61.962 26.415 61.962 57.212v448.71"/><path fill="#fff" d="M535.944 306.068l-14.583 68.535 14.583-68.535m-37.446 0l-11.057 51.2 11.057-51.2m34.927-4.972h-31.11c-1.752 0-3.504 2.342-3.817 4.031L487.44 356.77l-11.021 53.638c-.39 1.76-2.143 5.632-3.866 5.632h-22.029c-21.812 0-19.308-17.335-14.882-37.99.096-.313.155-1.622.203-1.814l.457-3.19c.03-.129.088-.6.088-.749l1.033-5.447 1.052-5.765c.328-1.686.815-4.26 1.106-5.846l5.042-24.57 5.057-25.542c.361-1.689-.782-4.031-2.505-4.031h-31.999c-1.737 0-3.445 2.342-3.769 4.031l-5.105 33.11-7.513 34.809c-7.948 36.17-7.587 70.416 35.414 70.416h68.804c1.753 0 3.456 0 3.785-1.752l14.568-67.852 14.583-69.104c.391-1.63-.752-3.658-2.519-3.658M307.426 277.06l-12.64 50.418-12.286 41.935c-.782 3.095-4.835 2.81-7.745 2.81h-59.62c-45.123 0-56.142-36.827-45.123-95.384 11.032-59.834 33.593-95.574 78.08-99.391 60.856-5.108 74.027 44.251 59.334 99.612m38.792 97.359s28.1-76.52 34.456-120.802c8.652-59.147-17.682-144.954-119.705-144.954-101.394 0-145.49 81.922-162.298 170.993-16.789 89.728 5.23 168.435 106.059 167.808l79.614-.35 74.407-.277c2.784 0 5.738-2.626 6.465-5.698l12.942-55.387c.73-3.164-1.007-5.699-3.869-5.699l-12.407-.121-12.426-.074c-2.489-.055-3.835-1.751-3.581-4.156.06-.41.125-.842.343-1.283"/></g><g stroke-width=".392"><path fill="#2f2d2e" d="M330.135 639.08h-34.972c-1.936 0-3.86 2.028-4.302 3.922l-12.417 57.66-12.4 58.7c-.427 1.897-2.347 4.7-4.294 4.7h-24.758c-24.465 0-21.632-18.077-16.62-41.295.054-.234 10.025-51.727 10.025-51.727l5.635-28.038c.403-1.894-.858-3.922-2.806-3.922h-35.92c-1.936 0-3.84 2.028-4.247 3.922l-16.166 77.128c-8.883 40.609-6.52 78.258 41.817 79.452.764.011 77.346 0 77.346 0 1.935 0 3.871-.497 4.259-2.38l16.248-77.396 16.373-77.088c.42-1.898-.854-3.638-2.8-3.638m-210.552 75.465l-7.104 25.117-6.856 22.126c-.44 1.534-2.676 2.56-4.26 2.56H68.029c-25.297 0-31.439-19.543-25.297-48.711 6.15-29.845 18.791-48.26 43.672-50.154 34.011-2.571 41.404 21.465 33.18 49.062m21.726 48.545s15.704-38.194 19.3-60.205c4.827-29.531-9.92-72.308-66.983-72.308-56.739 0-81.38 40.852-90.775 85.266-9.39 44.74 2.928 83.97 59.321 83.634l86.123-.299c1.587-.015 3.224-1.285 3.636-2.816l7.248-27.648c.404-1.546-.584-2.832-2.194-2.847l-6.907-.023-6.978-.053c-1.344-.026-2.128-.885-1.96-2.051.028-.222.067-.444.169-.65m300.509 30.932c-.51 2.56-3.056 5.456-5.654 5.456H405.35c-2.598 0-4.27-2.895-3.766-5.44 0 0 12.417-59.96 13.012-62.478 0 0 5.313-22.572-11.401-22.572h-14.129c-2.625 0-5.171 2.117-5.712 4.65l-17.185 80.384c-.533 2.548-3.091 5.456-5.685 5.456h-29.793c-2.57 0-4.274-2.895-3.726-5.44l24.492-116.076c.545-2.545 3.091-5.621 5.685-5.621h62.767c50.582 0 35.282 56.54 35.282 56.54-.686 2.468-13.372 65.141-13.372 65.141m72.954-128.15c-11.143 0-19.297-3.48-16.335-17.31 2.982-13.856 12.62-17.31 23.736-17.31 10.637 0 19.053 3.454 16.064 17.31-2.946 13.57-12.597 17.31-23.465 17.31m-9.87 128.165c-.533 2.546-3.119 5.441-5.712 5.441h-31.066c-2.598 0-4.236-2.895-3.687-5.418l25.048-115.066c.568-2.52 3.11-5.063 5.685-5.063h30.192c2.61 0 4.275 2.919 3.754 5.467l-24.214 114.64m45.759 5.544c-2.562-.104-4.177-3.077-3.616-5.623l19.269-87.7c.548-2.507-1.101-4.596-3.699-4.596h-14.834c-2.582 0-4.22-2.055-3.604-4.583l4.176-18.063c.612-2.522 3.237-5.17 5.819-5.17h16.248c2.558 0 5.14-1.454 5.7-4.025l4.87-20.884c.533-2.533 3.104-3.092 5.713-3.092h24.323c2.586 0 4.26.858 3.715 3.39l-4.73 21.206c-.528 2.548 1.145 3.405 3.715 3.405h20.73c2.57 0 4.208 2.648 3.62 5.17l-4.247 18.177c-.568 2.533-3.193 4.688-5.775 4.688h-19.16c-2.581 0-5.151 2.26-5.74 4.794l-19.268 88.385c-.521 2.533-3.091 4.6-5.662 4.52l-27.563.002"/><path fill="#992094" d="M214.24 820.747l9.595-1.319-2.12 9.878-9.536 1.316zm-16.002 52.738c4.733-3.557 5.736-4.082 6.375-7.242l6.625-31.342 9.603-1.316-7.252 34.173c-.874 4.212-2.21 6.518-11.033 12.115l-4.318-6.388m23.156-8.69l2.014-6.848c2.41.857 5.148 1.646 8.635 1.646 3.103 0 3.33-.92 3.644-2.435.313-1.45-.576-2.24-4.134-4.151-6.594-3.554-6.778-5.925-5.751-10.73 1.492-6.914 3.6-8.756 12.49-8.756 3.033 0 6.896.655 9.502 1.514l-1.756 6.977c-2.35-.657-5.83-1.185-8.067-1.185-2.766 0-3.17.33-3.561 2.043-.318 1.513.004 1.842 3.04 3.49 7.24 3.947 8.31 5.33 7.213 10.401-1.567 7.242-3.78 10.14-13.4 10.14-2.962 0-7.083-.856-9.87-2.106m51.421-8.891c-.078.33-.157.726-.164.989-.024.658.293.987 1.214.987 1.716 0 5.999-1.844 8.408-3.029l4.185-19.95 9.599-1.316-6.872 32.658h-7.903l.035-2.964c-5.085 2.37-9.086 3.622-12.776 3.622-4.216 0-5.776-2.501-5.635-6.519.047-1.317.216-2.37.463-3.687l4.58-21.794 9.529-1.316-4.663 22.32m47.428-11.457c.082-.394.157-.725.165-.987.023-.658-.294-.923-1.215-.923-1.716 0-5.857 1.713-8.412 3.03l-4.345 20.675h-9.29l6.567-31.276 8.212-1.382-.192 3.556c5.094-2.371 9.09-3.62 12.777-3.62 4.286 0 5.783 2.435 5.642 6.517-.043 1.118-.141 2.04-.463 3.685l-4.74 22.52h-9.29l4.584-21.795m21.968-23.701l9.6-1.319-2.124 9.878-9.536 1.316zm-3 14.154l9.595-1.316-6.935 32.658h-9.29l6.63-31.342m26.771 6.716l-3.389 16.001c-.082.33-.157.658-.164.856-.016.46.239.658.897.658 1.587 0 3.385-.658 5.054-1.318l1.618 6.454c-2.684 1.447-6.543 2.633-10.3 2.633-4.678 0-7.104-2.236-6.97-6.058.015-.46.101-.921.18-1.382l3.785-17.844h-4.741l1.575-7.441h4.745l1.586-7.702 9.6-1.317-1.9 9.019h7.647l-2.108 7.441h-7.115m37.409 0l-3.388 16.001c-.079.33-.157.658-.165.856-.016.46.239.658.897.658 1.583 0 3.385-.658 5.055-1.318l1.618 6.454c-2.684 1.447-6.547 2.633-10.305 2.633-4.674 0-7.1-2.236-6.966-6.058.016-.46.098-.921.18-1.382l3.785-17.844h-4.74l1.574-7.441h4.745l1.583-7.702 9.603-1.317-1.896 9.019h7.64l-2.104 7.441h-7.115m27.963.921c.035-1.118-.925-1.844-2.637-1.844-3.362 0-4.42 1.912-4.972 4.544l-.47 2.24c1.59-.396 2.32-.527 4.255-1.118 2.527-.725 3.753-1.912 3.824-3.822zm-16.914 3.097c1.579-7.376 5.034-12.114 15.182-12.114 6.061 0 10.579 2.632 10.395 8.03-.22 6.257-3.55 9.153-11.54 11.522-3.925 1.186-3.992 1.186-6.785 1.911l-.47 2.238c-.243 1.186-.145 2.239 1.563 2.239 3.366 0 8.294-1.647 12.71-3.557l1.552 6.584c-3.977 2.438-10.172 4.413-15.837 4.413-6.653 0-9.388-2.898-9.196-8.361.04-1.187.224-2.504.533-3.885l1.893-9.02m26.34 19.16l2.018-6.848c2.406.857 5.145 1.646 8.636 1.646 3.099 0 3.322-.92 3.64-2.435.317-1.45-.576-2.24-4.134-4.151-6.594-3.554-6.778-5.925-5.752-10.73 1.493-6.914 3.601-8.756 12.491-8.756 3.033 0 6.896.655 9.501 1.514l-1.755 6.977c-2.35-.657-5.826-1.185-8.067-1.185-2.766 0-3.174.33-3.562 2.043-.317 1.513.004 1.842 3.045 3.49 7.236 3.947 8.31 5.33 7.209 10.401-1.567 7.242-3.781 10.14-13.4 10.14-2.962 0-7.084-.856-9.87-2.106m43.224-23.178l-3.389 16.001c-.082.33-.156.658-.164.856-.016.46.239.658.897.658 1.587 0 3.385-.658 5.054-1.318l1.622 6.454c-2.687 1.447-6.547 2.633-10.304 2.633-4.678 0-7.104-2.236-6.97-6.058.015-.46.102-.921.18-1.382l3.785-17.844h-4.741l1.575-7.441h4.745l1.586-7.702 9.6-1.317-1.9 9.019h7.647l-2.104 7.441h-7.119m17.659-20.87l9.6-1.319-2.124 9.878-9.533 1.316zm-3.001 14.154l9.599-1.316-6.939 32.658h-9.29l6.63-31.342m33.722 9.547c.079-.394.157-.725.165-.987.023-.658-.294-.923-1.219-.923-1.712 0-5.857 1.713-8.408 3.03l-4.349 20.675h-9.29l6.567-31.276 8.216-1.382-.192 3.556c5.094-2.371 9.086-3.62 12.777-3.62 4.283 0 5.78 2.435 5.638 6.517-.043 1.118-.137 2.04-.458 3.685l-4.741 22.52h-9.29l4.584-21.795m22.929 10.865c-.388 1.711.047 2.501 1.692 2.501 2.042 0 5.384-1.318 7.335-2.5l2.919-13.827a30.542 30.542 0 0 0-3.617-.199c-4.807 0-5.81 2.37-6.515 5.464zm7.452 7.504c-2.758 1.583-5.967 2.767-9.454 2.767-6.986 0-8.55-4.279-7.045-11.455l1.571-7.31c1.732-8.1 3.957-13.298 17.663-13.298 3.357 0 8.345.589 12.385 1.907l-7.57 35.557c-1.497 7.174-4.659 8.888-13.223 8.888-3.82 0-10.297-1.186-14.207-2.502l1.873-6.519c4.901 1.183 8.893 1.843 12.714 1.843 2.77 0 3.467-1.054 3.937-3.228l1.356-6.65"/></g></svg>