<svg xmlns="http://www.w3.org/2000/svg" role="img" viewBox="-13.56 -13.56 635.62 705.12"><title>RequireJS logo</title><defs><clipPath id="a" clipPathUnits="userSpaceOnUse"><path d="M0 648h576V0H0z"/></clipPath></defs><g clip-path="url(#a)" transform="matrix(1.33333 0 0 -1.33333 -79.095 769.918)"><path fill="#4e4e4e" d="M65.594 443.524l12.554-7.672 4.198 6.875c1.555 2.538 2.114 4.72 1.687 6.542-.428 1.818-1.57 3.301-3.436 4.441-.91.557-1.842.917-2.787 1.08a7.208 7.208 0 0 1-2.779-.059c-.906-.202-1.807-.65-2.705-1.352-.902-.698-1.74-1.693-2.526-2.98zm-6.273-1.807l6.413 10.498c2.557 4.184 5.333 6.627 8.325 7.332 2.993.707 6.01.128 9.05-1.729a10.985 10.985 0 0 0 2.735-2.38 12.458 12.458 0 0 0 1.936-3.183c.493-1.162.79-2.386.886-3.674a9.717 9.717 0 0 0-.459-3.832l20.884-1.479-2.725-4.45-20.499 1.715-4.182-6.846 15.687-9.589-2.51-4.106z"/><path fill="#4e4e4e" d="M97.644 494.937l18.318 17.799 2.888-2.971-15.15-14.727 9.55-9.828 12.515 12.16 3.074-3.163-12.515-12.163 10.673-10.983 15.01 14.587 2.888-2.974-18.178-17.66z"/><path fill="#4e4e4e" d="M156.684 533.335c-.708-3.433.404-7.704 3.323-12.81 1.33-2.32 2.74-4.315 4.233-5.977 1.488-1.665 3.02-2.945 4.59-3.845 1.566-.902 3.164-1.398 4.79-1.497a7.937 7.937 0 0 1 4.52 1.048c.966.554 1.822 1.364 2.572 2.437.746 1.068 1.232 2.4 1.453 3.99.218 1.59.074 3.408-.427 5.456-.505 2.05-1.489 4.352-2.95 6.902-1.862 3.25-3.646 5.744-5.364 7.485-1.714 1.742-3.377 2.921-4.99 3.537-1.613.62-3.05.863-4.31.731-1.26-.13-2.356-.46-3.285-.99a7.432 7.432 0 0 1-2.752-2.734 12.002 12.002 0 0 1-1.403-3.733m25.427-1.082c3.055-5.339 4.571-10.073 4.544-14.197-.028-4.125-1.582-7.58-4.66-10.369.808-1.232 1.737-2.088 2.782-2.57 1.046-.48 2.38-.254 4.008.677.19.108.49.305.894.588.4.283.851.578 1.34.885.494.31.95.608 1.373.902.423.293.73.493.924.606l2.146-4.013-2.266-1.297c-1.897-1.084-3.549-1.9-4.95-2.45-1.409-.548-2.71-.7-3.9-.46a6.781 6.781 0 0 0-3.19 1.605c-.938.823-1.836 1.991-2.699 3.502-1.582-.65-3.284-.947-5.118-.888-1.827.056-3.716.528-5.663 1.416-1.948.892-3.868 2.245-5.757 4.066-1.888 1.817-3.676 4.2-5.356 7.14-2.083 3.636-3.397 6.891-3.933 9.767-.544 2.872-.575 5.372-.093 7.498.478 2.122 1.294 3.924 2.448 5.408 1.155 1.481 2.41 2.61 3.763 3.387a13.155 13.155 0 0 0 5.387 1.697c1.924.18 3.953-.138 6.087-.944 2.133-.81 4.17-2.173 6.117-4.09 1.944-1.918 3.867-4.54 5.772-7.866"/><path fill="#4e4e4e" d="M206.364 564.527l5.096 1.389c.043.012.077-.025.097-.11.05-.173.023-.45-.086-.825-.105-.375-.136-.812-.093-1.307l6.643-24.364c.61-2.241 1.294-3.916 2.06-5.028.765-1.11 1.644-1.96 2.635-2.544a7.518 7.518 0 0 1 3.23-1.03c1.154-.1 2.351-.03 3.58.214 1.181.412 2.25.936 3.21 1.568s1.722 1.475 2.29 2.533c.563 1.059.901 2.27 1.013 3.645.113 1.372-.15 3.223-.78 5.549l-7.156 26.235 4.322 1.178 7.124-26.125c.715-2.624 1.026-4.917.937-6.881-.085-1.965-.567-3.714-1.446-5.247a12.104 12.104 0 0 0-3.45-3.85c-1.428-1.036-3.13-1.825-5.108-2.363-1.936-.53-3.783-.708-5.539-.541-1.757.169-3.362.678-4.82 1.529-1.453.85-2.72 2.028-3.8 3.536-1.082 1.506-2.01 3.68-2.784 6.52z"/><path fill="#4e4e4e" d="M272.75 576.81l20.782.629.117-3.877-8.22-.247 1.026-34.02 8.62.262.114-3.811-21.65-.651-.117 3.875 8.217.249-1.022 33.95-7.75-.233z"/><path fill="#4e4e4e" d="M339.719 567.595l-3.443-14.305 7.835-1.887c2.888-.696 5.138-.56 6.74.408 1.6.964 2.658 2.51 3.17 4.635.25 1.04.308 2.033.173 2.985a7.118 7.118 0 0 1-.911 2.625c-.47.801-1.173 1.522-2.114 2.162-.944.64-2.15 1.136-3.614 1.49zm-3.65 5.415l11.963-2.883c4.766-1.142 7.945-3.034 9.539-5.662 1.589-2.632 1.966-5.679 1.13-9.146a10.946 10.946 0 0 0-1.421-3.339 12.51 12.51 0 0 0-2.434-2.816 11.648 11.648 0 0 0-3.226-1.974 9.818 9.818 0 0 0-3.786-.739l5.007-20.325-5.068 1.22-4.668 20.038-7.801 1.878L331 531.383l-4.68 1.13z"/><path fill="#4e4e4e" d="M398.435 552.863l22.54-12.014-1.948-3.66-18.649 9.94-6.448-12.097 15.404-8.207-2.076-3.894-15.403 8.209-7.202-13.512 18.47-9.846-1.948-3.657-22.364 11.919z"/><path fill="#4e4e4e" d="M439.666 509.088c.241-1.561-.085-2.917-.983-4.075-.898-1.156-2.119-1.821-3.662-1.994-1.546-.173-2.946.229-4.205 1.205-1.255.975-1.99 2.212-2.204 3.704-.21 1.495.152 2.845 1.089 4.052.937 1.205 2.18 1.874 3.727 2 1.551.13 2.904-.255 4.062-1.151 1.158-.896 1.885-2.143 2.176-3.741"/><path fill="#4e4e4e" d="M475.557 496.849l12.885-14.041-2.858-2.623-4.34 4.73-17.522-16.074c-2.01-1.84-3.86-3.191-5.555-4.05-1.694-.86-3.365-1.286-5.01-1.28-1.64.006-3.085.313-4.337.917-1.251.606-2.39 1.467-3.416 2.585-2.682 2.922-3.763 6.376-3.245 10.357l4.93.263c-.003-.188-.107-.39-.305-.602-.2-.212-.32-.43-.362-.647l-.047-1.136c-.046-.281-.02-.652.07-1.111.09-.463.233-.95.435-1.461.199-.515.42-1.021.669-1.522.245-.5.548-.947.909-1.34 1.508-1.643 3.184-2.314 5.03-2.012 1.842.3 4.198 1.764 7.062 4.394l17.576 16.12-5.425 5.912z"/><path fill="#4e4e4e" d="M515.151 432.93l-4.944.565c-.035.24.07.44.31.602.241.164.397.317.467.46.664 1.355.964 2.848.91 4.482-.062 1.633-.623 3.38-1.683 5.237-1.019 1.78-2.387 2.964-4.105 3.547-1.718.585-3.296.466-4.726-.35-.85-.485-1.504-1.053-1.959-1.696-.455-.643-.8-1.43-1.038-2.363-.237-.93-.327-2.15-.264-3.654.066-1.504.261-3.397.583-5.67.284-2.203.396-4.088.346-5.66-.054-1.568-.288-2.934-.704-4.094-.416-1.162-.999-2.148-1.74-2.958-.743-.809-1.677-1.535-2.8-2.175-1.239-.707-2.623-1.189-4.143-1.442-1.524-.254-3.059-.169-4.61.254-1.55.424-3.066 1.213-4.55 2.371-1.478 1.155-2.83 2.8-4.043 4.927-2.674 4.685-3.285 9.346-1.823 13.975l5.542.006c-.004-.259-.143-.467-.416-.622-.27-.154-.45-.334-.536-.538-.618-1.532-.87-3.265-.76-5.207.103-1.94.764-3.976 1.981-6.106.618-1.082 1.372-1.977 2.262-2.674.886-.7 1.815-1.207 2.795-1.524a7.698 7.698 0 0 1 3.043-.34 7.114 7.114 0 0 1 2.97.927c.734.418 1.332.927 1.787 1.52.454.595.782 1.333.972 2.212.19.878.245 2 .16 3.363-.087 1.363-.277 3.114-.576 5.253-.346 2.317-.502 4.321-.467 6.007.04 1.691.222 3.143.556 4.362.331 1.214.848 2.242 1.551 3.078.704.838 1.578 1.556 2.62 2.151a9.702 9.702 0 0 0 4.201 1.281 11.088 11.088 0 0 0 4.373-.58c1.435-.493 2.78-1.278 4.038-2.357 1.256-1.078 2.328-2.39 3.211-3.939 1.127-1.974 1.792-4.062 1.993-6.256a14.954 14.954 0 0 0-.784-6.376"/><path fill="#53a2d9" d="M466.823 317.578c0-98.917-80.184-179.1-179.102-179.1-98.917 0-179.1 80.183-179.1 179.1 0 98.914 80.183 179.1 179.1 179.1 98.918 0 179.102-80.186 179.102-179.1"/><path fill="#f04e43" d="M407.123 317.578c0-65.946-53.459-119.4-119.401-119.4-65.943 0-119.401 53.454-119.401 119.4 0 65.943 53.458 119.4 119.401 119.4 65.942 0 119.401-53.457 119.401-119.4"/><path fill="#f7ec20" d="M347.422 317.578c0-32.975-26.725-59.7-59.7-59.7-32.971 0-59.7 26.725-59.7 59.7 0 32.97 26.729 59.7 59.7 59.7 32.975 0 59.7-26.73 59.7-59.7"/><path fill="#4e4e4e" d="M415.973 88.517l-23.88 11.94a1.982 1.982 0 0 1-1.935-.09 1.988 1.988 0 0 1-.945-1.69v-9.95H209.117l-11.342 15.12a1.988 1.988 0 0 1-2.787.4 1.995 1.995 0 0 1-.4-2.787l9.553-12.733h-6.964l-11.342 15.12a1.988 1.988 0 0 1-2.787.4 1.995 1.995 0 0 1-.4-2.787l9.554-12.733h-6.965l-11.342 15.12a1.989 1.989 0 0 1-2.787.4 1.995 1.995 0 0 1-.4-2.787l9.554-12.733h-6.966l-11.341 15.12a1.989 1.989 0 0 1-2.787.4 1.994 1.994 0 0 1-.4-2.787l9.553-12.733h-3.98a1.992 1.992 0 0 1-1.99-1.99c0-1.104.89-1.99 1.99-1.99h3.98l-9.553-12.741a1.99 1.99 0 0 1 3.187-2.386l11.34 15.127h6.967l-9.554-12.741a1.99 1.99 0 0 1 3.187-2.386l11.342 15.127h6.965l-9.554-12.741a1.99 1.99 0 0 1 3.187-2.386l11.342 15.127h6.964l-9.553-12.741a1.99 1.99 0 0 1 3.187-2.386l11.342 15.127h180.096v-9.95a1.993 1.993 0 0 1 1.989-1.99c.304 0 .61.07.89.21l23.88 11.94a1.988 1.988 0 0 1 0 3.56"/></g></svg>