<svg xmlns="http://www.w3.org/2000/svg" role="img" viewBox="16.85 15.85 813.80 174.80"><title>SafetyCulture (member) logo</title><style>svg {enable-background:new 0 0 848.1 207.2}</style><style>.st0{fill:#fff}.st1{fill:#24384b}.st2{fill:#00b29b}.st3{fill:#006ed5}.st4{fill:#0c3b67}.st5{fill:#019a86}</style><ellipse cx="102.9" cy="102.2" class="st0" rx="67" ry="68"/><path d="M103.5 31.8c-28.6 0-54.4 17.5-65.3 44.3s-4.9 57.7 15.3 78.2 50.6 26.7 77.1 15.6 43.7-37.3 43.7-66.3c-.1-39.7-31.8-71.8-70.8-71.8zm0 135.3c-25.3 0-48.1-15.5-57.7-39.2s-4.3-51 13.5-69.1 44.7-23.6 68.1-13.7S166 78 166 103.6c0 16.8-6.6 33-18.3 44.9-11.7 11.9-27.6 18.6-44.2 18.6z" class="st1"/><path d="M103.414 133.676c-5 5.1-13.1 5.1-18.1 0l-19.3-19.6c-3.3-3.2-4.7-8.1-3.5-12.6s4.7-8.1 9.1-9.3 9.2.2 12.4 3.6l10.2 10.4 28.5-28.9c3.2-3.3 7.9-4.6 12.3-3.4 4.4 1.2 7.9 4.7 9 9.2 1.2 4.5-.1 9.2-3.3 12.5l-37.3 38.1z" class="st2"/><path d="M94.414 106.176v31.3c-3.4 0-6.6-1.4-9-3.8l-19.3-19.6c-3.3-3.2-4.7-8.1-3.5-12.6 1.2-4.5 4.7-8.1 9.1-9.3s9.2.2 12.4 3.6l10.3 10.4z" class="st3"/><path d="M94.414 106.176l-18.1 18.3 9 9.2c5 5.1 13.1 5.1 18.1 0l9-9.2-18-18.3z" class="st4"/><path d="M94.414 106.176l18 18.3 1.5-1.5-14.9-21.5z" class="st5"/><path d="M244.854 119.44c.2-3-1.1-5.8-3.4-7.6-2.3-1.8-6.4-3.6-12.4-5.4-5-1.4-9.8-3.4-14.2-6.1-6.7-4.3-10.1-9.9-10.1-16.8-.1-5.9 2.6-11.5 7.3-15 4.9-3.9 11.2-5.9 18.9-5.9 4.7-.1 9.5.9 13.8 2.9 3.9 1.8 7.2 4.6 9.5 8.2 2.3 3.5 3.5 7.7 3.5 11.9h-12.8c.2-3.4-1.1-6.8-3.6-9.1-2.4-2.2-5.9-3.3-10.4-3.3-4.2 0-7.5.9-9.8 2.7-2.3 1.8-3.6 4.6-3.5 7.6 0 2.8 1.4 5.4 3.8 6.9 2.5 1.8 6.6 3.6 12.4 5.3 4.9 1.3 9.5 3.3 13.9 5.9 3.1 1.9 5.8 4.5 7.7 7.6 1.7 3.1 2.5 6.6 2.4 10.1.2 5.9-2.5 11.4-7.1 14.9-4.7 3.7-11.1 5.6-19.3 5.6-5.1.1-10.1-1-14.8-3-4.2-1.8-7.8-4.7-10.4-8.3-2.5-3.6-3.8-8-3.7-12.4h12.8c-.2 3.8 1.3 7.4 4.2 9.9 2.8 2.3 6.8 3.5 11.9 3.5 4.5 0 7.8-.9 10.1-2.8 2.2-1.8 3.4-4.5 3.3-7.3zm54.7 19.4c-.7-1.7-1.2-3.4-1.4-5.2-7.6 7.7-19.7 8.3-28 1.4-3.4-3-5.3-7.3-5.2-11.9 0-6 2.2-10.5 6.5-13.7 4.3-3.2 10.6-4.8 18.7-4.8h7.6v-3.7c.1-2.5-.7-5-2.4-6.9-1.6-1.8-4-2.6-7.3-2.6-2.5-.1-4.9.6-6.9 2.1-1.7 1.3-2.7 3.3-2.7 5.4h-12.4c0-3.1 1.1-6.1 3-8.6 2.1-2.8 5-4.9 8.2-6.3 3.6-1.6 7.6-2.3 11.5-2.3 6.4 0 11.6 1.6 15.4 4.9 3.8 3.3 5.8 7.9 5.9 13.9v25.2c-.2 4.1.5 8.2 2.1 12v.9l-12.6.2zm-13.5-9c2.4 0 4.8-.6 6.9-1.8 2-1.1 3.7-2.8 4.9-4.8v-10.6h-6.7c-4.6 0-8 .8-10.3 2.4-2.2 1.5-3.6 4.1-3.5 6.9-.1 2.2.8 4.3 2.4 5.8 1.7 1.4 4 2.2 6.3 2.1zm40.3 9v-46.6h-8.4v-9.3h8.4v-5.1c0-6.2 1.7-11 5.1-14.4s8.1-5.1 14.2-5.1c2.3 0 4.7.3 6.9.9l-.3 9.8c-1.6-.3-3.1-.4-4.7-.4-5.9 0-8.9 3.1-8.9 9.3v5h11.2v9.3h-11.2v46.6h-12.3zm54.5 1c-7.8 0-14.2-2.5-19-7.5-4.9-5-7.3-11.7-7.3-20v-1.5c-.1-5.2 1-10.3 3.2-14.9 2-4.2 5.1-7.8 8.9-10.2 3.8-2.4 8.3-3.7 12.8-3.7 7.5 0 13.3 2.4 17.4 7.3 4.1 4.9 6.1 11.7 6.1 20.6v5.1h-36c.2 4.1 1.8 8 4.6 10.9 2.7 2.7 6.3 4.1 10 4 5.5.1 10.6-2.5 13.8-7l6.7 6.4c-2.2 3.3-5.3 6-8.8 7.8-3.8 1.8-8.1 2.7-12.4 2.7zm-1.4-47.9c-3.1-.1-6.2 1.2-8.2 3.6-2.3 2.9-3.7 6.4-4 10.1h23.5v-1c-.3-4.2-1.4-7.4-3.3-9.5-2.1-2.2-5-3.3-8-3.2zm47.5-22.6v13.6h9.7v9.3h-9.7v31.1c-.1 1.7.3 3.3 1.3 4.6 1.2 1.1 2.8 1.6 4.5 1.4 1.5 0 2.9-.2 4.3-.5v9.7c-2.6.8-5.4 1.2-8.1 1.2-9.5 0-14.2-5.3-14.2-15.9v-31.6h-9.1v-9.3h9.1v-13.6h12.2zm37.4 51.5l11.2-37.9h13.2l-21.9 64.3c-3.4 9.4-9.1 14.1-17.1 14.1-2 0-4-.4-5.9-.9v-9.7l2.3.2c2.5.2 4.9-.4 7-1.7 1.8-1.5 3.1-3.5 3.7-5.8l1.8-4.8-19.3-55.6h13.3l11.7 37.8zm88.1-6.5c-.7 8-3.7 14.3-8.7 18.8s-11.8 6.7-20.3 6.7c-5.5.1-10.9-1.4-15.6-4.3-4.6-2.9-8.2-7.1-10.4-12.1-2.5-5.7-3.8-11.9-3.8-18.2v-7c-.1-6.4 1.1-12.8 3.7-18.7 2.3-5.1 6-9.5 10.6-12.5 4.8-3 10.4-4.5 16-4.4 8.2 0 14.7 2.2 19.7 6.7s7.9 10.8 8.7 19.1h-12.8c-.6-5.4-2.2-9.3-4.6-11.7-2.5-2.4-6.1-3.6-11-3.6-5.6 0-9.9 2.1-12.9 6.2s-4.5 10.2-4.6 18.2v6.6c0 8.1 1.4 14.3 4.3 18.6 2.8 4.2 7.6 6.7 12.6 6.4 5.1 0 8.8-1.2 11.4-3.5 2.5-2.3 4.2-6.1 4.8-11.5l12.9.2zm42.6 19c-3.6 4.3-8.8 6.5-15.5 6.5-6 0-10.5-1.8-13.6-5.3-3.1-3.5-4.6-8.7-4.6-15.4v-36.2h12.4v36c0 7 2.9 10.6 8.7 10.6 6 0 10-2.2 12.2-6.6v-40h12.4v55.9h-11.7l-.3-5.5zm36.6 5.5h-12.4v-79.3h12.4zm27.9-69.5v13.6h9.7v9.3h-9.7v31.1c-.1 1.7.3 3.3 1.3 4.6 1.2 1.1 2.8 1.6 4.5 1.4 1.5 0 2.9-.2 4.3-.5v9.7c-2.6.8-5.4 1.2-8.1 1.2-9.5 0-14.2-5.3-14.2-15.9v-31.6h-9.1v-9.3h9.1v-13.6h12.2zm51.4 64c-3.6 4.3-8.8 6.5-15.5 6.5-6 0-10.5-1.8-13.6-5.3-3.1-3.5-4.6-8.7-4.6-15.4v-36.2h12.4v36c0 7 2.9 10.6 8.7 10.6 6 0 10-2.2 12.2-6.6v-40h12.4v55.9h-11.6l-.4-5.5zm52.3-38.9c-1.7-.3-3.4-.4-5-.4-5.7 0-9.5 2.2-11.4 6.6v38.2h-12.4v-55.9h11.8l.3 6.3c2.5-4.6 7.3-7.4 12.4-7.3 1.5 0 3 .2 4.4.7l-.1 11.8zm30 45.4c-7.8 0-14.2-2.5-19-7.5-4.9-5-7.3-11.7-7.3-20v-1.5c-.1-5.2 1-10.3 3.2-14.9 2-4.2 5.1-7.8 8.9-10.2 3.8-2.4 8.3-3.7 12.8-3.7 7.5 0 13.3 2.4 17.4 7.3 4.1 4.9 6.1 11.7 6.1 20.6v5.1h-36c.2 4.1 1.8 8 4.6 10.9 2.7 2.7 6.3 4.1 10 4 5.5.1 10.6-2.5 13.8-7l6.7 6.4c-2.2 3.3-5.3 6-8.8 7.8-3.8 1.8-8.1 2.7-12.4 2.7zm-1.4-47.9c-3.1-.1-6.2 1.2-8.2 3.6-2.3 2.9-3.7 6.4-4 10.1h23.5v-1c-.3-4.2-1.4-7.4-3.3-9.5-2.1-2.2-5-3.3-8-3.2z" class="st1"/><ellipse cx="102.9" cy="102.2" class="st0" rx="67" ry="68"/><path d="M103.5 31.8c-28.6 0-54.4 17.5-65.3 44.3s-4.9 57.7 15.3 78.2 50.6 26.7 77.1 15.6 43.7-37.3 43.7-66.3c-.1-39.7-31.8-71.8-70.8-71.8zm0 135.3c-25.3 0-48.1-15.5-57.7-39.2s-4.3-51 13.5-69.1 44.7-23.6 68.1-13.7S166 78 166 103.6c0 16.8-6.6 33-18.3 44.9-11.7 11.9-27.6 18.6-44.2 18.6z" class="st1"/><g><path d="M103.414 133.676c-5 5.1-13.1 5.1-18.1 0l-19.3-19.6c-3.3-3.2-4.7-8.1-3.5-12.6s4.7-8.1 9.1-9.3 9.2.2 12.4 3.6l10.2 10.4 28.5-28.9c3.2-3.3 7.9-4.6 12.3-3.4 4.4 1.2 7.9 4.7 9 9.2 1.2 4.5-.1 9.2-3.3 12.5l-37.3 38.1z" class="st2"/><path d="M94.414 106.176v31.3c-3.4 0-6.6-1.4-9-3.8l-19.3-19.6c-3.3-3.2-4.7-8.1-3.5-12.6 1.2-4.5 4.7-8.1 9.1-9.3s9.2.2 12.4 3.6l10.3 10.4z" class="st3"/><path d="M94.414 106.176l-18.1 18.3 9 9.2c5 5.1 13.1 5.1 18.1 0l9-9.2-18-18.3z" class="st4"/><path d="M94.414 106.176l18 18.3 1.5-1.5-14.9-21.5z" class="st5"/></g><g><path d="M244.854 119.44c.2-3-1.1-5.8-3.4-7.6-2.3-1.8-6.4-3.6-12.4-5.4-5-1.4-9.8-3.4-14.2-6.1-6.7-4.3-10.1-9.9-10.1-16.8-.1-5.9 2.6-11.5 7.3-15 4.9-3.9 11.2-5.9 18.9-5.9 4.7-.1 9.5.9 13.8 2.9 3.9 1.8 7.2 4.6 9.5 8.2 2.3 3.5 3.5 7.7 3.5 11.9h-12.8c.2-3.4-1.1-6.8-3.6-9.1-2.4-2.2-5.9-3.3-10.4-3.3-4.2 0-7.5.9-9.8 2.7-2.3 1.8-3.6 4.6-3.5 7.6 0 2.8 1.4 5.4 3.8 6.9 2.5 1.8 6.6 3.6 12.4 5.3 4.9 1.3 9.5 3.3 13.9 5.9 3.1 1.9 5.8 4.5 7.7 7.6 1.7 3.1 2.5 6.6 2.4 10.1.2 5.9-2.5 11.4-7.1 14.9-4.7 3.7-11.1 5.6-19.3 5.6-5.1.1-10.1-1-14.8-3-4.2-1.8-7.8-4.7-10.4-8.3-2.5-3.6-3.8-8-3.7-12.4h12.8c-.2 3.8 1.3 7.4 4.2 9.9 2.8 2.3 6.8 3.5 11.9 3.5 4.5 0 7.8-.9 10.1-2.8 2.2-1.8 3.4-4.5 3.3-7.3zm54.7 19.4c-.7-1.7-1.2-3.4-1.4-5.2-7.6 7.7-19.7 8.3-28 1.4-3.4-3-5.3-7.3-5.2-11.9 0-6 2.2-10.5 6.5-13.7 4.3-3.2 10.6-4.8 18.7-4.8h7.6v-3.7c.1-2.5-.7-5-2.4-6.9-1.6-1.8-4-2.6-7.3-2.6-2.5-.1-4.9.6-6.9 2.1-1.7 1.3-2.7 3.3-2.7 5.4h-12.4c0-3.1 1.1-6.1 3-8.6 2.1-2.8 5-4.9 8.2-6.3 3.6-1.6 7.6-2.3 11.5-2.3 6.4 0 11.6 1.6 15.4 4.9 3.8 3.3 5.8 7.9 5.9 13.9v25.2c-.2 4.1.5 8.2 2.1 12v.9l-12.6.2zm-13.5-9c2.4 0 4.8-.6 6.9-1.8 2-1.1 3.7-2.8 4.9-4.8v-10.6h-6.7c-4.6 0-8 .8-10.3 2.4-2.2 1.5-3.6 4.1-3.5 6.9-.1 2.2.8 4.3 2.4 5.8 1.7 1.4 4 2.2 6.3 2.1zm40.3 9v-46.6h-8.4v-9.3h8.4v-5.1c0-6.2 1.7-11 5.1-14.4s8.1-5.1 14.2-5.1c2.3 0 4.7.3 6.9.9l-.3 9.8c-1.6-.3-3.1-.4-4.7-.4-5.9 0-8.9 3.1-8.9 9.3v5h11.2v9.3h-11.2v46.6h-12.3zm54.5 1c-7.8 0-14.2-2.5-19-7.5-4.9-5-7.3-11.7-7.3-20v-1.5c-.1-5.2 1-10.3 3.2-14.9 2-4.2 5.1-7.8 8.9-10.2 3.8-2.4 8.3-3.7 12.8-3.7 7.5 0 13.3 2.4 17.4 7.3 4.1 4.9 6.1 11.7 6.1 20.6v5.1h-36c.2 4.1 1.8 8 4.6 10.9 2.7 2.7 6.3 4.1 10 4 5.5.1 10.6-2.5 13.8-7l6.7 6.4c-2.2 3.3-5.3 6-8.8 7.8-3.8 1.8-8.1 2.7-12.4 2.7zm-1.4-47.9c-3.1-.1-6.2 1.2-8.2 3.6-2.3 2.9-3.7 6.4-4 10.1h23.5v-1c-.3-4.2-1.4-7.4-3.3-9.5-2.1-2.2-5-3.3-8-3.2zm47.5-22.6v13.6h9.7v9.3h-9.7v31.1c-.1 1.7.3 3.3 1.3 4.6 1.2 1.1 2.8 1.6 4.5 1.4 1.5 0 2.9-.2 4.3-.5v9.7c-2.6.8-5.4 1.2-8.1 1.2-9.5 0-14.2-5.3-14.2-15.9v-31.6h-9.1v-9.3h9.1v-13.6h12.2zm37.4 51.5l11.2-37.9h13.2l-21.9 64.3c-3.4 9.4-9.1 14.1-17.1 14.1-2 0-4-.4-5.9-.9v-9.7l2.3.2c2.5.2 4.9-.4 7-1.7 1.8-1.5 3.1-3.5 3.7-5.8l1.8-4.8-19.3-55.6h13.3l11.7 37.8zm88.1-6.5c-.7 8-3.7 14.3-8.7 18.8s-11.8 6.7-20.3 6.7c-5.5.1-10.9-1.4-15.6-4.3-4.6-2.9-8.2-7.1-10.4-12.1-2.5-5.7-3.8-11.9-3.8-18.2v-7c-.1-6.4 1.1-12.8 3.7-18.7 2.3-5.1 6-9.5 10.6-12.5 4.8-3 10.4-4.5 16-4.4 8.2 0 14.7 2.2 19.7 6.7s7.9 10.8 8.7 19.1h-12.8c-.6-5.4-2.2-9.3-4.6-11.7-2.5-2.4-6.1-3.6-11-3.6-5.6 0-9.9 2.1-12.9 6.2s-4.5 10.2-4.6 18.2v6.6c0 8.1 1.4 14.3 4.3 18.6 2.8 4.2 7.6 6.7 12.6 6.4 5.1 0 8.8-1.2 11.4-3.5 2.5-2.3 4.2-6.1 4.8-11.5l12.9.2zm42.6 19c-3.6 4.3-8.8 6.5-15.5 6.5-6 0-10.5-1.8-13.6-5.3-3.1-3.5-4.6-8.7-4.6-15.4v-36.2h12.4v36c0 7 2.9 10.6 8.7 10.6 6 0 10-2.2 12.2-6.6v-40h12.4v55.9h-11.7l-.3-5.5zm36.6 5.5h-12.4v-79.3h12.4zm27.9-69.5v13.6h9.7v9.3h-9.7v31.1c-.1 1.7.3 3.3 1.3 4.6 1.2 1.1 2.8 1.6 4.5 1.4 1.5 0 2.9-.2 4.3-.5v9.7c-2.6.8-5.4 1.2-8.1 1.2-9.5 0-14.2-5.3-14.2-15.9v-31.6h-9.1v-9.3h9.1v-13.6h12.2zm51.4 64c-3.6 4.3-8.8 6.5-15.5 6.5-6 0-10.5-1.8-13.6-5.3-3.1-3.5-4.6-8.7-4.6-15.4v-36.2h12.4v36c0 7 2.9 10.6 8.7 10.6 6 0 10-2.2 12.2-6.6v-40h12.4v55.9h-11.6l-.4-5.5zm52.3-38.9c-1.7-.3-3.4-.4-5-.4-5.7 0-9.5 2.2-11.4 6.6v38.2h-12.4v-55.9h11.8l.3 6.3c2.5-4.6 7.3-7.4 12.4-7.3 1.5 0 3 .2 4.4.7l-.1 11.8zm30 45.4c-7.8 0-14.2-2.5-19-7.5-4.9-5-7.3-11.7-7.3-20v-1.5c-.1-5.2 1-10.3 3.2-14.9 2-4.2 5.1-7.8 8.9-10.2 3.8-2.4 8.3-3.7 12.8-3.7 7.5 0 13.3 2.4 17.4 7.3 4.1 4.9 6.1 11.7 6.1 20.6v5.1h-36c.2 4.1 1.8 8 4.6 10.9 2.7 2.7 6.3 4.1 10 4 5.5.1 10.6-2.5 13.8-7l6.7 6.4c-2.2 3.3-5.3 6-8.8 7.8-3.8 1.8-8.1 2.7-12.4 2.7zm-1.4-47.9c-3.1-.1-6.2 1.2-8.2 3.6-2.3 2.9-3.7 6.4-4 10.1h23.5v-1c-.3-4.2-1.4-7.4-3.3-9.5-2.1-2.2-5-3.3-8-3.2z" class="st1"/></g></svg>