<svg xmlns="http://www.w3.org/2000/svg" role="img" viewBox="-8.98 -9.98 518.96 155.96"><title>Sizzle logo</title><defs><style>.cls-1{fill:#2f2d2e}.cls-2{fill:#f79a16}.cls-11{fill:#f16f28}.cls-12{fill:#f48127}.cls-13{fill:#ef5828}.cls-16{fill:#f37627}.cls-17{fill:#f06228}.cls-18{fill:#ec3128}.cls-19{fill:#f16b28}.cls-20{fill:#f05d28}.cls-21{fill:#f06628}.cls-22{fill:#f47f27}.cls-23{fill:#ed3628}.cls-25{fill:#ec2228}.cls-26{fill:#ed4928}.cls-27{fill:#f58727}.cls-28{fill:#ee4e28}.cls-29{fill:#f37a27}.cls-30{fill:#ee5228}.cls-31{fill:#ed4028}.cls-32{fill:#f47d27}.cls-33{fill:#f58826}.cls-34{fill:#f58c25}.cls-35{fill:#ed3c28}.cls-37{fill:#f48028}.cls-44{fill:#f69625}.cls-45{fill:#f69125}.cls-47{fill:#f69325}.cls-48{fill:#f79825}.cls-51{fill:#f37527}.cls-53{fill:#f58c26}.cls-55{fill:#f69225}.cls-56{fill:#f89e24}.cls-57{fill:#f79a25}.cls-60{fill:#f69326}.cls-70{fill:#ed4226}.cls-83{fill:#f58627}.cls-84{fill:#f58927}.cls-93{fill:#f79826}.cls-94{fill:#f8a025}.cls-99{fill:#f79927}.cls-100{fill:#f69321}</style></defs><path d="M500.137 47.45a16.489 16.489 0 0 0-.651 4.279 117.215 117.215 0 0 1-2.51 12.062 3.063 3.063 0 0 1-2.836 2.171c-13.518.002-27.035.02-40.553-.033-1.104-.004-1.395.394-1.402 1.323-.008.839-.074 1.683-.009 2.516.222 2.841 1.779 4.64 4.711 5.502a29.184 29.184 0 0 0 8.197.84c8.678.037 17.357.013 26.035.015 1.825 0 2.187.428 1.823 2.241q-1.317 6.57-2.669 13.134c-.274 1.341-.855 1.778-2.397 1.772-9.676-.036-19.352-.04-29.027-.139a41.824 41.824 0 0 1-12.855-1.964c-8.2-2.724-12.783-8.369-12.958-17.028a68.745 68.745 0 0 1 8.067-34.227c4.745-8.88 12.599-13.684 22.348-15.452a51.45 51.45 0 0 1 22.464.422c8.656 2.27 13.255 7.88 13.983 16.818.02.245-.152.58.239.71zm-32.324 3.722c3.513 0 7.027.01 10.54-.004 1.41-.006 2.19-.494 2.344-1.557.624-4.316-.695-7.877-5.539-9.143a20.511 20.511 0 0 0-7.242-.431c-5.78.565-9.916 3.422-12.122 8.883-.658 1.628-.266 2.24 1.479 2.248 3.513.015 7.026.004 10.54.004z" class="cls-1"/><path d="M425.024 136.22c-1.585-.355-3.167-.722-4.756-1.059-.733-.155-1.144-.394-.785-1.267.346-.84.302-2.033.888-2.533.64-.546 1.714.185 2.605.313a28.874 28.874 0 0 0 4.638.47 1.856 1.856 0 0 0 2.02-1.635c.228-1.166.486-2.327.79-3.767a13.894 13.894 0 0 1-4.794 1.448c-3.2.255-4.75-1.142-4.72-4.316a6.72 6.72 0 0 1 .073-1.314c.486-2.3.913-4.62 1.531-6.885.986-3.618 3.024-5.166 7.173-5.553a25.178 25.178 0 0 1 8.435.688c.754.187.917.531.76 1.262-1.382 6.39-2.779 12.776-4.076 19.182-.551 2.72-1.998 4.422-4.743 4.966zm2.528-12.481a10.706 10.706 0 0 0 3.471-1.224.79.79 0 0 0 .42-.553q.718-3.394 1.433-6.789c.063-.298.048-.487-.325-.625a3.837 3.837 0 0 0-5.105 2.589c-.43 1.743-.76 3.51-1.146 5.263-.207.944.179 1.368 1.252 1.339z" class="cls-2"/><path d="M172.331 95.434h-14.276c-3.162 0-5.043-2.266-4.374-5.372a264.12 264.12 0 0 1 2.051-8.733 6.536 6.536 0 0 1 6.693-5.205l23.034-.001a12.22 12.22 0 0 0 7.17-1.917 11.12 11.12 0 0 0 4.105-11.59 8.208 8.208 0 0 0-3.466-4.441 39.947 39.947 0 0 0-8.796-4.002 44.148 44.148 0 0 1-10.882-5.697 13.728 13.728 0 0 1-5.913-11.712 41.427 41.427 0 0 1 6.8-22.97c4.381-6.588 10.769-10.144 18.398-11.683A51.775 51.775 0 0 1 203 1.19c6.478-.019 12.956-.008 19.435-.006q4.617.002 3.573 4.501-.924 3.962-1.863 7.921c-.896 3.809-3.435 5.812-7.366 5.812-5.518 0-11.037-.022-16.555.009a11.064 11.064 0 0 0-7.523 2.615 9.335 9.335 0 0 0-3.085 5.672 5.542 5.542 0 0 0 2.381 5.533 24.996 24.996 0 0 0 6.823 3.41 70.435 70.435 0 0 1 10.557 4.768c7.019 4.019 10.676 9.939 10.17 18.125a45.896 45.896 0 0 1-6.719 22.09c-4.644 7.356-11.457 11.489-19.917 13.063a45.123 45.123 0 0 1-8.583.737c-4-.027-7.998-.007-11.997-.007zm183.401-2.284h-25.913c-1.89 0-2.375-.566-1.992-2.385.881-4.176 1.757-8.354 2.687-12.519a8.105 8.105 0 0 1 2.458-4.17Q348.645 59.34 364.314 44.6c.116-.11.233-.22.34-.339.448-.506.972-.991.682-1.776-.301-.816-1.015-.963-1.75-.987-1.598-.05-3.197-.1-4.795-.08-6.114.076-12.227.186-18.34.268-1.677.023-2.09-.5-1.744-2.107q1.173-5.44 2.35-10.878c.415-1.91 1.185-2.561 3.14-2.562q25.493-.01 50.985 0c1.668 0 1.937.367 1.578 2.035-.83 3.86-1.673 7.718-2.482 11.583a9.17 9.17 0 0 1-3.108 5.112q-16.537 14.589-33.034 29.224c-.239.211-.484.418-.71.644a1.488 1.488 0 0 0-.533 1.608c.255.7.872.856 1.55.895 6.551.378 13.101.015 19.652-.016 2.598-.013 5.197-.058 7.795-.057 1.18 0 1.676.507 1.444 1.647q-1.274 6.274-2.681 12.52c-.272 1.2-1.343 1.814-2.77 1.814q-13.075.005-26.151.002zm-66.52 0h-25.908c-1.984 0-2.4-.518-1.98-2.484q1.31-6.145 2.635-12.287a7.976 7.976 0 0 1 2.388-4.2q15.655-14.751 31.325-29.487c.145-.137.283-.282.426-.422.534-.523 1-1.096.661-1.894a1.66 1.66 0 0 0-1.705-.877c-2.237-.04-4.476-.088-6.713-.062-5.513.064-11.025.175-16.538.25-1.542.02-1.958-.469-1.642-1.978.8-3.826 1.644-7.642 2.465-11.464a2.484 2.484 0 0 1 2.32-2.072 8.13 8.13 0 0 1 1.077-.035q25.189-.002 50.378-.001c.24 0 .48-.015.72.003 1.06.081 1.425.533 1.205 1.569-.907 4.252-1.804 8.506-2.762 12.746a7.731 7.731 0 0 1-2.573 4.091q-16.787 14.844-33.57 29.693a7.937 7.937 0 0 0-.682.672 1.373 1.373 0 0 0-.337 1.54 1.338 1.338 0 0 0 1.263.763c1.474.084 2.951.187 4.427.176 7.592-.058 15.183-.154 22.775-.227 1.843-.017 2.21.449 1.827 2.226l-2.42 11.23c-.408 1.891-1.197 2.53-3.153 2.531q-12.954.002-25.909 0zm115.231 0c-2.857.11-6.377-.173-9.89.128-.925.08-.944-.385-.775-1.119 1.155-5.015 2.26-10.042 3.416-15.057 3.252-14.112 6.211-28.288 9.373-42.42 2.378-10.627 4.97-21.206 7.46-31.808a1.796 1.796 0 0 1 1.595-1.548 11.724 11.724 0 0 1 1.546-.135q8.759-.014 17.517-.006c.32 0 .642.018.96-.008 1.547-.126 1.54-.132 1.21 1.358q-7.723 35.006-15.442 70.012-2.05 9.291-4.095 18.584c-.338 1.535-.922 2.008-2.618 2.015-3.2.015-6.4.005-10.257.005zm-167.993.008c-2.52 0-5.046-.105-7.558.032-2.108.115-2.872-1.567-2.516-3.126q1.133-4.959 2.26-9.919 5.307-23.589 10.184-47.27c.264-1.29.524-2.58.827-3.861a3.43 3.43 0 0 1 3.594-2.874q7.379-.015 14.758 0c1.993.003 2.98 1.24 2.563 3.228q-3.099 14.759-6.217 29.513-3.213 15.232-6.429 30.464a5.672 5.672 0 0 1-.977 2.54 3.097 3.097 0 0 1-2.57 1.282c-2.64-.028-5.28-.01-7.92-.01zM256.785.425a14.075 14.075 0 0 1 4.503.52 5.572 5.572 0 0 1 4.282 5.15 11.287 11.287 0 0 1-7.867 12.008 20.413 20.413 0 0 1-7.377.45c-.04-.003-.079-.016-.118-.022-5.228-.817-7.12-3.574-6.013-8.765q1.958-9.184 11.392-9.34c.399-.006.798 0 1.198 0z" class="cls-1"/><path d="M413.455 128.543c-2.723 0-2.72 0-2.17-2.609q.975-4.626 1.935-9.256c.303-1.464.083-1.68-1.336-1.336a24.738 24.738 0 0 0-3.347 1.278c-.619.249-.61.798-.713 1.28-.677 3.16-1.374 6.318-1.964 9.495-.179.96-.561 1.235-1.487 1.167a32.608 32.608 0 0 0-3.357-.01c-.606.018-.72-.148-.59-.756q1.738-8.073 3.394-16.163a.976.976 0 0 1 .989-.927 21.765 21.765 0 0 0 2.946-.512c.795-.208 1.03.03.91.779-.173 1.085.355.855 1.007.582a16.163 16.163 0 0 1 5.636-1.51c2.657-.097 3.833 1.069 3.663 3.78a44.21 44.21 0 0 1-1.137 6.113c-.516 2.5-1.082 4.993-1.538 7.505-.162.889-.516 1.231-1.403 1.111a10.782 10.782 0 0 0-1.438-.011zm-61.215.38a9.092 9.092 0 0 1-3.074-.398 5.55 5.55 0 0 1-3.983-6.296 58.086 58.086 0 0 1 1.292-5.961c1.058-3.872 3.42-5.792 7.453-6.154a13.31 13.31 0 0 1 4.411.188 5.428 5.428 0 0 1 4.343 6.333 55.934 55.934 0 0 1-1.176 5.739c-1.138 4.395-3.835 6.394-8.667 6.549-.2.006-.4 0-.6 0zm.682-4.455c1.382.012 2.62-.415 3.118-1.768a25.798 25.798 0 0 0 1.347-6.411 1.51 1.51 0 0 0-1.028-1.597 3.476 3.476 0 0 0-4.78 2.405q-.549 2.326-.966 4.683c-.334 1.88.378 2.678 2.309 2.688zm104.805-12.503a30.856 30.856 0 0 1 5.013-1.71c4.344-.847 5.999.757 5.15 5.115-.602 3.091-1.287 6.166-1.933 9.249-.22 1.053-.448 2.104-.645 3.161-.103.555-.338.805-.957.778a42.536 42.536 0 0 0-3.713 0c-.785.034-.784-.244-.641-.898.807-3.698 1.557-7.409 2.332-11.114.29-1.386.103-1.565-1.313-1.218-.038.01-.078.014-.117.022-2.518.545-4.231 1.667-4.49 4.619-.228 2.6-1.056 5.145-1.539 7.729-.136.729-.438.884-1.1.858a44.573 44.573 0 0 0-3.474-.001c-.683.026-.919-.146-.764-.87 1.147-5.38 2.265-10.767 3.396-16.15.083-.393.19-.722.722-.791 1.185-.155 2.361-.386 3.537-.608.531-.1.615.114.548.585a9.242 9.242 0 0 0-.012 1.244zm-148.21-1.933c.278.013.758.016 1.235.06 2.325.215 4.016 1.418 4.49 3.178a5.777 5.777 0 0 1-2.022 5.892c-2.183 1.594-4.814 2.058-7.32 2.825-.414.127-.795.143-.971.703-.516 1.641-.09 2.17 1.629 1.913a21.6 21.6 0 0 0 5.37-1.603c.682-.294.924-.222 1.121.558.798 3.152.824 3.169-2.26 4.249a15.917 15.917 0 0 1-7.633.994c-2.382-.347-3.752-1.747-3.602-4.125a33.248 33.248 0 0 1 2.261-10.588c1.342-3.264 4.28-4.03 7.702-4.056zm-.625 4.116a3.105 3.105 0 0 0-2.859 3.34.295.295 0 0 0 .422.26c1.185-.317 2.461-.417 3.404-1.332a1.408 1.408 0 0 0 .46-1.618c-.258-.605-.85-.653-1.427-.65zm80.18 14.776c-.2 0-.4.006-.599-.001-3.44-.124-5.098-1.928-4.643-5.336a57.773 57.773 0 0 1 1.755-8.294c.927-3.226 3.194-4.848 6.444-5.18a11.405 11.405 0 0 1 3.694.104c1.718.387 3.264 1.08 3.72 2.947a5.536 5.536 0 0 1-1.345 5.44 9.513 9.513 0 0 1-4.046 2.23c-1.286.427-2.599.772-3.9 1.153a1.74 1.74 0 0 0-1.128 2.02c.228.889.977.693 1.57.622a19.927 19.927 0 0 0 5.609-1.638c.722-.316.93-.149 1.118.569.809 3.075.813 3.12-2.17 4.216a18.018 18.018 0 0 1-6.079 1.148zm4.129-14.776a3.048 3.048 0 0 0-2.91 3.286c.034.262.154.37.375.317 1.232-.295 2.536-.436 3.503-1.375a1.368 1.368 0 0 0 .426-1.525 1.278 1.278 0 0 0-1.394-.703zm86.236-4.074c.439 0 .88-.027 1.316.004 2.373.17 4.146 1.383 4.638 3.155a5.797 5.797 0 0 1-2.085 5.974c-2.126 1.524-4.652 2.053-7.11 2.706a1.433 1.433 0 0 0-1.234 1.324c-.182 1.17.132 1.548 1.355 1.418a17.26 17.26 0 0 0 5.39-1.516c1.08-.497 1.391-.242 1.619.84.565 2.687.613 2.687-2.014 3.68a16.008 16.008 0 0 1-7.844 1.158c-2.614-.347-3.885-1.806-3.793-4.467.082-2.403.873-4.694 1.278-7.049.02-.117.07-.229.095-.346 1.082-4.96 3.382-6.857 8.389-6.881zm-3.194 7.114c-.05.271-.153.657.303.555 1.274-.283 2.628-.423 3.595-1.448a1.358 1.358 0 0 0 .36-1.434c-.21-.562-.716-.685-1.267-.715-1.681-.091-2.743.983-2.991 3.042zm-193.523-7.206c.713.074 1.435.1 2.138.232 1.739.326 3.278 1.062 3.774 2.897a5.502 5.502 0 0 1-1.297 5.46 9.45 9.45 0 0 1-4.158 2.282 38.533 38.533 0 0 1-3.904 1.142c-1.225.263-1.053 1.248-1.031 1.967.027.89.905.759 1.515.679a18.843 18.843 0 0 0 5.496-1.603c.889-.413 1.122-.125 1.314.721.662 2.922.694 2.927-2.094 3.974a17.36 17.36 0 0 1-6.803 1.184c-3.522-.134-5.111-1.984-4.605-5.463.286-1.97.753-3.915 1.139-5.872.039-.195.081-.39.122-.586 1.014-4.894 3.416-6.887 8.393-7.014zm-2.492 7.724a9.333 9.333 0 0 0 2.852-1.054 1.577 1.577 0 0 0 .752-1.743c-.22-.758-.918-.776-1.573-.76a2.937 2.937 0 0 0-2.707 3.176c.033.408.206.458.676.381zm56.802 11.219c-3.417-.012-4.73-1.591-4.116-4.606q.86-4.217 1.81-8.416c.195-.867.157-1.325-.95-1.263-1.454.081-1.458.006-1.158-1.463.055-.274.117-.546.175-.82.413-1.921.412-1.942 2.309-1.998.568-.017.85-.139.938-.77.137-.984.431-1.944.607-2.924a.745.745 0 0 1 .779-.704 79.977 79.977 0 0 0 4.147-.578c.641-.108.66.12.539.636-.282 1.202-.498 2.42-.778 3.621-.126.538.029.727.573.712.878-.024 1.76.034 2.635-.017.835-.048.983.293.697.989a2.278 2.278 0 0 0-.075.227c-.29.992-.3 2.277-.947 2.897-.672.645-1.983.205-3.01.196-.684-.006-.992.19-1.13.882-.511 2.58-1.085 5.147-1.626 7.721-.254 1.209-.037 1.366 1.227 1.144.674-.118 1.4-.874 1.955-.36.418.387.396 1.255.56 1.912.398 1.585.395 1.583-1.173 2.174a12.445 12.445 0 0 1-3.988.808zm-92.72-18.829a16.446 16.446 0 0 1 4.853.563c.589.142.776.39.582 1.004-.3.948-.25 2.158-.837 2.825-.67.76-1.797-.153-2.746-.135a17.846 17.846 0 0 0-2.502-.135c-.626.098-1.134.295-1.279 1.035a1.254 1.254 0 0 0 .718 1.473c1.142.654 2.288 1.304 3.404 2.001a3.36 3.36 0 0 1 1.703 4.067c-.097.344-.144.702-.233 1.048-.934 3.623-2.026 4.578-5.724 5.005a15.133 15.133 0 0 1-6.595-.811c-.555-.186-.755-.423-.514-1.041.375-.96.36-2.282 1.025-2.861.673-.588 1.816.354 2.796.453a14.434 14.434 0 0 0 2.743.102 1.268 1.268 0 0 0 1.223-.955 1.235 1.235 0 0 0-.496-1.563c-.9-.588-1.848-1.102-2.76-1.673-2.335-1.466-2.783-2.483-2.303-5.187a13.045 13.045 0 0 1 .328-1.396c.768-2.61 1.96-3.583 4.7-3.81.634-.053 1.277-.009 1.915-.009zm22.707-.066a18.78 18.78 0 0 1 4.505.6c.588.136.906.327.666 1.04-.316.943-.245 2.162-.833 2.83-.668.758-1.793-.155-2.74-.146a18.858 18.858 0 0 0-2.625-.128 1.327 1.327 0 0 0-1.195 1.147 1.105 1.105 0 0 0 .655 1.276c1.227.746 2.467 1.472 3.693 2.22a3.154 3.154 0 0 1 1.603 3.344 11.92 11.92 0 0 1-1.157 4.004 4.406 4.406 0 0 1-3.03 2.336 15.24 15.24 0 0 1-8.377-.484c-.65-.213-.787-.535-.57-1.153.33-.94.34-2.185.974-2.773.659-.61 1.734.366 2.677.394.715.021 1.427.17 2.142.193.858.027 1.718-.017 2.006-1.085.272-1.004-.398-1.46-1.104-1.882-.822-.493-1.676-.933-2.479-1.454-2.008-1.306-2.508-2.553-2.02-4.89.925-4.44 2.065-5.336 7.21-5.39zm-37.45-.001a18.6 18.6 0 0 1 4.386.565c.647.146 1.101.316.786 1.179-.34.932-.243 2.188-.845 2.816-.618.647-1.746-.24-2.684-.229-.795.009-1.59-.15-2.386-.15a1.327 1.327 0 0 0-1.452 1.14c-.166.771.31 1.1.829 1.418 1.226.749 2.481 1.45 3.689 2.228a2.972 2.972 0 0 1 1.433 2.959 11.405 11.405 0 0 1-1.214 4.349 4.266 4.266 0 0 1-2.844 2.216 14.958 14.958 0 0 1-8.491-.452c-.603-.202-.84-.477-.6-1.135.34-.935.331-2.201.968-2.772.715-.641 1.817.313 2.786.414a16.727 16.727 0 0 0 2.744.125 1.317 1.317 0 0 0 1.303-1.037 1.292 1.292 0 0 0-.587-1.556c-1.014-.637-2.073-1.204-3.071-1.863-1.955-1.293-2.431-2.517-1.952-4.806.933-4.459 2.06-5.35 7.202-5.409zm-12.669 13.299c.055.474.122.905.152 1.339.235 3.413.882 2.886-2.804 3.876a12.458 12.458 0 0 1-4.87.266c-2.778-.359-4.103-1.939-3.872-4.737a60.763 60.763 0 0 1 1.473-7.138c.112-.545.269-1.082.422-1.618a6.5 6.5 0 0 1 5.908-5.136 15.498 15.498 0 0 1 6.056.312c.665.19.884.462.561 1.09a.787.787 0 0 0-.042.112 9.28 9.28 0 0 1-1.041 2.904c-.723.892-1.847-.07-2.815-.046-2.694.065-3.355.51-3.934 3.148-.368 1.675-.745 3.347-1.084 5.028-.297 1.468.079 1.82 1.54 1.617 1.464-.204 2.864-.67 4.35-1.017zm109.641-13.238a11.71 11.71 0 0 1 3.789.407c.603.158.824.41.588.999a6.221 6.221 0 0 0-.126.336 8.998 8.998 0 0 1-1.005 2.792c-.71.878-1.778-.092-2.715-.075-2.77.052-3.491.557-4.068 3.304-.335 1.6-.679 3.198-1.017 4.798-.33 1.566.006 1.952 1.54 1.669a27.821 27.821 0 0 0 3.26-.753c.922-.288 1.226-.009 1.238.898a20.602 20.602 0 0 0 .187 2.385.794.794 0 0 1-.599.984 14.53 14.53 0 0 1-7.87.887c-2.22-.423-3.306-1.64-3.215-3.929a32.785 32.785 0 0 1 2.52-11.135c1.042-2.544 3.377-3.345 5.937-3.561.515-.044 1.037-.007 1.556-.007zm-34.426 18.453c-2.662 0-2.648.003-2.09-2.635 1.544-7.3 3.092-14.598 4.588-21.907a1.205 1.205 0 0 1 1.318-1.16c1.152-.073 2.297-.278 3.44-.457.66-.102.956-.015.785.786-1.717 8.037-3.434 16.074-5.066 24.128-.223 1.101-.683 1.366-1.657 1.253a11.501 11.501 0 0 0-1.318-.008zm79.995-16.245l4.56-2.26a34.517 34.517 0 0 1 .014 4.413c.001.514-.449.614-.78.805-1.246.719-2.484 1.453-3.756 2.12a1.935 1.935 0 0 0-1.052 1.474c-.578 2.855-1.198 5.702-1.771 8.558-.158.786-.403 1.255-1.367 1.16a25.845 25.845 0 0 0-3.357-.015c-.617.02-.859-.119-.713-.802q1.727-8.078 3.402-16.168c.112-.538.318-.84.921-.86a12.704 12.704 0 0 0 1.536-.246c.745-.119 1.654-.541 2.194-.26.562.293-.149 1.307.169 2.08zm70.215 16.245c-2.684 0-2.675.002-2.111-2.622 1.012-4.71 2.043-9.416 2.99-14.138a1.192 1.192 0 0 1 1.216-1.13c1.187-.138 2.38-.263 3.55-.494.922-.181.895.235.754.893q-1.345 6.247-2.668 12.499c-.274 1.285-.632 2.558-.813 3.856-.124.894-.446 1.271-1.364 1.148a11.761 11.761 0 0 0-1.554-.012zm2.417-20.191c-.717.139-.765-.13-.649-.646q.474-2.1.858-4.219a.876.876 0 0 1 .885-.79c1.307-.166 2.614-.332 3.915-.534.718-.112.82.196.681.798-.314 1.36-.636 2.72-.89 4.092a.8.8 0 0 1-.762.756c-1.384.189-2.769.372-4.038.543z" class="cls-2"/><path fill="#fefdfd" d="M467.813 51.172c-3.514 0-7.027.011-10.54-.004-1.746-.008-2.137-.62-1.48-2.248 2.207-5.46 6.342-8.318 12.123-8.883a20.511 20.511 0 0 1 7.242.431c4.844 1.266 6.163 4.827 5.54 9.143-.154 1.063-.935 1.551-2.345 1.557-3.513.013-7.027.004-10.54.004zm-40.261 72.567c-1.073.029-1.46-.395-1.252-1.339.386-1.753.717-3.52 1.146-5.263a3.837 3.837 0 0 1 5.105-2.589c.373.138.388.327.325.625l-1.434 6.79a.79.79 0 0 1-.419.552 10.706 10.706 0 0 1-3.471 1.224zm-74.63.729c-1.93-.01-2.643-.807-2.309-2.688q.418-2.353.967-4.683a3.476 3.476 0 0 1 4.78-2.405 1.51 1.51 0 0 1 1.027 1.597 25.798 25.798 0 0 1-1.347 6.411c-.497 1.353-1.736 1.78-3.118 1.768zm-44.029-10.321c.576-.002 1.168.046 1.427.65a1.408 1.408 0 0 1-.46 1.62c-.944.914-2.22 1.014-3.405 1.33a.295.295 0 0 1-.422-.258 3.107 3.107 0 0 1 2.86-3.342zm84.307.001a1.278 1.278 0 0 1 1.395.703 1.368 1.368 0 0 1-.426 1.525c-.967.939-2.271 1.08-3.503 1.375-.22.053-.34-.055-.374-.317a3.048 3.048 0 0 1 2.909-3.286zm83.044 3.039c.247-2.058 1.309-3.132 2.99-3.041.55.03 1.057.153 1.266.715a1.358 1.358 0 0 1-.36 1.434c-.966 1.025-2.32 1.165-3.594 1.448-.456.102-.353-.284-.302-.556zm-196.016.519c-.47.077-.643.027-.676-.381a2.937 2.937 0 0 1 2.707-3.175c.654-.017 1.352 0 1.573.76a1.577 1.577 0 0 1-.752 1.742 9.333 9.333 0 0 1-2.852 1.054z"/><path fill="#ec3528" d="M1.205 37.18a9.808 9.808 0 0 1 2.098.676c.994.933 2.036 1.815 2.979 2.803.913.956 1.881 1.856 2.86 2.745.189.17.486.339.31.693-1.024 0-2.048.007-3.073-.002a2.082 2.082 0 0 1-1.574-.937 18.866 18.866 0 0 1-2.68-4.69 1.91 1.91 0 0 0-.92-1.025z"/><path fill="#fac5a8" d="M56.847 109.318c-.772-.05-1.544-.104-2.316-.151a.49.49 0 0 1-.44-.221.34.34 0 0 1 .167-.146 1.882 1.882 0 0 1 .893-.013 6.647 6.647 0 0 0 1.417.079 2.53 2.53 0 0 1 .553.051 5.01 5.01 0 0 0 1.434.07c.192-.013.384.006.577.004 1.27.111 2.55.034 3.814.242a.148.148 0 0 1 .059.206h-3.928c-.279-.136-.577-.035-.864-.067a7.346 7.346 0 0 1-1.366-.054z"/><path fill="#f9c8c8" d="M69.82 109.329q-.005.055-.007.11h-5.63a.156.156 0 0 1 .073-.215 1.677 1.677 0 0 1 .825-.122c1.276-.005 2.552-.008 3.828.002.317.002.658-.055.911.225z"/><path fill="#fdeee5" d="M56.847 109.318l1.434.005q.074.033.054.074c-.014.028-.029.042-.044.042h-1.44q0-.06-.004-.12z"/><path fill="#fefaf8" d="M64.177 109.329a.986.986 0 0 1 .006.11h-1.178q.003-.055.01-.11a.63.63 0 0 1 .522-.2c.228.019.475-.018.64.2z"/><path fill="#fbdbc8" d="M58.291 109.44a1.044 1.044 0 0 0-.01-.117c.268.02.56-.116.796.116z"/><path fill="#eb1d28" d="M32.107 97.788c-6.444-3.164-13.158-5.774-19.357-9.44a27.784 27.784 0 0 1-5.637-4.217 6.53 6.53 0 0 1-1.926-5.78c.031-.236.082-.372.343-.35.086.007.174 0 .261 0l24.614.002c.13 0 .26.017.39.027a26.455 26.455 0 0 1 2.206 2.038c3.02 2.987 6.114 5.897 9.152 8.865 2.367 2.313 4.802 4.559 7.137 6.905.294.295.65.517.933.817.212.225.524.438.307.832a11.8 11.8 0 0 1-2.618.821 5.827 5.827 0 0 0-.951.15 7.99 7.99 0 0 1-2.241.177 1.992 1.992 0 0 0-.7.075c-.687.097-1.361-.144-2.048-.082a7.387 7.387 0 0 1-1.318-.131 2.873 2.873 0 0 1-.534-.058 6.69 6.69 0 0 0-.82-.138 25.114 25.114 0 0 1-3.8-1.022c-.808-.318-1.481.19-2.21.362-.395.041-.76.325-1.183.147zm18.548 10.881c-2.483-.083-4.95-.36-7.42-.594a322.474 322.474 0 0 1-12.07-1.387c-1.64-.217-3.278-.448-5.049-.691 1.342-.36 2.572-.65 3.777-1.023a14.007 14.007 0 0 0 4.928-2.315 2.131 2.131 0 0 0 .918-1.977l.081-.053a.22.22 0 0 1 .165.083 6.017 6.017 0 0 1 .46 1.238c.285.433.734.349 1.151.367a13.811 13.811 0 0 0 4.117-.446c.438-.093.872-.208 1.308-.315a24.88 24.88 0 0 0 4.995-2.13c.403-.167.77-.405 1.156-.604a7.085 7.085 0 0 1 2.042-1.084.865.865 0 0 1 .368.26c1.145 1.222 2.465 2.262 3.617 3.478 1.42 1.498 3.031 2.802 4.438 4.316.207.223.553.405.373.815a1.892 1.892 0 0 1-.882.4c-.413.102-.82.223-1.226.352-.393.091-.782.198-1.174.297-.85.204-1.695.429-2.55.62a9.14 9.14 0 0 1-3.523.393z"/><path d="M111.588 95.188a26.27 26.27 0 0 1-3.277 2.477 5.917 5.917 0 0 1-1.415-1.136c-2.062-2.129-4.247-4.13-6.366-6.2-2.43-2.372-4.885-4.72-7.33-7.077-2.225-2.143-4.475-4.261-6.676-6.43q1.868-1.188 3.831-2.21c.323-.082.464.183.641.353 1.54 1.477 3.07 2.966 4.608 4.446 2.51 2.416 5.009 4.844 7.52 7.26 2.433 2.34 4.893 4.65 7.279 7.038.294.295.66.502.938.812.166.186.421.35.247.667z" class="cls-11"/><path d="M43.35 15.576c1.454-.309 2.905-.626 4.327-1.065.675.424.718.648.225 1.173-.414.44.057 1.384.793 1.527a19.965 19.965 0 0 1 2.546.742c1.467 1.334 2.858 2.748 4.289 4.12q3.892 3.733 7.76 7.49c2.209 2.133 4.461 4.222 6.633 6.395.277.276.604.535.429 1.005a33.876 33.876 0 0 1-.913 3.792 4.28 4.28 0 0 1-.75-.625c-1.456-1.44-2.94-2.851-4.402-4.284-3.19-3.126-6.438-6.19-9.629-9.315-2.427-2.377-4.885-4.724-7.34-7.073a303.375 303.375 0 0 1-3.967-3.882z" class="cls-12"/><path d="M97.44 103.927a30.296 30.296 0 0 1-3.67 1.56 1.291 1.291 0 0 1-.49-.317c-.87-.949-1.905-1.722-2.792-2.654-1.681-1.768-3.551-3.343-5.24-5.105-.52-.542-.622-.52-1.285-.1-.533.34-.985.793-1.554 1.08a.714.714 0 0 1-.187.036 1.32 1.32 0 0 1-1.064-.867.429.429 0 0 1 .153-.238c.607-.385 1.268-.679 1.87-1.074.493-.322.514-.46.12-.912-.1-.116-.21-.221-.32-.328-2.934-2.862-5.937-5.652-8.83-8.556-.367-.369-.823-.648-1.164-1.049-.145-.17-.403-.294-.302-.594a35.173 35.173 0 0 1 3.146-1.814.268.268 0 0 1 .398.084c.39.478.92.804 1.342 1.242 2.045 2.12 4.249 4.075 6.324 6.164.875.88 1.823 1.688 2.692 2.577.847.866.834 1.023-.175 1.645a1.1 1.1 0 0 0-.613.614 2.106 2.106 0 0 0 1.032-.52c.79-.531 1.003-.527 1.708.095.098.087.192.178.283.273 2.054 2.14 4.285 4.1 6.367 6.214.64.65 1.368 1.217 1.992 1.889.164.176.435.334.259.655z" class="cls-13"/><path fill="#f69025" d="M126.511 77.108c-.464.616-.606 1.424-1.173 1.979a15.608 15.608 0 0 1-2.281-2.032c-1.925-1.931-3.969-3.738-5.865-5.698-.487-.504-.582-.462-.914.186a3.928 3.928 0 0 1-.918 1.467 1.9 1.9 0 0 1-1.24-.848c-.25-.759.243-1.342.496-1.969.363-.898.393-.885-.284-1.566-1.61-1.617-3.338-3.116-4.909-4.775a1.933 1.933 0 0 1-.425-.49 1.792 1.792 0 0 0-.686-1.962q-6.14-5.466-12.274-10.936a1.767 1.767 0 0 1-.167-.197 2.464 2.464 0 0 0-.905-1.804c-2.073-2.122-4.255-4.131-6.377-6.201-2.45-2.39-4.92-4.758-7.385-7.131-2.465-2.374-4.944-4.733-7.387-7.13-.947-.929-2.004-1.74-3.003-2.614-.23-.202-.533.055-.707-.208a2.849 2.849 0 0 1-.158-1.496c.4-.566.564-.592 1.06-.117q1.44 1.377 2.87 2.766c1.685 1.643 3.398 3.257 5.075 4.908 2.952 2.903 5.96 5.746 8.925 8.636 2.402 2.34 4.849 4.633 7.24 6.984a5.037 5.037 0 0 1 1.415 1.905 1.203 1.203 0 0 0 1.288.906.587.587 0 0 1 .45.24c.486.501 1.055.916 1.54 1.413 1.991 2.047 4.098 3.975 6.14 5.97 2.65 2.587 5.349 5.124 7.986 7.724.495.488 1.045.922 1.534 1.42a1.66 1.66 0 0 1 .544 1.014 7.916 7.916 0 0 0-.384 1.832 1.153 1.153 0 0 0 .187.735c.306.395.504.372.789-.095.245-.314.347-.716.621-1.012a.545.545 0 0 1 .235-.154.94.94 0 0 1 .785.231 2.607 2.607 0 0 1 .339.306c2.017 2.104 4.228 4.01 6.244 6.114.393.41.889.7 1.264 1.13.155.177.368.312.415.569z"/><path fill="#ec2a28" d="M34.2 78.03h4.19a7.136 7.136 0 0 1 .57.538c2.042 2.123 4.22 4.107 6.326 6.165 2.432 2.377 4.89 4.727 7.34 7.086 2.544 2.45 5.064 4.927 7.632 7.35 1.681 1.586 3.248 3.291 5.006 4.796.222.19.58.408.274.81a1.535 1.535 0 0 1-.321.204 18.672 18.672 0 0 1-2.15.754.981.981 0 0 1-.19.032.596.596 0 0 1-.28-.057c-2.83-2.908-5.869-5.605-8.71-8.503a4.323 4.323 0 0 0-.978-.638.924.924 0 0 1-.204-.194 43.141 43.141 0 0 0-3.41-3.429c-.145-.132-.31-.243-.446-.385-1.944-2.035-4.025-3.931-6.047-5.885-2.775-2.681-5.541-5.372-8.334-8.034-.174-.166-.366-.324-.267-.61z"/><path d="M111.588 95.188a1.077 1.077 0 0 0-.572-.757 14.537 14.537 0 0 1-1.573-1.466c-1.887-1.836-3.743-3.704-5.658-5.51a561.373 561.373 0 0 1-7.327-7.062c-2.003-1.96-4.066-3.857-6.103-5.781q1.659-1.07 3.414-1.97a.68.68 0 0 1 .38.239c.875.943 1.89 1.74 2.788 2.657 1.932 1.978 3.97 3.849 5.954 5.773 1.233 1.196 2.437 2.425 3.702 3.59a.725.725 0 0 1 .237.305.678.678 0 0 1 .006.283 3.86 3.86 0 0 0-.062 1.166c.011.307.13.392.404.18.709-.553.763-.541 1.382.049 1.868 1.783 3.704 3.6 5.583 5.372.151.142.359.282.187.544a18.64 18.64 0 0 1-2.742 2.388z" class="cls-16"/><path d="M103.07 101.033a27.486 27.486 0 0 1-2.88 1.57 2.784 2.784 0 0 1-.623-.573c-1.852-1.904-3.824-3.686-5.72-5.546a548.867 548.867 0 0 0-3.233-3.137c-.547-.528-.628-.529-1.267-.061-.281.205-.55.43-.842.619-.176.113-.357.197-.513-.02a.4.4 0 0 1 .058-.536 2.252 2.252 0 0 1 .465-.358c.96-.653.944-.637.123-1.498-1.49-1.56-3.125-2.97-4.645-4.498-1.688-1.698-3.483-3.288-5.145-5.013-.15-.156-.449-.257-.268-.574a24.704 24.704 0 0 1 2.725-1.568c.326-.093.47.176.643.348q2.477 2.467 5.035 4.85c1.51 1.412 2.94 2.905 4.47 4.3 1.316 1.198 2.589 2.452 3.854 3.705 2.12 2.1 4.342 4.095 6.408 6.249.334.347.77.578 1.074.953.181.224.472.425.28.788z" class="cls-17"/><path d="M65.492 104.723c.152-.234-.026-.356-.166-.49q-4.207-4.01-8.368-8.07c-.635-.62-1.297-1.223-1.937-1.843-1.767-1.713-3.503-3.458-5.293-5.147-2.486-2.345-4.922-4.742-7.391-7.105-1.195-1.144-2.367-2.312-3.556-3.462-.168-.162-.387-.298-.391-.576h3.405a24.913 24.913 0 0 1 3.23 3.035 7.637 7.637 0 0 0 1.462 1.4 12.532 12.532 0 0 1 2.157 2.085 7.548 7.548 0 0 0 1.458 1.404 16.239 16.239 0 0 1 2.649 2.61c.612.693 1.417 1.162 2.062 1.809 1.23 1.232 2.42 2.496 3.738 3.649 1.289 1.126 2.422 2.43 3.714 3.575 1.249 1.108 2.29 2.443 3.633 3.472a25.093 25.093 0 0 1 2.06 2.187.453.453 0 0 1 .18.463c-.462.51-1.143.58-1.721.857-.31.044-.577.35-.925.147z" class="cls-18"/><path d="M58.553 44.089l-5.896.008a6.21 6.21 0 0 1-1.044-.883c-1.754-1.82-3.633-3.513-5.437-5.283-2.923-2.869-5.934-5.647-8.813-8.561a1.78 1.78 0 0 0-.775-.462c-.185-.056-.257-.169-.067-.322a8.612 8.612 0 0 1 2.128-.093c.756-.022 1.514-.005 2.27-.006a10.609 10.609 0 0 1 1.875.167 9.482 9.482 0 0 1 2.108 1.818c2.107 2.118 4.296 4.15 6.43 6.241 2.225 2.18 4.524 4.286 6.724 6.494a1.74 1.74 0 0 1 .56.71.228.228 0 0 1-.063.172z" class="cls-11"/><path d="M86.524 76.823a.789.789 0 0 1 .502.276c1.018.979 2.046 1.947 3.059 2.932 2.026 1.972 4.018 3.98 6.072 5.924 2.512 2.375 4.957 4.82 7.479 7.182 1.442 1.351 2.733 2.862 4.295 4.087a2.936 2.936 0 0 1 .38.441 21.363 21.363 0 0 1-2.623 1.778 23.016 23.016 0 0 1-1.975-1.803c-2.087-2.103-4.257-4.122-6.378-6.19a645.743 645.743 0 0 0-7.62-7.345c-1.758-1.66-3.4-3.439-5.234-5.019-.238-.205-.523-.414-.51-.795a23.963 23.963 0 0 1 2.553-1.468z" class="cls-19"/><path d="M78.58 81.408c.019.317.322.393.5.565 1.218 1.182 2.397 2.4 3.644 3.556 2.154 1.997 4.217 4.093 6.314 6.153.661.65.65.704-.143 1.238-.234.158-.473.31-.704.471-.164.115-.237.276-.1.446.16.198.258-.01.367-.09.349-.258.71-.502 1.037-.784a.63.63 0 0 1 .972.017l.14.137c2.023 1.979 4.015 3.991 6.082 5.923 1.097 1.026 2.161 2.083 3.235 3.131a.628.628 0 0 1 .265.433 22.327 22.327 0 0 1-2.749 1.323 8.544 8.544 0 0 0-1.808-1.935c-.124-.12-.279-.208-.402-.329q-3.295-3.223-6.588-6.449c-.17-.166-.368-.303-.545-.462a.617.617 0 0 0-.966.033 5.27 5.27 0 0 1-.915.624c-.18.11-.415.266-.583.026-.188-.268.043-.436.244-.572a8.308 8.308 0 0 1 .774-.482c.502-.264.544-.526.112-.93a237.102 237.102 0 0 1-3.58-3.44c-1.937-1.884-3.862-3.78-5.803-5.66-.493-.476-1.031-.905-1.549-1.356a26.527 26.527 0 0 1 2.749-1.587z" class="cls-20"/><path d="M83.97 78.291a22.304 22.304 0 0 0 2.088 2.05c2.233 2.139 4.4 4.346 6.64 6.475 2.493 2.369 4.934 4.79 7.436 7.147 1.725 1.626 3.322 3.384 5.134 4.919.177.149.39.292.42.56a26.978 26.978 0 0 1-2.618 1.59 1.497 1.497 0 0 0-.705-.982 13.592 13.592 0 0 1-1.48-1.373c-1.948-1.897-3.853-3.84-5.853-5.68-.829-.762-1.628-1.56-2.477-2.304-.66-.578-1.248-1.252-1.893-1.864-2.175-2.069-4.266-4.227-6.462-6.273-.968-.901-1.861-1.885-2.895-2.716a25.086 25.086 0 0 1 2.666-1.549z" class="cls-21"/><path d="M43.35 15.576a.556.556 0 0 1 .449.2c2.054 2.225 4.33 4.228 6.485 6.352a209.744 209.744 0 0 0 3.135 3.047c2.672 2.527 5.298 5.102 7.943 7.657 2.457 2.374 4.959 4.7 7.358 7.133.247.251.692.337.72.79a3.583 3.583 0 0 1-.533 1.682 17.336 17.336 0 0 1-2.055-1.796c-1.137-1.049-2.151-2.227-3.352-3.211a.979.979 0 0 0-.682-.329c-.428-.778-1.215-1.276-1.524-2.184a6.866 6.866 0 0 0-1.22-1.842 25.16 25.16 0 0 0-6.01-5.674c-.128-.077-.26-.147-.388-.222a4.126 4.126 0 0 0-.823-.492c-.398-.216-.778-.463-1.178-.677a22.106 22.106 0 0 0-2.426-1.013 3.465 3.465 0 0 0-.451-.149c-.53-.022-1.01-.409-1.591-.14-.235.108-.439-.098-.39-.41.138-.251.33-.215.527-.139-.187-.403-.626-.607-.944-.93-2.247-2.283-4.596-4.462-6.89-6.696-.184-.18-.385-.364-.332-.668z" class="cls-22"/><path d="M36.426 28.803a1.131 1.131 0 0 1 1.027.426c2.275 2.253 4.538 4.518 6.859 6.723 2.509 2.384 5.02 4.764 7.462 7.216.302.303.755.461.883.929h-4.451c-.315-.14-.48-.439-.705-.67-1.932-1.981-3.972-3.851-5.952-5.782-2.4-2.34-4.85-4.63-7.234-6.99-.68-.672-1.436-1.268-2.09-1.97a3.234 3.234 0 0 1-.658-.804 5.388 5.388 0 0 1 1.66-.258c.368-.013.83.005.931-.412.092-.38-.274-.645-.573-.864a11.349 11.349 0 0 1-2.812-2.995c.222-.223.231-.233.45-.102a3.34 3.34 0 0 1 .75.623c.92 1.015 1.997 1.866 2.952 2.843a.652.652 0 0 1 .199.4c.004.041 0 .084.002.125.02.321-.368.606-.182.893.16.246.574.044.825.232.148.251.469.245.657.437z" class="cls-19"/><path d="M68.111 103.679a23.415 23.415 0 0 0-3.507-3.482 6.635 6.635 0 0 1-1.303-1.282 10.644 10.644 0 0 0-1.846-1.831 14.788 14.788 0 0 1-2.354-2.338c-.59-.704-1.403-1.174-2.043-1.816-1.333-1.339-2.64-2.697-4.067-3.946-1.17-1.026-2.099-2.31-3.381-3.243a9.03 9.03 0 0 1-1.568-1.654 20.517 20.517 0 0 0-2.138-1.906c-1.244-1.147-2.21-2.582-3.66-3.518a1.368 1.368 0 0 1-.449-.633h3.796a24.426 24.426 0 0 1 2.25 2.087c1.78 1.796 3.615 3.536 5.45 5.272 1.548 1.465 2.983 3.05 4.623 4.419-.085.529-.177 1.057-.255 1.587-.171 1.155.294 1.57 1.407 1.262a.744.744 0 0 1 .379.243c.912.995 1.985 1.822 2.926 2.788 1.896 1.947 3.948 3.735 5.834 5.693.39.406.883.707 1.253 1.14.185.216.41.431.099.72-.47.186-.889.54-1.446.438z" class="cls-23"/><path fill="#f68f25" d="M70.206 25.268c.189-.21.35-.342.641-.088 1.628 1.418 3.253 2.836 4.772 4.374 1.59 1.609 3.195 3.21 4.874 4.725 1.262 1.14 2.411 2.39 3.652 3.547 2.529 2.36 4.978 4.803 7.483 7.186 1.277 1.216 2.518 2.466 3.78 3.696.427.416.79.897.463 1.559-1.193-1.038-2.397-2.063-3.577-3.116q-6.52-5.82-13.029-11.652c-1.736-1.55-3.489-3.08-5.234-4.62-.483-.076-.905-.512-1.447-.247a1.373 1.373 0 0 0-.691.892c-.08.237-.085.523-.365.651a.876.876 0 0 1-.928-.33c-.486-.497-.953-1.012-1.475-1.475-.113-.101-.26-.22-.269-.36-.079-1.25-1.345-1.556-1.926-2.412-.222-.327-.65-.547-.878-.927-.218-.364-.619-.533-.917-.814-.048-.555-.204-.976-.884-1.041-.32-.03-.432-.395-.488-.703a.549.549 0 0 0-.426-.497c-.78-.228-.86-.397-.693-1.285.66-.417 1.218-.263 1.412.438.108.39.28.618.695.644.2.013.434.065.5.258a1.78 1.78 0 0 0 1.075 1.057.576.576 0 0 1 .26.367 1.078 1.078 0 0 0 .74.668 5.877 5.877 0 0 1 1.861 1.507 3.1 3.1 0 0 0 1.37.808c.537.15.523-.101.438-.45a2.403 2.403 0 0 1-.152-1.083c.068-.339-.285-.38-.478-.538-.235-.193-.654-.377-.159-.739z"/><path d="M25.047 30.246a17.818 17.818 0 0 1 3.372-1.453c.32-.079.467.179.642.352 1.607 1.593 3.255 3.145 4.882 4.717 2.519 2.433 5.049 4.855 7.56 7.297.747.727 1.53 1.42 2.262 2.165.207.21.475.407.382.773h-4.71a43.35 43.35 0 0 1-2.238-2.095c-2.065-2.062-4.196-4.054-6.286-6.09q-2.92-2.844-5.866-5.666z" class="cls-17"/><path d="M44.147 44.097a14.295 14.295 0 0 0-2.324-2.449c-.124-.12-.28-.207-.402-.327-2.192-2.144-4.368-4.304-6.576-6.432-2.125-2.05-4.282-4.065-6.426-6.096a11.7 11.7 0 0 1 3.148-.912c.348.054.445.392.656.595 1.694 1.627 3.349 3.294 5.06 4.903 2.422 2.278 4.795 4.607 7.193 6.91 1.065 1.024 2.123 2.056 3.186 3.083a2.254 2.254 0 0 1 .543.725z" class="cls-21"/><path d="M34.2 78.03c.108.423.514.57.787.839 2.186 2.153 4.355 4.324 6.578 6.438 2.521 2.397 5.007 4.831 7.521 7.235 1.116 1.067 2.203 2.163 3.32 3.229.169.16.386.3.386.578a3.586 3.586 0 0 1-2.226 1.047 2.034 2.034 0 0 0-.796-.925 2.712 2.712 0 0 1-.397-.336c-2.164-2.116-4.3-4.26-6.494-6.345-2.54-2.413-5.023-4.886-7.577-7.28-1.427-1.338-2.702-2.837-4.254-4.043a.546.546 0 0 1-.253-.437z" class="cls-25"/><path d="M19.252 33.639a24.948 24.948 0 0 1 3.414-2.125 416.268 416.268 0 0 1 3.185 3.093c2.129 2.095 4.322 4.124 6.433 6.238.83.83 1.726 1.599 2.544 2.445.217.225.523.424.418.821H30.14c-.873-.815-1.78-1.59-2.617-2.446-1.776-1.817-3.66-3.526-5.47-5.31-.924-.912-1.884-1.794-2.802-2.716z" class="cls-13"/><path d="M35.246 44.111a15.35 15.35 0 0 0-2.455-2.592c-.123-.12-.28-.207-.402-.327-2.193-2.144-4.36-4.314-6.583-6.425-.914-.867-1.834-1.727-2.725-2.618-.181-.181-.413-.335-.415-.635a14.597 14.597 0 0 1 2.38-1.268.466.466 0 0 1 .36.106c1.421 1.404 2.814 2.839 4.28 4.194 1.389 1.285 2.675 2.676 4.08 3.937 1.2 1.077 2.277 2.272 3.466 3.353.627.569 1.265 1.124 1.852 1.735.148.154.347.276.353.526z" class="cls-20"/><path d="M64.04 89.799a29.996 29.996 0 0 1 2.984-1.716c.234-.094.374.073.505.207.472.485 1.023.887 1.492 1.368 1.718 1.765 3.573 3.388 5.293 5.149 1.188 1.216 2.519 2.283 3.67 3.537.21.229.538.42.362.827a3.297 3.297 0 0 1-1.045.626 2.27 2.27 0 0 0-.995.78c-.244.395-.679.27-1.061.188-.759-.743-1.547-1.46-2.297-2.208-2.03-2.026-4.166-3.945-6.172-5.996-.744-.76-1.596-1.41-2.316-2.196-.16-.174-.371-.31-.42-.566z" class="cls-26"/><path d="M70.352 36.963c.033-.35-.193-.556-.414-.773-2.026-1.978-4.024-3.986-6.081-5.932-2.436-2.304-4.812-4.67-7.255-6.966-1.649-1.55-3.167-3.235-4.906-4.69a4.723 4.723 0 0 1-.475-.533c.325-.244.62-.008.923.064a7.233 7.233 0 0 0 .935.265c1.265-.238 2.098.571 2.992 1.233 2.296 2.097 4.491 4.3 6.744 6.444 2.661 2.533 5.267 5.125 7.951 7.636.176.164.366.325.233.608z" class="cls-27"/><path d="M78.324 99.098c.004-.251-.185-.383-.338-.532-1.833-1.792-3.627-3.627-5.517-5.356-1.172-1.072-2.255-2.229-3.414-3.309-.665-.619-1.354-1.213-2.031-1.818a28.933 28.933 0 0 1 2.911-1.686.282.282 0 0 1 .36.024 3.676 3.676 0 0 1 .547.463c1.815 1.905 3.793 3.644 5.652 5.505 1.459 1.461 3.015 2.823 4.437 4.322.183.193.47.34.405.685l-.131.131a.979.979 0 0 1-.509.478c-.622.347-1.275.64-1.882 1.015a.487.487 0 0 1-.49.078z" class="cls-28"/><path d="M106.737 85.222c-.272-.249-.55-.491-.813-.749-2.025-1.976-4.038-3.965-6.072-5.932-1.86-1.798-3.745-3.572-5.614-5.36-.171-.164-.313-.359-.47-.539a22.095 22.095 0 0 1 2.489-1.44.807.807 0 0 1 .427.283c1.169 1.198 2.423 2.309 3.605 3.49 2.014 2.013 4.147 3.903 6.115 5.961.212.222.482.374.699.587a1.967 1.967 0 0 1 .804 1.29 1.45 1.45 0 0 1-.31.638 2.43 2.43 0 0 0-.585 1.42c.002.153-.012.37-.275.351z" class="cls-29"/><path d="M81.336 97.396a41.93 41.93 0 0 0-3.67-3.617c-.083-.07-.16-.148-.238-.224l-6.581-6.449a2.877 2.877 0 0 0-.912-.71 28.436 28.436 0 0 1 2.75-1.587 15.492 15.492 0 0 0 2.149 2.078c2.03 2.032 4.07 4.055 6.165 6.02.792.744 1.58 1.493 2.353 2.256.64.632.615.77-.134 1.233a9.327 9.327 0 0 1-1.882 1z" class="cls-30"/><path d="M99.661 69.238a25.225 25.225 0 0 1 2.727-1.568c.311-.162.5.06.673.243.93.981 2.003 1.808 2.934 2.787 1.576 1.656 3.334 3.125 4.912 4.78.813.854.882 1.148.25 2.166-.396.637-.591 1.412-1.244 1.88a.46.46 0 0 1-.389-.203c-2.049-2.266-4.372-4.255-6.527-6.415-.983-.984-2.01-1.932-2.998-2.916-.196-.195-.535-.366-.338-.754zM54.102 27.232a23.962 23.962 0 0 1 6.245 5.971c.486.662 1.26 1.237 1.237 2.214a.198.198 0 0 0 .095.156c.715.239.778 1.001 1.195 1.477a.371.371 0 0 1 .11.144c.05.356.096.715.504.864a3.432 3.432 0 0 1 .804 1.75 12.247 12.247 0 0 1 .26 1.338c.038.225.043.377.298.482a.64.64 0 0 1 .412.843c-.121.39.125.716.174 1.076.033.244.263.249.462.268.273.026.574-.061.797.183a.815.815 0 0 1-.503.101q-3.82-.004-7.639-.01l.001-.102c.323-.27.71-.15 1.07-.16a28.325 28.325 0 0 1 1.898 0c.429.017.483-.121.314-.49a34.92 34.92 0 0 0-2.104-3.691 24.094 24.094 0 0 0-3.723-4.456c-.216-.213-.561-.382-.465-.792.685-.333 1.317.044 1.964.163.207.037.273.277.28.478.015.434.267.522.649.54.721.034.791.129.809.877.008.349-.01.698.01 1.046.008.146-.005.34.197.357.16.013.185-.156.228-.277.021-.062.033-.127.054-.188.045-.127.105-.26.258-.255.196.004.224.172.261.322.127.517.47.988.321 1.564-.013.05.069.102.229.108a2.22 2.22 0 0 1 .22-1.384.632.632 0 0 0-.217-.652 3.522 3.522 0 0 1-.677-1.186 17.287 17.287 0 0 0-.855-1.51c-.473-.931-1.143-1.744-1.544-2.706a1.463 1.463 0 0 0-.65-.785.698.698 0 0 1-.309-.237 4.051 4.051 0 0 0-1.196-1.2c-.447-.364-.753-.874-1.375-1.131-.32-.133-.384-.704-.1-1.11z" class="cls-12"/><path d="M64.04 89.799c1.357 1.288 2.717 2.572 4.069 3.866q3.325 3.183 6.639 6.379c.182.176.428.32.433.624a6.924 6.924 0 0 1-2.585 1.242c-1.12-1.09-2.244-2.176-3.359-3.269-2.141-2.1-4.369-4.112-6.446-6.277-.181-.189-.394-.343-.581-.524-.21-.202-.483-.39-.396-.756a18.829 18.829 0 0 1 2.227-1.285z" class="cls-31"/><path d="M19.252 33.639a.646.646 0 0 1 .448.236q1.212 1.182 2.445 2.342c2.242 2.12 4.426 4.302 6.622 6.47.47.463 1.148.727 1.374 1.424h-4.19c-.823-.714-1.566-1.513-2.35-2.268-2.213-2.128-4.48-4.202-6.611-6.415a.415.415 0 0 1-.113-.231z" class="cls-30"/><path d="M16.877 35.197a2.845 2.845 0 0 1 .312.23q2.316 2.243 4.627 4.49c1.246 1.209 2.5 2.41 3.745 3.62.167.161.386.298.39.574h-4.584a8.514 8.514 0 0 1-1.115-.994c-2.126-2.149-4.404-4.142-6.488-6.333z" class="cls-28"/><path d="M107.784 82.735a2.048 2.048 0 0 0-.828-1.134 15.46 15.46 0 0 1-1.571-1.464c-1.932-1.88-3.826-3.801-5.799-5.638-1.145-1.066-2.28-2.137-3.33-3.297a16.076 16.076 0 0 1 2.084-1.204.775.775 0 0 1 .377.247c1.046 1.11 2.212 2.094 3.295 3.165q3.295 3.258 6.679 6.423a1.431 1.431 0 0 1 .511.813c-.073.701-.643 1.136-.922 1.727-.133.165-.193.431-.496.362z" class="cls-32"/><path d="M70.999 34.32a.656.656 0 0 0-.35-.52 3.254 3.254 0 0 1-.41-.32c-1.98-1.932-3.952-3.874-5.938-5.8q-3.681-3.57-7.38-7.123c-.278-.27-.681-.404-.855-.786.382-.288.72-.12 1.06.096a6.254 6.254 0 0 0 1.82.939 1.192 1.192 0 0 1 .176.064 15.79 15.79 0 0 0 2.2 1.249.964.964 0 0 1 .166.08 45.34 45.34 0 0 1 3.743 3.724c.56-.097.756.399.993.708a5.59 5.59 0 0 0 .79.786 10.438 10.438 0 0 0 1.703 1.553.407.407 0 0 1 .165.332c-.106.724.451 1.027.863 1.43.323.316.641.64.941.979a.934.934 0 0 0 .856.371c.12.174-.019.277-.109.394A7.522 7.522 0 0 1 71 34.319z" class="cls-33"/><path d="M13.764 36.784c.248-.001.382.183.536.334q2.913 2.846 5.823 5.695c.427.42 1.031.673 1.244 1.298h-4.843c-1.549-1.558-3.221-2.987-4.739-4.576a9.806 9.806 0 0 0-1.816-1.572q1.924-.503 3.795-1.179z" class="cls-26"/><path d="M109.879 79.463a21.941 21.941 0 0 0 1.402-2.328.93.93 0 0 0-.188-1.24q-3.389-3.396-6.91-6.652c-.416-.385-.804-.8-1.208-1.197-.168-.167-.314-.372-.587-.376a10.76 10.76 0 0 1 2.001-1.162c.32-.065.472.187.645.365 1.925 1.993 4.031 3.801 5.945 5.806.422.442.945.771 1.359 1.227a.974.974 0 0 1 .168 1.346 2.69 2.69 0 0 0-.513 1.725.625.625 0 0 1-.261.638.83.83 0 0 1 .96.311.454.454 0 0 1-.043.38 29.23 29.23 0 0 1-1.712 2.783c-.257.333-.537.578-.998.403-.441-.167-.778-.407-.716-.95a1.343 1.343 0 0 1 .656-1.08z" class="cls-27"/><path d="M108.998 63.362c.195.006.306.147.43.268 1.755 1.711 3.498 3.436 5.275 5.125a.903.903 0 0 1 .187 1.248 3.879 3.879 0 0 0-.69 2.129c.134.432-.168.439-.451.465a36.287 36.287 0 0 1-1.092-1.09c-1.862-1.911-3.874-3.666-5.732-5.58-.179-.183-.408-.333-.466-.61.48-.293.952-.601 1.443-.875a2.526 2.526 0 0 0 1.096-1.08z" class="cls-34"/><path d="M58.833 84.864a19.232 19.232 0 0 1-.53 2.85c-.397.114-.596-.191-.823-.406a191.332 191.332 0 0 1-2.818-2.718c-2-1.972-4.085-3.856-6.038-5.874-.186-.191-.477-.337-.413-.686h3.665a19.062 19.062 0 0 1 1.635 1.579 36.805 36.805 0 0 0 2.852 2.669c.621.573 1.149 1.24 1.747 1.84.243.244.714.279.723.746z" class="cls-31"/><path d="M48.21 78.03a34.563 34.563 0 0 0 3.296 3.236c.118.095.22.21.33.316q2.913 2.848 5.824 5.698a2.114 2.114 0 0 0 .643.435 10.043 10.043 0 0 1-.389 2.093 2.783 2.783 0 0 1-1.101-.767c-2.207-2.154-4.355-4.374-6.63-6.453-1.46-1.332-2.733-2.855-4.293-4.077a.613.613 0 0 1-.3-.481z" class="cls-35"/><path d="M106.46 65.317a4.404 4.404 0 0 1 .352.282q2.953 2.882 5.898 5.773c.355.35.932.529.966 1.153a.875.875 0 0 1-.183.784 2.72 2.72 0 0 0-.295 1.617.945.945 0 0 0 .57.926c.188.225-.006.397-.093.572-.236.474-.514.926-.792 1.378-.07.073-.144.133-.254.09-.318.005-.656-.466-.96.053-.058.098-.21.02-.27-.079a.201.201 0 0 1 .118-.314.423.423 0 0 0 .324-.546 2.572 2.572 0 0 1 .562-1.892.7.7 0 0 0-.16-1.068c-.984-.858-1.895-1.791-2.829-2.7-1.666-1.622-3.35-3.227-5.025-4.838a14.814 14.814 0 0 1 2.07-1.19z" class="cls-33"/><path d="M61.814 91.084a3.491 3.491 0 0 0 .86.953 237.692 237.692 0 0 0 4.448 4.318c1.695 1.594 3.344 3.239 5.007 4.867.181.177.428.32.434.624a2.842 2.842 0 0 1-1.796.851c-1.04-1.015-2.096-2.017-3.13-3.036-2.136-2.106-4.373-4.108-6.441-6.282-.4-.42-.998-.641-1.226-1.23a12.716 12.716 0 0 1 1.844-1.065z" class="cls-35"/><path d="M9.97 37.963a1.32 1.32 0 0 1 .949.496q2.665 2.574 5.31 5.169c.138.135.297.26.295.483h-3.668a2.363 2.363 0 0 1-.58-.415c-1.477-1.539-3.049-2.98-4.585-4.46-.377-.362-.71-.775-1.305-.766a.191.191 0 0 1-.2-.21 24.405 24.405 0 0 0 3.783-.297z" class="cls-31"/><path fill="#ed4828" d="M58.833 84.864c-1.178-.729-1.906-1.935-2.965-2.793-1.331-1.08-2.442-2.394-3.695-3.557-.142-.132-.3-.26-.297-.484h4.19q1.732 1.67 3.408 3.398a32.643 32.643 0 0 1-.64 3.436z"/><path d="M109.879 79.463c-.128.372-.49.627-.524 1.047-.074.07-.111.213-.262.13a2.101 2.101 0 0 0-.79-.924 4.208 4.208 0 0 1-.537-.47c-2.188-2.14-4.349-4.309-6.57-6.413a36.733 36.733 0 0 1-2.856-2.834 6.483 6.483 0 0 1 1.321-.76c-.001.249.18.386.334.537 2.055 2.013 4.073 4.064 6.18 6.02a83.78 83.78 0 0 1 3.704 3.667z" class="cls-37"/><path d="M6.187 38.26c.894-.043 1.34.642 1.906 1.152 1.482 1.336 2.879 2.759 4.289 4.168.168.168.317.354.474.531l-3.403-.014a2.123 2.123 0 0 0-.871-1.025c-1.264-1.045-2.33-2.288-3.52-3.406-.411-.387-.838-.757-1.26-1.131a1.983 1.983 0 0 1-.5-.68 20.071 20.071 0 0 0 2.885.405z" class="cls-35"/><path d="M59.97 92.149c.385.315.794.606 1.15.95 1.77 1.707 3.523 3.43 5.286 5.144 1.295 1.258 2.598 2.507 3.891 3.766.182.176.428.32.433.624a1.07 1.07 0 0 1-1.178.52c.048-.668-.583-.844-.928-1.202-.264-.272-.585-.51-.863-.783-2.127-2.08-4.23-4.184-6.388-6.232a26.342 26.342 0 0 1-2.307-2.28z" class="cls-23"/><path d="M66.695 43.998c-.065-.003-.13-.008-.196-.008-1.338-.018-1.584-.327-1.326-1.667.07-.369-.306-.637-.797-.607a7.076 7.076 0 0 0-.978-3.619 2.017 2.017 0 0 1-.524-.916v-.131c.27-.284.417-.011.589.131a34.839 34.839 0 0 1 3.014 2.896 23.83 23.83 0 0 1 2.43 2.36 2.89 2.89 0 0 1-2.212 1.56z" class="cls-32"/><path fill="#ee4c28" d="M59.474 81.428a11.253 11.253 0 0 1-2.233-2.053c-.424-.412-.965-.74-1.175-1.345.303-.01.606-.027.909-.027a2.447 2.447 0 0 1 2.499 3.425z"/><path fill="#ed3f26" d="M35.51 97.134l3.799 1.046c-.204.221-.477.178-.732.181-.672.01-1.344.005-2.016.02-.406.008-.586.181-.593.59a3.17 3.17 0 0 1-.103 1.222c-.15.216-.262.067-.377-.041l-.259-.346c-.03-.27-.334-.277-.45-.466a.9.9 0 0 1-.35-.532 4.646 4.646 0 0 1-.036-.78c.009-.98.103-1.055 1.116-.894z"/><path fill="#ec2c2b" d="M50.655 108.669a21.267 21.267 0 0 0 3.577-.539.548.548 0 0 1 0 .766l-.141.05c-1.146-.086-2.298-.093-3.436-.277z"/><path fill="#ec2b2e" d="M34.592 98.967l.265.392a.086.086 0 0 1-.145.007l-2.605-1.578c.398-.06.753-.312 1.176-.261a1.77 1.77 0 0 0 .882.969 1.06 1.06 0 0 1 .427.471z"/><path fill="#ed3b2f" d="M34.712 99.366l.145-.007c.182.1.416.159.372.447zm.776.786l.283.124a.285.285 0 0 1 .01.391l-.042.015z"/><path fill="#f9a422" d="M75.843 7.07c3.723.4 7.466.597 11.176 1.145a80 80 0 0 1 16.072 3.967 49.116 49.116 0 0 1 16.905 10.051 37.353 37.353 0 0 1 11.34 20.879 56.619 56.619 0 0 1 .124 19.12 1.216 1.216 0 0 1-.091.24 1.155 1.155 0 0 1-.752-.479c-1.916-1.97-3.991-3.776-5.9-5.753-.53-.547-1.163-.988-1.678-1.555a1.35 1.35 0 0 1-.474-.762c.066-1.29.513-2.513.659-3.79.061-.54.152-1.077.217-1.618a41.032 41.032 0 0 0 .368-6.388 31.811 31.811 0 0 0-1.056-7.424c-.08-.269-.156-.54-.218-.813-.05-.222-.126-.439-.197-.656a21.304 21.304 0 0 0-.78-2.151 8.719 8.719 0 0 0-.513-1.192 46.289 46.289 0 0 0-.954-1.897 1.398 1.398 0 0 0-.869-.804.386.386 0 0 1-.13-.133c-.056-1.218-1.021-1.927-1.601-2.852a18.343 18.343 0 0 0-3.199-3.227c-.368-.26-.59-.695-.957-.972a38.375 38.375 0 0 0-3.141-2.36c-.888-.387-1.54-1.162-2.461-1.494a15.484 15.484 0 0 0-3.874-2.005c-1.18-.358-2.159-1.083-3.312-1.429-1-.3-2.169-.115-2.935-1.063a.274.274 0 0 0-.183-.064c-1.413-.084-2.613-.901-3.977-1.153-.15-.028-.295-.08-.447-.1-.148-.02-.322-.065-.398.12a.27.27 0 0 0 .187.365c1.224.408 2.151 1.514 3.563 1.495a.835.835 0 0 1 .826.634 1.105 1.105 0 0 0 .485.593 71.228 71.228 0 0 1 7.21 5.303 11.474 11.474 0 0 0 .888.771 11.167 11.167 0 0 1 1.886 1.562 6.785 6.785 0 0 0 1.522 1.25.389.389 0 0 1 .22.233c.207 1.212 1.23 1.87 1.91 2.745a42.324 42.324 0 0 1 3.968 5.963 6.278 6.278 0 0 0 .341.556 41.11 41.11 0 0 1 1.776 3.893 29.48 29.48 0 0 1 1.9 6.503 38.297 38.297 0 0 1 .596 8.512 1.122 1.122 0 0 1-.126.565c-.368.281-.56-.054-.76-.246-.865-.829-1.749-1.64-2.595-2.484-2.084-2.076-4.23-4.088-6.334-6.143q-3.808-3.72-7.666-7.392c-1.405-1.337-2.766-2.716-4.155-4.069a21.802 21.802 0 0 1-1.086-2.496 25.143 25.143 0 0 0-1.359-2.586 36.27 36.27 0 0 0-4.606-6.03 43.453 43.453 0 0 0-4.028-3.688 1.444 1.444 0 0 1-.152-.106 49.7 49.7 0 0 0-5.085-3.643c-1.1-.741-2.282-1.348-3.417-2.032a1.568 1.568 0 0 1-.523-.378 8.422 8.422 0 0 0-1.85-1.975 4.155 4.155 0 0 1-.65-.628c-.09-.124-.18-.27-.06-.412.114-.134.268-.105.41-.022z"/><path d="M62.481 10.367c.16-.109.531.167.506-.278.467-.263.757.02.95.372.4.73 1.235.984 1.713 1.634.16.218.526.148.805.189a1.813 1.813 0 0 1 1.479.685 2.139 2.139 0 0 0 .493.681c2.058 2.131 4.248 4.127 6.364 6.199 2.348 2.299 4.733 4.562 7.097 6.845q3.898 3.766 7.8 7.529l6.024 5.792a1.746 1.746 0 0 0 .768.473c.719.392.756 1.117.85 1.797a2.434 2.434 0 0 0 .36 1.164c.1.137.188.343.373.327.21-.019.187-.26.242-.414.247-.696.336-.745.958-.505a5.249 5.249 0 0 0 1.986 2.436 2.158 2.158 0 0 1 .235.226c2.069 2.156 4.278 4.169 6.415 6.253 2.464 2.404 4.964 4.772 7.43 7.174a28.525 28.525 0 0 1 2.633 2.624.887.887 0 0 1 .01.492c-.274.596-.253 1.3-.668 1.845-.43-.328-.64-.836-1.027-1.214-2.984-2.902-6.004-5.769-8.985-8.675-2.435-2.373-4.907-4.708-7.341-7.082-.934-.91-2.009-1.675-2.89-2.649-1.389-1.536-2.914-2.939-4.402-4.375q-3.81-3.679-7.618-7.36-3.58-3.446-7.158-6.895-3.838-3.698-7.668-7.402c-2.451-2.357-4.936-4.679-7.327-7.097-.207-.209-.583-.37-.407-.79z" class="cls-44"/><path d="M58.422 10.754a4.144 4.144 0 0 1 1.147-.158.193.193 0 0 1 .178-.017q4.063 3.93 8.13 7.856 3.079 2.973 6.168 5.938 4.35 4.199 8.696 8.403 3.607 3.509 7.249 6.983c1.906 1.821 3.771 3.684 5.709 5.472a4.832 4.832 0 0 1 .973 1.299 2.394 2.394 0 0 0 1.807 1.542 1.145 1.145 0 0 1 .632.443c1.822 1.878 3.756 3.64 5.63 5.466q3.768 3.671 7.574 7.306c1.263 1.202 2.485 2.446 3.75 3.645a1.33 1.33 0 0 1 .482 1.338c-.068.21-.095.448-.34.55a.27.27 0 0 1-.236-.083c-1.442-1.7-3.139-3.146-4.725-4.698a560.53 560.53 0 0 0-7.485-7.22c-1.76-1.66-3.407-3.438-5.243-5.017-.212-.182-.376-.41-.726-.34a1.165 1.165 0 0 1-1.45-.97 2.92 2.92 0 0 0-1.045-1.796c-2.048-2.086-4.198-4.067-6.288-6.109q-3.696-3.61-7.433-7.179c-2.5-2.401-4.988-4.814-7.49-7.213-1.133-1.087-2.221-2.22-3.385-3.273-2.613-2.363-5.026-4.933-7.61-7.322-1.506-1.392-2.86-2.939-4.441-4.25-.171-.141-.406-.302-.228-.596z" class="cls-45"/><path fill="#f69425" d="M62.481 10.367c.02.3.268.44.449.618q2.707 2.654 5.424 5.297c1.638 1.596 3.236 3.237 4.931 4.77 1.263 1.142 2.414 2.391 3.656 3.55 2.532 2.362 4.99 4.8 7.484 7.202 2.431 2.34 4.84 4.706 7.3 7.015 1.491 1.4 2.884 2.898 4.425 4.25.742.652 1.335 1.495 2.083 2.156 2.94 2.595 5.7 5.375 8.516 8.1.733.71 1.48 1.411 2.214 2.122 1.692 1.634 3.337 3.32 5.073 4.906.935.853 1.81 1.76 2.728 2.627a1.147 1.147 0 0 1 .447.905 1.06 1.06 0 0 1-.34 1.219c-.296-.015-.415-.205-.464-.465a.917.917 0 0 0-.281-.637q-2.952-2.914-5.983-5.745c-.096-.09-.199-.171-.29-.266-2.065-2.154-4.258-4.182-6.417-6.24-1.543-1.47-2.97-3.067-4.635-4.41-2.169-2.271-4.495-4.382-6.737-6.579-2.303-2.257-4.641-4.479-6.966-6.713-2.608-2.507-5.196-5.033-7.804-7.54q-3.582-3.443-7.156-6.894c-2.539-2.453-5.107-4.875-7.614-7.361a15.05 15.05 0 0 1-1.207-1.1c-.175-.215-.406-.438-.107-.73a6.524 6.524 0 0 0 .87-.047z"/><path d="M61.172 10.497c.03.61.562.855.929 1.192.269.246.56.479.823.736 2.086 2.04 4.146 4.109 6.263 6.117 2.51 2.381 4.981 4.803 7.475 7.202 2.476 2.381 4.94 4.775 7.417 7.156q3.718 3.574 7.425 7.16c2.303 2.22 4.646 4.397 6.903 6.665.168.168.316.356.474.535a120.405 120.405 0 0 0 3.815 3.746q2.256 2.126 4.47 4.296c2.927 2.856 5.918 5.647 8.816 8.534a2.99 2.99 0 0 1 .575.704c-.054.245.12.375.261.523a2.548 2.548 0 0 1-.084 1.057c-.079.102-.165.185-.308.121a1.323 1.323 0 0 0-.471-1.206c-2.225-2.149-4.4-4.349-6.642-6.48-2.492-2.37-4.957-4.768-7.435-7.151-1.019-.98-2.026-1.975-3.05-2.949-.109-.103-.244-.252-.366-.252-1.002.003-1.471-.727-1.838-1.447a11.563 11.563 0 0 0-2.591-2.899c-.109-.105-.242-.185-.35-.29q-2.83-2.76-5.658-5.522c-2.81-2.73-5.606-5.476-8.449-8.173-2.432-2.307-4.83-4.648-7.244-6.973-2.523-2.432-5.022-4.89-7.575-7.29-1.536-1.445-2.944-3.026-4.578-4.368-.194-.159-.43-.316-.448-.616.142-.17.362-.014.519-.124l.76-.036a.094.094 0 0 1 .162.032z" class="cls-47"/><path d="M116.687 66.11a1.49 1.49 0 0 1 .131-1.047 3.536 3.536 0 0 0 .393-1.178c.319-.575.27-1.281.655-1.833.253.089.249.328.314.53.127.39.227.86.738.867.526.008.76-.385.934-.85.365-.972.672-1.966 1.099-2.915.342-.22.58-.002.798.212.793.775 1.649 1.48 2.426 2.274 1.839 1.88 3.797 3.64 5.664 5.493.151.15.35.282.205.544a28.475 28.475 0 0 1-1.686 4.85c-.296.088-.44-.146-.597-.307-1.656-1.703-3.455-3.258-5.113-4.959-.866-.887-1.824-1.682-2.698-2.565-.45-.455-.68-.415-.864.203-.205.688-.764.967-1.269 1.329a.37.37 0 0 1-.484-.02c-.229-.194-.523-.324-.646-.628z" class="cls-48"/><path fill="#f89f24" d="M130.044 68.207c-.011-.411-.417-.47-.637-.688q-3.129-3.1-6.29-6.169c-.514-.5-1.059-.965-1.58-1.456a.653.653 0 0 0-.529-.198.865.865 0 0 1 .012-.586 4.813 4.813 0 0 0 .48-2.581 1.1 1.1 0 0 1 .462-1.133c.248-.173.27-.478.36-.743.077-.224.035-.54.388-.586a19.759 19.759 0 0 0 2.194 2.131q3.239 3.131 6.465 6.275a31.874 31.874 0 0 1-1.325 5.734z"/><path d="M58.422 10.754c.025.298.26.438.459.603.167.138.348.26.502.411 2.212 2.163 4.375 4.379 6.65 6.473 1.15 1.06 2.211 2.203 3.349 3.273 2.62 2.462 5.198 4.967 7.777 7.473q3.677 3.572 7.378 7.12c2.462 2.37 4.907 4.76 7.39 7.107 1.377 1.3 2.661 2.697 4.09 3.943a.901.901 0 0 1 .373.858c-.127.663.36.977.744 1.35a.323.323 0 0 0 .471.013c.335-.277.585-.124.848.133 1.355 1.323 2.71 2.648 4.083 3.952 2.668 2.534 5.294 5.112 7.952 7.655 1.228 1.175 2.404 2.4 3.654 3.55a9.977 9.977 0 0 1 2.022 2.097c.127.304.107.549-.262.654-.258-.846-.997-1.298-1.58-1.865-.26-.252-.56-.477-.824-.736-2.133-2.087-4.239-4.203-6.404-6.256a525.341 525.341 0 0 1-7.43-7.16c-.492-.486-1.042-.92-1.53-1.416-.09-.091-.176-.22-.321-.196-.984.166-1.267-.587-1.557-1.245a1.99 1.99 0 0 0-.857-1.172.43.43 0 0 1-.095-.089c-2.27-2.228-4.507-4.49-6.817-6.675-2.491-2.355-4.944-4.75-7.415-7.126l-2.399-2.306c-1.66-1.603-3.274-3.257-4.978-4.813a79.899 79.899 0 0 1-2.856-2.774.471.471 0 0 0-.764-.023c-.097.05-.167-.003-.236-.062-.358-.294-.412-.836-.866-1.051-.482-.311-.507-1.05-1.143-1.217-.027-.015-.052-.032-.078-.048a.753.753 0 0 1-.134-.122 16.573 16.573 0 0 0-1.41-1.474 3.663 3.663 0 0 0-.758-.59 4.73 4.73 0 0 1-.285-.199 1.835 1.835 0 0 1-.328-.286 1.173 1.173 0 0 0-1.09-.487 1.159 1.159 0 0 1-.684-.245 3.13 3.13 0 0 0-1.688-1.277 2.922 2.922 0 0 1-.556-.34c-.402-.373-.97-.414-1.415-.701-.175-.113-.408-.135-.518-.346-.213-.876-.966-1.311-1.565-1.855-.5-.454-.981-.926-1.453-1.407-.156-.159-.386-.327-.195-.61a13.99 13.99 0 0 1 2.75-.496z" class="cls-45"/><path d="M109.093 80.64l.262-.13c-.108.562.319.697.697.864.382.168.53-.111.721-.365a18.022 18.022 0 0 0 1.856-3.117l.13-.131c.388-.197.627.085.84.307.904.94 1.927 1.759 2.832 2.695 1.375 1.424 2.873 2.718 4.264 4.124.18.182.407.334.472.608a29.371 29.371 0 0 1-2.89 3.433.923.923 0 0 1-.424-.294c-1.415-1.482-3.013-2.776-4.407-4.278-.67-.721-1.451-1.318-2.149-2.007-.571-.564-.66-.55-1.135.083a1.286 1.286 0 0 1-.227.234.859.859 0 0 0-.47.71.401.401 0 0 1-.3.262c-.989-.076-1.249-.417-.988-1.296.169-.64.799-1.033.916-1.701z" class="cls-12"/><path d="M121.167 85.495c-1.34-1.268-2.684-2.533-4.019-3.807q-1.839-1.756-3.66-3.53a1.23 1.23 0 0 0-.729-.397l1.048-1.833a3.458 3.458 0 0 1 .88-1.755c.388-.186.67.013.928.27.587.584 1.23 1.113 1.809 1.699 1.852 1.878 3.83 3.625 5.671 5.514.165.17.372.31.425.565a23.811 23.811 0 0 1-2.353 3.274z" class="cls-27"/><path d="M123.52 82.221a2.982 2.982 0 0 1-.31-.233q-2.617-2.545-5.232-5.094c-.842-.816-1.706-1.608-2.546-2.426a.844.844 0 0 0-.709-.242 1.593 1.593 0 0 1 .655-1.309c.308-.59.62-1.18.92-1.774.219-.43.413-.51.806-.117 1.923 1.917 3.882 3.798 5.815 5.705a20.803 20.803 0 0 1 2.419 2.356 3.309 3.309 0 0 1-.725 1.479 10.102 10.102 0 0 1-1.093 1.655z" class="cls-34"/><path d="M115.902 67.42a1.29 1.29 0 0 0 .262-.655l.262-.524.261-.13a1.551 1.551 0 0 0 .233.116c.296.091.52.632.711.46.415-.37 1.116-.459 1.235-1.143a1.039 1.039 0 0 1 .056-.187c.314-.832.507-.873 1.162-.235 1.698 1.652 3.35 3.353 5.107 4.94 1.08.975 2.036 2.077 3.167 2.995a16.166 16.166 0 0 1-1.199 2.734c-.302-.061-.468-.307-.66-.507-2.082-2.16-4.348-4.133-6.434-6.29-.393-.405-.859-.732-1.268-1.124-.407-.391-.617-.325-.886.2-.138.268-.184.586-.438.79l-.13.13c-.478.12-.468.589-.656.917-.003.302.04.645-.416.644-.393 0-.87-.682-.835-1.15a6.006 6.006 0 0 1 .466-1.982z" class="cls-47"/><path d="M82.252 98.313h.131a7.903 7.903 0 0 1 1.552 1.27c2.13 2.174 4.402 4.202 6.536 6.372.164.167.389.301.29.595a23.612 23.612 0 0 1-3.537 1.037 1.794 1.794 0 0 1-.582-.41c-2.076-2.168-4.348-4.137-6.428-6.3-.207-.216-.477-.391-.525-.725.188-.556.771-.657 1.147-.998.119-.089.23-.188.353-.27a5.446 5.446 0 0 1 1.063-.571z" class="cls-28"/><path d="M39.178 15.865c1.287 1.436 2.67 2.779 4.085 4.08 1.134 1.044 2.198 2.155 3.294 3.234.31.304.835.426.907.963-.179.145-.38.051-.564.08a.723.723 0 0 1-.535-.037 32.286 32.286 0 0 0-5.698-.482c-.285-.125-.271-.264.005-.37a2.811 2.811 0 0 1 .776-.064c.13-.011.284-.008.347-.135.068-.14-.059-.239-.145-.333q-.153-.169-.32-.324c-1.893-1.756-3.685-3.617-5.595-5.355-.446-.406-1.033-.763-1.005-1.505 1.48.128 2.961.24 4.448.248z" class="cls-29"/><path d="M90.761 106.55c-.093-.319-.393-.45-.605-.66-2.136-2.097-4.283-4.184-6.41-6.291-.445-.44-1.036-.723-1.363-1.286.608-.452 1.221-.898 1.823-1.357a.602.602 0 0 1 .872.062c.048.045.094.091.14.137 2.054 2.01 4.094 4.031 6.167 6.02.798.767 1.662 1.466 2.384 2.312a22.98 22.98 0 0 1-3.008 1.063z" class="cls-30"/><path fill="#f27128" d="M26.983 16.265a18.583 18.583 0 0 1-.92-2.534l3.69 1.05c1.926 2.006 4.027 3.833 5.96 5.83.742.767 1.613 1.391 2.32 2.19.258.29.576.592.15.995-.61.122-1.23.175-1.839.301a7.51 7.51 0 0 1-1.004.078c-.328-.154-.502-.472-.74-.718-2.102-2.172-4.38-4.163-6.484-6.331a4.057 4.057 0 0 0-1.133-.861z"/><path d="M38.259 23.697c-.03-.925-.899-1.21-1.379-1.792a5.113 5.113 0 0 0-.405-.322Q33.319 18.5 30.17 15.41c-.18-.177-.43-.32-.418-.63 1.657.294 3.305.637 4.977.836a4.38 4.38 0 0 0 1.482 1.692 2.553 2.553 0 0 1 .25.209q2.66 2.59 5.312 5.188c.135.133.432.23.287.506-.112.214-.349.212-.574.23-.335.029-.696-.132-1.003.125-.375.3-.815.163-1.231.184a3.074 3.074 0 0 1-.994-.054z" class="cls-51"/><path d="M79.764 100.145a72.574 72.574 0 0 0 3.781 3.755c1.278 1.173 2.457 2.454 3.679 3.687a19.766 19.766 0 0 1-4.056.79c-1.51-1.506-3.128-2.901-4.608-4.438q-.318-.33-.647-.647c-.49-.473-.922-1.069-1.75-.838-.112-.294-.045-.537.277-.598a6.594 6.594 0 0 0 2.075-1.14c.394-.234.717-.635 1.25-.57z" class="cls-26"/><path fill="#f69621" d="M67.85 13.094c-.359-.588-.971-.603-1.546-.644a1.24 1.24 0 0 1-1.22-.688.884.884 0 0 0-.602-.467.733.733 0 0 1-.578-.546.826.826 0 0 0-.917-.66l-.24-.281a7.464 7.464 0 0 1-.559-1.136 4.306 4.306 0 0 0-.744-1.48c-.142-.185-.06-.507-.009-.765.119-.595.313-.695.83-.4.506.288 1.063.121 1.591.21a2.088 2.088 0 0 1 1.28.564c1.333 1.234 2.748 2.376 4.077 3.618a20.783 20.783 0 0 1 2.484 2.73c.15.199.276.419-.051.589a7.811 7.811 0 0 1-1.638.063 3.724 3.724 0 0 1-2.158-.707z"/><path d="M109.224 83.52a.27.27 0 0 0 .131-.261 1.907 1.907 0 0 1 .524-.655c.769-1.129.755-1.115 1.736-.168 2.045 1.976 4.106 3.933 6.156 5.903.186.179.338.392.506.589a17.576 17.576 0 0 1-1.851 1.924 2.882 2.882 0 0 1-.994-.723c-2.072-2.119-4.28-4.098-6.375-6.193a.404.404 0 0 1 .167-.415z" class="cls-32"/><path d="M109.093 83.913a2.108 2.108 0 0 1 .641.44c1.897 1.86 3.806 3.709 5.693 5.578.323.32.786.486.999.921a11.56 11.56 0 0 1-2.096 1.948c-.034-.454-.482-.525-.733-.773-1.715-1.693-3.456-3.36-5.165-5.058-.428-.425-.76-.656-1.165 0-.09.147-.235.368-.463.282-.255-.096-.213-.36-.193-.569.04-.4-.137-.823.126-1.198.637.563.975.489 1.399-.248.271-.47.41-1.048.957-1.323z" class="cls-29"/><path d="M55.673 11.25a5.928 5.928 0 0 0 1.695 1.827c.51.44.963.933 1.444 1.4a.45.45 0 0 1 .134.581c-.363.198-.64-.109-.96-.163a37.72 37.72 0 0 0-2.242-.902 10.08 10.08 0 0 0-3.176-.184c-.18-.006-.311.104-.217.295a.687.687 0 0 1-.22.91.55.55 0 0 0 .167.958 1.62 1.62 0 0 1 .818.799.605.605 0 0 0 .43.376 2.336 2.336 0 0 1 1.367.812 1.481 1.481 0 0 0 1.06.452 1.097 1.097 0 0 1 1.026.57 1.32 1.32 0 0 0 .96.616 2.398 2.398 0 0 1 .852.32.65.65 0 0 1 .266 1.032 3.451 3.451 0 0 1-1.926-.874 1.7 1.7 0 0 0-1.085-.304 2.786 2.786 0 0 1-1.016-.685c-.544-.644-1.292-.484-1.996-.494-.062-.06-.008.034-.05-.04a1.872 1.872 0 0 0-2.086-1.059.319.319 0 0 1-.295-.116 14.027 14.027 0 0 0-1.34-1.478c-.368-.414-.2-.89.3-1.162a.742.742 0 0 0 .386-.331 1.924 1.924 0 0 1 .796-.838.868.868 0 0 0 .471-.731 12.535 12.535 0 0 1 4.437-1.588z" class="cls-53"/><path d="M26.983 16.265c.165-.248.29-.068.413.044.468.42.947.83 1.398 1.268q3.018 2.937 6.02 5.889c.181.178.428.32.433.624a1.339 1.339 0 0 0-.347 1.677 3.591 3.591 0 0 1 .307.782c.033.215.125.479-.222.552-.06-.342-.392-.444-.598-.649-.997-.986-2.017-1.95-3.037-2.913-.152-.143-.298-.398-.577-.187a25.023 25.023 0 0 1-3.79-7.087z" class="cls-11"/><path d="M76.229 102.501c.347-.318.688-.413 1.046-.005.127.145.302.247.442.383q2.507 2.435 5.007 4.878c.182.177.43.318.444.62a16.204 16.204 0 0 1-3.92.376c.203-.291 0-.457-.183-.65-1.27-1.345-2.72-2.502-3.984-3.851-.203-.217-.483-.388-.496-.736a2.449 2.449 0 0 1 1.644-1.015z" class="cls-31"/><path fill="#f79822" d="M65.1 6.942a2.839 2.839 0 0 0-2.238-.564c-.284.004-.508.012-.694-.209-.354-.42-.472-.148-.563.192-.189.707-.036 1.012.62 1.242.334.117.348.323.08.494-.235.149-.278.35-.086.45.552.287.494.784.529 1.26a15.99 15.99 0 0 1-2.62-4.185 11.128 11.128 0 0 0-.164-1.911.653.653 0 0 1 .245-.7c.29-.18.492.041.69.202a2.8 2.8 0 0 0 1.521.515 2.016 2.016 0 0 1 1.545.843.951.951 0 0 0 .85.379c1.246.547 2.466 1.152 3.763 1.585a5.443 5.443 0 0 1 1.774.778c.245.195.592.082.885.15a3.893 3.893 0 0 1 1.157.416.496.496 0 0 1 .137.165c.072.277.262.56-.036.822a5.26 5.26 0 0 1-1.81.074.655.655 0 0 1-.65-.618.555.555 0 0 0-.683-.524 26.497 26.497 0 0 1-3.101-.294 2.105 2.105 0 0 1-1.151-.562z"/><path d="M117.473 68.86a4.294 4.294 0 0 1 .411-1.092c.227-.462.542-.461.883-.158.389.345.787.685 1.158 1.042 2.408 2.323 4.784 4.68 7.169 7.027a.498.498 0 0 1 .065.112 4.875 4.875 0 0 1-.648 1.317c-.522-.456-1.065-.889-1.561-1.37q-3.252-3.16-6.48-6.342a1.32 1.32 0 0 0-.997-.537z" class="cls-55"/><path d="M76.629 109.011a22.406 22.406 0 0 1-2.759.155c-.693-.614-1.336-1.282-2.036-1.891-.47-.41-.907-.857-1.397-1.245.12-.478.612-.491.916-.74.57-.172.952-.741 1.595-.765.561.199.856.714 1.268 1.088.8.726 1.56 1.496 2.38 2.203a2.538 2.538 0 0 1 .358.376c.155.202.414.412.317.67-.1.265-.436.038-.642.149z" class="cls-23"/><path d="M76.629 109.011c.15-.164.38-.045.653-.197-1.358-1.532-2.943-2.776-4.326-4.219-.061-.206.118-.267.224-.374.296-.201.611-.371.912-.565.166-.107.338-.283.566-.108a34.25 34.25 0 0 0 2.577 2.558c.853.764 1.614 1.631 2.429 2.466-.068.175-.327.01-.416.181z" class="cls-35"/><path d="M72.432 7.99c-.646-.155-1.327-.267-1.933-.458-.657-.208-1.298-.607-1.98-.842a27.14 27.14 0 0 1-3.68-1.58 15.414 15.414 0 0 1-1.968-1.7c-.15-.142-.315-.328-.117-.564a47.868 47.868 0 0 0 7.984 3.149 19.196 19.196 0 0 0 1.452 1.379.52.52 0 0 1 .242.615z" class="cls-56"/><path d="M51.236 12.837c.43.378.017.591-.198.758-.367.286-.85.433-.921 1-.02.157-.212.208-.35.267-.22.095-.547.04-.514.448a.883.883 0 0 0 .439.815c.153.081.38.15.429.28a1.419 1.419 0 0 0 1.64.956c.865-.07 1.027.647 1.293 1.231a18.246 18.246 0 0 0-1.833-.523c-.873-.146-1.664-.6-2.56-.672-.374-.03-1.175-.958-1.228-1.348-.035-.252.134-.364.303-.448.518-.255.437-.544.083-.875a1.098 1.098 0 0 1-.142-.215 37.701 37.701 0 0 0 3.56-1.674z" class="cls-27"/><path d="M70.466 106.035c.104.03.236.03.306.096a18.038 18.038 0 0 1 3.098 3.035 27.438 27.438 0 0 1-3.537.12 19.45 19.45 0 0 1-1.991-2.036c-.02-.325.282-.346.458-.487a2.5 2.5 0 0 1 .154-.092c.508-.202.882-.725 1.512-.636z" class="cls-18"/><path d="M62.754 2.846c.072.526.512.767.864 1.052a7.631 7.631 0 0 1 1.22 1.211.944.944 0 0 1-1.1-.555 1.339 1.339 0 0 0-1.079-.627 2.87 2.87 0 0 1-2.062-.752c-.212-.241-.407-.118-.453.156a1.564 1.564 0 0 0 .01.709 1.947 1.947 0 0 1-.026 1.582A8.961 8.961 0 0 1 59.118.54a49.51 49.51 0 0 0 3.636 2.305z" class="cls-57"/><path fill="#f9a223" d="M72.432 7.99c-.12-.407-.486-.584-.766-.849a2.639 2.639 0 0 1-.928-1.146l5.105 1.076c-.458-.002-.448.19-.157.434.718.598 1.384 1.25 2.04 1.913.186.188.38.365.336.666-.31.124-.536-.072-.784-.198a8.93 8.93 0 0 0-1.982-.967 1.395 1.395 0 0 1-.192-.051c-.627-.228-1.288-.333-1.926-.521a1.569 1.569 0 0 1-.746-.358z"/><path fill="#ec2928" d="M68.372 107.213a9.853 9.853 0 0 1 1.961 2.074l-.513.042h-5.643l-.642-.043c.035-.32.327-.31.53-.393 1.067-.433 2.141-.847 3.173-1.36.142-.07.287-.136.429-.206.23-.071.433-.306.705-.114z"/><path d="M61.172 10.497l-.162-.032a2.692 2.692 0 0 1 1.07-.088c-.281.201-.61.042-.908.12z" class="cls-44"/><path d="M60.25 10.501c-.144.163-.346.081-.519.124l-.161-.029a1.185 1.185 0 0 1 .68-.095z" class="cls-60"/><path fill="#ef5226" d="M67.327 107.61a20.317 20.317 0 0 1-3.26 1.448c-.178.074-.355.152-.532.228l-.52.044-3.94-.168a1.278 1.278 0 0 1-.05-1.3.69.69 0 0 1 .477-.176.557.557 0 0 0 .597-.48.617.617 0 0 1 .58-.538 4.687 4.687 0 0 1 1.996.093c.123.411-.23.315-.412.36-.24.06-.498.066-.475.409.023.355.29.394.562.407 1.157.054 2.302-.183 3.46-.142.285.01.395-.224.521-.433.129-.214.301-.406.58-.32.26.081.47.238.416.568z"/><path fill="#ed4626" d="M59.077 107.869l-.001 1.293-.532-.013c-.476-.117-.971.051-1.445-.097l-.51-.016c-.305-.708-.194-1.01.521-1.072.53-.045.566-.462.789-.749l1.178-.389a.822.822 0 0 1 0 1.043z"/><path fill="#ed4026" d="M57.899 107.216c.097.672-.122.988-.87.93-.741-.058-.323.574-.44.89a4.525 4.525 0 0 1-1.466-.105c.018-.195.094-.378.118-.572a.504.504 0 0 1 .56-.496 1.162 1.162 0 0 0 .92-.386z"/><path fill="#ec3228" d="M56.72 107.477c-.121.3-.215.611-.662.528-.432-.08-.727.039-.651.57a.291.291 0 0 1-.284.356l-.89-.035v-.766z"/><path fill="#ef5129" d="M57.099 109.052a3.9 3.9 0 0 1 1.445.097 3.848 3.848 0 0 1-1.445-.097z"/><path fill="#ef5425" d="M40.094 98.311l.52.009c.077.786.579 1.077 1.302 1.11a.448.448 0 0 1 .134.185 7.351 7.351 0 0 1 .071 1.601c.014.492-.185.762-.712.77a2.706 2.706 0 0 0-.823.13 12.099 12.099 0 0 1-3.468-.075c-.362-.413-.187-.953-.336-1.416a5.523 5.523 0 0 1 .107-1.946c.062-.251.165-.445.475-.43a25.035 25.035 0 0 1 2.73.062z"/><path fill="#ed3c26" d="M48.08 99.492a7.46 7.46 0 0 1-2.147 1.141 22.782 22.782 0 0 1-2.832 1.079c-.375-.825-.165-1.2.695-1.241.151-.007.303-.006.452.001a5.67 5.67 0 0 0 .583.018c.27-.001.543-.01.568-.377.024-.355-.2-.44-.495-.45a1.274 1.274 0 0 1-.385-.06.472.472 0 0 1-.154-.105c-.15-.294-.1-.665-.346-.924.171-.198.404-.129.613-.125a14.251 14.251 0 0 0 2.398-.137.553.553 0 0 1 .314-.063c.95-.026 1.163.333.736 1.243z"/><path fill="#ef4d25" d="M40.094 98.311c-.844 0-1.69.008-2.534-.002-.309-.003-.435.082-.497.425a11.144 11.144 0 0 0-.114 1.935.825.825 0 0 1-1.053.003q-.057-.001-.114-.005l-.01-.39c0-.519.022-1.038-.008-1.555-.025-.435.152-.557.565-.547.993.022 1.986.006 2.98.005.262.043.554-.097.785.131z"/><path fill="#ec2e28" d="M50.566 97.396l2.226-1.047.131.131a3.151 3.151 0 0 1-1.702 1.309l-1.965 1.177c-.167-.711-.871-.526-1.31-.785z"/><path d="M44.019 98.574c.706.059.265.61.394.917a3.273 3.273 0 0 1-2.488 0 .821.821 0 0 1-.001-1.042 18.384 18.384 0 0 1 2.095.125z" class="cls-70"/><path fill="#ec3127" d="M34.592 98.967a4.71 4.71 0 0 0-.81-.52.759.759 0 0 1-.5-.92c.715-.292 1.398-.759 2.227-.393-1.014.01-.91-.105-.916.937-.002.299 0 .598 0 .896z"/><path fill="#ed4926" d="M41.924 98.449l.001 1.041h-.13c-1.176.002-1.176.002-1.181-1.17l1.31.129z"/><path fill="#ec3527" d="M47.947 98.181a3.286 3.286 0 0 0 .508-.003c.63-.1.927.126.801.788-.415.123-.702.533-1.176.526l-.001-.127c-.016-1.203.149-1.035-1.049-1.053.277-.249.612-.08.917-.13z"/><path d="M51.221 97.789l1.702-1.309a2.274 2.274 0 0 1 1.153.689c2.106 2.073 4.204 4.154 6.342 6.193.564.538 1.152 1.053 1.711 1.598a2.042 2.042 0 0 1 .485.686c.001.022.012.057.003.063a4.41 4.41 0 0 1-2.623.851c0-.278-.219-.415-.385-.578-1.987-1.948-3.953-3.918-5.978-5.824-.822-.774-1.667-1.518-2.41-2.37z" class="cls-25"/><path fill="#ee4e25" d="M41.925 99.49h2.488v.001a.97.97 0 0 1 0 1.178h-.255c-1.232.012-1.029-.124-1.057 1.043a5.75 5.75 0 0 1-1.303.269c-.395.047-.79.25-1.183-.003.192-.214.453-.148.675-.122.542.064.674-.18.643-.673-.035-.562-.008-1.128-.008-1.692z"/><path fill="#ee4a26" d="M59.994 106.56a19.56 19.56 0 0 0 2.62-.914h.26a1.895 1.895 0 0 1-.057 1.103 7.856 7.856 0 0 1-.074.072c-.65 0-1.299.002-1.949 0-.255 0-.55.045-.516.348.084.747-.364.742-.876.7-.108-.008-.216 0-.325 0v-1.043c.343.04.593-.24.917-.266z"/><path d="M40.615 101.978l1.183.003a11.475 11.475 0 0 1-4.324.519c-.177-.125-.597-.002-.457-.449l.064-.074zm-4.719-1.306l1.053-.003c.232.417.093.871.132 1.308l-.002.002a.579.579 0 0 1-.784-.001z" class="cls-70"/><path fill="#ec3327" d="M36.295 101.978h.784c-.086.34.24.366.395.522-.401-.156-1.022.185-1.18-.522z"/><path fill="#ef5626" d="M70.466 106.035l-1.57.785c-.376-.82-.22-1.201.58-1.37.28-.058.522-.129.499-.477-.026-.392-.324-.448-.614-.417a15.013 15.013 0 0 1-2.154.099c-.278-.01-.575.04-.801-.192l1.705-.784 1.44-.526a5.737 5.737 0 0 0 1.179-.52l1.833-.787 2.618-1.178c.485-.01.936.105 1.242-.552.164-.354.828-.476 1.267-.701.21-.108.423-.212.634-.317l2.88-1.57a1.853 1.853 0 0 0 1.048.785c-.328.252-.592.605-1.047.654-.017-.013-.034-.025-.05-.039-.16-.13-.214-.551-.474-.353-.21.16.173.304.25.478a.192.192 0 0 1 .012.176c-.34.373-.875.496-1.179.916-.749.47-1.513.917-2.24 1.418a1.62 1.62 0 0 1-.984.423c-.379-.011-.293.29-.311.515a8.647 8.647 0 0 0-1.571 1.047l-1.44.786a4.356 4.356 0 0 1-1.232.32c-.502-.002-.364.516-.6.73-.21.352-.699.313-.92.65z"/><path d="M58.03 14.796c.345-.053.59.245.916.262a6.832 6.832 0 0 0 1.476.654.696.696 0 0 1 .488.393 4.06 4.06 0 0 1-1.847.174 5.24 5.24 0 0 0-1.89.165c-.044.154.022.258.087.268a1.742 1.742 0 0 1 1.304 1.179.691.691 0 0 0 .522.363 2.567 2.567 0 0 1 1.601.924.833.833 0 0 0 .309.237c1.19.436 1.928 1.452 2.86 2.217a1.68 1.68 0 0 0 .666.397 1.09 1.09 0 0 1 .912.823c.016.063.044.144.096.167.706.302 1.351.746 2.073.987a6.582 6.582 0 0 1 .9.248c.162-.294.067-.571.153-.817.032-.126.06-.253.088-.38.042-.195.105-.396.337-.426.203-.026.308.131.379.296a1.18 1.18 0 0 0 .484.509l.131.13a13.972 13.972 0 0 0 .131 1.702c-.291.466.093.555.388.665.402.152.674.338.386.81-.126.208.05.369.098.55.077.287.246.55.108.882-.115.276-.199.452-.472.155-.304-.331-.808-.07-1.132-.416-.472-.503-1.005-.946-1.495-1.433a6.997 6.997 0 0 0-1.003-.658 8.111 8.111 0 0 1-1.8-1.764c-.212-.287-.3-.525-.685-.494-.318.026-.648-.102-.64-.413.023-.933-.56-.94-1.216-.894a.175.175 0 0 1-.197.014 3.447 3.447 0 0 0-1.86-1.241.545.545 0 0 1-.398-.404.935.935 0 0 0-.982-.695.743.743 0 0 1-.486-.168 3.554 3.554 0 0 0-1.975-1.165c-.165-.023-.265-.215-.358-.365-.092-.147-.155-.355-.308-.413-1.031-.393-1.228-1.47-1.828-2.212-.396-.489-.256-.835.319-.831a12.848 12.848 0 0 1 3.117-.064.524.524 0 0 1 .243.082z" class="cls-45"/><path fill="#f58d28" d="M115.378 72.917l-.655 1.31-.916 1.701c-.666.092-.7-.397-.785-.847a3.973 3.973 0 0 1 .654-2.556c.239-.046.484-.083.524-.393a4.286 4.286 0 0 0 1.178.785z"/><path d="M116.687 69.907c.012-.454-.074-.976.655-.917-.312.238-.23.758-.655.917z" class="cls-55"/><path fill="#f05a25" d="M66.406 104.463a21.196 21.196 0 0 0 2.855-.112c.777-.13.999.126.95.808-.024.318-.154.527-.474.475-.784-.128-.94.272-.842.926a1.755 1.755 0 0 1 .001.26l.001.002c-.405.194-.987.069-1.18.65l-.39.138c-.144-.212-.28-.504-.562-.465-.294.04-.354.332-.37.61-.013.24-.205.254-.382.241-1.278-.088-2.542.177-3.819.145-.485-.013-.628-.193-.643-.66-.016-.522.26-.554.649-.533.187.01.396.058.543-.127a1.162 1.162 0 0 0 1.157-1.218.504.504 0 0 1 .357-.12.863.863 0 0 0 .972-.628.284.284 0 0 1 .263-.132c.325-.013.57-.308.914-.26z"/><path fill="#ef5526" d="M63.922 105.644c.006.372.164.884-.018 1.083-.243.265-.762.063-1.161.094.03-.393-.089-.803.131-1.175q.065-.004.13-.003c.306-.043.612-.205.918 0z"/><path fill="#ee4b27" d="M63.922 105.644l-.918-.001 2.225-.788c.125.658-.161.894-.798.792a3.227 3.227 0 0 0-.51-.003z"/><path d="M109.093 83.913c-.333.578-.696 1.141-.99 1.739-.223.454-.593.346-.945.35-.346.005-.433-.221-.421-.518v-.262a5.886 5.886 0 0 1 1.047-2.487l.393-.393c.003.937.08 1.023 1.047 1.179z" class="cls-37"/><path d="M55.541 34.432c.719.928 1.627 1.678 2.404 2.557a30.15 30.15 0 0 1 3.026 4.37 16.621 16.621 0 0 1 1.307 2.628h-3.724a37.328 37.328 0 0 0-3.383-3.336 4.043 4.043 0 0 1-.24-.22c-2.098-2.053-4.165-4.14-6.304-6.148-1.411-1.325-2.76-2.712-4.168-4.036a17.066 17.066 0 0 1-1.487-1.444c.429-.261.836.018 1.252.054a7.178 7.178 0 0 1 1.332.278 22.375 22.375 0 0 1 9.697 4.878.665.665 0 0 1 .288.42z" class="cls-16"/><path fill="#f37e27" d="M45.591 29.326l-2.619-.523c-.662.064-1.3-.216-1.964-.131-.132-.102-.26-.204-.05-.355a5.507 5.507 0 0 1 1.278-.106c.805-.005 1.61-.004 2.415.006a1.566 1.566 0 0 1 .968.16.769.769 0 0 1-.028.949z"/><path d="M40.877 28.41l.131.262c-1.302 0-2.605-.004-3.907.004-.228.001-.483-.087-.675.127-.276-.036-.681.145-.655-.393l.09-.083a11.78 11.78 0 0 1 2.43-.118c.622-.01 1.244-.009 1.865 0a.913.913 0 0 1 .721.201z" class="cls-51"/><path d="M45.591 29.326v-.916c.848-.394 1.393-.233 1.719.559a.604.604 0 0 0 .635.427c.41 0 .822-.007 1.232.01.236-.013.473.018.71.002a1.11 1.11 0 0 1 1.145.545 2.536 2.536 0 0 0 .75.701 6.892 6.892 0 0 1 1.062.963.72.72 0 0 0 .635.28.724.724 0 0 1 .845.701.481.481 0 0 0 .525.473c.314-.015.804.157.892-.174a1.68 1.68 0 0 0 .014-1.446 5.023 5.023 0 0 1-.612-1.15.556.556 0 0 0-.276-.355 1.386 1.386 0 0 1-1.02-1.144c-.014-.11-.14-.175-.25-.185a.876.876 0 0 1-.863-.89c-.037-.356-.313-.41-.61-.473a1.089 1.089 0 0 1-.887-1.381.575.575 0 0 1 .508.05 5.645 5.645 0 0 1 1.178.655c.147.346.504.38.786.523l.393.131a4.273 4.273 0 0 0 .015.587c.058.368.188.675.666.593.473-.082.665.101.644.605-.016.364.183.623.627.514.316-.078.503.043.535.378a.954.954 0 0 0 .708.909.9.9 0 0 1 .512.567c.27.708.822 1.283 1.104 1.931.321.741.92 1.275 1.186 2.011a4.397 4.397 0 0 0 .933 1.748.802.802 0 0 1 .021 1.125c-.16.22-.286.44-.059.694.103.114.216.242.07.396a.483.483 0 0 1-.49.097c-.199-.045-.342-.275-.266-.384.487-.707-.43-1.135-.225-1.82-.31.195-.179.418-.23.592-.068.222-.179.429-.437.4-.246-.03-.35-.215-.342-.474.013-.435-.028-.874.011-1.306.047-.518-.138-.73-.658-.656-.532.075-.91-.03-.798-.707.028-.162.015-.383-.235-.382-.627 0-1.211-.352-1.853-.218a25.608 25.608 0 0 0-4.95-3.325 18.638 18.638 0 0 0-5-1.781z" class="cls-83"/><path d="M49.257 29.588c-.538 0-1.076.004-1.614-.002-.184-.003-.466.048-.457-.222.036-1.02-.627-1.007-1.337-.955-.086.007-.172.001-.258.001h-.917a6.821 6.821 0 0 0-2.502-1.324.934.934 0 0 1-.655-.896c-.003-.426.41-.54.735-.623.368-.094.63-.185.638-.646.006-.291.308-.346.55-.34 1.17.024 2.338-.075 3.51.065a14.979 14.979 0 0 1 1.914.099c.144.005.299-.023.393.13a.964.964 0 0 1 .09.991c-.2.27-.5.226-.776.23-.782.014-1.564-.007-2.346.012-.231.006-.536-.02-.602.265-.054.23.237.27.386.376a1.977 1.977 0 0 1 .69.768 1.181 1.181 0 0 0 1.176.737c.96.035 1.408.51 1.382 1.334z" class="cls-84"/><path fill="#f48528" d="M48.864 24.745c-1.78 0-3.562.003-5.343-.002-.438-.002-.728.077-.42.587.188.31-.019.32-.235.33a1.325 1.325 0 0 0-.452.018c-.281.126-.78.174-.765.46a.936.936 0 0 0 .744.858 3.17 3.17 0 0 1 2.281 1.414h-2.487a.8.8 0 0 0-.567-.061 1.077 1.077 0 0 1-1.235-.593c-.164-.342-.55-.391-.898-.442a6.21 6.21 0 0 1-.775-.076.748.748 0 0 1-.579-.769.615.615 0 0 1 .547-.693.59.59 0 0 0 .59-.63c.02-.44.312-.577.71-.578a3.34 3.34 0 0 0 1.095-.102c1.232-.111 2.466-.03 3.7-.05a2.797 2.797 0 0 0 1.733-.326l.392.131c-.006.256.116.524.362.346.621-.447 1.069.16 1.602.178z"/><path d="M49.257 25.923v-1.047a9.036 9.036 0 0 1 2.488 1.047h-.524c-.477.328-1.011.162-1.525.177a.572.572 0 0 1-.439-.177zm4.452 1.178c-.36-.029-.869.168-.786-.523a1.32 1.32 0 0 1 .786.523z" class="cls-12"/><path d="M34.985 27.101c.308-.438.001-.809-.198-1.126a2.505 2.505 0 0 1-.163-1.584c.013-.352.367-.292.623-.3a2.734 2.734 0 0 1 1.048-.132c.223.304.191.593-.139.764-.318.165-.305.356-.278.679a6.762 6.762 0 0 1-.107 3.008c-.36-.03-.826.16-1.056-.084-.299-.316.213-.623.251-.969.01-.085.013-.17.02-.256z" class="cls-51"/><path d="M62.612 22.258h.131c0 .173.013.348-.002.52-.041.461.128.716.623.656.418-.05.586.11.568.545-.014.354.087.793.529.743.826-.093.823.375.771.94-.008.087-.001.174-.001.261a.594.594 0 0 1-.442-.245c-1.104-1.154-2.157-2.359-3.355-3.42a.989.989 0 0 1 1.178 0z" class="cls-53"/><path d="M62.874 37.18a1.77 1.77 0 0 1 .524.917c-.656-.03-.484-.534-.524-.916z" class="cls-22"/><path fill="#f68f27" d="M62.612 22.258h-1.31a.59.59 0 0 1-.162-.343.64.64 0 0 0-.778-.647 2.385 2.385 0 0 1-1.285-.32c-.004-.769-.288-1.092-1.12-1.168a1.274 1.274 0 0 1-1.1-.69.761.761 0 0 0-.872-.5 1.299 1.299 0 0 1-.791-.22c-.644-.337-1.02-1.124-1.883-1.103-.155.004-.322-.179-.355-.35a.935.935 0 0 0-.826-.797.426.426 0 0 1-.382-.512c.025-.284-.134-.658.27-.786.41-.131.384-.304.17-.611-.177-.254-.355-.553.223-.599a9.546 9.546 0 0 1 5.477 1.053.786.786 0 0 1 .142.131c-1.134-.095-2.253.172-3.385.133-.126-.004-.273-.028-.353.107-.1.17.032.278.122.4a3.57 3.57 0 0 1 .861 1.423.495.495 0 0 0 .228.307 2.548 2.548 0 0 1 1.323 1.252.402.402 0 0 0 .341.154 1.43 1.43 0 0 1 1.321.678 1.33 1.33 0 0 0 1.118.542.695.695 0 0 1 .794.683c.024.291.24.426.536.477a2.256 2.256 0 0 1 1.676 1.306z"/><path d="M59.077 20.949c.365.014.71.147 1.086.14 1.137-.022 1.14-.004 1.14 1.169a7.78 7.78 0 0 1-2.226-1.31z" class="cls-53"/><path d="M98.357 31.028a3.623 3.623 0 0 1 .305.242c2.226 2.179 4.424 4.386 6.681 6.532 2.556 2.43 5.078 4.894 7.615 7.343 2.081 2.01 4.197 3.985 6.259 6.016.107.106.234.193.351.288a3.234 3.234 0 0 1 .15 1.884c-.17.893-.26 1.798-.356 2.702a2.09 2.09 0 0 1-.256.994c-.133.137-.276.086-.417.015a1.687 1.687 0 0 1-.458-.364c-1.573-1.662-3.292-3.172-4.921-4.776-2.9-2.856-5.84-5.673-8.783-8.483-1.431-1.366-2.763-2.84-4.29-4.108a2.882 2.882 0 0 1-.845-1.378 28.466 28.466 0 0 0-.745-4.96 3.292 3.292 0 0 0-.314-.849.923.923 0 0 1 .024-1.098z" class="cls-56"/><path fill="#f7981f" d="M75.182 8.775h.13c.103.76.706.898 1.296.966a1.187 1.187 0 0 1 1.12.731.838.838 0 0 0 .458.444 3.48 3.48 0 0 1 1.553 1.136c.169.239.462.197.721.212a3.206 3.206 0 0 1 1.53.176 26.064 26.064 0 0 1 3.27 2.162 8.294 8.294 0 0 1 1.837 1.503.394.394 0 0 1-.172.122 3.203 3.203 0 0 1-.827.054c-.195 0-.391-.015-.587-.007-.483.018-.814-.132-.809-.687a.7.7 0 0 0-.048-.255c-.042-.111-.124-.199-.241-.177-.19.035-.159.185-.101.304.16.331.208.623-.194.82a.19.19 0 0 0-.076.282c.329.556.385 1.238.898 1.719a15.93 15.93 0 0 1 1.393 1.885 6.241 6.241 0 0 0 .725.83 1.237 1.237 0 0 1 .383 1.335c-.866.21-1.118.105-1.416-.67a.687.687 0 0 0-.66-.527c-.309-.01-.595-.156-.897-.174-.445-.026-.753-.16-.81-.659-.031-.267-.263-.327-.488-.35a.865.865 0 0 1-.828-.711.512.512 0 0 0-.55-.455 2.884 2.884 0 0 1-1.328-.306c-.643-.299-.985-1.078-1.783-1.176-.057-.007-.102-.144-.1-.23.01-.682-.388-.811-.978-.8-.647.014-1.277-.075-1.515-.85-.072-.234-.309-.295-.536-.305a11.016 11.016 0 0 1-1.102-.148.765.765 0 0 1-.756-.683c-.05-.385-.313-.467-.654-.49-.424-.027-.877.125-1.262-.178a12.616 12.616 0 0 0-2.542-2.967 7.9 7.9 0 0 1-.638-.546 42.834 42.834 0 0 0-3.252-2.866 2.489 2.489 0 0 1-.246-.297 5.778 5.778 0 0 0 1.867.427 16.414 16.414 0 0 0 2.834.237c.403-.005.42.312.403.608-.025.432.188.576.595.565.587-.017 1.176-.004 1.764-.004a2.476 2.476 0 0 1 1.679-.153 3.125 3.125 0 0 1 .94.153z"/><path fill="#f9a428" d="M119.568 53.413v-1.964c.2-.17.123-.404.129-.613a43.965 43.965 0 0 0-.486-7.588 40.849 40.849 0 0 0-1.168-4.98c-.238-.859-.596-1.672-.832-2.527a.39.39 0 0 1 .008-.13c.104-.262-.097-.726.305-.76.289-.024.3.419.435.653a.287.287 0 0 1 .042.122 1.376 1.376 0 0 0 1.096 1.384.739.739 0 0 1 .217.53 3.435 3.435 0 0 0 .71 2.173c.467.738.498 1.638.917 2.406.24.441.561.816.811 1.242a9.748 9.748 0 0 0 .504 1.325 1.492 1.492 0 0 1 .075.178c.602 1.176.688 2.532 1.296 3.705a35.304 35.304 0 0 1-.696 4.026 13.286 13.286 0 0 0-.22 1.472 3.11 3.11 0 0 0-.289.914c-.054.18-.05.438-.249.51-.54.193-.54.614-.51 1.063a1.579 1.579 0 0 1-1.466-.997 20.221 20.221 0 0 0-.629-2.144z"/><path fill="#f9a62a" d="M107.784 16.105a1.915 1.915 0 0 1 1.215.573c.42.297.829.606 1.273.867a5.986 5.986 0 0 1 .855 2.221 1.042 1.042 0 0 0 .007.821c.648 2.041 1.42 4.036 2.22 6.02a9.755 9.755 0 0 0 .515.908 3.329 3.329 0 0 1 .583 1.614 2.12 2.12 0 0 0 .813 1.505.93.93 0 0 1 .244 1.31 10.507 10.507 0 0 1-1.28-2.089 36.976 36.976 0 0 0-2.778-3.98c-.545-.698-1.15-1.356-1.703-2.044a8.765 8.765 0 0 0-1.535-1.835c-.867-.656-1.646-1.518-2.524-2.225a1.272 1.272 0 0 1-.194-.549.46.46 0 0 0-.401-.444 1.83 1.83 0 0 1-.314-.088c-.653-.254-.747-1.041-1.464-1.366-.633-.287-.27-1.261-.271-1.938a.554.554 0 0 1 .442-.579 4.626 4.626 0 0 1 1.874.004.616.616 0 0 1 .492.549c.061.443.338.55.734.553a1.844 1.844 0 0 1 1.197.192z"/><path fill="#f79723" d="M98.357 31.028c-.186.849.427 1.497.576 2.269a25.122 25.122 0 0 1 .602 4.8 3.606 3.606 0 0 1 .199 1.541 7.643 7.643 0 0 1-.085 1.28 1.352 1.352 0 0 0-.234 1.162.893.893 0 0 1-.142.86c-.52-.228-.748-.039-.818.508-.025.201-.015.551-.314.576-.275.023-.419-.249-.593-.451-.487-.568-.297-1.293-.488-1.927a1.499 1.499 0 0 0-.667-1.062 6.523 6.523 0 0 1-.395-1.76c-.089-.357-.141-.724-.242-1.078a2.11 2.11 0 0 1-.06-.517 1.793 1.793 0 0 0-.419-1.421 3.859 3.859 0 0 1-.726-1.779 1.166 1.166 0 0 0-.427-.83 6.751 6.751 0 0 1-1.05-2.294.511.511 0 0 1 .369-.337c1.158.035 1.189.058 1.458 1.118a.833.833 0 0 0 .147.288 4.64 4.64 0 0 1 1.14 1.798 1.673 1.673 0 0 0 1.78.652.391.391 0 0 0 .167-.19 2.461 2.461 0 0 0-.6-2.394 1.773 1.773 0 0 1-.533-1.4 11.946 11.946 0 0 1-.133-1.619.687.687 0 0 0-.379-.637 2.053 2.053 0 0 1-.702-.669.828.828 0 0 1-.068-.202 2.934 2.934 0 0 1 .071-1.31l.078-.08a12.348 12.348 0 0 1 1.695 3.186c.275.635.53 1.28.793 1.92z"/><path fill="#f9a527" d="M107.784 16.105c-.5 0-1-.013-1.5.004-.403.013-.635-.127-.593-.56.048-.498-.2-.67-.662-.622a.562.562 0 0 1-.065 0c-1.906-.024-1.996.086-1.767 1.999.05.419.318.486.636.483.384-.004.572.152.547.542a.536.536 0 0 0 .602.614c.742-.065.757.357.709.88-.01.107-.002.217-.002.325a67.966 67.966 0 0 0-6.207-4.826 36.311 36.311 0 0 0-1.62-1.086c-.407-.252-.84-.43-.895-1.016-.028-.305-.405-.407-.62-.371-1.073.177-1.766-.61-2.607-.992-.37-.168-.744-.348-1.114-.525a.446.446 0 0 1-.27-.585c.088-.306.327-.324.578-.238a10.247 10.247 0 0 1 2.985 1.045c.39.283.984-.015 1.46.212.396.189.87.194 1.066.741.098.272.516.262.816.244a3.811 3.811 0 0 1 2.846.993.748.748 0 0 0 .44.25c1.672.13 2.968 1.162 4.388 1.88.283.144.771.134.849.61z"/><path fill="#f9a22b" d="M115.509 31.945A1.468 1.468 0 0 0 115 30.61a2.016 2.016 0 0 1-.753-1.878c.027-.133.065-.249-.033-.363-1.15-1.335-1.534-3.07-2.227-4.617a22.841 22.841 0 0 1-1.16-3.548c-.053-.205-.055-.4.23-.433a.529.529 0 0 1 .862.318 1.188 1.188 0 0 0 .974.803 8.843 8.843 0 0 1 1.02 2.461c.95 2.48 1.87 4.97 2.858 7.436.711 1.774 1.414 3.551 2.149 5.316a1.2 1.2 0 0 1 .124.945c-.233-.046-.465-.097-.699-.137-.196-.034-.339-.14-.334-.338a5.451 5.451 0 0 0-.5-1.764c-.113.378.003.737-.3.93l-1.702-3.796z"/><path d="M117.604 24.09c.475.63.948 1.263 1.426 1.89.266.349.095.748.146 1.121-.894.368-.722 1.186-.712 1.868a4.159 4.159 0 0 0 .401 1.637c.432.948.779 1.937 1.222 2.874a17.656 17.656 0 0 1 1.25 2.018c.312-.736-.014-1.513.269-2.22a.694.694 0 0 1 .843-.025l.26.525c-.047.617-.493 1.144-.272 1.848a5.39 5.39 0 0 0 .525 1.377 2.55 2.55 0 0 1-.018 1.256c-.244.284-.374.035-.5-.123a2.756 2.756 0 0 1-.335-.707c-.088-.216-.2-.396-.48-.327-.415.1-.594-.173-.75-.476a50.36 50.36 0 0 1-2.37-4.645c-.885-2.198-1.906-4.344-2.58-6.62a4.466 4.466 0 0 1-.089-1.915c.729-.3.823-.238 1.202.789.213.055.307-.364.562-.144z" class="cls-93"/><path d="M121.663 33.254c0 .74.001 1.48-.002 2.22 0 .146.028.328-.178.366-.179.032-.28-.096-.345-.242-.114-.257-.217-.52-.329-.778-.068-.157-.1-.387-.221-.455-.734-.415-.845-1.177-1.06-1.864-.208-.667-.649-1.218-.84-1.893a6.574 6.574 0 0 1-.366-2.473c.064-.71.138-1.03.853-1.034a.48.48 0 0 1 .154.348c-.021.506.124.824.718.82.407-.002.43.371.468.668a13.927 13.927 0 0 0 .078 1.47c.234-.198.2-.578.546-.557a2.515 2.515 0 0 1 .524 1.178 3.022 3.022 0 0 1 0 2.226z" class="cls-44"/><path d="M122.841 38.359v-1.44a3.005 3.005 0 0 1 0-2.357 11.13 11.13 0 0 1 .757 3.132 30.324 30.324 0 0 1 .409 6.22 44.16 44.16 0 0 1-.38 4.655 1.214 1.214 0 0 1-.538-.86c-.21-1.01-.66-1.94-.902-2.936.22-.066.257.178.462.264a5.542 5.542 0 0 1-.423-1.102c-.06-.33-.098-.644.22-.878.242-.18.226-.449.224-.708a11.845 11.845 0 0 1-.017-1.678 26.394 26.394 0 0 1-.007-1.66.821.821 0 0 1 .195-.652z" class="cls-94"/><path fill="#f79722" d="M86.05 16.105h.916c.087.104.174.107.261 0a26.015 26.015 0 0 1 3.279 2.857 28.205 28.205 0 0 1 3.933 4.63 7.32 7.32 0 0 1 1.43 2.33v.001a1.124 1.124 0 0 1-1.155.072.435.435 0 0 1-.174-.337c0-.495-.2-.758-.732-.762a.567.567 0 0 1-.582-.591.921.921 0 0 0-.615-.902 1.049 1.049 0 0 1-.595-1.19c.04-.556-.03-.983-.752-.996-.39-.007-.527-.35-.546-.702a.519.519 0 0 0-.563-.569c-.277-.01-.566-.105-.57-.421-.01-.6-.332-.792-.862-.798a.392.392 0 0 1-.23-.117c-.04-.897-.624-1.096-1.38-1.082a2.09 2.09 0 0 1-.322-.04c-.9-.125-1.123-.542-.742-1.383z"/><path fill="#f89d21" d="M81.99 12.44h-.91c-.712-.002-1.463.165-1.872-.72-.12-.258-.494-.387-.808-.5-.428-.156-.842-.352-.943-.885-.03-.166-.148-.37-.334-.355a7.03 7.03 0 0 1-1.37-.269c-.404-.044-.628-.08-.45-.549a1.189 1.189 0 0 0 .01-.387c.61.026 1.039.462 1.555.7.406.185.797.404 1.194.609q1.885 1.077 3.768 2.158c.068.04.107.13.16.198z"/><path fill="#f89d27" d="M117.604 24.09c-.632.524-.648.528-.861-.299-.135-.52-.532-.308-.841-.355-.404.217-.526-.063-.54-.36-.022-.516-.264-.695-.748-.61-.065-.006-.157-.004-.183-.05a6.708 6.708 0 0 1-1.248-2.372c.045-.1.1-.183.231-.143a32.99 32.99 0 0 1 4.19 4.19z"/><path fill="#f9a228" d="M113.414 19.901l-.13.131c-.288.045-.489.143-.358.497a.37.37 0 0 1-.036.42c-.588.075-.994-.062-1.077-.758-.047-.391-.41-.445-.756-.42a16.983 16.983 0 0 1-.785-2.226 23.155 23.155 0 0 1 3.142 2.356z"/><path d="M121.14 29.85c-.123.138-.25.238-.189.49.055.224-.165.404-.405.39-.248-.015-.187-.25-.19-.41a57.142 57.142 0 0 1-.002-1.49c.003-.249-.066-.463-.353-.411-.884.159-.873-.395-.827-.994.008-.108.001-.216.002-.324a.755.755 0 0 1 .805.418 13.829 13.829 0 0 1 1.158 2.33z" class="cls-93"/><path d="M122.842 34.562v2.357c-.407-.204-.46-.597-.52-.983a2.546 2.546 0 0 0-.051-.512c-.158-.405-.26-.775.183-1.075.195-.132.047-.435.256-.571z" class="cls-44"/><path d="M121.663 33.254v-2.226a6.88 6.88 0 0 1 .786 2.225c-.262-.06-.524.14-.786 0z" class="cls-99"/><path d="M87.227 16.106c-.03.1.07.28-.105.283-.14.003-.142-.165-.156-.284h.261z" class="cls-100"/><path d="M99.273 42.94a4.187 4.187 0 0 0-.104-1.203.536.536 0 0 1 .366-.76 8.448 8.448 0 0 1 1.034 1.157c1.881 1.88 3.826 3.695 5.731 5.552 2.404 2.342 4.81 4.683 7.255 6.981 1.493 1.404 2.866 2.931 4.435 4.254a1.692 1.692 0 0 1 .515.746c-.072.67-.034 1.376-.64 1.862-1.153-1.089-2.32-2.165-3.46-3.268-3.143-3.042-6.246-6.128-9.429-9.129-1.188-1.12-2.325-2.29-3.512-3.41q-.734-.692-1.492-1.36a2.014 2.014 0 0 1-.699-1.422zm-3.403-5.236a8.433 8.433 0 0 1 .523 2.88c-.302.044-.478-.152-.667-.337-1.758-1.718-3.499-3.456-5.285-5.145-2.56-2.42-5.073-4.89-7.61-7.335q-3.665-3.53-7.327-7.064c-2.41-2.325-4.86-4.61-7.222-6.984-.18-.18-.427-.32-.433-.625.722.08 1.333.606 2.095.524.44.284 1.05.25 1.378.741a1.053 1.053 0 0 0 .375.861c3.028 2.815 5.92 5.773 8.962 8.574.064.06.13.118.19.18 2.02 2.108 4.18 4.07 6.268 6.108 2.539 2.477 5.129 4.903 7.644 7.405.124.123.272.221.395.342.306.3.523.19.713-.125z" class="cls-48"/><path fill="#f89c28" d="M117.866 61.529a6.166 6.166 0 0 0 .524-1.964 1.176 1.176 0 0 1 .023-.697c.168-.509.091-1.09.45-1.543.394-.137.428.15.464.409.04.298 0 .601.036.9a1.134 1.134 0 0 0 .423.702c.356.327.463-.08.66-.223a.488.488 0 0 1 .693.06.881.881 0 0 1-.13.523c-.217 1.111-.78 2.107-1.07 3.19a1.12 1.12 0 0 1-1.052.796c-.412.056-.64-.388-.777-.765-.103-.28-.164-.576-.244-.865z"/><path d="M116.557 64.54a3.618 3.618 0 0 1-.305-.242c-2.273-2.226-4.52-4.48-6.823-6.674-2.507-2.388-4.99-4.8-7.484-7.2-.893-.86-1.782-1.727-2.678-2.585-.168-.161-.386-.3-.386-.579a5.634 5.634 0 0 1 1.106.905c2.08 2.046 4.142 4.11 6.259 6.118 2.51 2.381 4.993 4.79 7.478 7.197.827.8 1.662 1.597 2.494 2.393.192.184.383.365.339.667z" class="cls-47"/><path fill="#f89f29" d="M121.14 59.172c-.384-.067-.728-.096-.827.428-.037.199-.229.266-.401.1-.385-.367-.817-.678-.76-1.34.027-.323.27-.788-.239-1.02a.191.191 0 0 1 0-.262 7.664 7.664 0 0 0 .39-2.242 6.468 6.468 0 0 1 .265-1.423 2.18 2.18 0 0 1 .64 1.457c.036.975.686 1.37 1.455 1.684a4.138 4.138 0 0 1-.524 2.618z"/><path d="M68.766 23.436v.327c0 .77 0 .77-.67.453-.04-.019-.09-.064-.117-.053-.999.387-1.406-.954-2.337-.8-.156.025-.336-.174-.345-.348-.033-.625-.488-.71-.955-.879-.734-.264-1.142-.976-1.751-1.426-.48-.354-.809-.883-1.478-1.014a1.612 1.612 0 0 1-.748-.596 1.659 1.659 0 0 0-1.093-.64 1.335 1.335 0 0 1-1.206-1.394 1.707 1.707 0 0 1-.373.075.895.895 0 0 1-.847-.692c-.07-.336.402-.207.62-.247a28.561 28.561 0 0 1 3.444-.097l.524.262c.175.44.388.814.963.787a.482.482 0 0 1 .465.398c.2.809.855.792 1.477.84.211.016.434-.077.63.07l.262.261c.17.49.317.966 1.008.944a.467.467 0 0 1 .41.567c-.04.407.172.536.53.549a.597.597 0 0 1 .54.297.524.524 0 0 1 .121.508.667.667 0 0 0 .105.611.64.64 0 0 1 .116.408.724.724 0 0 1-.056.167c-.18.367-.142.594.344.544a.43.43 0 0 1 .417.118z" class="cls-60"/><path d="M64.969 18.462c-.555.276-1.108.025-1.657-.025-.29-.026-.402-.272-.452-.56-.059-.338-.21-.644-.636-.59-.743.094-.829-.354-.79-.92a2.877 2.877 0 0 1 1.702 1.309c.17.21.328.446.655.262.574-.233.864.171 1.178.524zm2.75 2.618a1.22 1.22 0 0 0-.367-.12c-.586.006-1.157.045-.845-.86.072-.21-.175-.3-.39-.33-.886-.126-.886-.13-.886-1.047l.262.131a1.859 1.859 0 0 0 .785.655 5.149 5.149 0 0 1 1.44 1.57zm.131 0c.708.152.774.882 1.178 1.309a2.324 2.324 0 0 0-.282.571c-.066.377-.375.397-.655.306-.362-.12-.28-.372-.11-.616.297-.303.374-.589.016-.927a.535.535 0 0 1-.147-.643z" class="cls-45"/><path d="M67.98 22.65c-.027.225-.163.496.245.522.261.016.42-.06.413-.357a.374.374 0 0 1 .39-.426c.617.076.525.773.916 1.047a.6.6 0 0 1-.502-.355c-.09-.147-.17-.362-.35-.338-.258.036-.163.302-.205.477a.893.893 0 0 1-.121.216 1.313 1.313 0 0 0-.385.024c-.252.095-.501.1-.618-.15a.46.46 0 0 1 .217-.66zm-.13-1.57a1 1 0 0 0 .343.665c.515.446.29.705-.213.905l-.13-.392c.087-.208-.058-.357-.131-.524v-.654zm-1.572-1.571a.75.75 0 0 1-.785-.655c.268.211.622.318.785.655zm-2.488-1.571c-.405.382-.547.103-.654-.262z" class="cls-45"/><path d="M109.879 82.604a1.17 1.17 0 0 1-.524.655.56.56 0 0 1 .524-.655z" class="cls-37"/><path d="M80.943 99.229a2.192 2.192 0 0 1-.294-.241c-.13-.15-.4-.24-.283-.511.068-.159.237-.158.391-.163.278-.009.363.186.425.398a1.239 1.239 0 0 1 .023.255.45.45 0 0 1-.262.262z" class="cls-13"/><path d="M46.507 24.09c-.132.427-.408.546-.858.536-1.546-.032-3.094-.012-4.64-.012a6.933 6.933 0 0 1-1.524.059.72.72 0 0 1-.31-1.106h1.31a25.97 25.97 0 0 1 5.803.403.824.824 0 0 1 .22.12z" class="cls-22"/><path d="M39.175 23.567a1.596 1.596 0 0 0 .262 1.047c-.385.303-.838.15-1.261.177-.932.06-1.048.15-1.08 1.066a2.093 2.093 0 0 0 .99 2.238.27.27 0 0 1 .173.315H35.77v-2.402a.923.923 0 0 0-.006-.323c-.217-.539-.424-1.04.457-1.18.142-.022.053-.356.073-.545a5.829 5.829 0 0 1 1.964-.262 1.677 1.677 0 0 1 .916-.131z" class="cls-29"/><path fill="#f79821" d="M71.254 14.403c-.364-.382-1.015-.287-1.31-.785h1.833c.35 0 .7.017 1.047-.004.588-.035 1.12-.035 1.061.798-.017.242.209.321.4.362a4.045 4.045 0 0 0 .96.14c.603-.022 1.077.038 1.151.795.033.34.416.267.647.328a2.485 2.485 0 0 0 .839.06c.595-.053.92.115.843.787-.041.362.088.556.542.477.36-.062.762.013.762.549 0 .191.077.396.27.388.552-.023 1.002.419 1.574.301.403-.083.618.14.636.54a.58.58 0 0 0 .66.632c.464-.005.856.056.677.693-.039.137.086.327.186.292.525-.184.942.295 1.45.2.309-.059.652.077.657.386.017.997.666.96 1.35.916.515-.31.802.052.985.413a27.041 27.041 0 0 0 1.54 2.34 1.544 1.544 0 0 0 .88.817c.278.073.295.359.298.598a.566.566 0 0 0 .583.637c.275.024.561.115.56.436a3.18 3.18 0 0 0 .97 1.936.951.951 0 0 1 .076 1.2.45.45 0 0 1-.261.262c-.34.07-.46-.205-.592-.41a29.592 29.592 0 0 0-3.134-4.089 14.212 14.212 0 0 0-1.667-1.71c-.547-.423-.96-.992-1.521-1.446-.84-.678-1.739-1.273-2.59-1.927a38.436 38.436 0 0 0-6.002-3.806 35.296 35.296 0 0 0-5.057-2.47 6.22 6.22 0 0 1-1.303-.636z"/><path d="M75.182 8.775h-2.619a2.345 2.345 0 0 1-.13-.786 16.613 16.613 0 0 1 2.749.786z" class="cls-56"/><path fill="#ee4f26" d="M71.386 105.384c-.122-.705.104-1.041.883-.938.303.04.62-.158.949-.111l-.262.26c-.575.16-.957.704-1.57.789z"/><path fill="#ee4e27" d="M67.717 107.472c-.087-.539.16-.725.674-.654a3.744 3.744 0 0 0 .506.004l-.525.391z"/><path fill="#ed4726" d="M44.412 100.669V99.49c.13 0 .258.004.387-.001.442-.018.825-.07.815.622-.01.695-.43.544-.815.556-.129.004-.258 0-.387 0z"/><path fill="#f38128" d="M38.259 28.41a2.86 2.86 0 0 1-1.31-3.371c.046-.219.164-.251.348-.302a9.045 9.045 0 0 1 2.14-.123h1.571c-.306.257-.67.122-1.003.12-.407-.004-.63.1-.568.547.064.454-.069.717-.592.645a.456.456 0 0 0-.568.53c.018.34.15.648.582.643a3.002 3.002 0 0 1 1.28.166c.221.097.433.189.491.47.092.436.378.583.816.554.245-.016.526-.106.74.121h-1.309z"/><path fill="#f58c27" d="M49.257 25.923h.393a.946.946 0 0 1 .38.437 1.037 1.037 0 0 0 .801.599 1.225 1.225 0 0 1 .952.72.83.83 0 0 0 .3.42 3.8 3.8 0 0 1 1.384 1.774.905.905 0 0 1 .084.985c-.213.35-.525.189-.82.186a1.61 1.61 0 0 1-.986-.278 1.015 1.015 0 0 1-.776-.612c-.3-.62-.79-.602-1.327-.567-.128.008-.257.001-.385.001-.411-1.033-.59-1.181-1.674-1.167a.855.855 0 0 1-.907-.584 1.997 1.997 0 0 0-.931-1.054c-.187-.099-.582-.05-.476-.399a.68.68 0 0 1 .715-.464c.502.014 1.004.003 1.506.003h1.767z"/><path d="M51.745 30.766c.432.208.907.034 1.37.173.358.107.518-.329.36-.607-.386-.678-.516-1.535-1.303-1.952-.167-.089-.369-.169-.43-.379a1.284 1.284 0 0 0-1.241-.936c-.557-.08-.639-.702-.851-1.142h1.571c.165.66.38 1.248 1.252 1.19.381-.026.441.301.445.593.005.463.144.76.682.708.361-.034.51.164.504.515-.007.392.115.637.584.686.402.041.599.411.699.778.052.191.064.404.226.524.733.541.328 1.325.431 1.996.035.225-.174.333-.396.336-.348.005-.697-.006-1.044.005-.484.017-.429-.414-.458-.65-.05-.419-.2-.59-.613-.53a.833.833 0 0 1-.95-.51c-.18-.358-.664-.42-.838-.798z" class="cls-84"/><path d="M118.913 57.078v.262a10.373 10.373 0 0 1-.392 1.57 6.198 6.198 0 0 1-1.616-1.356c-2.057-2.077-4.2-4.064-6.292-6.104-2.544-2.48-5.114-4.935-7.67-7.403q-1.245-1.202-2.503-2.395a1.787 1.787 0 0 1-.794-1.62.483.483 0 0 0-.11-.364v-1.571a42.691 42.691 0 0 0 4.77 4.872c.093.091.2.167.294.258q2.644 2.576 5.287 5.154c1.715 1.672 3.382 3.398 5.163 4.997 1.33 1.194 2.501 2.546 3.863 3.7z" class="cls-57"/><path d="M93.381 30.635c.238-.86-.451-1.338-.84-1.917a1.337 1.337 0 0 1-.339-.936c.042-.361-.052-.59-.488-.554-.537.044-.75-.231-.693-.757.033-.302.01-.587-.42-.55-.2.018-.281-.096-.39-.262a13.07 13.07 0 0 0-1.504-2.116c-.226-.23-.182-.56-.368-.82a.845.845 0 0 0-.85-.465c-.195-1.04-1.092-1.62-1.622-2.442a17.927 17.927 0 0 1-2.086-3.301c-.088-.237-.098-.384.19-.404.51-.036.38-.263.188-.547-.104-.153-.276-.34-.137-.53.147-.2.403-.109.61-.09.282.027.253.271.234.454-.114 1.098.72.59 1.183.707l.002.717c0 .248.092.425.362.453a8.455 8.455 0 0 0 1.416.124c.592-.04.796.174.711.738a3.088 3.088 0 0 0-.003.456c-.312.303-.764.046-1.09.235a15.11 15.11 0 0 0 3.44 5.478 2.286 2.286 0 0 1 .487.763 1.045 1.045 0 0 0 .463.61 1.26 1.26 0 0 1 .6.74.994.994 0 0 0 .427.56 1.712 1.712 0 0 1 .689.843 1.45 1.45 0 0 0 .46.622 2.653 2.653 0 0 1 .811 1.161 5.642 5.642 0 0 0 .813 1.603c.123.247.336.507.08.766a.568.568 0 0 1-.764.101c-.282-.03-.277-.243-.259-.439.061-.654-.233-.927-.88-.879a1.34 1.34 0 0 1-.433-.122z" class="cls-100"/><path fill="#f89e29" d="M112.89 20.949a5.005 5.005 0 0 0-.158-.551.37.37 0 0 1 .059-.463c.225-.227.33.061.492.097a1.006 1.006 0 0 0 .357.857 1.384 1.384 0 0 1 .552.962.702.702 0 0 0 .4.538.853.853 0 0 1 .279.706 13.218 13.218 0 0 0 1.362 5.137c.376.882.652 1.8 1.05 2.666a8.156 8.156 0 0 1 1.094 2.617.479.479 0 0 0 .12.3c.916.82.945 2.122 1.666 3.05a4.786 4.786 0 0 1 .528 1.262 2.137 2.137 0 0 0 1.243 1.419 7.549 7.549 0 0 0 .907 1.3 16.367 16.367 0 0 0 0 1.795c-.014.149.014.39-.062.43-.944.502-.269 1.086-.07 1.61a1.066 1.066 0 0 1 .058.822c-.367-.123-.308-.564-.58-.73-.171-.438-.314-.887-.524-1.309a5.235 5.235 0 0 1-1.351-2.71 3.81 3.81 0 0 0-.65-1.319 2.486 2.486 0 0 1-.499-1.626 2.766 2.766 0 0 0-.119-.76c-.66-1.663-1.315-3.328-2.006-4.981-.966-2.313-1.803-4.681-2.68-7.031-.505-1.357-.98-2.725-1.468-4.088z"/><path d="M121.663 43.464a2.31 2.31 0 0 1 .524 1.31 2.837 2.837 0 0 1-.524-1.31z" class="cls-94"/><path d="M72.563 14.927a20.958 20.958 0 0 1 2.324.978c.1.036.186.165.277.162 1.096-.03 1.64.958 2.505 1.347.89.8 1.777 1.602 2.617 2.456 1.74 1.77 3.562 3.457 5.341 5.187 2.372 2.306 4.797 4.557 7.134 6.9a14.344 14.344 0 0 0 1.406 1.166.64.64 0 0 1 .54.731 4.798 4.798 0 0 0 .638 1.887c.416.32.25.846.438 1.246-.096.485-.38.464-.721.262a2.921 2.921 0 0 1-.585-.52c-2.027-2.103-4.184-4.072-6.274-6.11q-3.695-3.601-7.424-7.17c-2.447-2.356-4.924-4.682-7.327-7.084-.217-.217-.479-.38-.696-.592-.24-.235-.464-.488-.193-.846z" class="cls-57"/><path fill="#f89d24" d="M94.167 33.123c-.588.007-.892-.478-1.236-.807-1.543-1.472-3.046-2.988-4.598-4.453-1.98-1.868-3.846-3.86-5.867-5.68-1.473-1.326-2.74-2.863-4.306-4.085a1.623 1.623 0 0 1-.49-.684 18.066 18.066 0 0 1 3.484 1.99c1.341.799 2.557 1.783 3.816 2.705.47.345.89.774 1.35 1.057a8.952 8.952 0 0 1 1.373 1.255 33.476 33.476 0 0 1 5.02 6.066 1.06 1.06 0 0 0 .407.41z"/><path fill="#f69022" d="M94.69 29.588a8.755 8.755 0 0 0-1.584-2.074c-.534-.596-.741-1.513-1.587-1.837a.388.388 0 0 1-.198-.247c-.187-.863-.93-1.33-1.4-1.99-.885-1.24-1.989-2.351-2.318-3.92-.066-.319-.653-.478-.429-.786.254-.348.771-.079 1.167-.14a1.29 1.29 0 0 1 .196-.002 5.228 5.228 0 0 0 .587-.003c.448-.051.663.117.59.581-.079.511.17.667.636.6.436-.061.603.143.543.56-.092.631.221.826.795.75.401-.053.56.13.517.524-.016.15.02.308-.006.456a1.085 1.085 0 0 0 .91 1.374c.434.113.249.45.264.695.02.334.052.667.478.604.785-.116.94.275.842.93a1.78 1.78 0 0 0-.002.26c.054.065.127.132.125.216a.907.907 0 0 0 .81 1.023c.102.02.165.13.243.2v.132a4.239 4.239 0 0 1-.008 2.721c-.122.446-.475.472-.758.104a7.195 7.195 0 0 1-.412-.73z"/><path d="M72.563 14.927a.747.747 0 0 0 .345.79 8.034 8.034 0 0 1 1.3 1.185c1.95 1.898 3.87 3.828 5.846 5.698 2.512 2.378 4.983 4.8 7.473 7.2 2.443 2.356 4.92 4.676 7.323 7.074.239.238.49.637.888.176.079.009.082.092.131.13v.524c-.015.21.067.47-.18.585-.235.11-.33-.15-.482-.252a3.239 3.239 0 0 1-.466-.352q-2.602-2.526-5.195-5.059c-1.747-1.702-3.47-3.43-5.245-5.101q-3.757-3.536-7.426-7.162c-1.767-1.74-3.587-3.425-5.384-5.132-.244-.232-.501-.453-.237-.827a2.839 2.839 0 0 1 1.31.523z" class="cls-48"/><path d="M99.535 39.668c.08.127.24.264.225.379-.103.784.467 1.17.924 1.617 1.774 1.738 3.513 3.515 5.347 5.187 1.225 1.118 2.353 2.329 3.562 3.458a389.913 389.913 0 0 1 7.575 7.296 13.298 13.298 0 0 1 1.353 1.306 1.077 1.077 0 0 1-.131.654c-1.302-1.279-2.581-2.581-3.909-3.832-2.552-2.406-5.05-4.868-7.576-7.3-2.181-2.098-4.372-4.187-6.543-6.296a3.39 3.39 0 0 1-.827-1.16z" class="cls-57"/><path fill="#f69322" d="M94.69 29.588a1.18 1.18 0 0 1 .519.637c.06.116.124.243.277.228.188-.017.214-.173.25-.326a12.415 12.415 0 0 0 .133-2.633 5.202 5.202 0 0 0 .948.68.335.335 0 0 1 .223.367 9.312 9.312 0 0 0 .137 1.874c.03.5.014 1.105.674 1.39a.87.87 0 0 1 .514.907 13.004 13.004 0 0 0-.005 1.437.464.464 0 0 1-.452.528 1.663 1.663 0 0 1-1.974-1.152 5.594 5.594 0 0 0-.981-1.45c.884-.142.869-.14.477-.895-.268-.519-.773-.932-.74-1.592zm1.18-2.225a.987.987 0 0 1-.13-.02c-1.05-.3-1.05-.301-1.05-1.42h1.179z"/><path d="M95.87 37.18l-.132-.13c-.244-.403-.2-.892-.393-1.31.658.305.42.935.524 1.44z" class="cls-48"/><path fill="#f79a2a" d="M121.925 39.668c-.953-.135-1.2-.936-1.454-1.652a12.95 12.95 0 0 0-.745-1.58 2.89 2.89 0 0 1-.603-1.537.51.51 0 0 0-.225-.379 2.278 2.278 0 0 1-.892-1.86 1.22 1.22 0 0 0-.277-.618 4.816 4.816 0 0 1-.893-1.795 4.128 4.128 0 0 0-.376-1.102 19.315 19.315 0 0 1-1.508-4.017 15.11 15.11 0 0 1-.36-2.74c.763-.275.891-.205.913.539.009.282.003.542.397.509a13.68 13.68 0 0 0 1.354 5.08c.49 1.131.932 2.285 1.395 3.429a29.582 29.582 0 0 0 1.49 3.595c.239.488.501.964.693 1.474a3.43 3.43 0 0 0 .878 1.424c.333.303.696.727.213 1.23z"/><path d="M121.925 39.668a.963.963 0 0 0-.392-1.198 1.908 1.908 0 0 1-.67-.92q-1.038-2.425-2.096-4.84a1.846 1.846 0 0 1-.116-.765c.272.58.559 1.155.811 1.745.468 1.091 1.264 2.002 1.692 3.115.088.23.274.26.476.127.335-.222.443.01.566.262.194.4.223.892.645 1.165v2.487c-.64-.133-.706-.712-.916-1.178z" class="cls-99"/><path d="M67.719 21.734c.083.165.68.2.13.524a.424.424 0 0 1-.13-.524z" class="cls-45"/><path d="M55.228 32.657a.238.238 0 0 1-.19-.288c.019-.138.096-.254.246-.244a.245.245 0 0 1 .231.316c-.023.154-.164.18-.287.216z" class="cls-83"/></svg>