<svg xmlns="http://www.w3.org/2000/svg" role="img" xmlns:xlink="http://www.w3.org/1999/xlink" viewBox="-1.56 -1.44 107.25 55.00"><title>Sourcegraph (member) logo</title><use x=".5" y=".672" xlink:href="#a"/><symbol id="a" overflow="visible"><path fill="#151c28" d="M2.115 44.1a1.52 1.52 0 0 0 .446.966c.273.286.682.428 1.227.428.4 0 .713-.1.912-.27s.297-.394.297-.64a.77.77 0 0 0-.224-.549c-.15-.155-.403-.27-.77-.344l-1.208-.28c-.892-.198-1.544-.542-1.953-1.032a2.573 2.573 0 0 1-.612-1.7 2.67 2.67 0 0 1 .261-1.162 2.9 2.9 0 0 1 .716-.948 3.58 3.58 0 0 1 1.087-.64c.415-.16.87-.24 1.366-.24.643 0 1.2.1 1.636.27s.8.406 1.087.678.487.56.63.864.2.58.242.827L5.2 40.8a2.32 2.32 0 0 0-.121-.418 1.18 1.18 0 0 0-.27-.4 1.367 1.367 0 0 0-.456-.297c-.18-.074-.4-.112-.66-.112-.322 0-.598.087-.828.26s-.344.392-.344.65c0 .224.07.403.232.54s.35.23.605.278l1.3.278c.905.186 1.584.533 2.036 1.042a2.58 2.58 0 0 1 .68 1.766 2.95 2.95 0 0 1-.214 1.096 2.745 2.745 0 0 1-.66.967c-.297.287-.67.515-1.115.688s-.966.26-1.562.26c-.694 0-1.276-.1-1.748-.297S1.2 46.66.91 46.376s-.518-.592-.66-.92-.226-.63-.252-.883zm10.93-6.414c.682 0 1.317.12 1.906.362a4.59 4.59 0 0 1 1.524 1.003 4.49 4.49 0 0 1 1.004 1.534c.234.594.364 1.245.364 1.952s-.12 1.353-.364 1.943a4.74 4.74 0 0 1-1.004 1.534 4.57 4.57 0 0 1-1.524 1.014 4.92 4.92 0 0 1-1.906.364 4.96 4.96 0 0 1-1.906-.363 4.5 4.5 0 0 1-1.524-1.014A4.89 4.89 0 0 1 8.6 44.48c-.25-.6-.364-1.236-.364-1.943s.12-1.357.364-1.952a4.56 4.56 0 0 1 1.005-1.533 4.6 4.6 0 0 1 1.524-1.003 4.98 4.98 0 0 1 1.906-.362zm0 7.454a2.36 2.36 0 0 0 .874-.167c.285-.112.534-.276.744-.492s.38-.487.512-.8.196-.7.196-1.134-.065-.8-.196-1.134-.3-.592-.512-.8a2.11 2.11 0 0 0-.744-.493 2.38 2.38 0 0 0-.874-.167 2.37 2.37 0 0 0-.874.168 2.09 2.09 0 0 0-.743.493 2.48 2.48 0 0 0-.511.809c-.13.322-.196.7-.196 1.134s.066.8.196 1.134a2.48 2.48 0 0 0 .51.81 2.08 2.08 0 0 0 .743.492c.285.112.577.168.874.168zm12.33 1.973a2.533 2.533 0 0 1-.056-.428l-.02-.557a2.13 2.13 0 0 1-1.087.94 3.81 3.81 0 0 1-1.44.288c-.558 0-1.05-.098-1.478-.288a3.32 3.32 0 0 1-1.087-.772 3.25 3.25 0 0 1-.679-1.143 4.18 4.18 0 0 1-.233-1.404v-5.782h2.473v5.28c0 .52.14.958.4 1.3s.7.53 1.274.53c.558 0 .98-.168 1.283-.5s.446-.77.446-1.3V37.96h2.473v7.5l.028.976.065.678zm10.126-6.693a3.83 3.83 0 0 0-.743-.075 3.14 3.14 0 0 0-.911.13 1.86 1.86 0 0 0-.743.427c-.2.197-.382.462-.5.8s-.196.74-.196 1.236V47.1h-2.474v-9.144h2.398v1.357a2.16 2.16 0 0 1 .53-.734 2.44 2.44 0 0 1 .688-.437 3.14 3.14 0 0 1 .726-.203 4.44 4.44 0 0 1 .659-.056l.288.01.288.028v2.5zm5.375-.447a2.42 2.42 0 0 0-.902.167c-.277.1-.527.28-.734.493a2.41 2.41 0 0 0-.502.8c-.124.322-.186.688-.186 1.096s.06.775.186 1.096a2.4 2.4 0 0 0 .51.818 2.04 2.04 0 0 0 .743.501c.278.1.58.168.9.168.3 0 .586-.045.828-.14s.45-.214.622-.364.313-.316.418-.5a2.55 2.55 0 0 0 .232-.538l2.175.724a3.92 3.92 0 0 1-.493 1.124 3.89 3.89 0 0 1-.883.979c-.36.285-.78.526-1.266.705s-1.03.27-1.636.27A4.91 4.91 0 0 1 39 47.008a4.63 4.63 0 0 1-1.534-1.014 4.735 4.735 0 0 1-1.026-1.524c-.248-.588-.373-1.236-.373-1.943s.12-1.357.364-1.952a4.56 4.56 0 0 1 1.005-1.533 4.54 4.54 0 0 1 1.506-1.004 4.765 4.765 0 0 1 1.868-.36c.62 0 1.175.1 1.664.27s.914.413 1.274.697a3.63 3.63 0 0 1 .874.986c.224.373.385.75.484 1.134l-2.213.742c-.112-.383-.326-.737-.642-1.06s-.778-.483-1.385-.483M54.755 44.5a3.65 3.65 0 0 1-.528 1.124 3.89 3.89 0 0 1-.885.919 4.48 4.48 0 0 1-1.217.63c-.465.163-.975.232-1.534.232a5.03 5.03 0 0 1-1.804-.325 4.34 4.34 0 0 1-1.505-.958 4.58 4.58 0 0 1-1.032-1.55c-.255-.606-.38-1.294-.38-2.063 0-.73.123-1.395.372-2s.58-1.1.995-1.515a4.43 4.43 0 0 1 1.442-.966 4.34 4.34 0 0 1 1.692-.345c1.425 0 2.534.422 3.33 1.264s1.2 2 1.2 3.475l-.018.493-.018.27H48.3a1.95 1.95 0 0 0 .215.826 2.253 2.253 0 0 0 1.216 1.097 2.44 2.44 0 0 0 .874.157c.583 0 1.037-.13 1.366-.392a2.2 2.2 0 0 0 .715-1.003zm-2.304-2.994a2.23 2.23 0 0 0-.14-.66 1.584 1.584 0 0 0-.37-.575 1.9 1.9 0 0 0-.633-.408 2.357 2.357 0 0 0-.902-.158c-.322 0-.607.056-.855.168a2.13 2.13 0 0 0-.632.426 1.91 1.91 0 0 0-.4.576 1.81 1.81 0 0 0-.158.632h4.1zm5.58 5.522a2.05 2.05 0 0 0 .687 1.245c.373.322.856.483 1.45.483.78 0 1.382-.2 1.804-.604s.633-1.05.633-1.943v-.67c-.187.298-.5.568-.913.8s-.965.362-1.635.362c-.608 0-1.173-.1-1.692-.334a3.98 3.98 0 0 1-1.348-.93 4.31 4.31 0 0 1-.894-1.403 4.74 4.74 0 0 1-.326-1.776 4.68 4.68 0 0 1 .316-1.72c.2-.54.5-1.014.874-1.422a4.06 4.06 0 0 1 1.338-.966 4.18 4.18 0 0 1 1.73-.353c.73 0 1.308.13 1.727.4s.713.545.874.855v-1.077h2.38v8.154a6.09 6.09 0 0 1-.269 1.813c-.18.577-.463 1.084-.846 1.524s-.88.793-1.487 1.06-1.34.4-2.194.4c-.633 0-1.206-.1-1.72-.27s-.965-.422-1.348-.725a3.8 3.8 0 0 1-.93-1.059 3.426 3.426 0 0 1-.447-1.255zm2.452-2.435c.63 0 1.15-.2 1.552-.632s.605-.986.605-1.692-.2-1.267-.633-1.682a2.09 2.09 0 0 0-1.524-.623 2.33 2.33 0 0 0-.864.158 1.95 1.95 0 0 0-.699.465c-.2.206-.352.45-.464.734s-.168.6-.168.948c0 .72.203 1.287.613 1.7s.937.622 1.58.622zm12.294-4.163a3.79 3.79 0 0 0-.743-.075c-.322 0-.626.044-.9.13-.278.082-.532.23-.743.427s-.38.462-.512.8-.194.74-.194 1.236V47.1h-2.476v-9.144h2.398v1.357c.124-.28.305-.53.532-.734a2.46 2.46 0 0 1 .687-.437c.233-.096.476-.165.725-.204.242-.036.462-.056.66-.056l.288.01.288.028v2.5zm.854 4.2a2.64 2.64 0 0 1 .214-1.088c.142-.318.338-.592.585-.827s.537-.42.864-.557a4.75 4.75 0 0 1 1.07-.298l2.252-.334c.26-.036.44-.115.538-.23a.63.63 0 0 0 .149-.42c0-.322-.126-.6-.38-.837s-.64-.353-1.162-.353c-.545 0-.963.15-1.255.446s-.456.645-.492 1.042l-2.196-.466a2.98 2.98 0 0 1 .336-1.078 3.32 3.32 0 0 1 .762-.966 3.87 3.87 0 0 1 1.191-.697c.47-.18 1.015-.27 1.635-.27.718 0 1.333.096 1.835.288s.92.446 1.236.77c.312.3.548.7.687 1.106a4.07 4.07 0 0 1 .215 1.319v4.5l.037.8.075.66H79.56a4.78 4.78 0 0 1-.065-.512l-.028-.586c-.236.36-.573.675-1.014.948s-1 .408-1.683.408c-.484 0-.92-.07-1.3-.233s-.722-.358-.996-.613a2.7 2.7 0 0 1-.629-.874 2.49 2.49 0 0 1-.207-1.037zm3.664.9a2.75 2.75 0 0 0 .753-.102c.238-.066.458-.187.643-.352.195-.18.347-.404.445-.65.112-.266.168-.604.168-1.013v-.408l-2.063.315a1.62 1.62 0 0 0-.808.345c-.215.18-.326.45-.326.808a1.05 1.05 0 0 0 .298.734c.2.215.494.324.892.324zm6.546 5.123V37.965h2.4v1.115c.2-.36.557-.67 1.04-.93s1.073-.4 1.767-.4c.67 0 1.264.12 1.786.362a3.9 3.9 0 0 1 1.33 1.004c.366.427.64.93.826 1.506s.278 1.206.278 1.887c0 .694-.1 1.336-.308 1.923a4.53 4.53 0 0 1-.874 1.525c-.38.428-.834.764-1.368 1.003a4.26 4.26 0 0 1-1.766.364c-.633 0-1.175-.108-1.628-.325s-.8-.48-1.014-.8v4.424h-2.47zm7-8.112c0-.818-.22-1.45-.66-1.896s-.976-.67-1.608-.67c-.323 0-.62.06-.892.177a2.25 2.25 0 0 0-.726.502 2.33 2.33 0 0 0-.492.799c-.118.3-.177.678-.177 1.088s.06.772.177 1.087a2.22 2.22 0 0 0 .492.8 2.16 2.16 0 0 0 .726.511c.28.12.57.176.892.176a2.155 2.155 0 0 0 1.608-.678c.44-.452.66-1.087.66-1.906zm6.53 4.58h-2.473V33.65h2.473v5.075a2.47 2.47 0 0 1 1.134-.771 4.18 4.18 0 0 1 1.338-.232c.584 0 1.088.096 1.515.288s.782.45 1.06.772a3.09 3.09 0 0 1 .622 1.152c.136.446.205.9.205 1.413V47.1h-2.473v-5.336c0-.52-.14-.954-.4-1.3s-.697-.52-1.292-.52c-.52 0-.93.17-1.227.5s-.46.766-.484 1.273V47.1z"/><path fill="#f96216" d="M44.508 4.362l7.47 27.346a3.45 3.45 0 0 0 4.232 2.42 3.455 3.455 0 0 0 2.413-4.24l-7.47-27.334A3.444 3.444 0 0 0 46.92.123a3.45 3.45 0 0 0-2.412 4.239"/><path fill="#b200f8" d="M58.448 4.257L39.736 25.41a3.456 3.456 0 0 0 .294 4.872 3.44 3.44 0 0 0 4.863-.296l18.712-21.15a3.455 3.455 0 0 0-.294-4.87 3.44 3.44 0 0 0-4.863.294"/><path fill="#00b4f2" d="M37.2 15.982l26.685 8.837a3.44 3.44 0 0 0 2.631-.193 3.45 3.45 0 0 0-.47-6.354L39.363 9.428a3.44 3.44 0 0 0-4.351 2.193 3.456 3.456 0 0 0 2.19 4.36"/></symbol></svg>