<svg xmlns="http://www.w3.org/2000/svg" role="img" viewBox="-14.46 -11.46 1479.92 187.92"><title>The Blog Starter (member) logo</title><defs><style>.cls-1{fill:none}</style></defs><path d="M38.769 147.603c-.025-1.325-.097-2.651-.056-3.974.027-.892-.293-1.242-1.244-1.38-3.079-.446-6.134-1.037-9.212-1.488-.962-.141-1.389-.402-1.36-1.426.076-2.706.062-5.416.006-8.122-.02-.941.292-1.233 1.276-1.215 3.06.053 6.121-.022 9.18.04 1.08.023 1.374-.323 1.358-1.323-.055-3.426.011-6.853-.04-10.278-.014-1 .3-1.357 1.374-1.327 2.365.066 4.737.08 7.1-.005 1.204-.043 1.446.419 1.43 1.449-.053 3.315.019 6.631-.042 9.946-.02 1.079.176 1.573 1.484 1.546 4.098-.082 8.2.006 12.299-.046 4.42-.057 6.58-2.188 6.568-6.4a18.963 18.963 0 0 0-.877-5.882c-.232-.71-.096-.995.742-.986q4.504.045 9.008-.001a.97.97 0 0 1 1.072.822c1.51 5.013 2.134 10.082.66 15.191-1.653 5.727-6.393 9.086-13.29 9.544-5.248.348-10.507.167-15.76.134-1.545-.01-2.057.42-1.91 1.874a26.551 26.551 0 0 1-.057 3.307zm4.311-52.178c-4.929-3.862-5.478-8.94-4.83-14.176.926-7.47 5.984-11.74 13.865-11.96 5.14-.142 10.286-.082 15.429-.046 1.136.008 1.61-.276 1.774-1.424.547-3.845.599-3.839 4.719-3.839 1.502 0 3.007.05 4.506-.017.938-.042 1.165.297 1.159 1.143-.034 5.087-.067 10.176.018 15.263.022 1.306-.664 1.246-1.59 1.244q-10.142-.021-20.284-.007c-.347 0-.693-.003-1.04 0-6.551.062-9.778 5.379-6.584 10.893a4.743 4.743 0 0 0 4.587 2.645c4.215-.122 8.437-.075 12.654-.01 1.214.02 1.703-.281 1.891-1.502.489-3.16.565-3.15 3.845-3.15 1.734 0 3.469.041 5.2-.016.938-.031 1.314.197 1.307 1.181q-.061 9.954-.005 19.909c.004.87-.297 1.153-1.196 1.137-2.484-.044-4.97-.04-7.454-.001-.775.012-1.204-.23-1.29-.976-.013-.11-.043-.217-.065-.325-.77-3.894-.77-3.894-4.884-3.894-12.713 0-25.427.019-38.14-.028-1.388-.005-2.026.225-2.204 1.724-.417 3.497-.52 3.486-4.207 3.486-1.676 0-3.352-.03-5.027.01-.827.02-1.1-.273-1.096-1.06.027-5.144.05-10.287-.012-15.43-.016-1.275.774-1.104 1.568-1.087 8.892.184 17.796-.42 26.678.384a4.816 4.816 0 0 0 .709-.071zm18.585-60.167c0 3.76.037 7.52-.022 11.28-.018 1.095.287 1.325 1.38 1.03a8.075 8.075 0 0 0 6.191-5.9c1.35-5.187.675-10.114-2.833-14.442-.71-.877-.47-1.082.408-1.453 2.426-1.028 4.849-2.072 7.21-3.23 1.044-.511 1.533-.2 2.063.625a26.599 26.599 0 0 1 3.771 10.415 30.34 30.34 0 0 1-.548 13.482c-2.034 6.91-6.748 11.142-14.107 12.627a29.225 29.225 0 0 1-14.209-.516c-5.554-1.632-9.473-5.057-11.345-10.322-2.213-6.224-2.545-12.51.89-18.473 3.91-6.786 12.28-9.551 20.19-7.99.968.191.97.722.967 1.42-.013 3.816-.006 7.631-.006 11.447zm-6.989 5.412v-5.475c-.002-2.087-.14-2.19-2.23-1.664a6.219 6.219 0 0 0-4.877 6.745c.342 3.818 3.184 7.132 6.298 7.418.835.077.81-.36.808-.886q-.004-3.07.001-6.138z" id="lUmlHr"/><path d="M1087.42 18.509h22.825v35.716h-22.825zm120.615 101.288h33.264v25.527h-33.264zm73.453-101.507h25.669v38.065h-25.669z"/><path d="M976.68 145.336h41.548q-20.775-.062-41.549 0zm72.14-3.203c-6.5-13.13-13.245-26.126-19.75-39.252-1.074-2.167-2.25-2.946-4.536-2.845-4.394.195-8.801.118-13.201.029-1.66-.034-2.22.578-2.201 2.303.068 6.07.104 12.143-.017 18.21-.045 2.243 1.098 2.589 2.765 2.74 4.382.396 8.755.919 13.14 1.268 1.754.14 2.348.88 2.311 2.727q-.153 7.646.001 15.296c.04 1.901-.448 2.663-2.243 2.727h27.667c-1.893-.204-2.943-1.197-3.936-3.203zm72.334 3.203h43.05q-21.525-.068-43.05 0zm-64.777 0h19.932a12.586 12.586 0 0 0-1.305-.061c-6.208.09-12.42-.042-18.627.061zm26.027 0h.384v-.21a2.998 2.998 0 0 1-.384.21zM386.027 42.329c-11.56-.054-20.374 4.78-25.323 15.746-3.72 8.243-4.545 17.025-4.486 26.71a70.924 70.924 0 0 0 1.2 14.453 45.593 45.593 0 0 0 2.67 9.044c4.689 11.043 13.17 16.366 25.972 16.307 12.78-.06 21.621-5.315 25.61-16.702a69.855 69.855 0 0 0-.614-49.487c-4.356-11.238-13.46-16.017-25.029-16.071zm-240.883 81.207c5.679-.188 11.383.122 17.042-.307 9.533-.723 14.609-7.44 13.515-17.306-.694-6.268-4.853-11.02-10.97-12.132-6.696-1.218-13.474-.38-20.212-.586-1.717-.052-1.862 1.09-1.857 2.469.016 4.28.006 8.56.006 12.84-.004 4.028.063 8.058-.032 12.083-.047 1.974.343 3.01 2.508 2.939zM896.111 49.71a2.466 2.466 0 0 0-1.462-1.897l-13.345 37.06c8.765 0 17.087-.01 25.408.005 3.032.006 1.232-1.926.908-2.853-3.782-10.792-7.665-21.546-11.509-32.315zm-733.923-4.758c-5.658-.429-11.363-.12-17.041-.307-2.166-.071-2.556.965-2.51 2.939.096 4.025.03 8.055.033 12.083 0 4.28.01 8.56-.005 12.84-.005 1.38.14 2.521 1.857 2.469 6.738-.206 13.516.632 20.21-.586 6.118-1.112 10.277-5.864 10.972-12.132 1.093-9.866-3.983-16.583-13.516-17.306zm849.248 33.003c6.592-.125 13.202.291 19.773-.449 9.768-1.099 14.618-6.63 15.064-16.946.449-10.388-3.773-16.161-13.572-18.193-7.211-1.495-14.537-.552-21.81-.765-2.047-.06-1.722 1.493-1.728 2.772-.02 4.973-.008 9.947-.007 14.92 0 5.338.043 10.677-.025 16.013-.022 1.772.394 2.684 2.305 2.648zm374.589-35.572c-7.21-1.508-14.537-.552-21.808-.792-1.98-.066-1.832 1.331-1.831 2.683v15.285c0 5.216.03 10.432-.019 15.648-.016 1.666.202 2.782 2.204 2.745 6.708-.123 13.438.342 20.118-.482 9.74-1.2 14.404-6.708 14.827-17.174.41-10.11-3.87-15.9-13.49-17.913z" class="cls-1"/><path d="M1220.47 40.28c-3.113-.252-6.193-.95-9.305-1.19-1.928-.148-2.554-.892-2.51-2.894.113-4.978.161-9.965-.014-14.938a5.168 5.168 0 0 1 .116-1.41h-.133v25.67h14.163l.002-2.526c.003-1.82-.507-2.565-2.32-2.712zm-12.435 79.517v5.587a5.256 5.256 0 0 1 3.408-1.06c3.8-.24 7.575-.712 11.372-.987 2.191-.16 3.14-.822 3.135-2.727v-.813h-17.915zM409.947 22.824c-11.39-4.196-23.221-4.857-35.135-3.194-20.51 2.862-35.365 13.495-42.028 33.743a95.051 95.051 0 0 0 .285 61.845c5.62 16.357 17.3 26.475 33.775 30.801a76.82 76.82 0 0 0 29.652 1.61c18.632-2.428 33.06-11.139 41.017-28.982 4.873-10.928 6.28-22.592 6.214-34.377a98.15 98.15 0 0 0-2.403-23.586c-4.277-17.86-13.781-31.378-31.377-37.86zm1.722 85.063c-3.988 11.387-12.829 16.643-25.61 16.702-12.802.059-21.282-5.264-25.971-16.307a45.593 45.593 0 0 1-2.67-9.044 70.924 70.924 0 0 1-1.2-14.453c-.06-9.685.765-18.467 4.486-26.71 4.95-10.967 13.763-15.8 25.323-15.746 11.57.054 20.673 4.833 25.03 16.071a69.855 69.855 0 0 1 .612 49.487zm-98.923-5.464c-4.912.164-9.846.271-14.744-.033-2.988-.185-3.615 1.16-3.827 3.68-.417 4.955-1.098 9.887-1.517 14.842-.158 1.874-.61 2.81-2.737 2.787q-14.39-.148-28.78.003c-2.164.024-2.625-.835-2.555-2.781.118-3.274.03-6.555.03-9.834 0-21.733.05-43.466-.06-65.198-.014-2.793.77-3.867 3.559-3.996 2.978-.138 5.921-.918 8.9-1.196 1.696-.158 2.212-.828 2.187-2.495a489.26 489.26 0 0 1 .003-16.025c.032-1.848-.76-2.225-2.368-2.222q-26.083.052-52.166-.006c-1.752-.005-2.624.387-2.585 2.402.105 5.34.066 10.684.018 16.026-.013 1.483.465 2.143 2.014 2.3 3.335.34 6.641.976 9.976 1.323 1.836.19 2.738.726 2.733 2.855q-.095 38.609-.002 77.218c.005 2.041-.72 2.79-2.636 2.94-2.985.233-5.95.74-8.936.963-2.318.173-3.307 1.048-3.196 3.596.207 4.726.197 9.474.005 14.2-.105 2.57.716 3.253 3.219 3.235 15.35-.112 30.7-.056 46.05-.056 15.23 0 30.46-.073 45.69.068 2.706.025 3.386-.742 3.428-3.425.2-12.745.583-25.489 1.02-38.228.075-2.188-.417-3.02-2.723-2.943zm1049.958 20.051c-.38-.446-.39-1.106-.365-2.135.142-5.946.11-11.898.013-17.846-.032-1.968.681-2.476 2.44-2.433 4.283.105 8.578.202 12.852-.032 2.466-.135 3.657.849 4.758 3.066 6.566 13.23 13.29 26.376 19.942 39.559.771 1.527 1.417 2.753 3.534 2.72 9.612-.15 19.226-.103 28.84-.032 1.75.013 2.478-.444 2.437-2.423q-.16-7.827.003-15.66c.039-1.866-.622-2.597-2.316-2.761-2.995-.29-5.972-.884-8.97-1.017-2.585-.115-4.13-1.17-5.443-3.575-4.42-8.1-8.426-16.481-13.64-24.06-1.493-2.17-.923-2.71.855-3.621 5.381-2.76 10.425-6.195 13.391-11.757 7.816-14.653 8.337-29.798.202-44.318-7.018-12.526-18.954-17-32.145-17.607-10.52-.484-21.075-.098-31.614-.098v-.114c-11.12 0-22.239.044-33.357-.04-1.594-.011-2.463.3-2.734 1.558h-.106v25.67h14.26q-.084 37.47.002 74.943a3.307 3.307 0 0 1-.488 2.013h-13.774v23.732h56.01l-.601-23.225m22.826-62.685c-.423 10.466-5.087 15.974-14.827 17.174-6.68.824-13.41.36-20.118.482-2.002.037-2.22-1.079-2.204-2.745.05-5.216.018-10.432.018-15.648V44.274c0-1.352-.149-2.749 1.832-2.683 7.271.24 14.597-.716 21.808.792 9.621 2.013 13.9 7.802 13.491 17.913zm-447.279 63.278c-2.874-.291-4.123-1.529-5.113-4.248-11.869-32.611-23.882-65.165-35.757-97.775-.876-2.406-1.918-3.351-4.448-3.29-7.64.188-18.346.068-25.99.068l-10.134 26.336c-9.02 24.8-18.097 49.578-26.995 74.427-1.096 3.062-2.527 4.554-5.679 4.502-1.942-.032-3.888.589-5.843.792-1.817.19-2.53 1.004-2.477 3.023q.2 7.643.003 15.296c-.052 2.1.634 2.652 2.575 2.643q23.107-.109 46.214.006c2.094.012 2.511-.848 2.479-2.774-.086-5.098-.098-10.2.006-15.297.038-1.839-.586-2.636-2.292-2.816-2.763-.29-5.506-.82-8.272-1.028-2.24-.167-3.13-.75-2.087-3.287 1.508-3.669 2.76-7.456 4.039-11.223.518-1.527 1.2-2.293 2.944-2.281 12.972.086 25.945.064 38.917.022a2.507 2.507 0 0 1 2.85 1.916c1.4 4.107 2.931 8.168 4.504 12.207.68 1.749.164 2.384-1.52 2.557-2.88.297-5.74.777-8.62 1.066-1.834.183-2.526.993-2.472 3.007.134 4.974.166 9.96-.008 14.931-.086 2.452.733 3.02 2.947 3.002 12.74-.099 25.482-.029 38.223-.06 3.458-.009 8.117 1.222 10.061-.622 2.253-2.138.67-7.103.707-10.835.094-9.226.045-9.375-8.762-10.265zm-45.525-38.696c-8.321-.015-16.643-.005-25.408-.005l13.345-37.06a2.466 2.466 0 0 1 1.462 1.897c3.844 10.769 7.727 21.523 11.509 32.316.324.926 2.124 2.858-.908 2.852zm301.941 57.56a3.14 3.14 0 0 0 .544 2.31v-19.364a3.674 3.674 0 0 0-.565 2.482c.209 4.849.147 9.717.02 14.572z"/><path d="M1281.987 142.988v-20.91q-14.825-.234-29.655-.005c-2.36.033-2.943-.791-2.91-3.109.108-7.65.138-15.306-.013-22.956-.052-2.616.81-3.25 3.177-3.21 8.11.137 16.222-.008 24.333.094 2.05.025 2.87-.507 2.81-2.821q-.215-8.376 0-16.76c.064-2.415-.704-3.098-2.97-3.061-8.11.13-16.223-.022-24.332.097-2.204.032-3.058-.54-3.014-3.013.136-7.529.106-15.062.015-22.592-.027-2.236.434-3.245 2.87-3.212 9.895.134 19.793.108 29.689.021V18.702h23.973a4.875 4.875 0 0 0-2.505-.426c-15.18.108-30.36.053-45.54.054-15.411 0-30.823.034-46.234-.04-1.647-.007-2.61.268-2.924 1.558h29.277v25.67h-15.247q-.056 37.14.008 74.28h15.813v25.528q32.604-.03 65.209.01c.148 0 .281-.006.415-.012h-22.245z"/><path d="M1238.034 19.848h-29.277a5.168 5.168 0 0 0-.116 1.41c.175 4.973.127 9.96.015 14.938-.045 2.002.58 2.746 2.509 2.895 3.112.24 6.192.937 9.304 1.19 1.813.146 2.323.892 2.32 2.71l-.002 2.526h15.247zM695.07 77.53c-8.517-3.926-17.601-5.803-26.388-8.752-3.82-1.282-7.628-2.635-10.918-5.229a12.14 12.14 0 0 1 1.501-20.49 21.343 21.343 0 0 1 10.665-2.416c12.402.013 19.26 6.608 17.713 19.243-.28 2.284.888 1.748 1.884 1.667 6.086-.5 12.162-1.225 18.256-1.513 2.784-.131 3.791-1.47 4.41-4.205 2.875-12.725-3.568-26.762-15.365-33.118-8.267-4.455-17.15-5.544-26.202-5.62-1.554 0-3.114-.098-4.661.016-10.978.811-21.194 3.784-29.559 12.235-14.23 14.378-14.897 47.27 11.103 59.17 8.121 3.716 16.614 6.004 25.001 8.726 4.36 1.416 8.72 2.86 12.562 5.644a10.392 10.392 0 0 1 4.638 10.149c-.508 4.36-3.143 6.858-6.753 8.144a30.508 30.508 0 0 1-17.412.975c-8.452-1.965-12.24-7.51-11.575-16.931.15-2.122-.356-2.471-2.065-2.292-5.413.57-10.83 1.11-16.254 1.517-7.24.542-8.373 1.868-8.1 9.949.012.364.052.726.078 1.09.998 13.922 8.398 22.43 19.863 26.834a66.379 66.379 0 0 0 42.933 1.77c17.848-5.106 26.696-19.35 24.905-39.31-1.252-13.965-9.08-22.1-20.26-27.253zm142.083-20.176c-.285-11.897-.485-23.798-.53-35.699-.01-2.786-.928-3.399-3.436-3.383-17.609.108-35.219.057-52.829.057-17.725 0-35.451.051-53.176-.055-2.623-.016-3.591.608-3.597 3.578-.025 11.657-.26 23.315-.564 34.969-.065 2.462.433 3.47 2.99 3.363 4.742-.199 9.505-.223 14.245.01 2.524.125 3.155-1.027 3.369-3.298.398-4.225 1.082-8.421 1.432-12.65.167-2.005.859-2.725 2.778-2.691q8.166.145 16.334-.005c1.94-.039 2.587.58 2.582 2.674q-.09 38.073.01 76.146c.006 2.33-.952 2.869-2.844 3.03-2.998.257-5.976.763-8.973 1.049-1.87.178-2.502 1.075-2.458 3.045.115 5.098.092 10.201.012 15.3-.028 1.818.45 2.557 2.331 2.55q25.372-.096 50.744-.001c1.843.007 2.394-.653 2.362-2.514-.087-5.1-.147-10.205.026-15.3.078-2.303-.89-2.95-2.78-3.13-2.882-.274-5.747-.758-8.63-.984-2.048-.16-3.04-.776-3.03-3.273q.132-37.89.026-75.781c-.003-1.932.4-2.86 2.483-2.812a331.69 331.69 0 0 0 16.334-.008c2.216-.059 2.726 1.058 2.934 3.013.463 4.34 1.111 8.658 1.592 12.996.21 1.893.925 2.68 2.873 2.623 4.862-.142 9.733-.132 14.596-.005 2.042.052 2.85-.458 2.794-2.814zm357.672-39.036l.632-.046q-5.543.034-11.085.046H1173.6v.018q-15.486.011-30.972-.007c-17.726 0-35.452.051-53.177-.055a4.875 4.875 0 0 0-2.419.428h22.99v22.856c.03 0 .053-.004.083-.003q8.165.145 16.334-.005c1.94-.039 2.586.581 2.581 2.674q-.089 38.073.01 76.146c.007 2.33-.951 2.869-2.844 3.03-2.998.257-5.976.763-8.972 1.049-1.871.178-2.503 1.076-2.458 3.045.114 5.098.091 10.201.012 15.3-.028 1.766.433 2.507 2.182 2.542h4.204q21.525-.068 43.05 0h3.78c1.722-.03 2.251-.7 2.22-2.507-.086-5.1-.147-10.205.026-15.3.078-2.303-.89-2.95-2.78-3.13-2.881-.274-5.746-.758-8.63-.984-2.048-.16-3.039-.776-3.03-3.273q.132-37.89.026-75.781c-.003-1.933.4-2.86 2.484-2.812a336.38 336.38 0 0 0 15.3.011v12.474h22.825V18.318zM573.14 82.002V80.91h-56.208v25.181h21.454c.162 6.644-3.822 13.488-9.788 16.236a28.535 28.535 0 0 1-39.507-17.135c-4.395-13.499-4.203-27.314-.716-40.944 4.233-16.55 15.623-23.897 32.334-21.533 8.212 1.162 14.479 6.16 16.775 13.306v6.304h32.708v-29.11H556.09a35.642 35.642 0 0 0-9.574-7.265c-14.427-7.51-29.866-8.579-45.563-5.948-21.31 3.571-34.376 16.64-39.833 37.477a102.15 102.15 0 0 0 .196 52.917c4.357 16.305 13.827 28.555 30.003 34.166a68.955 68.955 0 0 0 46.591-.34 42.807 42.807 0 0 0 10.638-5.464v9.607h25.181V82.002zm-382.39 4.427c-.201-.058-.4-.118-.605-.174.11.058.22.115.329.174zm-75.616 0h.003l-.001-1.382-.002 1.382zm72.129-3.899c-.663.15-1.569.125-1.612 1.095a1.01 1.01 0 0 0 .085.468c.23-.534.93-.598 1.442-.798a29.49 29.49 0 0 0 2.975-1.372c-.267.072-.518.157-.79.226-.689.175-1.405.225-2.1.381zm3.485-.778h-.272c-.106.058-.215.114-.323.17.2-.054.397-.113.595-.17zm-75.616 0c0 1.098.003 2.196.004 3.295 0-1.099.003-2.197.004-3.295zm72.134 3.898c.694.156 1.41.207 2.1.382.268.068.516.152.779.223a29.493 29.493 0 0 0-2.97-1.37c-.51-.198-1.206-.262-1.44-.792a1.013 1.013 0 0 0-.082.463c.043.97.95.945 1.613 1.094z"/><path d="M190.474 86.429c-.109-.059-.22-.116-.33-.174-.262-.071-.51-.155-.778-.223-.69-.175-1.406-.226-2.1-.382-.664-.149-1.57-.124-1.613-1.094a1.335 1.335 0 0 0-.002-.93c.043-.97.949-.947 1.612-1.096.695-.156 1.411-.206 2.1-.381.272-.069.523-.154.79-.226.108-.057.217-.113.323-.171 9.137-4.942 12.827-13.684 13.21-24.882.544-15.908-6.078-26.66-20.001-31.982a53.862 53.862 0 0 0-14.538-3.415c-22.03-1.933-44.107-.496-66.159-.963-1.947-.041-2.427.824-2.37 2.688.094 3.024-.01 6.054.031 9.08.042 3.011-.835 6.758.521 8.83 1.41 2.152 5.23 1.318 8.008 1.722a16.288 16.288 0 0 0 3.164.465c2.474-.143 2.848 1.206 2.842 3.482q-.039 17.487-.044 34.975c0 1.098-.004 2.196-.004 3.295l.001 1.382q.006 17.487.045 34.975c.005 2.276-.369 3.625-2.842 3.482a16.292 16.292 0 0 0-3.164.465c-2.778.403-6.6-.43-8.008 1.722-1.356 2.071-.48 5.818-.521 8.83-.042 3.026.063 6.056-.031 9.08-.058 1.864.423 2.73 2.37 2.688 22.051-.468 44.129.97 66.158-.963a53.864 53.864 0 0 0 14.538-3.415c13.923-5.323 20.545-16.075 20.001-31.982-.382-11.198-4.072-19.94-13.21-24.882zm-45.327-41.784c5.678.188 11.383-.122 17.04.307 9.534.723 14.61 7.44 13.517 17.306-.695 6.268-4.854 11.02-10.971 12.132-6.695 1.218-13.473.38-20.211.586-1.718.052-1.862-1.09-1.857-2.47.015-4.279.005-8.559.005-12.839-.003-4.028.063-8.058-.032-12.083-.047-1.974.343-3.01 2.509-2.939zm17.039 78.584c-5.659.429-11.363.12-17.042.307-2.165.071-2.555-.965-2.509-2.939.096-4.025.03-8.055.033-12.084 0-4.28.01-8.56-.006-12.84-.005-1.378.14-2.52 1.857-2.468 6.738.206 13.516-.632 20.211.586 6.118 1.112 10.277 5.864 10.971 12.132 1.094 9.866-3.982 16.583-13.515 17.306zm1119.801-1.15v20.91h24.316c-.033 1.844-.684 2.274-2.07 2.335h3.423v-38.065h-25.67z"/><path d="M1306.303 142.988h-24.316v2.336h22.245c1.387-.06 2.039-.49 2.071-2.336z"/><path fill="#fff" d="M1082.404 145.336h-6.095c2.134.194 4.482.736 6.095 0zm-57.585.014c.099 0 .178-.01.27-.014h-6.861c2.197.007 4.394.004 6.59.013zm28.991.03c.856-.026 1.712-.03 2.567-.044h-3.621a7.61 7.61 0 0 0 1.055.043zm-79.953-.044v.006c.941-.004 1.882-.003 2.822-.006zm147.297 0h-4.204c.052.001.094.008.149.008 1.352-.005 2.703-.004 4.055-.008zm46.688.007c.052 0 .093-.006.143-.007h-3.781c1.212.004 2.425.002 3.638.007zm-85.054-.007h18.605v14.105h-18.605z"/><path d="M1032.7 42.367c-7.21-1.494-14.536-.551-21.81-.765-2.046-.06-1.721 1.493-1.727 2.772-.02 4.974-.008 9.947-.007 14.92 0 5.338.043 10.677-.025 16.013-.022 1.772.394 2.684 2.305 2.648 6.592-.125 13.202.291 19.773-.449 9.768-1.099 14.618-6.63 15.064-16.946.449-10.388-3.773-16.161-13.572-18.193z" class="cls-1"/><path d="M1072.867 123.543c-2.966-.154-4.497-1.513-5.88-4.074-4.274-7.91-8.598-15.805-13.301-23.436-1.385-2.245-1.257-2.825.829-3.877 5.289-2.666 10.236-6.064 13.168-11.487 7.97-14.74 8.497-29.984.259-44.623-6.968-12.382-18.797-16.855-31.853-17.49-10.516-.513-21.074-.104-31.613-.104v-.122c-11.12 0-22.238.042-33.357-.038-2.095-.015-3.158.365-3.065 2.938.18 4.97.08 9.954.037 14.932-.014 1.6.097 2.741 2.094 2.907 3.11.257 6.182 1.003 9.291 1.253 2.227.179 2.852 1.104 2.845 3.41q-.112 38.244-.004 76.49c.006 2.177-.664 3.02-2.698 3.172-2.999.224-5.977.728-8.972 1.036-1.747.18-2.646.806-2.586 2.925.144 5.095.12 10.199.01 15.295-.045 2.035.554 2.706 2.543 2.698 1.081-.004 2.162-.003 3.243-.006v-.006h2.822q20.774-.062 41.549 0h3.43V124.29c-3.26-.312-6.516-.676-9.777-.971-1.668-.151-2.81-.497-2.766-2.74.121-6.067.085-12.14.017-18.21-.02-1.725.541-2.337 2.201-2.303 4.4.089 8.807.166 13.2-.029 2.286-.101 3.463.678 4.537 2.845 6.505 13.126 13.25 26.123 19.75 39.252.993 2.006 2.043 2.999 3.936 3.203h3.621c6.207-.103 12.419.028 18.627-.061a12.586 12.586 0 0 1 1.305.061h6.095a2.998 2.998 0 0 0 .384-.21V124.93c-2.353-1.873-6.586-1.213-9.921-1.387zm-26.594-62.983c-.446 10.317-5.296 15.847-15.064 16.947-6.571.74-13.18.323-19.773.448-1.911.036-2.327-.876-2.305-2.648.068-5.336.025-10.675.025-16.012-.001-4.974-.013-9.947.007-14.921.006-1.28-.319-2.832 1.728-2.772 7.273.214 14.599-.73 21.81.766 9.799 2.03 14.02 7.804 13.572 18.192z"/></svg>