<svg xmlns="http://www.w3.org/2000/svg" role="img" viewBox="-9.99 -9.99 446.48 519.48"><title>WebdriverIO logo</title><defs><clipPath id="a" clipPathUnits="userSpaceOnUse"><path d="M0 144h124.56V0H0z"/></clipPath></defs><path fill="#ea5906" d="M107.714 176.919h8.983v-8.983h-8.983zm15.088 0h8.983v-8.983h-8.983zm15.088 0h8.984v-8.983h-8.983zm15.095 0h8.983v-8.983h-8.983z"/><g clip-path="url(#a)" transform="matrix(5.1567 0 0 -5.1567 -107.749 621.283)"><path fill="#ea5906" d="M41.398 102.09v10.795a5.398 5.398 0 0 1 0-10.795"/><path fill="#ea5906" d="M88.559 107.487a5.397 5.397 0 0 1-5.397 5.397V102.09a5.397 5.397 0 0 1 5.397 5.397"/><path fill="#ea5906" d="M54.269 112.362a4.484 4.484 0 0 0 4.479-4.479 4.484 4.484 0 0 0-4.479-4.479 4.485 4.485 0 0 0-4.48 4.48c0 2.47 2.01 4.478 4.48 4.478m0-10.003a5.53 5.53 0 0 1 5.524 5.524 5.53 5.53 0 0 1-5.524 5.524 5.531 5.531 0 0 1-5.525-5.524 5.531 5.531 0 0 1 5.525-5.524"/><path fill="#ea5906" d="M54.269 104.135a3.748 3.748 0 1 1 0 7.496 3.748 3.748 0 0 1 0-7.496"/><path fill="#ea5906" d="M70.292 112.362a4.484 4.484 0 0 0 4.479-4.479c0-2.47-2.01-4.479-4.479-4.479a4.484 4.484 0 0 0-4.48 4.48 4.484 4.484 0 0 0 4.48 4.478m0-10.003a5.53 5.53 0 0 1 5.523 5.524 5.53 5.53 0 0 1-5.523 5.524 5.53 5.53 0 0 1-5.525-5.524 5.53 5.53 0 0 1 5.525-5.524"/><path fill="#ea5906" d="M70.291 104.135a3.748 3.748 0 1 1 0 7.496 3.748 3.748 0 0 1 0-7.496"/><path fill="#ea5906" d="M79.521 110.17h-1.742v-1.741h1.742zm0-2.507h-1.742v-1.742h1.742z"/><path fill="#ea5906" d="M43.89 116.334a3.106 3.106 0 0 0 3.101 3.101h30.577a3.106 3.106 0 0 0 3.103-3.101v-13.546a3.106 3.106 0 0 0-3.103-3.101H46.991a3.106 3.106 0 0 0-3.102 3.101zm3.1-17.694h30.577a4.16 4.16 0 0 1 4.148 4.148v13.545a4.16 4.16 0 0 1-4.148 4.147H46.991a4.159 4.159 0 0 1-4.147-4.147v-13.545a4.159 4.159 0 0 1 4.147-4.147"/><path fill="#ea5906" d="M68.696 51.516h11.277a.94.94 0 1 1 0 1.88H68.696a.94.94 0 0 1 0-1.88"/><path fill="#ea5906" d="M68.696 48.693h3.765a.94.94 0 0 1 0 1.881h-3.765a.94.94 0 1 1 0-1.88"/><path fill="#ea5906" d="M68.696 54.337h11.277a.94.94 0 1 1 0 1.88H68.696a.94.94 0 1 1 0-1.88"/><path fill="#ea5906" d="M51.69 66.879c2.53 0 4.345 2.049 4.345 4.58v.029c0 2.53-1.844 4.609-4.374 4.609-2.531 0-4.346-2.05-4.346-4.58v-.03c0-2.53 1.844-4.608 4.375-4.608"/><path fill="#ea5906" d="M101.419 43.651c-.378-.38-.886-.565-1.55-.565-.736 0-1.21.2-1.52.53.443.096 1.013.315 1.392.816.393.52.476 1.192.247 2-.081.286-.147.511-.204.703-.238.802-.302 1.023-.574 2.951a7.737 7.737 0 0 1 2.316.83c.057-2.053.534-4.963.606-5.397-.006-.202-.071-1.223-.713-1.868m-3.683 2.161a9.68 9.68 0 0 1-.03.46c-.1 1.052-.678 1.69-1.543 1.703-.923.01-1.406-.512-1.777-1.078a1.517 1.517 0 0 0-.213-.249c-.156.12-.32.28-.386.467-.051.143-.036.287.046.451.215.43.577.822.96 1.24.355.384.718.781 1 1.24a9.624 9.624 0 0 1 2.382-.1c.283-2.014.357-2.266.607-3.107.056-.189.12-.41.2-.69.135-.476.11-.84-.072-1.084-.24-.318-.732-.435-1.034-.469a7.524 7.524 0 0 0-.14 1.216m-5.508.685c-.263.155-.425.366-.482.626-.104.48.13 1.148.679 1.933.478.685.71 1.32.798 1.88a7.412 7.412 0 0 1 1.694-.696 9.926 9.926 0 0 0-.74-.869c-.404-.44-.824-.897-1.091-1.43a1.384 1.384 0 0 1-.088-1.102c.078-.222.206-.412.35-.569-.493-.05-.957.13-1.12.227m-2.466 38.17v6.306c1.112-.212 3.4-.902 5.584-2.439 3.37-2.373 5.08-5.664 5.08-9.78V58.097h-4.807V76.58c0 2.433-.828 4.824-2.46 6.284-.99.884-2.18 1.448-3.397 1.803m-5.696.425H40.493v5.17a4.159 4.159 0 0 0 4.147 4.147h35.28a4.158 4.158 0 0 0 4.146-4.147zm0-13.427c-.981.726-1.835.975-3.103.945-1.552-.036-2.876-1.252-3.86-2.357-.724-.813-1.472-1.654-2.101-1.654-.404 0-1.034.5-1.702 1.03-1.323 1.05-3.138 2.487-6.037 2.626-2.741.133-4.767-1.998-6.054-3.995v9.274h22.857zm0-6.252h-22.28c.283.601.69 1.377 1.21 2.138.915 1.337 2.382 2.914 4.176 2.826 2.296-.11 3.71-1.233 4.96-2.223.932-.738 1.81-1.436 2.87-1.436 1.473 0 2.553 1.214 3.506 2.285.756.848 1.544 1.64 2.246 1.726.87.11 1.942-.09 3.312-1.649zM51.69 76.784c3.102 0 5.135-2.473 5.135-5.267.015-.015.015-.015 0-.03 0-2.794-2.063-5.296-5.164-5.296-3.102 0-5.136 2.473-5.136 5.267v.03c0 2.794 2.063 5.296 5.165 5.296m-9.204-11.239h-.716l4.818 11.488h.717zm-1.754 11.063h.76v-10.24h-.76zm43.334-24.865a4.159 4.159 0 0 0-4.146-4.147H58.36a4.975 4.975 0 0 1 4.123 4.894 4.973 4.973 0 0 1-4.966 4.968 4.973 4.973 0 0 1-4.968-4.968 4.976 4.976 0 0 1 4.124-4.894h-8.728a4.973 4.973 0 0 1 4.14 4.894 4.974 4.974 0 0 1-4.966 4.968 4.973 4.973 0 0 1-4.968-4.968 4.973 4.973 0 0 1 4.14-4.894H44.64a4.16 4.16 0 0 0-4.147 4.147v6.18h43.573zm-3.334-6.968h1.315V33.15h-1.315zm4.229-12.67c.324-.073 2.492-.648 3.366-2.89H75.96c-.217.971-.684 1.873-1.185 2.484a4.157 4.157 0 0 1-.378.406zm3.677-4.128H76.084c.007.204-.001.407-.021.611h12.46a5.5 5.5 0 0 0 .115-.61m-14.454 7.75V33.15h-1.428v11.625h1.428v-6.853h-.488v-2.195zm-2.356-6.557c.01 1.078.23 1.894.629 2.291a.746.746 0 0 0 .613.23c.187-.016.52-.195.897-.655.558-.68 1.098-1.869 1.074-2.988zm-15.16 22.437a.94.94 0 0 1 1.332 0l2.883 2.884c.35-.587.556-1.27.556-2.002a3.927 3.927 0 0 0-3.922-3.922 3.927 3.927 0 0 0-3.923 3.922 3.928 3.928 0 0 0 3.923 3.923c.75 0 1.449-.216 2.045-.582l-2.893-2.893a.94.94 0 0 1 0-1.33m-6.38-13.686v6.853h1.429V33.15H50.29v2.577h.488v2.195zm-.857-9.873c-.024 1.12.516 2.307 1.074 2.988.376.46.71.64.897.654a.746.746 0 0 0 .613-.229c.4-.397.62-1.213.629-2.29zm-2.314 25.452a.94.94 0 0 1-.94-.94v-3.874a3.926 3.926 0 0 0-2.982 3.803 3.928 3.928 0 0 0 3.923 3.923 3.927 3.927 0 0 0 3.922-3.923 3.925 3.925 0 0 0-2.982-3.803v3.873a.94.94 0 0 1-.941.941m-4.691-8.726h1.315V33.15h-1.315zm6.086-15.56H36.146c.874 2.242 3.042 2.817 3.366 2.89h10.565a4.167 4.167 0 0 1-.38-.406c-.5-.61-.967-1.513-1.184-2.485m-.124-1.237H35.836c.027.215.066.417.113.611H48.41a4.623 4.623 0 0 1-.022-.61m-13.591 56.69c-1.217-.356-2.408-.92-3.396-1.804-1.633-1.46-2.461-3.85-2.461-6.284V58.098h-4.807v20.655c0 4.117 1.709 7.408 5.08 9.781 2.183 1.537 4.472 2.227 5.584 2.44zm-2.663-35.612c.548-.785.784-1.454.68-1.933-.057-.26-.22-.47-.483-.626a2.04 2.04 0 0 0-1.12-.227c.144.157.272.347.35.57.125.355.095.736-.088 1.1-.266.534-.686.99-1.092 1.431-.257.28-.52.565-.74.87a7.393 7.393 0 0 1 1.695.694c.088-.559.32-1.194.798-1.879m-1.362-1.94c-.065-.188-.23-.349-.386-.468a1.467 1.467 0 0 0-.212.25c-.372.565-.855 1.087-1.778 1.077-.865-.014-1.442-.65-1.543-1.704-.013-.134-.021-.289-.03-.459-.022-.435-.057-.849-.14-1.216-.302.034-.795.151-1.034.47-.182.243-.207.607-.073 1.082.08.281.145.502.2.691.25.841.326 1.093.608 3.106a9.616 9.616 0 0 1 2.38.101c.285-.459.647-.856 1.002-1.24.383-.418.745-.81.96-1.24.082-.164.097-.308.046-.45m-6.081-4.03c-.665 0-1.172.184-1.55.565-.642.645-.707 1.666-.714 1.868.073.434.549 3.344.606 5.397a7.727 7.727 0 0 1 2.316-.83c-.271-1.928-.336-2.149-.574-2.95a56.186 56.186 0 0 1-.204-.704c-.23-.808-.146-1.48.247-2 .378-.5.95-.72 1.392-.817-.311-.33-.784-.529-1.52-.529m77.88 8.587c.69.65 1.094 1.434 1.094 2.28 0 1.095-.678 2.088-1.776 2.816v21.984c0 10.105-9.347 13.243-12.127 13.697v.425a4.16 4.16 0 0 1-4.147 4.147h-46.67a4.16 4.16 0 0 1-4.147-4.147v-.425c-2.781-.454-12.127-3.592-12.127-13.697V56.77c-1.1-.728-1.776-1.72-1.776-2.816 0-.846.404-1.63 1.094-2.28.073-1.608-.392-4.813-.6-6.027l-.006-.08c-.001-.066-.007-1.616 1.01-2.645.578-.584 1.35-.88 2.299-.88 2.987 0 3.114 2.511 3.175 3.718.008.153.015.291.027.412.047.5.223.754.52.76h.028c.318 0 .524-.097.863-.614.942-1.393 2.647-1.259 3.559-.72.516.305.852.756.972 1.304.169.782-.115 1.71-.844 2.754-.564.807-.681 1.502-.642 2.02.689.65 1.092 1.433 1.092 2.278 0 1.097-.681 2.093-1.784 2.821V76.58c0 1.65.509 2.28 1.555 3.214.456.408.998.637 1.585.74V48.922a4.16 4.16 0 0 1 4.147-4.147H41.8V33.15h-2.39l-.048-.009c-.041-.007-4.091-.807-4.576-5.16v-4.462h14.442l4.44 1.551v3.377c.11 1.743-.201 3.036-.905 3.744v12.584H71.71V32.191c-.703-.708-1.016-2-.905-3.744V25.07l4.44-1.55h14.443v4.46c-.485 4.354-4.536 5.154-4.578 5.161l-.046.01h-2.39v11.624h2.94a4.159 4.159 0 0 1 4.148 4.147v31.61c.587-.103 1.129-.33 1.586-.738 1.046-.935 1.554-1.564 1.554-3.214V56.774c-1.103-.728-1.784-1.724-1.784-2.82 0-.846.405-1.63 1.093-2.279.038-.518-.08-1.213-.643-2.02-.73-1.045-1.013-1.972-.843-2.754.119-.548.455-.999.97-1.305.912-.538 2.619-.672 3.56.721.339.517.545.613.862.613h.029c.297-.005.472-.26.52-.759.013-.12.019-.259.026-.412.062-1.207.189-3.718 3.177-3.718.947 0 1.72.296 2.297.88 1.019 1.03 1.012 2.58 1.012 2.644l-.008.081c-.206 1.214-.671 4.42-.6 6.027"/></g></svg>