<svg xmlns="http://www.w3.org/2000/svg" role="img" viewBox="-10.14 -7.14 1255.28 694.28"><title>WebdriverIO logo</title><defs><style>.cls-1{fill:#ea5906}</style></defs><path d="M188.184 535.383l-40.666 128.486h-4.478l-40.758-118.617a26.942 26.942 0 0 1-1.005-3.656 27.374 27.374 0 0 1-1.005 3.656l-40.94 118.617h-4.386L14.28 535.383h4.112a1.938 1.938 0 0 1 2.01 1.553L55.86 651.075a65.567 65.567 0 0 1 1.554 6.58q.364-1.827.777-3.473.41-1.645.868-3.107l39.57-114.139a2.05 2.05 0 0 1 2.193-1.553h1.188a1.938 1.938 0 0 1 2.01 1.553l39.57 114.139a59.457 59.457 0 0 1 1.644 6.488q.364-1.826.731-3.427.364-1.598.823-3.061l35.457-114.139a2.05 2.05 0 0 1 2.193-1.553zM289.71 659.574l-.182 4.295h-75.85V535.383h75.85v4.294h-70.823v56.933h59.674v4.203h-59.674v58.761zm65.066-124.191q21.017 0 31.253 8.407 10.233 8.408 10.235 23.851a27.469 27.469 0 0 1-2.01 10.372 31.682 31.682 0 0 1-5.62 9.093 33.568 33.568 0 0 1-8.773 7.036 36.923 36.923 0 0 1-11.47 4.113 51.886 51.886 0 0 1 14.074 3.336 34.722 34.722 0 0 1 10.555 6.488 26.595 26.595 0 0 1 6.625 9.412 30.995 30.995 0 0 1 2.285 12.108 35.467 35.467 0 0 1-2.833 14.577 28.563 28.563 0 0 1-8.27 10.737 37.616 37.616 0 0 1-13.297 6.672 64.222 64.222 0 0 1-17.911 2.284h-39.66V535.383zm-29.792 4.02v57.481h30.431a46.286 46.286 0 0 0 16.495-2.604 32.847 32.847 0 0 0 11.149-6.763 25.34 25.34 0 0 0 6.305-9.321 28.521 28.521 0 0 0 1.965-10.19q0-13.797-9.001-21.2-9.002-7.402-27.552-7.403zm34.635 120.354q18.002 0 27.643-7.722 9.641-7.721 9.642-22.526a26.794 26.794 0 0 0-2.605-11.972 25.838 25.838 0 0 0-7.402-9.047 34.465 34.465 0 0 0-11.697-5.757 55.356 55.356 0 0 0-15.49-2.01h-34.726v59.034zm180.94-60.131a77.85 77.85 0 0 1-4.386 27.004 57.193 57.193 0 0 1-12.337 20.196 53.227 53.227 0 0 1-19.008 12.656 65.613 65.613 0 0 1-24.4 4.387h-46.332V535.383h46.332a65.613 65.613 0 0 1 24.4 4.386 53.252 53.252 0 0 1 19.008 12.657 57.201 57.201 0 0 1 12.337 20.196 77.85 77.85 0 0 1 4.386 27.004zm-5.3 0a76.091 76.091 0 0 0-3.976-25.542 52.681 52.681 0 0 0-11.24-18.871 48.091 48.091 0 0 0-17.363-11.698 59.665 59.665 0 0 0-22.252-4.02h-41.306v120.262h41.306a59.626 59.626 0 0 0 22.252-4.02 48.079 48.079 0 0 0 17.363-11.698 52.665 52.665 0 0 0 11.24-18.871 76.075 76.075 0 0 0 3.976-25.542zm122.911 64.243h-4.113a5.334 5.334 0 0 1-1.782-.275 3.35 3.35 0 0 1-1.508-1.279l-45.326-55.47a8.976 8.976 0 0 0-1.508-1.645 7.179 7.179 0 0 0-1.736-1.05 8.953 8.953 0 0 0-2.285-.595 24.417 24.417 0 0 0-3.244-.182h-18.734v60.496h-5.026V535.383h30.979q20.926 0 31.802 8.132 10.874 8.136 10.874 24.674a32.584 32.584 0 0 1-2.833 13.754 31.89 31.89 0 0 1-7.95 10.692 38.791 38.791 0 0 1-12.428 7.22 56.662 56.662 0 0 1-16.175 3.243 11.853 11.853 0 0 1 3.198 2.742zm-80.236-64.335h24.491a57.454 57.454 0 0 0 16.312-2.148 35.573 35.573 0 0 0 12.337-6.213 27.287 27.287 0 0 0 7.767-9.825 30.257 30.257 0 0 0 2.697-12.976q0-14.893-9.688-21.932-9.687-7.036-27.963-7.037h-25.953zm109.11 64.335h-5.027V535.383h5.027zm134.882-128.486l-53.37 128.486h-4.477L710.71 535.383h3.93a1.937 1.937 0 0 1 2.01 1.553l47.702 115.053q.548 1.463 1.051 2.97.501 1.509.96 3.061a63.208 63.208 0 0 1 1.919-6.031l47.611-115.053a2.049 2.049 0 0 1 2.193-1.553zm99.696 124.191l-.183 4.295h-75.848V535.383h75.848v4.294h-70.822v56.933h59.674v4.203h-59.674v58.761zm115.511 4.295h-4.113a5.334 5.334 0 0 1-1.782-.275 3.35 3.35 0 0 1-1.508-1.279l-45.327-55.47a8.942 8.942 0 0 0-1.508-1.645 7.16 7.16 0 0 0-1.736-1.05 8.944 8.944 0 0 0-2.284-.595 24.416 24.416 0 0 0-3.244-.182h-18.734v60.496h-5.026V535.383h30.98q20.925 0 31.801 8.132 10.874 8.136 10.874 24.674a32.584 32.584 0 0 1-2.833 13.754 31.89 31.89 0 0 1-7.95 10.691 38.791 38.791 0 0 1-12.428 7.22 56.662 56.662 0 0 1-16.176 3.244 11.863 11.863 0 0 1 3.2 2.742zm-80.236-64.335h24.49a57.46 57.46 0 0 0 16.313-2.148 35.573 35.573 0 0 0 12.337-6.213 27.287 27.287 0 0 0 7.767-9.825 30.257 30.257 0 0 0 2.697-12.976q0-14.893-9.688-21.932-9.687-7.036-27.963-7.037h-25.953z"/><rect width="162.077" height="132.176" x="1059.768" y="531.929" class="cls-1" rx="18.152"/><path fill="#f2f2f2" d="M1087.715 639.235h-3.176v-81.184h3.176zm9.295 3.349a1.83 1.83 0 0 1-.866.981 2.684 2.684 0 0 1-1.213.29h-1.155l36.492-86.843a2.075 2.075 0 0 1 1.963-1.27h1.27zm112.94-43.941a50.148 50.148 0 0 1-2.772 17.178 37.748 37.748 0 0 1-7.794 13.05 33.829 33.829 0 0 1-12.01 8.285 42.595 42.595 0 0 1-30.833 0 33.833 33.833 0 0 1-12.011-8.285 37.763 37.763 0 0 1-7.795-13.05 54.529 54.529 0 0 1 0-34.326 37.737 37.737 0 0 1 7.795-13.078 34.488 34.488 0 0 1 12.01-8.344 39.151 39.151 0 0 1 15.36-2.945 39.81 39.81 0 0 1 15.474 2.916 34.18 34.18 0 0 1 12.01 8.314 37.736 37.736 0 0 1 7.794 13.08 50.394 50.394 0 0 1 2.773 17.205zm-3.349 0a49.093 49.093 0 0 0-2.511-16.254 34.915 34.915 0 0 0-7.102-12.212 30.625 30.625 0 0 0-10.97-7.68 38.539 38.539 0 0 0-28.12 0 30.616 30.616 0 0 0-10.972 7.68 35.62 35.62 0 0 0-7.16 12.212 52.697 52.697 0 0 0 0 32.508 34.98 34.98 0 0 0 7.16 12.154 30.924 30.924 0 0 0 10.971 7.623 38.539 38.539 0 0 0 28.12 0 30.933 30.933 0 0 0 10.971-7.623 34.296 34.296 0 0 0 7.102-12.154 49.084 49.084 0 0 0 2.511-16.254z"/><g id="g10"><g id="g129"><path id="path28" d="M524.035 155.553h7.026v-7.027h-7.026z" class="cls-1"/><path id="path30" d="M535.837 155.553h7.027v-7.027h-7.027z" class="cls-1"/><path id="path32" d="M547.64 155.553h7.027v-7.027h-7.027z" class="cls-1"/><path id="path34" d="M559.447 155.553h7.027v-7.027h-7.027z" class="cls-1"/><g id="g36"><g id="g38"><g id="g44"><path id="path46" d="M522.483 91.344V47.799a21.772 21.772 0 1 0-.004 43.545h.004" class="cls-1"/></g><g id="g48"><path id="path50" d="M712.716 69.572a21.769 21.769 0 0 0-21.767-21.77h-.003v43.54a21.769 21.769 0 0 0 21.77-21.767v-.003" class="cls-1"/></g><g id="g52"><path id="path54" d="M574.4 49.907a18.067 18.067 0 1 1-18.071 18.067A18.067 18.067 0 0 1 574.4 49.907m0 40.35a22.283 22.283 0 1 0-22.286-22.283A22.282 22.282 0 0 0 574.4 90.257" class="cls-1"/></g><g id="g56"><path id="path58" d="M574.398 83.093a15.119 15.119 0 1 0-15.118-15.119 15.118 15.118 0 0 0 15.118 15.119" class="cls-1"/></g><g id="g60"><path id="path62" d="M639.033 49.907a18.067 18.067 0 1 1-18.071 18.067 18.067 18.067 0 0 1 18.071-18.067m0 40.35a22.283 22.283 0 1 0-22.286-22.283 22.282 22.282 0 0 0 22.286 22.283" class="cls-1"/></g><g id="g64"><path id="path66" d="M639.03 83.093a15.119 15.119 0 1 0-15.12-15.119 15.118 15.118 0 0 0 15.119 15.119" class="cls-1"/></g><path id="path68" d="M676.26 58.75h-7.026v7.023h7.027z" class="cls-1"/><path id="path70" d="M676.26 68.863h-7.026v7.027h7.027z" class="cls-1"/><g id="g72"><path id="path74" d="M532.53 33.888a12.53 12.53 0 0 1 12.513-12.513h123.34A12.53 12.53 0 0 1 680.9 33.888v54.637a12.53 12.53 0 0 1-12.516 12.513h-123.34a12.53 12.53 0 0 1-12.514-12.513zm12.513 71.365h123.34a16.78 16.78 0 0 0 16.733-16.728V33.888a16.78 16.78 0 0 0-16.732-16.728h-123.34a16.776 16.776 0 0 0-16.729 16.728v54.637a16.776 16.776 0 0 0 16.728 16.728" class="cls-1"/></g><g id="g76"><path id="path78" d="M632.596 295.348h45.49a3.794 3.794 0 0 0 0-7.587h-45.49a3.794 3.794 0 1 0 0 7.587" class="cls-1"/></g><g id="g80"><path id="path82" d="M632.596 306.732h15.188a3.794 3.794 0 0 0 0-7.587h-15.188a3.794 3.794 0 0 0 0 7.587" class="cls-1"/></g><g id="g84"><path id="path86" d="M632.596 283.968h45.49a3.794 3.794 0 0 0 0-7.588h-45.49a3.794 3.794 0 1 0 0 7.588" class="cls-1"/></g><g id="g88"><path id="path90" d="M563.997 233.376c10.21 0 17.526-8.265 17.526-18.474v-.117c0-10.21-7.438-18.592-17.643-18.592-10.21 0-17.531 8.265-17.531 18.475v.117c0 10.21 7.438 18.591 17.648 18.591" class="cls-1"/></g><g id="g92"><path id="path94" d="M764.592 327.07a8.343 8.343 0 0 1-6.253 2.28c-2.969 0-4.877-.803-6.131-2.134a9.445 9.445 0 0 0 5.615-3.296c1.585-2.093 1.92-4.808.996-8.067a225.519 225.519 0 0 0-.823-2.836c-.96-3.235-1.218-4.127-2.315-11.904a31.211 31.211 0 0 0 9.342-3.348 192.957 192.957 0 0 0 2.445 21.77c-.025.815-.287 4.934-2.876 7.536m-14.857-8.717a39.043 39.043 0 0 0-.117-1.852c-.407-4.248-2.739-6.817-6.228-6.873-3.723-.04-5.671 2.065-7.168 4.348a6.12 6.12 0 0 1-.86 1.004 4.465 4.465 0 0 1-1.556-1.883 2.215 2.215 0 0 1 .185-1.82 23.629 23.629 0 0 1 3.873-4.998 33.423 33.423 0 0 0 4.038-5.005 38.822 38.822 0 0 0 6.446.536q1.603 0 3.158-.129c1.142 8.12 1.44 9.136 2.449 12.529.225.762.488 1.654.806 2.787.545 1.916.448 3.385-.29 4.369-.964 1.283-2.953 1.754-4.171 1.892a30.35 30.35 0 0 1-.565-4.905m-22.218-2.764a3.86 3.86 0 0 1-1.944-2.525c-.42-1.932.528-4.63 2.739-7.797a18.155 18.155 0 0 0 3.219-7.58 29.899 29.899 0 0 0 6.833 2.804 40.038 40.038 0 0 1-2.98 3.505 26.351 26.351 0 0 0-4.406 5.773 5.583 5.583 0 0 0-.355 4.44 6.711 6.711 0 0 0 1.412 2.296 8.235 8.235 0 0 1-4.518-.916m-9.947-153.968v-25.437a61.99 61.99 0 0 1 22.525 9.838c13.597 9.572 20.491 22.847 20.491 39.454v83.318h-19.39v-74.552c0-9.814-3.34-19.46-9.923-25.348a35.041 35.041 0 0 0-13.703-7.273m-22.976-1.715H518.83v-20.854a16.776 16.776 0 0 1 16.728-16.728h142.31a16.773 16.773 0 0 1 16.725 16.728zm0 54.162c-3.957-2.929-7.402-3.933-12.517-3.812-6.26.145-11.601 5.05-15.566 9.507-2.925 3.28-5.942 6.672-8.48 6.672-1.629 0-4.17-2.017-6.865-4.155-5.336-4.231-12.658-10.032-24.352-10.592-11.056-.537-19.228 8.06-24.42 16.115v-37.41h92.2zm0 25.219h-89.872a63.377 63.377 0 0 1 4.88-8.624c3.691-5.394 9.609-11.755 16.845-11.4 9.262.448 14.97 4.974 20.008 8.967 3.76 2.977 7.301 5.793 11.577 5.793 5.941 0 10.298-4.897 14.142-9.217 3.05-3.421 6.228-6.612 9.06-6.963 3.51-.44 7.834.363 13.36 6.652zM563.997 193.42c12.512 0 20.713 9.975 20.713 21.246.06.06.06.06 0 .12 0 11.271-8.322 21.363-20.83 21.363-12.513 0-20.718-9.975-20.718-21.245v-.117c0-11.275 8.322-21.367 20.835-21.367m-37.127 45.335h-2.888l19.434-46.34h2.893zm-7.075-44.625h3.07v41.31h-3.07zm174.799 100.3a16.776 16.776 0 0 1-16.724 16.727h-86.968a20.038 20.038 0 1 0-6.805 0H548.89a20.038 20.038 0 1 0-6.668 0h-6.663a16.779 16.779 0 0 1-16.728-16.728v-24.928h175.763zm-13.449 28.107h5.305v46.892h-5.305zm17.059 51.107c1.307.295 10.052 2.614 13.578 11.662h-49.886a24.99 24.99 0 0 0-4.78-10.024 16.767 16.767 0 0 0-1.525-1.638zm14.832 16.652h-50.64a18.645 18.645 0 0 0-.084-2.465h50.264a23.063 23.063 0 0 1 .46 2.465m-58.304-31.262v10.395h-5.76v-46.892h5.76v27.643h-1.968v8.854zm-9.503 26.445c.04-4.348.927-7.64 2.537-9.24a3.007 3.007 0 0 1 2.472-.925c.755.06 2.102.783 3.619 2.638a19.96 19.96 0 0 1 4.332 12.053zm-61.148-90.505a3.803 3.803 0 0 0 5.369 0l11.629-11.634a15.873 15.873 0 1 1-5.329-5.4l-11.67 11.669a3.796 3.796 0 0 0 0 5.365m-25.73 55.206v-27.643h5.76v46.892h-5.76v-10.395h1.968v-8.854zm-3.462 39.825a19.96 19.96 0 0 1 4.333-12.053c1.516-1.855 2.864-2.577 3.618-2.638a3.007 3.007 0 0 1 2.473.924c1.613 1.601 2.5 4.893 2.537 9.241zm-9.334-102.667a3.793 3.793 0 0 0-3.791 3.795v15.624a15.822 15.822 0 1 1 7.587 0v-15.623a3.794 3.794 0 0 0-3.793-3.796h-.003m-18.922 35.199h5.304v46.892h-5.304zm24.55 62.769h-49.886c3.525-9.048 12.27-11.367 13.578-11.662h42.616a16.812 16.812 0 0 0-1.533 1.638 25.039 25.039 0 0 0-4.776 10.024m-.5 4.99h-50.636a22.116 22.116 0 0 1 .456-2.465h50.269a18.648 18.648 0 0 0-.089 2.465m-54.823-228.674a35.025 35.025 0 0 0-13.698 7.273c-6.588 5.889-9.927 15.534-9.927 25.348v74.552h-19.39v-83.318c0-16.607 6.893-29.882 20.49-39.454a61.99 61.99 0 0 1 22.525-9.838zm-10.742 143.646c2.21 3.166 3.163 5.865 2.743 7.797a3.853 3.853 0 0 1-1.948 2.525 8.228 8.228 0 0 1-4.514.916 6.766 6.766 0 0 0 1.408-2.295 5.583 5.583 0 0 0-.355-4.441 26.103 26.103 0 0 0-4.405-5.773 40.038 40.038 0 0 1-2.98-3.505 29.823 29.823 0 0 0 6.832-2.803 18.155 18.155 0 0 0 3.22 7.579m-5.495 7.83a4.407 4.407 0 0 1-1.557 1.883 5.916 5.916 0 0 1-.855-1.004c-1.5-2.283-3.449-4.389-7.172-4.349-3.49.057-5.817 2.626-6.224 6.874-.052.54-.085 1.166-.121 1.851a29.475 29.475 0 0 1-.565 4.906c-1.218-.138-3.207-.61-4.17-1.892-.735-.985-.836-2.453-.295-4.369.323-1.133.585-2.025.81-2.787 1.01-3.393 1.312-4.41 2.45-12.53q1.554.128 3.162.13a38.772 38.772 0 0 0 6.442-.536 33.677 33.677 0 0 0 4.037 5.005 23.628 23.628 0 0 1 3.873 4.998 2.215 2.215 0 0 1 .185 1.82m-24.529 16.252a8.337 8.337 0 0 1-6.252-2.28c-2.59-2.601-2.852-6.72-2.88-7.535a192.006 192.006 0 0 0 2.444-21.77 31.17 31.17 0 0 0 9.342 3.348c-1.093 7.777-1.355 8.669-2.315 11.904-.23.774-.496 1.682-.823 2.836-.924 3.259-.589 5.974.996 8.067a9.445 9.445 0 0 0 5.615 3.296c-1.254 1.33-3.162 2.134-6.127 2.134m314.146-34.638a12.685 12.685 0 0 0 4.413-9.197c0-4.417-2.735-8.423-7.164-11.36v-88.678c0-40.76-37.704-53.419-48.918-55.25v-1.714a16.779 16.779 0 0 0-16.728-16.728H512.586a16.782 16.782 0 0 0-16.728 16.728v1.714c-11.218 1.831-48.917 14.49-48.917 55.25v88.679c-4.433 2.936-7.164 6.942-7.164 11.359a12.685 12.685 0 0 0 4.413 9.197c.294 6.486-1.581 19.414-2.416 24.311l-.029.327c-.004.262-.028 6.514 4.078 10.665a12.501 12.501 0 0 0 9.27 3.55c12.049 0 12.561-10.129 12.807-14.998.033-.617.06-1.173.11-1.662.189-2.012.899-3.041 2.097-3.061h.113c1.282 0 2.113.387 3.48 2.473 3.8 5.619 10.678 5.078 14.357 2.908a8.05 8.05 0 0 0 3.92-5.264c.683-3.155-.463-6.894-3.404-11.11a12.462 12.462 0 0 1-2.59-8.147 12.673 12.673 0 0 0 4.406-9.19c0-4.424-2.747-8.442-7.197-11.379v-79.892c0-6.656 2.053-9.193 6.273-12.965a12.651 12.651 0 0 1 6.393-2.985V305.81a16.779 16.779 0 0 0 16.728 16.728h11.517v46.892h-9.641l-.194.036c-.165.029-16.502 3.256-18.458 20.819v17.994h58.255l17.914-6.256V388.4c.44-7.031-.814-12.247-3.654-15.103v-50.76h76.428v50.76c-2.836 2.856-4.099 8.072-3.651 15.103v13.622l17.914 6.256h58.256v-17.994c-1.957-17.563-18.298-20.79-18.467-20.819l-.186-.036h-9.64v-46.892h11.863a16.776 16.776 0 0 0 16.728-16.728V178.3a12.667 12.667 0 0 1 6.398 2.977c4.219 3.772 6.268 6.309 6.268 12.965v79.892c-4.45 2.937-7.196 6.955-7.196 11.38a12.693 12.693 0 0 0 4.409 9.189 12.493 12.493 0 0 1-2.594 8.148c-2.94 4.215-4.086 7.954-3.4 11.109a8.032 8.032 0 0 0 3.916 5.264c3.675 2.17 10.56 2.71 14.356-2.909 1.368-2.085 2.199-2.472 3.478-2.472h.117c1.198.02 1.904 1.049 2.101 3.061.049.489.073 1.045.101 1.662.25 4.87.762 14.998 12.815 14.998a12.492 12.492 0 0 0 9.266-3.55c4.11-4.15 4.082-10.403 4.082-10.665l-.032-.327c-.831-4.897-2.707-17.825-2.416-24.311" class="cls-1"/></g></g></g></g></g></svg>