<svg xmlns="http://www.w3.org/2000/svg" role="img" viewBox="17.56 15.06 389.88 464.88"><title>Webhint.io logo</title><path fill="#fff" d="M396.975 396.512h-43.72a12.093 12.093 0 0 1-7.675-21.627 211.161 211.161 0 0 0 77.442-162.79A212.092 212.092 0 0 0 213.023.003 211.627 211.627 0 0 0 77.21 374.885a12.093 12.093 0 0 1-7.674 21.627H25.582a25.814 25.814 0 0 0-25.58 25.582v52.092A25.581 25.581 0 0 0 25.581 500H397.44a25.581 25.581 0 0 0 25.582-25.581v-52.325a25.814 25.814 0 0 0-25.582-25.814z"/><g fill="#4700a3"><path d="M211.395 24.422a186.045 186.045 0 1 0 187.208 186.045A186.045 186.045 0 0 0 211.395 24.422zm164.418 186.045a165.58 165.58 0 0 1-165.348 165.348A164.185 164.185 0 0 1 46.047 210.467 165.58 165.58 0 0 1 211.395 45.119c90.697.93 164.418 74.65 164.418 165.348z"/><path d="M302.092 166.979l5.582-11.395 18.139-29.303-41.86 24.651c-.698.93-1.628.93-2.558 1.86a13.256 13.256 0 0 0 0 17.908 8.14 8.14 0 0 0 5.581 2.79 13.72 13.72 0 0 0 12.325-2.79 13.256 13.256 0 0 0 2.791-3.721z"/><path d="M296.51 183.955a18.14 18.14 0 0 1-7.674.93 20.93 20.93 0 0 1-20.93-20.93 15.814 15.814 0 0 1 1.163-6.511 55.348 55.348 0 0 0-33.953-8.372c-64.418 0-74.65 30.232-74.65 67.907a45.814 45.814 0 0 1-4.652 27.441 25.116 25.116 0 0 1-23.72 13.256c-3.722 0-17.908-1.86-18.838-6.512h1.86a27.674 27.674 0 0 0 27.442-28.372v-7.674H129.07a29.535 29.535 0 0 0-23.488 12.326 30.465 30.465 0 0 0-24.651-11.396H67.675v5.814a29.535 29.535 0 0 0 29.302 29.302h4.651c0 9.303 13.256 47.21 110.697 47.21 37.674 0 94.418-6.745 94.418-78.605a68.837 68.837 0 0 0-10.232-35.814z"/></g><path fill="#18186d" d="M83.256 464.419l-9.767-25.814h-4.884l-9.767 25.814-9.535-25.814h-5.581l12.093 32.325h5.581l9.535-24.65 9.535 24.65h5.581l12.093-32.325h-5.349zm41.628-24.186a16.279 16.279 0 0 0-8.372-2.093 16.279 16.279 0 0 0-8.372 2.325 15.116 15.116 0 0 0-5.814 5.814 18.14 18.14 0 0 0 0 16.977 15.349 15.349 0 0 0 6.046 6.047 19.302 19.302 0 0 0 9.303 2.093 18.837 18.837 0 0 0 7.209-1.396 13.953 13.953 0 0 0 5.581-3.953l-3.255-3.721a12.093 12.093 0 0 1-9.303 3.953 12.326 12.326 0 0 1-8.14-2.79 10 10 0 0 1-3.72-6.977h26.279v-1.628a18.14 18.14 0 0 0-2.093-8.837 14.884 14.884 0 0 0-5.349-5.814zm-18.605 12.325a10.465 10.465 0 0 1 3.256-6.976 11.163 11.163 0 0 1 13.954 0 10.465 10.465 0 0 1 3.488 6.976zm60-12.325a16.977 16.977 0 0 0-8.372-2.093 15.581 15.581 0 0 0-6.512 1.395 12.558 12.558 0 0 0-4.65 3.954v-17.907h-6.047v45.348h5.581v-5.116a12.79 12.79 0 0 0 4.884 3.954 15.581 15.581 0 0 0 6.744 1.628 16.977 16.977 0 0 0 8.372-2.326 15.116 15.116 0 0 0 5.814-5.814 17.442 17.442 0 0 0 2.326-8.605 17.442 17.442 0 0 0-2.326-8.604 14.884 14.884 0 0 0-5.814-5.814zm.698 20.465a10.232 10.232 0 0 1-3.954 4.186 11.628 11.628 0 0 1-11.162 0 10.232 10.232 0 0 1-3.954-4.186 13.488 13.488 0 0 1 0-11.86 10 10 0 0 1 3.954-3.954 11.628 11.628 0 0 1 11.162 0 10 10 0 0 1 3.954 3.954 13.023 13.023 0 0 1 0 11.86zm32.79-22.326a16.977 16.977 0 0 0-6.744 1.163 12.326 12.326 0 0 0-4.651 3.489v-17.442h-6.047v45.348h6.047v-16.744a10.93 10.93 0 0 1 2.79-7.907 10 10 0 0 1 7.442-2.79 8.605 8.605 0 0 1 6.512 2.325 10 10 0 0 1 2.326 6.977v18.14h5.814v-18.605a13.953 13.953 0 0 0-3.489-10.465 13.488 13.488 0 0 0-10-3.721zm24.419.233H230v32.558h-5.814zm3.023-14.186a3.953 3.953 0 0 0-3.023 1.395 3.72 3.72 0 0 0-.93 2.559 3.72 3.72 0 0 0 .93 2.79 3.953 3.953 0 0 0 3.023 1.163 3.953 3.953 0 0 0 2.79-1.163 3.72 3.72 0 0 0 1.163-2.79 3.488 3.488 0 0 0-1.162-2.791 3.953 3.953 0 0 0-2.791-.93zm31.395 13.953a16.512 16.512 0 0 0-6.977 1.163 11.628 11.628 0 0 0-4.65 3.954v-5.117h-5.815v32.558h5.814v-16.744a10.93 10.93 0 0 1 2.79-8.14 10 10 0 0 1 7.675-2.79 8.605 8.605 0 0 1 6.512 2.326 10 10 0 0 1 2.325 6.976v18.14h5.814v-18.605a14.186 14.186 0 0 0-3.72-10.465 13.488 13.488 0 0 0-9.768-3.72zm36.279 27.907a4.884 4.884 0 0 1-3.954-1.395 5.581 5.581 0 0 1-1.162-3.954v-17.674h9.302v-4.651h-9.302v-7.21h-5.814v6.977h-5.582v4.884h5.582v17.907a10 10 0 0 0 2.558 7.442 10.465 10.465 0 0 0 7.674 2.79 13.256 13.256 0 0 0 3.954-.697 8.372 8.372 0 0 0 3.023-1.628l-1.628-4.186a6.977 6.977 0 0 1-4.651 1.628z"/><path fill="#4046dd" d="M310.464 463.023a4.186 4.186 0 0 0-3.023 1.163 3.953 3.953 0 0 0-1.163 3.024 4.186 4.186 0 0 0 4.186 4.186 3.953 3.953 0 0 0 2.79-1.163 4.186 4.186 0 0 0 1.164-3.023 3.953 3.953 0 0 0-1.163-3.024 3.72 3.72 0 0 0-2.79-1.163zm15.349-38.604a3.72 3.72 0 0 0-2.79 1.395 3.72 3.72 0 0 0-1.164 2.559 3.488 3.488 0 0 0 1.163 2.79 3.953 3.953 0 0 0 2.791 1.163 3.953 3.953 0 0 0 2.79-1.163 3.953 3.953 0 0 0 1.163-2.79 3.488 3.488 0 0 0-1.162-2.791 4.186 4.186 0 0 0-2.791-.93zm-3.023 14.186h5.814v32.558h-5.814zm45.813 7.674a15.581 15.581 0 0 0-6.046-6.046 18.837 18.837 0 0 0-17.442 0 15.581 15.581 0 0 0-6.046 6.046 17.907 17.907 0 0 0 0 16.977 15.581 15.581 0 0 0 6.046 6.047 18.605 18.605 0 0 0 17.442 0 15.581 15.581 0 0 0 6.046-6.047 17.907 17.907 0 0 0 0-16.977zm-5.116 14.419a10 10 0 0 1-3.953 4.186 11.628 11.628 0 0 1-11.163 0 10.465 10.465 0 0 1-3.954-4.186 13.023 13.023 0 0 1 0-11.86 10.232 10.232 0 0 1 3.954-3.954 11.628 11.628 0 0 1 11.163 0 9.767 9.767 0 0 1 3.953 3.954 13.256 13.256 0 0 1 0 11.86z"/></svg>