<svg xmlns="http://www.w3.org/2000/svg" role="img" viewBox="-26.50 48.50 1281.00 1378.00"><title>webpack logo</title><g stroke-width=".571"><path fill="#fff" d="M614.366 0l472.236 267.112V801.46l-472.236 267.112L142.13 801.46V267.112z"/><path fill="#8ed6fb" d="M1002.283 783.033L629.985 993.648V829.647l231.969-127.638zm25.503-23.062V319.583l-136.18 78.706v283.098zm-802.802 23.062l372.298 210.615V829.647L365.191 702.009zm-25.503-23.062V319.583l136.18 78.706v283.098zm15.985-468.942L597.282 75.045v158.51L352.622 368.15l-1.952 1.098zm796.335 0L629.985 75.045v158.51l244.66 134.472 1.952 1.098z"/><path fill="#1c78c0" d="M597.282 792.307l-228.918-125.93V417.082l228.918 132.153zm32.703 0L858.903 666.5V417.08L629.985 549.235zM383.86 388.283l229.772-126.296 229.773 126.296-229.773 132.641z"/></g><path fill="#2c3a42" stroke-width=".571" d="M153.934 1343.337h47.105l48.019-159.986h-45.906l-28.435 113.509-30.318-113.51h-39.74l-30.604 113.51-28.149-113.51H0l47.733 159.987h47.105l29.691-102.49zm97.58-79.537c0 48.02 32.716 83.534 84.16 83.534 39.797 0 61.209-23.867 67.318-35.172l-27.864-21.126c-4.567 6.737-17.129 19.584-38.883 19.584-23.58 0-40.71-15.302-41.624-36.713h112.653c.286-3.084.286-6.11.286-9.193 0-52.301-28.15-85.36-77.71-85.36-45.62 0-78.337 36.085-78.337 84.446zm44.364-17.471c1.827-18.329 14.674-32.432 34.6-32.432 19.3 0 33.345 12.847 34.259 32.432zm127.612 97.008h39.797v-16.501c4.282 5.196 20.212 20.498 47.447 20.498 45.906 0 78.338-34.544 78.338-83.82 0-49.56-29.976-84.103-75.883-84.103-27.52 0-43.45 15.302-47.447 20.783v-78.052h-42.195v221.195zm40.996-79.537c0-29.976 17.757-47.105 40.995-47.105 24.495 0 40.996 19.3 40.996 47.105 0 28.435-17.13 46.192-40.996 46.192-25.693 0-40.995-20.84-40.995-46.192zm141.03 136.748h42.194v-73.77c3.997 5.196 19.87 20.499 47.448 20.499 45.906 0 75.882-34.544 75.882-84.105 0-48.932-32.43-83.818-78.337-83.818-27.235 0-43.165 15.302-47.448 20.783v-16.844H605.46v217.255zm40.995-137.661c0-25.408 15.302-46.192 40.996-46.192 23.867 0 40.996 17.757 40.996 46.192 0 27.863-16.501 47.105-40.996 47.105-23.238 0-40.996-17.13-40.996-47.105zm132.18 30.89c0 33.63 27.521 53.557 59.952 53.557 18.386 0 30.604-5.482 38.884-14.389l2.74 10.392h37.342v-101.29c0-35.8-15.302-62.693-66.69-62.693-24.494 0-48.647 9.192-63.035 18.956l15.93 28.777a94.325 94.325 0 0 1 42.538-11.305c18.67 0 29.062 9.478 29.062 23.58v10.392c-5.824-3.996-18.385-8.85-34.601-8.85-37.341-.057-62.122 21.355-62.122 52.872zm42.195-1.257c0-13.132 11.305-22.325 27.521-22.325s27.863 8.28 27.863 22.325c0 13.475-11.647 22.04-27.52 22.04s-27.864-8.85-27.864-22.04zm199.212 17.472c-26.607 0-45.563-19.299-45.563-46.477 0-25.694 16.843-46.82 44.079-46.82a54.357 54.357 0 0 1 37.341 15.302l11.934-35.514a81.42 81.42 0 0 0-50.474-17.13c-48.647 0-85.075 35.8-85.075 84.447 0 48.647 35.514 83.534 85.36 83.534a80.507 80.507 0 0 0 49.846-17.13l-11.305-34.543c-7.08 5.766-19.927 14.331-36.143 14.331zm63.32 33.345h42.196v-82.62l53.557 82.62h49.56l-60.58-87.53 56.298-72.514h-47.448l-51.387 67.318v-128.469h-42.195z"/></svg>