<svg xmlns="http://www.w3.org/2000/svg" role="img" viewBox="-4.02 -2.27 404.30 138.80"><defs><style>.cls-1{fill:none}.cls-5{fill:#d2e4f4}.cls-7{fill:#fc0}</style><clipPath id="clip-path"><path d="M108.355 98.034l-51.863 30.703L3.838 96.941l1.205-61.5L58.908 5.737l52.654 31.797-3.207 60.5z" class="cls-1"/></clipPath><clipPath id="clip-path-2"><path d="M84.367 8.306l-64.845 6.647-26.667 59.48 38.178 51.737 63.748-6.282 27.764-58.747L84.367 8.306z" class="cls-1"/></clipPath><clipPath id="clip-path-3"><path d="M-10.146.881h130.194v130.194H-10.146z" class="cls-1"/></clipPath><linearGradient id="linear-gradient" x1="15.325" x2="99.625" y1="292.112" y2="376.412" gradientTransform="translate(0 -267)" gradientUnits="userSpaceOnUse"><stop offset=".214" stop-color="#2475bb"/><stop offset=".707" stop-color="#80bd42"/><stop offset="1" stop-color="#fce01d"/></linearGradient></defs><g clip-path="url(#clip-path)"><g clip-path="url(#clip-path-2)"><g clip-path="url(#clip-path-3)"><path d="M-8.654 47.766V93.75C2.069 85.087 12.78 76.427 23.438 67.667c2.846-2.319 4.743-2.319 7.377.422C41.25 78.838 52.104 89.27 62.642 99.915c2.213 2.318 4.005 2.318 6.429.422 5.796-4.637 11.802-8.959 17.494-13.7 3.056-2.53 5.374-2.424 8.43-.106 10.024 7.518 20.146 14.845 30.361 22.163V-.062H-8.709v28.703h-27.95v19.125zm92.9-31.948a21.056 21.056 0 0 1 21.29 20.819q.002.286-.002.573a21.34 21.34 0 0 1-42.681-.086v-.02A21.12 21.12 0 0 1 83.8 15.816q.222-.001.445.001z" class="cls-5"/><ellipse cx="83.318" cy="38.027" class="cls-5" rx="29.38" ry="31.589"/><path fill="#43af5a" d="M96.672 116.735h27.457V92.758c-9.726-6.968-19.365-13.943-28.909-21.102-2.91-2.207-5.118-2.308-8.027.101-5.419 4.515-11.139 8.629-16.658 13.045-2.308 1.806-4.013 1.806-6.12-.401C54.379 74.266 44.044 64.33 34.11 54.096c-2.508-2.61-4.314-2.61-7.024-.401C16.938 62.036 6.739 70.282-3.473 78.53v49.38l73.323 3.165 8.644 10.692h18.178z"/><path d="M73.085 64.037a16.92 16.92 0 1 0-.17 0z" class="cls-7"/></g><path d="M202.81 17.422a18.933 18.933 0 0 0 18.744-19.12 18.933 18.933 0 0 0-19.12-18.744 18.933 18.933 0 0 0-18.744 18.93 18.933 18.933 0 0 0 18.931 18.935l.189-.001z" class="cls-7"/></g></g><path fill="url(#linear-gradient)" d="M110.4 36.237l-52.7-30.5-.4-.2-.3.2-52.4 30.3-.3.2-.3.2v61.6l.4.2 52.6 30.5.4.2.4-.2 52-30 .7-.4.4-.2v-61.7zm-58.3-22.8l-12.9 22.3H13.4zm-15 26l-6 10.5-18.2-10.5zm-4.7 15.5l21.3 12.3-21.3 12.3-7.1-12.3zm-3.2-1.8l-6 10.5-12.1-21zm-21-8.2l12.9 22.3-12.9 22.3zm15 26l6 10.5-18.1 10.5zm7.8 13.6l6 10.5H12.9zm-17.6 14.2h25.8l12.9 22.3zm42.1 20.9l-12-20.9h12.1v20.9zm0-24.6H41.3l-7.1-12.3 21.3-12.3v24.6zm0-31l-21.3-12.3 7.1-12.3h14.2zm0-28.3h-12l12.1-20.9v20.9zm30 17.4l18.1-10.5-12.1 20.9zm3.9 14.1l-7.1 12.3-21.3-12.3 21.3-12.3zm-5.7-17.3l-6-10.5h24.2zm17.6-14.2H75.5l-12.9-22.3zm-42.1-20.9l12.1 20.9H59.2zm0 24.6h14.2l7.1 12.3-21.3 12.3zm0 31l21.3 12.3-7.1 12.3H59.2zm0 28.3h12.1l-12.1 20.9zm3.4 22.3l12.9-22.3h25.8zm15-26l6-10.5 18.1 10.5zm7.9-13.7l6-10.5 12.1 20.9zm21.1 8.2l-12.9-22.3 12.9-22.3z"/><path d="M128.96 74.299h3.74v36.73h18.706v3.401H128.96zm47.726 29.135q0 1.927.028 3.457.028 1.531.085 2.835.056 1.304.142 2.437.085 1.134.255 2.267h-3.174a24.525 24.525 0 0 1-.34-4.251h-.113a9.564 9.564 0 0 1-3.656 3.741 11.457 11.457 0 0 1-5.527 1.19 13.33 13.33 0 0 1-3.344-.424 8.763 8.763 0 0 1-2.948-1.362 6.99 6.99 0 0 1-2.947-5.98 7 7 0 0 1 1.53-4.76 9.559 9.559 0 0 1 3.77-2.636 17.906 17.906 0 0 1 4.761-1.133q2.522-.256 4.45-.256h3.967v-1.587q0-3.4-2.097-4.874a8.955 8.955 0 0 0-5.272-1.475 11.958 11.958 0 0 0-7.992 2.948l-1.984-2.324a12.12 12.12 0 0 1 4.649-2.75 16.686 16.686 0 0 1 5.327-.934 11.917 11.917 0 0 1 7.596 2.24q2.834 2.239 2.834 7.225zm-6.802-2.154a29.8 29.8 0 0 0-4.166.283 14.564 14.564 0 0 0-3.628.964 6.753 6.753 0 0 0-2.579 1.813 4.223 4.223 0 0 0-.964 2.835 4.173 4.173 0 0 0 .54 2.125 4.713 4.713 0 0 0 1.388 1.531 6.52 6.52 0 0 0 1.898.907 7.426 7.426 0 0 0 2.126.311 10.918 10.918 0 0 0 4.478-.793 7.619 7.619 0 0 0 2.806-2.069 7.197 7.197 0 0 0 1.445-2.89 13.649 13.649 0 0 0 .397-3.26v-1.757zm15.871-5.668q0-.736-.057-1.786-.057-1.048-.085-2.125-.029-1.077-.085-2.013-.057-.934-.057-1.445h3.401q.056 1.475.085 2.835a8.827 8.827 0 0 0 .142 1.757h.17a9.176 9.176 0 0 1 3.4-3.713 9.908 9.908 0 0 1 5.556-1.56 11.163 11.163 0 0 1 4.987.965 8.018 8.018 0 0 1 3.032 2.521 9.486 9.486 0 0 1 1.531 3.6 20.42 20.42 0 0 1 .425 4.195v15.587h-3.4V99.013a16.607 16.607 0 0 0-.283-3.09 8.19 8.19 0 0 0-.993-2.691 5.187 5.187 0 0 0-1.983-1.9 6.803 6.803 0 0 0-3.316-.709 9.678 9.678 0 0 0-3.543.653 7.62 7.62 0 0 0-2.89 1.984 9.613 9.613 0 0 0-1.928 3.343 14.248 14.248 0 0 0-.708 4.733v13.094h-3.401zm54.415 14.227h-.114a8.829 8.829 0 0 1-1.984 2.352 11.935 11.935 0 0 1-2.579 1.644 12.932 12.932 0 0 1-2.92.964 15.105 15.105 0 0 1-3.003.312 14.814 14.814 0 0 1-5.555-1.021 12.61 12.61 0 0 1-4.365-2.862 13.168 13.168 0 0 1-2.833-4.365 15.467 15.467 0 0 1 0-11.052 13.188 13.188 0 0 1 2.833-4.366 12.61 12.61 0 0 1 4.365-2.861 14.814 14.814 0 0 1 5.555-1.021 15.033 15.033 0 0 1 3.004.312 12.932 12.932 0 0 1 2.92.963 12.01 12.01 0 0 1 2.578 1.644 8.829 8.829 0 0 1 1.984 2.353h.113V71.579h3.401v42.851h-3.4zm.34-8.503a10.338 10.338 0 0 0-.85-4.165 10.658 10.658 0 0 0-2.325-3.401 11.192 11.192 0 0 0-3.458-2.296 10.827 10.827 0 0 0-4.307-.85 10.566 10.566 0 0 0-4.308.85 10.001 10.001 0 0 0-3.287 2.296 9.72 9.72 0 0 0-2.07 3.4 12.596 12.596 0 0 0 0 8.333 9.72 9.72 0 0 0 2.07 3.4 9.984 9.984 0 0 0 3.287 2.296 10.55 10.55 0 0 0 4.308.85 10.81 10.81 0 0 0 4.307-.85 11.172 11.172 0 0 0 3.458-2.295 10.658 10.658 0 0 0 2.324-3.401 10.34 10.34 0 0 0 .85-4.167zm11.45 6.405a7.311 7.311 0 0 0 3.174 3.203 9.345 9.345 0 0 0 4.42 1.105 7.133 7.133 0 0 0 2.154-.34 6.582 6.582 0 0 0 1.928-.964 5.26 5.26 0 0 0 1.388-1.501 3.773 3.773 0 0 0 .539-2.013 3.239 3.239 0 0 0-1.162-2.72 8.624 8.624 0 0 0-2.862-1.417 34.377 34.377 0 0 0-3.742-.88 15.974 15.974 0 0 1-3.74-1.132 8.048 8.048 0 0 1-2.863-2.126 5.758 5.758 0 0 1-1.162-3.854 6.734 6.734 0 0 1 .794-3.345 7.297 7.297 0 0 1 2.069-2.352 8.96 8.96 0 0 1 2.863-1.389 11.733 11.733 0 0 1 3.23-.453 12.226 12.226 0 0 1 5.583 1.19 8.26 8.26 0 0 1 3.657 3.741l-3.061 1.814a7.207 7.207 0 0 0-2.41-2.749 6.83 6.83 0 0 0-3.77-.936 6.93 6.93 0 0 0-1.898.284 6.647 6.647 0 0 0-1.785.794 4.6 4.6 0 0 0-1.333 1.303 3.156 3.156 0 0 0-.538 1.814 3.015 3.015 0 0 0 1.162 2.607 8.877 8.877 0 0 0 2.863 1.332 34.38 34.38 0 0 0 3.74.822 15.184 15.184 0 0 1 3.742 1.106 7.65 7.65 0 0 1 2.862 2.21 6.414 6.414 0 0 1 1.162 4.11 7.71 7.71 0 0 1-.765 3.543 7.347 7.347 0 0 1-2.097 2.522 9.363 9.363 0 0 1-3.033 1.53 12.36 12.36 0 0 1-3.571.51 14.553 14.553 0 0 1-6.206-1.303 9.419 9.419 0 0 1-4.336-4.025zm46.025 2.835a12.25 12.25 0 0 1-4.364 3.43 12.612 12.612 0 0 1-5.272 1.105 14.814 14.814 0 0 1-5.555-1.021 12.61 12.61 0 0 1-4.365-2.862 13.168 13.168 0 0 1-2.833-4.365 15.467 15.467 0 0 1 0-11.052 13.188 13.188 0 0 1 2.833-4.366 12.61 12.61 0 0 1 4.365-2.861 14.814 14.814 0 0 1 5.555-1.021 12.157 12.157 0 0 1 5.357 1.19 14.093 14.093 0 0 1 4.392 3.345l-2.72 2.04a11.797 11.797 0 0 0-3.232-2.579 7.956 7.956 0 0 0-3.797-.936 10.566 10.566 0 0 0-4.308.85 10.001 10.001 0 0 0-3.287 2.297 9.72 9.72 0 0 0-2.07 3.4 12.596 12.596 0 0 0 0 8.333 9.72 9.72 0 0 0 2.07 3.4 9.984 9.984 0 0 0 3.287 2.296 10.55 10.55 0 0 0 4.308.85 7.962 7.962 0 0 0 3.939-.991 10.286 10.286 0 0 0 3.09-2.636zm25.675-7.142q0 1.927.028 3.457.028 1.531.085 2.835.056 1.304.143 2.437.084 1.134.254 2.267h-3.174a24.477 24.477 0 0 1-.34-4.251h-.113a9.555 9.555 0 0 1-3.657 3.741 11.453 11.453 0 0 1-5.526 1.19 13.325 13.325 0 0 1-3.344-.424 8.758 8.758 0 0 1-2.947-1.362 6.993 6.993 0 0 1-2.948-5.98 7.003 7.003 0 0 1 1.53-4.76 9.564 9.564 0 0 1 3.77-2.636 17.907 17.907 0 0 1 4.76-1.133q2.522-.256 4.451-.256h3.967v-1.587q0-3.4-2.097-4.874a8.953 8.953 0 0 0-5.271-1.475 11.96 11.96 0 0 0-7.993 2.948l-1.984-2.324a12.124 12.124 0 0 1 4.648-2.75 16.694 16.694 0 0 1 5.329-.934 11.914 11.914 0 0 1 7.595 2.24q2.834 2.239 2.834 7.225zm-6.802-2.154a29.818 29.818 0 0 0-4.166.283 14.566 14.566 0 0 0-3.627.964 6.753 6.753 0 0 0-2.58 1.813 4.225 4.225 0 0 0-.963 2.835 4.173 4.173 0 0 0 .538 2.125 4.713 4.713 0 0 0 1.389 1.531 6.523 6.523 0 0 0 1.9.907 7.418 7.418 0 0 0 2.125.311 10.919 10.919 0 0 0 4.477-.793 7.625 7.625 0 0 0 2.807-2.069 7.215 7.215 0 0 0 1.445-2.89 13.624 13.624 0 0 0 .396-3.26v-1.757zm15.135-13.037h3.4v4.592h.114a8.81 8.81 0 0 1 1.984-2.353 11.985 11.985 0 0 1 2.58-1.644 12.916 12.916 0 0 1 2.919-.963 15.026 15.026 0 0 1 3.004-.312 14.594 14.594 0 0 1 5.525 1.02 12.814 12.814 0 0 1 7.227 7.228 15.467 15.467 0 0 1 0 11.052 12.814 12.814 0 0 1-7.227 7.227 14.594 14.594 0 0 1-5.525 1.02 15.097 15.097 0 0 1-3.004-.311 12.916 12.916 0 0 1-2.92-.964 11.91 11.91 0 0 1-2.579-1.643 8.81 8.81 0 0 1-1.984-2.353h-.113v17.515h-3.401zm3.06 13.093a10.34 10.34 0 0 0 .85 4.167 10.656 10.656 0 0 0 2.324 3.4 11.16 11.16 0 0 0 3.458 2.296 10.811 10.811 0 0 0 4.309.85 10.553 10.553 0 0 0 4.307-.85 9.994 9.994 0 0 0 3.287-2.295 9.749 9.749 0 0 0 2.07-3.401 12.596 12.596 0 0 0 0-8.332 9.749 9.749 0 0 0-2.07-3.401 10.011 10.011 0 0 0-3.287-2.296 10.57 10.57 0 0 0-4.307-.85 10.828 10.828 0 0 0-4.31.85 11.18 11.18 0 0 0-3.457 2.296 10.656 10.656 0 0 0-2.323 3.4 10.338 10.338 0 0 0-.85 4.166zm55.435 8.162a11.47 11.47 0 0 1-4.903 4.31 15.604 15.604 0 0 1-6.434 1.303 13.953 13.953 0 0 1-5.441-1.021 12.255 12.255 0 0 1-4.194-2.862 12.57 12.57 0 0 1-2.693-4.365 15.96 15.96 0 0 1-.935-5.583 14.97 14.97 0 0 1 .963-5.441 12.993 12.993 0 0 1 2.721-4.337 12.79 12.79 0 0 1 4.138-2.89 12.939 12.939 0 0 1 5.272-1.05 12.637 12.637 0 0 1 5.299 1.05 11.614 11.614 0 0 1 3.854 2.777 11.79 11.79 0 0 1 2.353 3.939 13.185 13.185 0 0 1 .793 4.478v2.38h-21.992a11.615 11.615 0 0 0 .425 2.75 9.711 9.711 0 0 0 1.559 3.259 9.857 9.857 0 0 0 3.032 2.721 9.453 9.453 0 0 0 4.903 1.133 10.955 10.955 0 0 0 5.045-1.246 9.091 9.091 0 0 0 3.741-3.4zm-2.608-10.372a7.733 7.733 0 0 0-.708-3.287 8.806 8.806 0 0 0-1.928-2.693 9.142 9.142 0 0 0-2.89-1.842 9.319 9.319 0 0 0-3.543-.68 8.668 8.668 0 0 0-4.619 1.133 10.11 10.11 0 0 0-2.92 2.608 10.362 10.362 0 0 0-1.53 2.862 7.545 7.545 0 0 0-.453 1.899z" opacity=".5"/><path fill="#55575b" d="M150.984 62.508a24.85 24.85 0 0 1-9.7-1.855 22.574 22.574 0 0 1-7.585-5.111 23.595 23.595 0 0 1-4.949-7.683 25.271 25.271 0 0 1-1.79-9.57 25.277 25.277 0 0 1 1.79-9.571 23.616 23.616 0 0 1 4.949-7.683 22.59 22.59 0 0 1 7.585-5.111 26.287 26.287 0 0 1 19.402 0 22.61 22.61 0 0 1 7.585 5.111 23.648 23.648 0 0 1 4.948 7.683 25.296 25.296 0 0 1 1.79 9.57 25.29 25.29 0 0 1-1.79 9.571 23.627 23.627 0 0 1-4.948 7.683 22.593 22.593 0 0 1-7.585 5.11 24.855 24.855 0 0 1-9.702 1.856zm0-5.86a16.757 16.757 0 0 0 12.631-5.403 17.366 17.366 0 0 0 3.516-5.828 21.165 21.165 0 0 0 0-14.258 17.39 17.39 0 0 0-3.516-5.827 17.266 17.266 0 0 0-25.261 0 17.365 17.365 0 0 0-3.516 5.827 21.165 21.165 0 0 0 0 14.258 17.341 17.341 0 0 0 3.516 5.828 16.759 16.759 0 0 0 12.63 5.404zm31.512-26.172h5.86v4.427h.13a11.162 11.162 0 0 1 4.655-3.841 14.378 14.378 0 0 1 6.088-1.368 16.357 16.357 0 0 1 6.477 1.237 14.33 14.33 0 0 1 4.948 3.45 15.534 15.534 0 0 1 3.158 5.177 18.007 18.007 0 0 1 1.107 6.348 18.188 18.188 0 0 1-1.107 6.413 15.158 15.158 0 0 1-3.158 5.143 14.51 14.51 0 0 1-4.948 3.419 16.357 16.357 0 0 1-6.477 1.237 14.316 14.316 0 0 1-6.251-1.4 10.678 10.678 0 0 1-4.493-3.809h-.13v22.787h-5.86zm16.016 4.687a10.596 10.596 0 0 0-4.232.814 9.345 9.345 0 0 0-3.19 2.214 9.764 9.764 0 0 0-2.019 3.385 13.453 13.453 0 0 0 0 8.66 9.746 9.746 0 0 0 2.019 3.385 9.318 9.318 0 0 0 3.19 2.214 11.408 11.408 0 0 0 8.464 0 9.341 9.341 0 0 0 3.19-2.214 9.784 9.784 0 0 0 2.02-3.385 13.453 13.453 0 0 0 0-8.66 9.802 9.802 0 0 0-2.02-3.385 9.368 9.368 0 0 0-3.19-2.214 10.603 10.603 0 0 0-4.232-.814zm28.191 12.892a7.736 7.736 0 0 0 .879 3.678 9.15 9.15 0 0 0 2.312 2.832 10.655 10.655 0 0 0 3.32 1.823 11.885 11.885 0 0 0 3.906.652 8.736 8.736 0 0 0 4.753-1.27 15.306 15.306 0 0 0 3.711-3.353l4.428 3.385q-4.884 6.316-13.673 6.316a17.01 17.01 0 0 1-6.609-1.237 14.36 14.36 0 0 1-5.012-3.419 15.143 15.143 0 0 1-3.158-5.143 18.166 18.166 0 0 1-1.107-6.413 16.855 16.855 0 0 1 1.204-6.413 15.911 15.911 0 0 1 3.32-5.143 15.157 15.157 0 0 1 5.046-3.419 16.253 16.253 0 0 1 6.381-1.237 15.253 15.253 0 0 1 6.934 1.433 13.721 13.721 0 0 1 4.655 3.743 14.8 14.8 0 0 1 2.637 5.209 21.681 21.681 0 0 1 .814 5.892v2.084zm18.49-4.688a12.373 12.373 0 0 0-.618-3.581 7.901 7.901 0 0 0-1.66-2.832 7.656 7.656 0 0 0-2.768-1.889 10.125 10.125 0 0 0-3.873-.683 9.409 9.409 0 0 0-3.939.814 9.595 9.595 0 0 0-3.027 2.116 9.78 9.78 0 0 0-1.921 2.897 7.967 7.967 0 0 0-.684 3.158zm13.283-12.891h5.859v4.753h.13a8.636 8.636 0 0 1 3.842-4.005 12.723 12.723 0 0 1 6.315-1.53 13.393 13.393 0 0 1 4.265.684 9.624 9.624 0 0 1 3.58 2.116 10.225 10.225 0 0 1 2.442 3.678 14.075 14.075 0 0 1 .911 5.307v19.857h-5.859v-18.23a10.301 10.301 0 0 0-.586-3.678 6.738 6.738 0 0 0-1.562-2.474 5.886 5.886 0 0 0-2.248-1.368 8.288 8.288 0 0 0-2.636-.423 9.566 9.566 0 0 0-3.386.586 7.055 7.055 0 0 0-2.734 1.856 8.735 8.735 0 0 0-1.823 3.223 14.65 14.65 0 0 0-.651 4.622v15.886h-5.86zm52.086-15.236h6.25v32.945a16.102 16.102 0 0 1-1.368 7.129 12.3 12.3 0 0 1-3.418 4.362 12.174 12.174 0 0 1-4.394 2.214 16.963 16.963 0 0 1-4.297.618 13.37 13.37 0 0 1-8.236-2.506 11.553 11.553 0 0 1-4.265-7.586l6.12-1.367a7.34 7.34 0 0 0 2.149 4.102 6 6 0 0 0 4.232 1.498 6.772 6.772 0 0 0 3.743-.912 6.382 6.382 0 0 0 2.182-2.376 9.968 9.968 0 0 0 1.04-3.353 28.198 28.198 0 0 0 .262-3.842zM328.92 51.7a10.264 10.264 0 0 0 4.331 3.744 12.937 12.937 0 0 0 5.437 1.205 11.062 11.062 0 0 0 3.189-.489 9.69 9.69 0 0 0 2.963-1.465 8 8 0 0 0 2.18-2.408 6.41 6.41 0 0 0 .847-3.321 4.98 4.98 0 0 0-1.692-4.069 14.656 14.656 0 0 0-4.2-2.344q-2.507-.943-5.47-1.823a22.215 22.215 0 0 1-5.468-2.441 13.362 13.362 0 0 1-4.2-4.2 13.065 13.065 0 0 1-1.692-7.13 12.285 12.285 0 0 1 3.646-8.463 15.263 15.263 0 0 1 4.85-3.158 18.049 18.049 0 0 1 7.13-1.27 24.896 24.896 0 0 1 7.226 1.042 12.424 12.424 0 0 1 6.056 4.232l-5.08 4.623a8.432 8.432 0 0 0-3.32-2.93 10.509 10.509 0 0 0-4.883-1.107 11.836 11.836 0 0 0-4.33.684 7.762 7.762 0 0 0-2.766 1.758 6.194 6.194 0 0 0-1.465 2.311 7.057 7.057 0 0 0-.423 2.278 5.809 5.809 0 0 0 1.693 4.493 13.142 13.142 0 0 0 4.199 2.54 50.486 50.486 0 0 0 5.468 1.757 23.462 23.462 0 0 1 5.47 2.181 12.74 12.74 0 0 1 4.2 3.777 11.113 11.113 0 0 1 1.692 6.543 13.768 13.768 0 0 1-1.27 5.99 13.266 13.266 0 0 1-3.418 4.492 15.156 15.156 0 0 1-5.078 2.8 19.646 19.646 0 0 1-6.25.976 22.732 22.732 0 0 1-8.4-1.562 13.805 13.805 0 0 1-6.315-4.818zm34.834-36.46h28.973v5.86h-22.723v14.454h21.16v5.86h-21.16v19.922h-6.25z"/></svg>